%TF.GenerationSoftware,KiCad,Pcbnew,10.0.3*%
%TF.CreationDate,2026-10-10T15:27:19-04:00*%
%TF.ProjectId,Starbie,53746172-6269-4652-9e6b-696361645f70,rev?*%
%TF.SameCoordinates,Original*%
%TF.FileFunction,Copper,L1,Top*%
%TF.FilePolarity,Positive*%
%FSLAX46Y46*%
G04 Gerber Fmt 4.6, Leading zero omitted, Abs format (unit mm)*
G04 Created by KiCad (PCBNEW 10.0.3) date 2026-10-10 15:27:19*
%MOMM*%
%LPD*%
G01*
G04 APERTURE LIST*
G04 Aperture macros list*
%AMRoundRect*
0 Rectangle with rounded corners*
0 $1 Rounding radius*
0 $2 $3 $4 $5 $6 $7 $8 $9 X,Y pos of 4 corners*
0 Add a 4 corners polygon primitive as box body*
4,1,4,$2,$3,$4,$5,$6,$7,$8,$9,$2,$3,0*
0 Add four circle primitives for the rounded corners*
1,1,$1+$1,$2,$3*
1,1,$1+$1,$4,$5*
1,1,$1+$1,$6,$7*
1,1,$1+$1,$8,$9*
0 Add four rect primitives between the rounded corners*
20,1,$1+$1,$2,$3,$4,$5,0*
20,1,$1+$1,$4,$5,$6,$7,0*
20,1,$1+$1,$6,$7,$8,$9,0*
20,1,$1+$1,$8,$9,$2,$3,0*%
G04 Aperture macros list end*
%TA.AperFunction,ComponentPad*%
%ADD10C,2.340000*%
%TD*%
%TA.AperFunction,ComponentPad*%
%ADD11C,1.400000*%
%TD*%
%TA.AperFunction,ComponentPad*%
%ADD12R,1.500000X1.500000*%
%TD*%
%TA.AperFunction,ComponentPad*%
%ADD13C,1.500000*%
%TD*%
%TA.AperFunction,ComponentPad*%
%ADD14R,1.700000X1.700000*%
%TD*%
%TA.AperFunction,ComponentPad*%
%ADD15C,1.700000*%
%TD*%
%TA.AperFunction,ComponentPad*%
%ADD16C,2.200000*%
%TD*%
%TA.AperFunction,ComponentPad*%
%ADD17O,1.700000X1.700000*%
%TD*%
%TA.AperFunction,ComponentPad*%
%ADD18R,2.000000X2.000000*%
%TD*%
%TA.AperFunction,ComponentPad*%
%ADD19C,2.000000*%
%TD*%
%TA.AperFunction,SMDPad,CuDef*%
%ADD20RoundRect,0.152400X1.063600X0.609600X-1.063600X0.609600X-1.063600X-0.609600X1.063600X-0.609600X0*%
%TD*%
%TA.AperFunction,ComponentPad*%
%ADD21C,1.524000*%
%TD*%
%TA.AperFunction,SMDPad,CuDef*%
%ADD22RoundRect,0.152400X-1.063600X-0.609600X1.063600X-0.609600X1.063600X0.609600X-1.063600X0.609600X0*%
%TD*%
%TA.AperFunction,Conductor*%
%ADD23C,0.200000*%
%TD*%
G04 APERTURE END LIST*
D10*
%TO.P,RV2,1,1_1*%
%TO.N,/GPIO 20*%
X160000000Y-92500000D03*
%TO.P,RV2,2,2_2*%
%TO.N,Net-(BZ1-+)*%
X170000000Y-90000000D03*
%TO.P,RV2,3,3_3*%
%TO.N,GND*%
X160000000Y-87500000D03*
%TD*%
D11*
%TO.P,R1,1*%
%TO.N,+3.3V*%
X128810000Y-58000000D03*
%TO.P,R1,2*%
%TO.N,/DHT11 DATA*%
X121190000Y-58000000D03*
%TD*%
D12*
%TO.P,U2,1,VDD_1*%
%TO.N,+3.3V*%
X127040000Y-63000000D03*
D13*
%TO.P,U2,2,DATA_2*%
%TO.N,/DHT11 DATA*%
X124500000Y-63000000D03*
%TO.P,U2,3,NC_3*%
%TO.N,unconnected-(U2-NC-Pad3)*%
X121960000Y-63000000D03*
%TO.P,U2,4,GND_4*%
%TO.N,GND*%
X119420000Y-63000000D03*
%TD*%
D14*
%TO.P,J2,1,Pin_1_1*%
%TO.N,+3.3V*%
X145000000Y-82460000D03*
D15*
%TO.P,J2,2,Pin_2_2*%
%TO.N,GND*%
X145000000Y-85000000D03*
%TO.P,J2,3,Pin_3_3*%
%TO.N,/SCL*%
X145000000Y-87540000D03*
%TO.P,J2,4,Pin_4_4*%
%TO.N,/SDA*%
X145000000Y-90080000D03*
%TO.P,J2,5,Pin_5_5*%
%TO.N,unconnected-(J2-Pin_5-Pad5)*%
X145000000Y-92620000D03*
%TO.P,J2,6,Pin_6_6*%
%TO.N,unconnected-(J2-Pin_6-Pad6)*%
X145000000Y-95160000D03*
%TO.P,J2,7,Pin_7_7*%
%TO.N,unconnected-(J2-Pin_7-Pad7)*%
X145000000Y-97700000D03*
%TO.P,J2,8,Pin_8_8*%
%TO.N,unconnected-(J2-Pin_8-Pad8)*%
X145000000Y-100240000D03*
%TD*%
D16*
%TO.P,SW1,1,1_1*%
%TO.N,/GPIO 2*%
X112460000Y-114920000D03*
%TO.P,SW1,2,2_2*%
%TO.N,GND*%
X106110000Y-117460000D03*
%TD*%
D14*
%TO.P,J1,1,Pin_1_1*%
%TO.N,GND*%
X122810000Y-93749000D03*
D17*
%TO.P,J1,2,Pin_2_2*%
%TO.N,+3.3V*%
X120270000Y-93749000D03*
%TO.P,J1,3,Pin_3_3*%
%TO.N,/SCL*%
X117730000Y-93749000D03*
%TO.P,J1,4,Pin_4_4*%
%TO.N,/SDA*%
X115190000Y-93749000D03*
%TD*%
D16*
%TO.P,SW2,1,1_1*%
%TO.N,/GPIO 3*%
X135000000Y-114920000D03*
%TO.P,SW2,2,2_2*%
%TO.N,GND*%
X128650000Y-117460000D03*
%TD*%
D18*
%TO.P,BZ1,1,+_1*%
%TO.N,Net-(BZ1-+)*%
X175000000Y-75000000D03*
D19*
%TO.P,BZ1,2,-_2*%
%TO.N,GND*%
X182600000Y-75000000D03*
%TD*%
D20*
%TO.P,U1,1,D0_1*%
%TO.N,unconnected-(U1-D0-Pad1)*%
X146545000Y-53380000D03*
D21*
%TO.N,unconnected-(U1-D0-Pad1)_1*%
X147380000Y-53380000D03*
D20*
%TO.P,U1,2,D1_2*%
%TO.N,/DHT11 DATA*%
X146545000Y-55920000D03*
D21*
X147380000Y-55920000D03*
D20*
%TO.P,U1,3,D2_3*%
%TO.N,/GPIO 2*%
X146545000Y-58460000D03*
D21*
X147380000Y-58460000D03*
D20*
%TO.P,U1,4,D3_4*%
%TO.N,/GPIO 3*%
X146545000Y-61000000D03*
D21*
X147380000Y-61000000D03*
D20*
%TO.P,U1,5,D4_5*%
%TO.N,/SCL*%
X146545000Y-63540000D03*
D21*
X147380000Y-63540000D03*
D20*
%TO.P,U1,6,D5_6*%
%TO.N,/SDA*%
X146545000Y-66080000D03*
D21*
X147380000Y-66080000D03*
D20*
%TO.P,U1,7,D6_7*%
%TO.N,unconnected-(U1-D6-Pad7)*%
X146545000Y-68620000D03*
D21*
%TO.N,unconnected-(U1-D6-Pad7)_1*%
X147380000Y-68620000D03*
%TO.P,U1,8,D7_8*%
%TO.N,/GPIO 20*%
X162620000Y-68620000D03*
D22*
X163455000Y-68620000D03*
D21*
%TO.P,U1,9,D8_9*%
%TO.N,unconnected-(U1-D8-Pad9)*%
X162620000Y-66080000D03*
D22*
%TO.N,unconnected-(U1-D8-Pad9)_1*%
X163455000Y-66080000D03*
D21*
%TO.P,U1,10,D9/BOOT_10*%
%TO.N,unconnected-(U1-D9{slash}BOOT-Pad10)_1*%
X162620000Y-63540000D03*
D22*
%TO.N,unconnected-(U1-D9{slash}BOOT-Pad10)*%
X163455000Y-63540000D03*
D21*
%TO.P,U1,11,D10_11*%
%TO.N,unconnected-(U1-D10-Pad11)*%
X162620000Y-61000000D03*
D22*
%TO.N,unconnected-(U1-D10-Pad11)_1*%
X163455000Y-61000000D03*
D21*
%TO.P,U1,12,3V3_OUT_12*%
%TO.N,+3.3V*%
X162620000Y-58460000D03*
D22*
X163455000Y-58460000D03*
D21*
%TO.P,U1,13,GND_13*%
%TO.N,GND*%
X162620000Y-55920000D03*
D22*
X163455000Y-55920000D03*
D21*
%TO.P,U1,14,VBUS_14*%
%TO.N,+5V*%
X162620000Y-53380000D03*
D22*
X163455000Y-53380000D03*
%TD*%
%TO.N,/GPIO 20*%
D23*
X165000000Y-100000000D02*
X160000000Y-95000000D01*
X175000000Y-100000000D02*
X165000000Y-100000000D01*
X175000000Y-85000000D02*
X175000000Y-100000000D01*
X162620000Y-68620000D02*
X162620000Y-72620000D01*
X162620000Y-72620000D02*
X175000000Y-85000000D01*
X160000000Y-95000000D02*
X160000000Y-92500000D01*
%TO.N,+3.3V*%
X127040000Y-59770000D02*
X127040000Y-63000000D01*
X128810000Y-58000000D02*
X127040000Y-59770000D01*
%TO.N,/DHT11 DATA*%
X124500000Y-63000000D02*
X124500000Y-61310000D01*
X129600000Y-65400000D02*
X126900000Y-65400000D01*
X139080000Y-55920000D02*
X129600000Y-65400000D01*
X124500000Y-61310000D02*
X121190000Y-58000000D01*
X126900000Y-65400000D02*
X124500000Y-63000000D01*
X147380000Y-55920000D02*
X139080000Y-55920000D01*
%TO.N,/SCL*%
X142460000Y-66625000D02*
X145545000Y-63540000D01*
X149600000Y-80000000D02*
X145000000Y-80000000D01*
X145000000Y-87540000D02*
X149600000Y-82940000D01*
X145000000Y-80000000D02*
X140000000Y-75000000D01*
X145545000Y-63540000D02*
X147380000Y-63540000D01*
X149600000Y-82940000D02*
X149600000Y-80000000D01*
X140000000Y-75000000D02*
X142460000Y-72540000D01*
X142460000Y-72540000D02*
X142460000Y-66625000D01*
%TO.N,/SDA*%
X149920000Y-90080000D02*
X145000000Y-90080000D01*
X147380000Y-66080000D02*
X148380000Y-66080000D01*
X148380000Y-66080000D02*
X155000000Y-72700000D01*
X155000000Y-85000000D02*
X149920000Y-90080000D01*
X155000000Y-72700000D02*
X155000000Y-85000000D01*
%TO.N,/GPIO 2*%
X125000000Y-80000000D02*
X100000000Y-80000000D01*
X147380000Y-58460000D02*
X145302370Y-58460000D01*
X145302370Y-58460000D02*
X125000000Y-78762370D01*
X100000000Y-80000000D02*
X100000000Y-95000000D01*
X112460000Y-107460000D02*
X112460000Y-114920000D01*
X125000000Y-78762370D02*
X125000000Y-80000000D01*
X100000000Y-95000000D02*
X112460000Y-107460000D01*
%TO.N,/GPIO 3*%
X146545000Y-61000000D02*
X147380000Y-61000000D01*
X135000000Y-72545000D02*
X146545000Y-61000000D01*
X135000000Y-114920000D02*
X135000000Y-72545000D01*
%TD*%
%TA.AperFunction,Conductor*%
%TO.N,GND*%
G36*
X184942848Y-50299765D02*
G01*
X184988700Y-50352484D01*
X185000000Y-50404203D01*
X185000000Y-99948638D01*
X184980315Y-100015677D01*
X184963681Y-100036319D01*
X155036319Y-129963681D01*
X154974996Y-129997166D01*
X154948638Y-130000000D01*
X110044894Y-130000000D01*
X109977855Y-129980315D01*
X109965511Y-129971259D01*
X100700599Y-122250499D01*
X97896067Y-119913389D01*
X103739500Y-119913389D01*
X103739500Y-120086611D01*
X103766598Y-120257701D01*
X103820127Y-120422445D01*
X103898768Y-120576788D01*
X104000586Y-120716928D01*
X104123072Y-120839414D01*
X104263212Y-120941232D01*
X104417555Y-121019873D01*
X104582299Y-121073402D01*
X104753389Y-121100500D01*
X104753390Y-121100500D01*
X104926610Y-121100500D01*
X104926611Y-121100500D01*
X105097701Y-121073402D01*
X105262445Y-121019873D01*
X105416788Y-120941232D01*
X105556928Y-120839414D01*
X105679414Y-120716928D01*
X105781232Y-120576788D01*
X105859873Y-120422445D01*
X105913402Y-120257701D01*
X105940500Y-120086611D01*
X105940500Y-119913389D01*
X105930854Y-119852486D01*
X107669500Y-119852486D01*
X107669500Y-120147513D01*
X107701571Y-120391113D01*
X107708007Y-120439993D01*
X107782212Y-120716930D01*
X107784361Y-120724951D01*
X107784364Y-120724961D01*
X107897254Y-120997500D01*
X107897258Y-120997510D01*
X108044761Y-121252993D01*
X108224352Y-121487040D01*
X108224358Y-121487047D01*
X108432952Y-121695641D01*
X108432959Y-121695647D01*
X108667006Y-121875238D01*
X108922489Y-122022741D01*
X108922490Y-122022741D01*
X108922493Y-122022743D01*
X109195048Y-122135639D01*
X109480007Y-122211993D01*
X109772494Y-122250500D01*
X109772501Y-122250500D01*
X110067499Y-122250500D01*
X110067506Y-122250500D01*
X110359993Y-122211993D01*
X110644952Y-122135639D01*
X110917507Y-122022743D01*
X111172994Y-121875238D01*
X111407042Y-121695646D01*
X111615646Y-121487042D01*
X111795238Y-121252994D01*
X111942743Y-120997507D01*
X112055639Y-120724952D01*
X112131993Y-120439993D01*
X112170500Y-120147506D01*
X112170500Y-119913389D01*
X113899500Y-119913389D01*
X113899500Y-120086611D01*
X113926598Y-120257701D01*
X113980127Y-120422445D01*
X114058768Y-120576788D01*
X114160586Y-120716928D01*
X114283072Y-120839414D01*
X114423212Y-120941232D01*
X114577555Y-121019873D01*
X114742299Y-121073402D01*
X114913389Y-121100500D01*
X114913390Y-121100500D01*
X115086610Y-121100500D01*
X115086611Y-121100500D01*
X115257701Y-121073402D01*
X115422445Y-121019873D01*
X115576788Y-120941232D01*
X115716928Y-120839414D01*
X115839414Y-120716928D01*
X115941232Y-120576788D01*
X116019873Y-120422445D01*
X116073402Y-120257701D01*
X116100500Y-120086611D01*
X116100500Y-119913389D01*
X126279500Y-119913389D01*
X126279500Y-120086611D01*
X126306598Y-120257701D01*
X126360127Y-120422445D01*
X126438768Y-120576788D01*
X126540586Y-120716928D01*
X126663072Y-120839414D01*
X126803212Y-120941232D01*
X126957555Y-121019873D01*
X127122299Y-121073402D01*
X127293389Y-121100500D01*
X127293390Y-121100500D01*
X127466610Y-121100500D01*
X127466611Y-121100500D01*
X127637701Y-121073402D01*
X127802445Y-121019873D01*
X127956788Y-120941232D01*
X128096928Y-120839414D01*
X128219414Y-120716928D01*
X128321232Y-120576788D01*
X128399873Y-120422445D01*
X128453402Y-120257701D01*
X128480500Y-120086611D01*
X128480500Y-119913389D01*
X128470854Y-119852486D01*
X130209500Y-119852486D01*
X130209500Y-120147513D01*
X130241571Y-120391113D01*
X130248007Y-120439993D01*
X130322212Y-120716930D01*
X130324361Y-120724951D01*
X130324364Y-120724961D01*
X130437254Y-120997500D01*
X130437258Y-120997510D01*
X130584761Y-121252993D01*
X130764352Y-121487040D01*
X130764358Y-121487047D01*
X130972952Y-121695641D01*
X130972959Y-121695647D01*
X131207006Y-121875238D01*
X131462489Y-122022741D01*
X131462490Y-122022741D01*
X131462493Y-122022743D01*
X131735048Y-122135639D01*
X132020007Y-122211993D01*
X132312494Y-122250500D01*
X132312501Y-122250500D01*
X132607499Y-122250500D01*
X132607506Y-122250500D01*
X132899993Y-122211993D01*
X133184952Y-122135639D01*
X133457507Y-122022743D01*
X133712994Y-121875238D01*
X133947042Y-121695646D01*
X134155646Y-121487042D01*
X134335238Y-121252994D01*
X134482743Y-120997507D01*
X134595639Y-120724952D01*
X134671993Y-120439993D01*
X134710500Y-120147506D01*
X134710500Y-119913389D01*
X136439500Y-119913389D01*
X136439500Y-120086611D01*
X136466598Y-120257701D01*
X136520127Y-120422445D01*
X136598768Y-120576788D01*
X136700586Y-120716928D01*
X136823072Y-120839414D01*
X136963212Y-120941232D01*
X137117555Y-121019873D01*
X137282299Y-121073402D01*
X137453389Y-121100500D01*
X137453390Y-121100500D01*
X137626610Y-121100500D01*
X137626611Y-121100500D01*
X137797701Y-121073402D01*
X137962445Y-121019873D01*
X138116788Y-120941232D01*
X138256928Y-120839414D01*
X138379414Y-120716928D01*
X138481232Y-120576788D01*
X138559873Y-120422445D01*
X138613402Y-120257701D01*
X138640500Y-120086611D01*
X138640500Y-119913389D01*
X138613402Y-119742299D01*
X138559873Y-119577555D01*
X138481232Y-119423212D01*
X138379414Y-119283072D01*
X138256928Y-119160586D01*
X138116788Y-119058768D01*
X137962445Y-118980127D01*
X137797701Y-118926598D01*
X137797699Y-118926597D01*
X137797698Y-118926597D01*
X137666271Y-118905781D01*
X137626611Y-118899500D01*
X137453389Y-118899500D01*
X137413728Y-118905781D01*
X137282302Y-118926597D01*
X137117552Y-118980128D01*
X136963211Y-119058768D01*
X136907115Y-119099525D01*
X136823072Y-119160586D01*
X136823070Y-119160588D01*
X136823069Y-119160588D01*
X136700588Y-119283069D01*
X136700588Y-119283070D01*
X136700586Y-119283072D01*
X136656859Y-119343256D01*
X136598768Y-119423211D01*
X136520128Y-119577552D01*
X136466597Y-119742302D01*
X136443804Y-119886212D01*
X136439500Y-119913389D01*
X134710500Y-119913389D01*
X134710500Y-119852494D01*
X134671993Y-119560007D01*
X134595639Y-119275048D01*
X134482743Y-119002493D01*
X134432604Y-118915650D01*
X134335238Y-118747006D01*
X134155647Y-118512959D01*
X134155641Y-118512952D01*
X133947047Y-118304358D01*
X133947040Y-118304352D01*
X133712993Y-118124761D01*
X133457510Y-117977258D01*
X133457500Y-117977254D01*
X133184961Y-117864364D01*
X133184954Y-117864362D01*
X133184952Y-117864361D01*
X132899993Y-117788007D01*
X132851113Y-117781571D01*
X132607513Y-117749500D01*
X132607506Y-117749500D01*
X132312494Y-117749500D01*
X132312486Y-117749500D01*
X132034085Y-117786153D01*
X132020007Y-117788007D01*
X131845861Y-117834669D01*
X131735048Y-117864361D01*
X131735038Y-117864364D01*
X131462499Y-117977254D01*
X131462489Y-117977258D01*
X131207006Y-118124761D01*
X130972959Y-118304352D01*
X130972952Y-118304358D01*
X130764358Y-118512952D01*
X130764352Y-118512959D01*
X130584761Y-118747006D01*
X130437258Y-119002489D01*
X130437254Y-119002499D01*
X130324364Y-119275038D01*
X130324361Y-119275048D01*
X130248008Y-119560004D01*
X130248006Y-119560015D01*
X130209500Y-119852486D01*
X128470854Y-119852486D01*
X128453402Y-119742299D01*
X128399873Y-119577555D01*
X128321232Y-119423212D01*
X128219414Y-119283072D01*
X128166882Y-119230540D01*
X128133397Y-119169217D01*
X128138381Y-119099525D01*
X128180253Y-119043592D01*
X128245717Y-119019175D01*
X128273961Y-119020386D01*
X128524072Y-119060000D01*
X128775928Y-119060000D01*
X129024669Y-119020602D01*
X129264184Y-118942780D01*
X129488575Y-118828446D01*
X129488581Y-118828442D01*
X129590697Y-118754250D01*
X129590698Y-118754250D01*
X128974025Y-118137578D01*
X129005258Y-118124641D01*
X129128097Y-118042563D01*
X129232563Y-117938097D01*
X129314641Y-117815258D01*
X129327577Y-117784025D01*
X129944250Y-118400698D01*
X129944250Y-118400697D01*
X130018442Y-118298581D01*
X130018446Y-118298575D01*
X130132780Y-118074184D01*
X130210602Y-117834669D01*
X130250000Y-117585928D01*
X130250000Y-117334071D01*
X130210602Y-117085330D01*
X130132780Y-116845815D01*
X130018442Y-116621416D01*
X129944250Y-116519301D01*
X129944250Y-116519300D01*
X129327577Y-117135973D01*
X129314641Y-117104742D01*
X129232563Y-116981903D01*
X129128097Y-116877437D01*
X129005258Y-116795359D01*
X128974024Y-116782421D01*
X129590698Y-116165748D01*
X129488583Y-116091557D01*
X129264184Y-115977219D01*
X129024669Y-115899397D01*
X128775928Y-115860000D01*
X128524072Y-115860000D01*
X128275330Y-115899397D01*
X128035815Y-115977219D01*
X127811413Y-116091559D01*
X127709301Y-116165747D01*
X127709300Y-116165748D01*
X128325974Y-116782421D01*
X128294742Y-116795359D01*
X128171903Y-116877437D01*
X128067437Y-116981903D01*
X127985359Y-117104742D01*
X127972421Y-117135974D01*
X127355748Y-116519300D01*
X127355747Y-116519301D01*
X127281559Y-116621413D01*
X127167219Y-116845815D01*
X127089397Y-117085330D01*
X127050000Y-117334071D01*
X127050000Y-117585928D01*
X127089397Y-117834669D01*
X127167219Y-118074184D01*
X127281557Y-118298583D01*
X127355748Y-118400697D01*
X127355748Y-118400698D01*
X127972421Y-117784024D01*
X127985359Y-117815258D01*
X128067437Y-117938097D01*
X128171903Y-118042563D01*
X128294742Y-118124641D01*
X128325974Y-118137577D01*
X127709300Y-118754250D01*
X127711598Y-118783449D01*
X127697233Y-118851827D01*
X127648181Y-118901583D01*
X127580016Y-118916921D01*
X127568583Y-118915650D01*
X127466611Y-118899500D01*
X127293389Y-118899500D01*
X127253728Y-118905781D01*
X127122302Y-118926597D01*
X126957552Y-118980128D01*
X126803211Y-119058768D01*
X126747115Y-119099525D01*
X126663072Y-119160586D01*
X126663070Y-119160588D01*
X126663069Y-119160588D01*
X126540588Y-119283069D01*
X126540588Y-119283070D01*
X126540586Y-119283072D01*
X126496859Y-119343256D01*
X126438768Y-119423211D01*
X126360128Y-119577552D01*
X126306597Y-119742302D01*
X126283804Y-119886212D01*
X126279500Y-119913389D01*
X116100500Y-119913389D01*
X116073402Y-119742299D01*
X116019873Y-119577555D01*
X115941232Y-119423212D01*
X115839414Y-119283072D01*
X115716928Y-119160586D01*
X115576788Y-119058768D01*
X115422445Y-118980127D01*
X115257701Y-118926598D01*
X115257699Y-118926597D01*
X115257698Y-118926597D01*
X115126271Y-118905781D01*
X115086611Y-118899500D01*
X114913389Y-118899500D01*
X114873728Y-118905781D01*
X114742302Y-118926597D01*
X114577552Y-118980128D01*
X114423211Y-119058768D01*
X114367115Y-119099525D01*
X114283072Y-119160586D01*
X114283070Y-119160588D01*
X114283069Y-119160588D01*
X114160588Y-119283069D01*
X114160588Y-119283070D01*
X114160586Y-119283072D01*
X114116859Y-119343256D01*
X114058768Y-119423211D01*
X113980128Y-119577552D01*
X113926597Y-119742302D01*
X113903804Y-119886212D01*
X113899500Y-119913389D01*
X112170500Y-119913389D01*
X112170500Y-119852494D01*
X112131993Y-119560007D01*
X112055639Y-119275048D01*
X111942743Y-119002493D01*
X111892604Y-118915650D01*
X111795238Y-118747006D01*
X111615647Y-118512959D01*
X111615641Y-118512952D01*
X111407047Y-118304358D01*
X111407040Y-118304352D01*
X111172993Y-118124761D01*
X110917510Y-117977258D01*
X110917500Y-117977254D01*
X110644961Y-117864364D01*
X110644954Y-117864362D01*
X110644952Y-117864361D01*
X110359993Y-117788007D01*
X110311113Y-117781571D01*
X110067513Y-117749500D01*
X110067506Y-117749500D01*
X109772494Y-117749500D01*
X109772486Y-117749500D01*
X109494085Y-117786153D01*
X109480007Y-117788007D01*
X109305861Y-117834669D01*
X109195048Y-117864361D01*
X109195038Y-117864364D01*
X108922499Y-117977254D01*
X108922489Y-117977258D01*
X108667006Y-118124761D01*
X108432959Y-118304352D01*
X108432952Y-118304358D01*
X108224358Y-118512952D01*
X108224352Y-118512959D01*
X108044761Y-118747006D01*
X107897258Y-119002489D01*
X107897254Y-119002499D01*
X107784364Y-119275038D01*
X107784361Y-119275048D01*
X107708008Y-119560004D01*
X107708006Y-119560015D01*
X107669500Y-119852486D01*
X105930854Y-119852486D01*
X105913402Y-119742299D01*
X105859873Y-119577555D01*
X105781232Y-119423212D01*
X105679414Y-119283072D01*
X105626882Y-119230540D01*
X105593397Y-119169217D01*
X105598381Y-119099525D01*
X105640253Y-119043592D01*
X105705717Y-119019175D01*
X105733961Y-119020386D01*
X105984072Y-119060000D01*
X106235928Y-119060000D01*
X106484669Y-119020602D01*
X106724184Y-118942780D01*
X106948575Y-118828446D01*
X106948581Y-118828442D01*
X107050697Y-118754250D01*
X107050698Y-118754250D01*
X106434025Y-118137578D01*
X106465258Y-118124641D01*
X106588097Y-118042563D01*
X106692563Y-117938097D01*
X106774641Y-117815258D01*
X106787578Y-117784025D01*
X107404250Y-118400698D01*
X107404250Y-118400697D01*
X107478442Y-118298581D01*
X107478446Y-118298575D01*
X107592780Y-118074184D01*
X107670602Y-117834669D01*
X107710000Y-117585928D01*
X107710000Y-117334071D01*
X107670602Y-117085330D01*
X107592780Y-116845815D01*
X107478442Y-116621416D01*
X107404250Y-116519301D01*
X107404250Y-116519300D01*
X106787577Y-117135973D01*
X106774641Y-117104742D01*
X106692563Y-116981903D01*
X106588097Y-116877437D01*
X106465258Y-116795359D01*
X106434024Y-116782421D01*
X107050698Y-116165748D01*
X106948583Y-116091557D01*
X106724184Y-115977219D01*
X106484669Y-115899397D01*
X106235928Y-115860000D01*
X105984072Y-115860000D01*
X105735330Y-115899397D01*
X105495815Y-115977219D01*
X105271413Y-116091559D01*
X105169301Y-116165747D01*
X105169300Y-116165748D01*
X105785974Y-116782421D01*
X105754742Y-116795359D01*
X105631903Y-116877437D01*
X105527437Y-116981903D01*
X105445359Y-117104742D01*
X105432421Y-117135974D01*
X104815748Y-116519300D01*
X104815747Y-116519301D01*
X104741559Y-116621413D01*
X104627219Y-116845815D01*
X104549397Y-117085330D01*
X104510000Y-117334071D01*
X104510000Y-117585928D01*
X104549397Y-117834669D01*
X104627219Y-118074184D01*
X104741557Y-118298583D01*
X104815748Y-118400697D01*
X104815748Y-118400698D01*
X105432421Y-117784024D01*
X105445359Y-117815258D01*
X105527437Y-117938097D01*
X105631903Y-118042563D01*
X105754742Y-118124641D01*
X105785974Y-118137577D01*
X105169300Y-118754250D01*
X105171598Y-118783449D01*
X105157233Y-118851827D01*
X105108181Y-118901583D01*
X105040016Y-118916921D01*
X105028583Y-118915650D01*
X104926611Y-118899500D01*
X104753389Y-118899500D01*
X104713728Y-118905781D01*
X104582302Y-118926597D01*
X104417552Y-118980128D01*
X104263211Y-119058768D01*
X104207115Y-119099525D01*
X104123072Y-119160586D01*
X104123070Y-119160588D01*
X104123069Y-119160588D01*
X104000588Y-119283069D01*
X104000588Y-119283070D01*
X104000586Y-119283072D01*
X103956859Y-119343256D01*
X103898768Y-119423211D01*
X103820128Y-119577552D01*
X103766597Y-119742302D01*
X103743804Y-119886212D01*
X103739500Y-119913389D01*
X97896067Y-119913389D01*
X94800885Y-117334071D01*
X93569921Y-116308267D01*
X83312116Y-107760097D01*
X80043742Y-105036451D01*
X80004844Y-104978414D01*
X79999140Y-104943069D01*
X79850257Y-95079054D01*
X99399498Y-95079054D01*
X99404842Y-95098999D01*
X99440423Y-95231785D01*
X99455870Y-95258540D01*
X99455871Y-95258542D01*
X99455872Y-95258542D01*
X99519479Y-95368714D01*
X99519481Y-95368717D01*
X99638349Y-95487585D01*
X99638355Y-95487590D01*
X111823181Y-107672416D01*
X111856666Y-107733739D01*
X111859500Y-107760097D01*
X111859500Y-113353699D01*
X111839815Y-113420738D01*
X111791795Y-113464184D01*
X111621151Y-113551132D01*
X111417350Y-113699201D01*
X111417345Y-113699205D01*
X111239205Y-113877345D01*
X111239201Y-113877350D01*
X111091132Y-114081151D01*
X110976760Y-114305616D01*
X110898910Y-114545214D01*
X110859500Y-114794038D01*
X110859500Y-115045961D01*
X110898910Y-115294785D01*
X110976760Y-115534383D01*
X111091132Y-115758848D01*
X111239201Y-115962649D01*
X111239205Y-115962654D01*
X111417345Y-116140794D01*
X111417350Y-116140798D01*
X111595117Y-116269952D01*
X111621155Y-116288870D01*
X111764184Y-116361747D01*
X111845616Y-116403239D01*
X111845618Y-116403239D01*
X111845621Y-116403241D01*
X112085215Y-116481090D01*
X112334038Y-116520500D01*
X112334039Y-116520500D01*
X112585961Y-116520500D01*
X112585962Y-116520500D01*
X112834785Y-116481090D01*
X113074379Y-116403241D01*
X113298845Y-116288870D01*
X113502656Y-116140793D01*
X113680793Y-115962656D01*
X113828870Y-115758845D01*
X113943241Y-115534379D01*
X114021090Y-115294785D01*
X114060500Y-115045962D01*
X114060500Y-114794038D01*
X114021090Y-114545215D01*
X113943241Y-114305621D01*
X113943239Y-114305618D01*
X113943239Y-114305616D01*
X113901747Y-114224184D01*
X113828870Y-114081155D01*
X113750692Y-113973552D01*
X113680798Y-113877350D01*
X113680794Y-113877345D01*
X113502654Y-113699205D01*
X113502649Y-113699201D01*
X113298848Y-113551132D01*
X113298847Y-113551131D01*
X113298845Y-113551130D01*
X113229186Y-113515637D01*
X113128205Y-113464184D01*
X113077409Y-113416209D01*
X113060500Y-113353699D01*
X113060500Y-107549059D01*
X113060501Y-107549046D01*
X113060501Y-107380945D01*
X113060501Y-107380943D01*
X113019577Y-107228215D01*
X112990639Y-107178095D01*
X112940520Y-107091284D01*
X112828716Y-106979480D01*
X112828715Y-106979479D01*
X112824385Y-106975149D01*
X112824374Y-106975139D01*
X100636819Y-94787584D01*
X100603334Y-94726261D01*
X100600500Y-94699903D01*
X100600500Y-92986149D01*
X105423500Y-92986149D01*
X105423500Y-93241850D01*
X105448281Y-93430070D01*
X105456874Y-93495340D01*
X105523050Y-93742312D01*
X105523053Y-93742322D01*
X105620894Y-93978531D01*
X105620899Y-93978542D01*
X105748734Y-94199957D01*
X105748745Y-94199973D01*
X105904388Y-94402811D01*
X105904394Y-94402818D01*
X106085181Y-94583605D01*
X106085187Y-94583610D01*
X106288035Y-94739261D01*
X106288042Y-94739265D01*
X106509457Y-94867100D01*
X106509462Y-94867102D01*
X106509465Y-94867104D01*
X106745687Y-94964950D01*
X106992660Y-95031126D01*
X107246157Y-95064500D01*
X107246164Y-95064500D01*
X108401836Y-95064500D01*
X108401843Y-95064500D01*
X108655340Y-95031126D01*
X108902313Y-94964950D01*
X109138535Y-94867104D01*
X109359965Y-94739261D01*
X109562813Y-94583610D01*
X109743610Y-94402813D01*
X109899261Y-94199965D01*
X110027104Y-93978535D01*
X110124950Y-93742313D01*
X110151638Y-93642713D01*
X113839500Y-93642713D01*
X113839500Y-93855287D01*
X113844157Y-93884692D01*
X113871828Y-94059400D01*
X113872754Y-94065243D01*
X113916525Y-94199957D01*
X113938444Y-94267414D01*
X114034951Y-94456820D01*
X114159890Y-94628786D01*
X114310213Y-94779109D01*
X114482179Y-94904048D01*
X114482181Y-94904049D01*
X114482184Y-94904051D01*
X114671588Y-95000557D01*
X114873757Y-95066246D01*
X115083713Y-95099500D01*
X115083714Y-95099500D01*
X115296286Y-95099500D01*
X115296287Y-95099500D01*
X115506243Y-95066246D01*
X115708412Y-95000557D01*
X115897816Y-94904051D01*
X115980800Y-94843760D01*
X116069786Y-94779109D01*
X116069788Y-94779106D01*
X116069792Y-94779104D01*
X116220104Y-94628792D01*
X116220106Y-94628788D01*
X116220109Y-94628786D01*
X116345048Y-94456820D01*
X116345047Y-94456820D01*
X116345051Y-94456816D01*
X116349514Y-94448054D01*
X116397488Y-94397259D01*
X116465308Y-94380463D01*
X116531444Y-94402999D01*
X116570484Y-94448054D01*
X116572589Y-94452184D01*
X116574951Y-94456820D01*
X116699890Y-94628786D01*
X116850213Y-94779109D01*
X117022179Y-94904048D01*
X117022181Y-94904049D01*
X117022184Y-94904051D01*
X117211588Y-95000557D01*
X117413757Y-95066246D01*
X117623713Y-95099500D01*
X117623714Y-95099500D01*
X117836286Y-95099500D01*
X117836287Y-95099500D01*
X118046243Y-95066246D01*
X118248412Y-95000557D01*
X118437816Y-94904051D01*
X118520800Y-94843760D01*
X118609786Y-94779109D01*
X118609788Y-94779106D01*
X118609792Y-94779104D01*
X118760104Y-94628792D01*
X118760106Y-94628788D01*
X118760109Y-94628786D01*
X118885048Y-94456820D01*
X118885047Y-94456820D01*
X118885051Y-94456816D01*
X118889514Y-94448054D01*
X118937488Y-94397259D01*
X119005308Y-94380463D01*
X119071444Y-94402999D01*
X119110484Y-94448054D01*
X119112589Y-94452184D01*
X119114951Y-94456820D01*
X119239890Y-94628786D01*
X119390213Y-94779109D01*
X119562179Y-94904048D01*
X119562181Y-94904049D01*
X119562184Y-94904051D01*
X119751588Y-95000557D01*
X119953757Y-95066246D01*
X120163713Y-95099500D01*
X120163714Y-95099500D01*
X120376286Y-95099500D01*
X120376287Y-95099500D01*
X120586243Y-95066246D01*
X120788412Y-95000557D01*
X120977816Y-94904051D01*
X121064478Y-94841088D01*
X121149784Y-94779110D01*
X121149784Y-94779109D01*
X121149792Y-94779104D01*
X121263717Y-94665178D01*
X121325036Y-94631696D01*
X121394728Y-94636680D01*
X121450662Y-94678551D01*
X121467577Y-94709528D01*
X121516646Y-94841088D01*
X121516649Y-94841093D01*
X121602809Y-94956187D01*
X121602812Y-94956190D01*
X121717906Y-95042350D01*
X121717913Y-95042354D01*
X121852620Y-95092596D01*
X121852627Y-95092598D01*
X121912155Y-95098999D01*
X121912172Y-95099000D01*
X122560000Y-95099000D01*
X122560000Y-94182012D01*
X122617007Y-94214925D01*
X122744174Y-94249000D01*
X122875826Y-94249000D01*
X123002993Y-94214925D01*
X123060000Y-94182012D01*
X123060000Y-95099000D01*
X123707828Y-95099000D01*
X123707844Y-95098999D01*
X123767372Y-95092598D01*
X123767379Y-95092596D01*
X123902086Y-95042354D01*
X123902093Y-95042350D01*
X124017187Y-94956190D01*
X124017190Y-94956187D01*
X124103350Y-94841093D01*
X124103354Y-94841086D01*
X124153596Y-94706379D01*
X124153598Y-94706372D01*
X124159999Y-94646844D01*
X124160000Y-94646827D01*
X124160000Y-93999000D01*
X123243012Y-93999000D01*
X123275925Y-93941993D01*
X123310000Y-93814826D01*
X123310000Y-93683174D01*
X123275925Y-93556007D01*
X123243012Y-93499000D01*
X124160000Y-93499000D01*
X124160000Y-92986149D01*
X127775500Y-92986149D01*
X127775500Y-93241850D01*
X127800281Y-93430070D01*
X127808874Y-93495340D01*
X127875050Y-93742312D01*
X127875053Y-93742322D01*
X127972894Y-93978531D01*
X127972899Y-93978542D01*
X128100734Y-94199957D01*
X128100745Y-94199973D01*
X128256388Y-94402811D01*
X128256394Y-94402818D01*
X128437181Y-94583605D01*
X128437187Y-94583610D01*
X128640035Y-94739261D01*
X128640042Y-94739265D01*
X128861457Y-94867100D01*
X128861462Y-94867102D01*
X128861465Y-94867104D01*
X129097687Y-94964950D01*
X129344660Y-95031126D01*
X129598157Y-95064500D01*
X129598164Y-95064500D01*
X130753836Y-95064500D01*
X130753843Y-95064500D01*
X131007340Y-95031126D01*
X131254313Y-94964950D01*
X131490535Y-94867104D01*
X131711965Y-94739261D01*
X131914813Y-94583610D01*
X132095610Y-94402813D01*
X132251261Y-94199965D01*
X132379104Y-93978535D01*
X132476950Y-93742313D01*
X132543126Y-93495340D01*
X132576500Y-93241843D01*
X132576500Y-92986157D01*
X132543126Y-92732660D01*
X132476950Y-92485687D01*
X132476947Y-92485679D01*
X132476946Y-92485676D01*
X132379105Y-92249468D01*
X132379100Y-92249457D01*
X132251265Y-92028042D01*
X132251261Y-92028035D01*
X132162365Y-91912184D01*
X132095611Y-91825188D01*
X132095605Y-91825181D01*
X131914818Y-91644394D01*
X131914811Y-91644388D01*
X131711973Y-91488745D01*
X131711971Y-91488743D01*
X131711965Y-91488739D01*
X131711960Y-91488736D01*
X131711957Y-91488734D01*
X131490542Y-91360899D01*
X131490531Y-91360894D01*
X131254322Y-91263053D01*
X131254315Y-91263051D01*
X131254313Y-91263050D01*
X131007340Y-91196874D01*
X130951007Y-91189457D01*
X130753850Y-91163500D01*
X130753843Y-91163500D01*
X129598157Y-91163500D01*
X129598149Y-91163500D01*
X129372826Y-91193165D01*
X129344660Y-91196874D01*
X129097687Y-91263050D01*
X129097677Y-91263053D01*
X128861468Y-91360894D01*
X128861457Y-91360899D01*
X128640042Y-91488734D01*
X128640026Y-91488745D01*
X128437188Y-91644388D01*
X128437181Y-91644394D01*
X128256394Y-91825181D01*
X128256388Y-91825188D01*
X128100745Y-92028026D01*
X128100734Y-92028042D01*
X127972899Y-92249457D01*
X127972894Y-92249468D01*
X127875054Y-92485676D01*
X127875050Y-92485687D01*
X127867541Y-92513713D01*
X127808874Y-92732661D01*
X127775500Y-92986149D01*
X124160000Y-92986149D01*
X124160000Y-92851172D01*
X124159999Y-92851155D01*
X124153598Y-92791627D01*
X124153596Y-92791620D01*
X124103354Y-92656913D01*
X124103350Y-92656906D01*
X124017190Y-92541812D01*
X124017187Y-92541809D01*
X123902093Y-92455649D01*
X123902086Y-92455645D01*
X123767379Y-92405403D01*
X123767372Y-92405401D01*
X123707844Y-92399000D01*
X123060000Y-92399000D01*
X123060000Y-93315988D01*
X123002993Y-93283075D01*
X122875826Y-93249000D01*
X122744174Y-93249000D01*
X122617007Y-93283075D01*
X122560000Y-93315988D01*
X122560000Y-92399000D01*
X121912155Y-92399000D01*
X121852627Y-92405401D01*
X121852620Y-92405403D01*
X121717913Y-92455645D01*
X121717906Y-92455649D01*
X121602812Y-92541809D01*
X121602809Y-92541812D01*
X121516649Y-92656906D01*
X121516646Y-92656912D01*
X121467577Y-92788471D01*
X121425705Y-92844404D01*
X121360241Y-92868821D01*
X121291968Y-92853969D01*
X121263714Y-92832818D01*
X121149786Y-92718890D01*
X120977820Y-92593951D01*
X120788414Y-92497444D01*
X120788413Y-92497443D01*
X120788412Y-92497443D01*
X120586243Y-92431754D01*
X120586241Y-92431753D01*
X120586240Y-92431753D01*
X120422686Y-92405849D01*
X120376287Y-92398500D01*
X120163713Y-92398500D01*
X120117314Y-92405849D01*
X119953760Y-92431753D01*
X119751585Y-92497444D01*
X119562179Y-92593951D01*
X119390213Y-92718890D01*
X119239890Y-92869213D01*
X119114949Y-93041182D01*
X119110484Y-93049946D01*
X119062509Y-93100742D01*
X118994688Y-93117536D01*
X118928553Y-93094998D01*
X118889516Y-93049946D01*
X118885050Y-93041182D01*
X118760109Y-92869213D01*
X118609786Y-92718890D01*
X118437820Y-92593951D01*
X118248414Y-92497444D01*
X118248413Y-92497443D01*
X118248412Y-92497443D01*
X118046243Y-92431754D01*
X118046241Y-92431753D01*
X118046240Y-92431753D01*
X117882686Y-92405849D01*
X117836287Y-92398500D01*
X117623713Y-92398500D01*
X117577314Y-92405849D01*
X117413760Y-92431753D01*
X117211585Y-92497444D01*
X117022179Y-92593951D01*
X116850213Y-92718890D01*
X116699890Y-92869213D01*
X116574949Y-93041182D01*
X116570484Y-93049946D01*
X116522509Y-93100742D01*
X116454688Y-93117536D01*
X116388553Y-93094998D01*
X116349516Y-93049946D01*
X116345050Y-93041182D01*
X116220109Y-92869213D01*
X116069786Y-92718890D01*
X115897820Y-92593951D01*
X115708414Y-92497444D01*
X115708413Y-92497443D01*
X115708412Y-92497443D01*
X115506243Y-92431754D01*
X115506241Y-92431753D01*
X115506240Y-92431753D01*
X115342686Y-92405849D01*
X115296287Y-92398500D01*
X115083713Y-92398500D01*
X115037314Y-92405849D01*
X114873760Y-92431753D01*
X114671585Y-92497444D01*
X114482179Y-92593951D01*
X114310213Y-92718890D01*
X114159890Y-92869213D01*
X114034951Y-93041179D01*
X113938444Y-93230585D01*
X113872753Y-93432760D01*
X113845663Y-93603800D01*
X113839500Y-93642713D01*
X110151638Y-93642713D01*
X110191126Y-93495340D01*
X110224500Y-93241843D01*
X110224500Y-92986157D01*
X110191126Y-92732660D01*
X110124950Y-92485687D01*
X110124947Y-92485679D01*
X110124946Y-92485676D01*
X110027105Y-92249468D01*
X110027100Y-92249457D01*
X109899265Y-92028042D01*
X109899261Y-92028035D01*
X109810365Y-91912184D01*
X109743611Y-91825188D01*
X109743605Y-91825181D01*
X109562818Y-91644394D01*
X109562811Y-91644388D01*
X109359973Y-91488745D01*
X109359971Y-91488743D01*
X109359965Y-91488739D01*
X109359960Y-91488736D01*
X109359957Y-91488734D01*
X109138542Y-91360899D01*
X109138531Y-91360894D01*
X108902322Y-91263053D01*
X108902315Y-91263051D01*
X108902313Y-91263050D01*
X108655340Y-91196874D01*
X108599007Y-91189457D01*
X108401850Y-91163500D01*
X108401843Y-91163500D01*
X107246157Y-91163500D01*
X107246149Y-91163500D01*
X107020826Y-91193165D01*
X106992660Y-91196874D01*
X106745687Y-91263050D01*
X106745677Y-91263053D01*
X106509468Y-91360894D01*
X106509457Y-91360899D01*
X106288042Y-91488734D01*
X106288026Y-91488745D01*
X106085188Y-91644388D01*
X106085181Y-91644394D01*
X105904394Y-91825181D01*
X105904388Y-91825188D01*
X105748745Y-92028026D01*
X105748734Y-92028042D01*
X105620899Y-92249457D01*
X105620894Y-92249468D01*
X105523054Y-92485676D01*
X105523050Y-92485687D01*
X105515541Y-92513713D01*
X105456874Y-92732661D01*
X105423500Y-92986149D01*
X100600500Y-92986149D01*
X100600500Y-80724500D01*
X100620185Y-80657461D01*
X100672989Y-80611706D01*
X100724500Y-80600500D01*
X125079055Y-80600500D01*
X125079057Y-80600500D01*
X125231784Y-80559577D01*
X125368716Y-80480520D01*
X125480520Y-80368716D01*
X125559577Y-80231784D01*
X125600500Y-80079057D01*
X125600500Y-79062467D01*
X125620185Y-78995428D01*
X125636819Y-78974786D01*
X135169141Y-69442464D01*
X144754897Y-59856707D01*
X144816218Y-59823224D01*
X144885910Y-59828208D01*
X144941843Y-59870080D01*
X144966260Y-59935544D01*
X144951408Y-60003817D01*
X144949308Y-60007511D01*
X144877435Y-60129042D01*
X144877434Y-60129045D01*
X144831413Y-60287447D01*
X144831412Y-60287453D01*
X144828500Y-60324458D01*
X144828500Y-61675541D01*
X144831412Y-61712544D01*
X144831413Y-61712546D01*
X144831413Y-61712548D01*
X144844010Y-61755908D01*
X144845128Y-61759754D01*
X144844928Y-61829624D01*
X144813732Y-61882030D01*
X134631286Y-72064478D01*
X134519481Y-72176282D01*
X134519480Y-72176284D01*
X134476179Y-72251284D01*
X134440423Y-72313215D01*
X134399499Y-72465943D01*
X134399499Y-72465945D01*
X134399499Y-72634046D01*
X134399500Y-72634059D01*
X134399500Y-113353699D01*
X134379815Y-113420738D01*
X134331795Y-113464184D01*
X134161151Y-113551132D01*
X133957350Y-113699201D01*
X133957345Y-113699205D01*
X133779205Y-113877345D01*
X133779201Y-113877350D01*
X133631132Y-114081151D01*
X133516760Y-114305616D01*
X133438910Y-114545214D01*
X133399500Y-114794038D01*
X133399500Y-115045961D01*
X133438910Y-115294785D01*
X133516760Y-115534383D01*
X133631132Y-115758848D01*
X133779201Y-115962649D01*
X133779205Y-115962654D01*
X133957345Y-116140794D01*
X133957350Y-116140798D01*
X134135117Y-116269952D01*
X134161155Y-116288870D01*
X134304184Y-116361747D01*
X134385616Y-116403239D01*
X134385618Y-116403239D01*
X134385621Y-116403241D01*
X134625215Y-116481090D01*
X134874038Y-116520500D01*
X134874039Y-116520500D01*
X135125961Y-116520500D01*
X135125962Y-116520500D01*
X135374785Y-116481090D01*
X135614379Y-116403241D01*
X135838845Y-116288870D01*
X136042656Y-116140793D01*
X136220793Y-115962656D01*
X136368870Y-115758845D01*
X136483241Y-115534379D01*
X136561090Y-115294785D01*
X136600500Y-115045962D01*
X136600500Y-114794038D01*
X136561090Y-114545215D01*
X136483241Y-114305621D01*
X136483239Y-114305618D01*
X136483239Y-114305616D01*
X136441747Y-114224184D01*
X136368870Y-114081155D01*
X136290692Y-113973552D01*
X136220798Y-113877350D01*
X136220794Y-113877345D01*
X136042654Y-113699205D01*
X136042649Y-113699201D01*
X135838848Y-113551132D01*
X135838847Y-113551131D01*
X135838845Y-113551130D01*
X135769186Y-113515637D01*
X135668205Y-113464184D01*
X135617409Y-113416209D01*
X135600500Y-113353699D01*
X135600500Y-72845096D01*
X135620185Y-72778057D01*
X135636814Y-72757420D01*
X141647819Y-66746414D01*
X141709142Y-66712930D01*
X141778834Y-66717914D01*
X141834767Y-66759786D01*
X141859184Y-66825250D01*
X141859500Y-66834096D01*
X141859500Y-72239903D01*
X141839815Y-72306942D01*
X141823181Y-72327584D01*
X139519483Y-74631281D01*
X139519481Y-74631284D01*
X139440423Y-74768214D01*
X139426781Y-74819124D01*
X139399499Y-74920943D01*
X139399499Y-74920945D01*
X139399499Y-75079054D01*
X139399498Y-75079054D01*
X139440423Y-75231785D01*
X139519481Y-75368716D01*
X139519483Y-75368718D01*
X144515139Y-80364374D01*
X144515149Y-80364385D01*
X144519479Y-80368715D01*
X144519480Y-80368716D01*
X144631284Y-80480520D01*
X144718095Y-80530639D01*
X144718097Y-80530641D01*
X144756151Y-80552611D01*
X144768215Y-80559577D01*
X144920943Y-80600501D01*
X144920946Y-80600501D01*
X145086653Y-80600501D01*
X145086669Y-80600500D01*
X148875500Y-80600500D01*
X148942539Y-80620185D01*
X148988294Y-80672989D01*
X148999500Y-80724500D01*
X148999500Y-82639902D01*
X148979815Y-82706941D01*
X148963181Y-82727583D01*
X146561681Y-85129083D01*
X146500358Y-85162568D01*
X146430666Y-85157584D01*
X146374733Y-85115712D01*
X146350316Y-85050248D01*
X146350000Y-85041402D01*
X146350000Y-84893753D01*
X146316757Y-84683872D01*
X146316757Y-84683869D01*
X146251095Y-84481782D01*
X146154624Y-84292449D01*
X146115270Y-84238282D01*
X146115269Y-84238282D01*
X145482962Y-84870590D01*
X145465925Y-84807007D01*
X145400099Y-84692993D01*
X145307007Y-84599901D01*
X145192993Y-84534075D01*
X145129409Y-84517037D01*
X145799627Y-83846818D01*
X145860950Y-83813333D01*
X145887307Y-83810499D01*
X145897872Y-83810499D01*
X145957483Y-83804091D01*
X146092331Y-83753796D01*
X146207546Y-83667546D01*
X146293796Y-83552331D01*
X146344091Y-83417483D01*
X146350500Y-83357873D01*
X146350499Y-81562128D01*
X146344091Y-81502517D01*
X146293796Y-81367669D01*
X146293795Y-81367668D01*
X146293793Y-81367664D01*
X146207547Y-81252455D01*
X146207544Y-81252452D01*
X146092335Y-81166206D01*
X146092328Y-81166202D01*
X145957482Y-81115908D01*
X145957483Y-81115908D01*
X145897883Y-81109501D01*
X145897881Y-81109500D01*
X145897873Y-81109500D01*
X145897864Y-81109500D01*
X144102129Y-81109500D01*
X144102123Y-81109501D01*
X144042516Y-81115908D01*
X143907671Y-81166202D01*
X143907664Y-81166206D01*
X143792455Y-81252452D01*
X143792452Y-81252455D01*
X143706206Y-81367664D01*
X143706202Y-81367671D01*
X143655908Y-81502517D01*
X143649501Y-81562116D01*
X143649501Y-81562123D01*
X143649500Y-81562135D01*
X143649500Y-83357870D01*
X143649501Y-83357876D01*
X143655908Y-83417483D01*
X143706202Y-83552328D01*
X143706206Y-83552335D01*
X143792452Y-83667544D01*
X143792455Y-83667547D01*
X143907664Y-83753793D01*
X143907671Y-83753797D01*
X143952618Y-83770561D01*
X144042517Y-83804091D01*
X144102127Y-83810500D01*
X144112685Y-83810499D01*
X144179723Y-83830179D01*
X144200372Y-83846818D01*
X144870591Y-84517037D01*
X144807007Y-84534075D01*
X144692993Y-84599901D01*
X144599901Y-84692993D01*
X144534075Y-84807007D01*
X144517037Y-84870591D01*
X143884728Y-84238282D01*
X143884727Y-84238282D01*
X143845380Y-84292439D01*
X143748904Y-84481782D01*
X143683242Y-84683869D01*
X143683242Y-84683872D01*
X143650000Y-84893753D01*
X143650000Y-85106246D01*
X143683242Y-85316127D01*
X143683242Y-85316130D01*
X143748904Y-85518217D01*
X143845375Y-85707550D01*
X143884728Y-85761716D01*
X144517037Y-85129408D01*
X144534075Y-85192993D01*
X144599901Y-85307007D01*
X144692993Y-85400099D01*
X144807007Y-85465925D01*
X144870590Y-85482962D01*
X144238282Y-86115269D01*
X144238282Y-86115270D01*
X144292452Y-86154626D01*
X144292451Y-86154626D01*
X144301495Y-86159234D01*
X144352292Y-86207208D01*
X144369087Y-86275029D01*
X144346550Y-86341164D01*
X144301499Y-86380202D01*
X144292182Y-86384949D01*
X144120213Y-86509890D01*
X143969890Y-86660213D01*
X143844951Y-86832179D01*
X143748444Y-87021585D01*
X143682753Y-87223760D01*
X143649500Y-87433713D01*
X143649500Y-87646286D01*
X143678042Y-87826496D01*
X143682754Y-87856243D01*
X143741796Y-88037956D01*
X143748444Y-88058414D01*
X143844951Y-88247820D01*
X143969890Y-88419786D01*
X144120213Y-88570109D01*
X144292182Y-88695050D01*
X144300946Y-88699516D01*
X144351742Y-88747491D01*
X144368536Y-88815312D01*
X144345998Y-88881447D01*
X144300946Y-88920484D01*
X144292182Y-88924949D01*
X144120213Y-89049890D01*
X143969890Y-89200213D01*
X143844951Y-89372179D01*
X143748444Y-89561585D01*
X143682753Y-89763760D01*
X143649500Y-89973713D01*
X143649500Y-90186286D01*
X143671723Y-90326600D01*
X143682754Y-90396243D01*
X143736130Y-90560518D01*
X143748444Y-90598414D01*
X143844951Y-90787820D01*
X143969890Y-90959786D01*
X144120213Y-91110109D01*
X144292182Y-91235050D01*
X144300946Y-91239516D01*
X144351742Y-91287491D01*
X144368536Y-91355312D01*
X144345998Y-91421447D01*
X144300946Y-91460484D01*
X144292182Y-91464949D01*
X144120213Y-91589890D01*
X143969890Y-91740213D01*
X143844951Y-91912179D01*
X143748444Y-92101585D01*
X143682753Y-92303760D01*
X143666584Y-92405849D01*
X143649500Y-92513713D01*
X143649500Y-92726287D01*
X143650510Y-92732661D01*
X143672136Y-92869208D01*
X143682754Y-92936243D01*
X143736203Y-93100742D01*
X143748444Y-93138414D01*
X143844951Y-93327820D01*
X143969890Y-93499786D01*
X144120213Y-93650109D01*
X144292182Y-93775050D01*
X144300946Y-93779516D01*
X144351742Y-93827491D01*
X144368536Y-93895312D01*
X144345998Y-93961447D01*
X144300946Y-94000484D01*
X144292182Y-94004949D01*
X144120213Y-94129890D01*
X143969890Y-94280213D01*
X143844951Y-94452179D01*
X143748444Y-94641585D01*
X143682753Y-94843760D01*
X143649500Y-95053713D01*
X143649500Y-95266286D01*
X143671077Y-95402522D01*
X143682754Y-95476243D01*
X143732188Y-95628385D01*
X143748444Y-95678414D01*
X143844951Y-95867820D01*
X143969890Y-96039786D01*
X144120213Y-96190109D01*
X144292182Y-96315050D01*
X144300946Y-96319516D01*
X144351742Y-96367491D01*
X144368536Y-96435312D01*
X144345998Y-96501447D01*
X144300946Y-96540484D01*
X144292182Y-96544949D01*
X144120213Y-96669890D01*
X143969890Y-96820213D01*
X143844951Y-96992179D01*
X143748444Y-97181585D01*
X143682753Y-97383760D01*
X143649500Y-97593713D01*
X143649500Y-97806286D01*
X143682753Y-98016239D01*
X143748444Y-98218414D01*
X143844951Y-98407820D01*
X143969890Y-98579786D01*
X144120213Y-98730109D01*
X144292182Y-98855050D01*
X144300946Y-98859516D01*
X144351742Y-98907491D01*
X144368536Y-98975312D01*
X144345998Y-99041447D01*
X144300946Y-99080484D01*
X144292182Y-99084949D01*
X144120213Y-99209890D01*
X143969890Y-99360213D01*
X143844951Y-99532179D01*
X143748444Y-99721585D01*
X143682753Y-99923760D01*
X143678813Y-99948638D01*
X143649500Y-100133713D01*
X143649500Y-100346287D01*
X143653053Y-100368717D01*
X143678698Y-100530639D01*
X143682754Y-100556243D01*
X143697134Y-100600501D01*
X143748444Y-100758414D01*
X143844951Y-100947820D01*
X143969890Y-101119786D01*
X144120213Y-101270109D01*
X144292179Y-101395048D01*
X144292181Y-101395049D01*
X144292184Y-101395051D01*
X144481588Y-101491557D01*
X144683757Y-101557246D01*
X144893713Y-101590500D01*
X144893714Y-101590500D01*
X145106286Y-101590500D01*
X145106287Y-101590500D01*
X145316243Y-101557246D01*
X145518412Y-101491557D01*
X145707816Y-101395051D01*
X145736606Y-101374134D01*
X145879786Y-101270109D01*
X145879788Y-101270106D01*
X145879792Y-101270104D01*
X146030104Y-101119792D01*
X146030106Y-101119788D01*
X146030109Y-101119786D01*
X146155048Y-100947820D01*
X146155047Y-100947820D01*
X146155051Y-100947816D01*
X146251557Y-100758412D01*
X146317246Y-100556243D01*
X146350500Y-100346287D01*
X146350500Y-100133713D01*
X146317246Y-99923757D01*
X146251557Y-99721588D01*
X146155051Y-99532184D01*
X146155049Y-99532181D01*
X146155048Y-99532179D01*
X146030109Y-99360213D01*
X145879786Y-99209890D01*
X145707820Y-99084951D01*
X145707115Y-99084591D01*
X145699054Y-99080485D01*
X145648259Y-99032512D01*
X145631463Y-98964692D01*
X145653999Y-98898556D01*
X145699054Y-98859515D01*
X145707816Y-98855051D01*
X145729789Y-98839086D01*
X145879786Y-98730109D01*
X145879788Y-98730106D01*
X145879792Y-98730104D01*
X146030104Y-98579792D01*
X146030106Y-98579788D01*
X146030109Y-98579786D01*
X146155048Y-98407820D01*
X146155047Y-98407820D01*
X146155051Y-98407816D01*
X146251557Y-98218412D01*
X146317246Y-98016243D01*
X146350500Y-97806287D01*
X146350500Y-97593713D01*
X146317246Y-97383757D01*
X146251557Y-97181588D01*
X146155051Y-96992184D01*
X146155049Y-96992181D01*
X146155048Y-96992179D01*
X146030109Y-96820213D01*
X145879786Y-96669890D01*
X145707820Y-96544951D01*
X145707115Y-96544591D01*
X145699054Y-96540485D01*
X145648259Y-96492512D01*
X145631463Y-96424692D01*
X145653999Y-96358556D01*
X145699054Y-96319515D01*
X145707816Y-96315051D01*
X145729789Y-96299086D01*
X145879786Y-96190109D01*
X145879788Y-96190106D01*
X145879792Y-96190104D01*
X146030104Y-96039792D01*
X146030106Y-96039788D01*
X146030109Y-96039786D01*
X146155048Y-95867820D01*
X146155047Y-95867820D01*
X146155051Y-95867816D01*
X146251557Y-95678412D01*
X146317246Y-95476243D01*
X146350500Y-95266287D01*
X146350500Y-95053713D01*
X146317246Y-94843757D01*
X146251557Y-94641588D01*
X146155051Y-94452184D01*
X146155049Y-94452181D01*
X146155048Y-94452179D01*
X146030109Y-94280213D01*
X145879786Y-94129890D01*
X145707820Y-94004951D01*
X145707115Y-94004591D01*
X145699054Y-94000485D01*
X145648259Y-93952512D01*
X145631463Y-93884692D01*
X145653999Y-93818556D01*
X145699054Y-93779515D01*
X145707816Y-93775051D01*
X145834275Y-93683174D01*
X145879786Y-93650109D01*
X145879788Y-93650106D01*
X145879792Y-93650104D01*
X146030104Y-93499792D01*
X146030106Y-93499788D01*
X146030109Y-93499786D01*
X146155048Y-93327820D01*
X146155047Y-93327820D01*
X146155051Y-93327816D01*
X146251557Y-93138412D01*
X146317246Y-92936243D01*
X146350500Y-92726287D01*
X146350500Y-92513713D01*
X146330985Y-92390502D01*
X158329500Y-92390502D01*
X158329500Y-92609497D01*
X158345716Y-92732661D01*
X158358083Y-92826598D01*
X158369502Y-92869213D01*
X158414758Y-93038115D01*
X158416029Y-93041184D01*
X158498560Y-93240428D01*
X158498562Y-93240433D01*
X158498565Y-93240438D01*
X158608049Y-93430070D01*
X158741355Y-93603798D01*
X158741361Y-93603805D01*
X158896194Y-93758638D01*
X158896201Y-93758644D01*
X159069929Y-93891950D01*
X159259568Y-94001438D01*
X159259583Y-94001445D01*
X159322952Y-94027693D01*
X159377356Y-94071533D01*
X159399421Y-94137827D01*
X159399500Y-94142254D01*
X159399500Y-94913330D01*
X159399499Y-94913348D01*
X159399499Y-95079054D01*
X159399498Y-95079054D01*
X159404842Y-95098999D01*
X159440423Y-95231785D01*
X159455870Y-95258540D01*
X159455871Y-95258542D01*
X159455872Y-95258542D01*
X159519479Y-95368714D01*
X159519481Y-95368717D01*
X159638349Y-95487585D01*
X159638355Y-95487590D01*
X164515139Y-100364374D01*
X164515149Y-100364385D01*
X164519479Y-100368715D01*
X164519480Y-100368716D01*
X164631284Y-100480520D01*
X164718095Y-100530639D01*
X164718097Y-100530641D01*
X164756151Y-100552611D01*
X164768215Y-100559577D01*
X164920943Y-100600501D01*
X164920946Y-100600501D01*
X165086653Y-100600501D01*
X165086669Y-100600500D01*
X175079055Y-100600500D01*
X175079057Y-100600500D01*
X175231784Y-100559577D01*
X175368716Y-100480520D01*
X175480520Y-100368716D01*
X175559577Y-100231784D01*
X175600500Y-100079057D01*
X175600500Y-85089059D01*
X175600501Y-85089046D01*
X175600501Y-84920945D01*
X175600501Y-84920943D01*
X175559577Y-84768215D01*
X175530639Y-84718095D01*
X175480520Y-84631284D01*
X175368716Y-84519480D01*
X175368715Y-84519479D01*
X175364385Y-84515149D01*
X175364374Y-84515139D01*
X164801370Y-73952135D01*
X173499500Y-73952135D01*
X173499500Y-76047870D01*
X173499501Y-76047876D01*
X173505908Y-76107483D01*
X173556202Y-76242328D01*
X173556206Y-76242335D01*
X173642452Y-76357544D01*
X173642455Y-76357547D01*
X173757664Y-76443793D01*
X173757671Y-76443797D01*
X173892517Y-76494091D01*
X173892516Y-76494091D01*
X173899444Y-76494835D01*
X173952127Y-76500500D01*
X176047872Y-76500499D01*
X176107483Y-76494091D01*
X176242331Y-76443796D01*
X176357546Y-76357546D01*
X176443796Y-76242331D01*
X176494091Y-76107483D01*
X176500500Y-76047873D01*
X176500499Y-74881947D01*
X181100000Y-74881947D01*
X181100000Y-75118052D01*
X181136934Y-75351247D01*
X181209897Y-75575802D01*
X181317087Y-75786174D01*
X181377338Y-75869104D01*
X181377340Y-75869105D01*
X182117037Y-75129408D01*
X182134075Y-75192993D01*
X182199901Y-75307007D01*
X182292993Y-75400099D01*
X182407007Y-75465925D01*
X182470590Y-75482962D01*
X181730893Y-76222658D01*
X181813828Y-76282914D01*
X182024197Y-76390102D01*
X182248752Y-76463065D01*
X182248751Y-76463065D01*
X182481948Y-76500000D01*
X182718052Y-76500000D01*
X182951247Y-76463065D01*
X183175802Y-76390102D01*
X183386163Y-76282918D01*
X183386169Y-76282914D01*
X183469104Y-76222658D01*
X183469105Y-76222658D01*
X182729408Y-75482962D01*
X182792993Y-75465925D01*
X182907007Y-75400099D01*
X183000099Y-75307007D01*
X183065925Y-75192993D01*
X183082962Y-75129409D01*
X183822658Y-75869105D01*
X183822658Y-75869104D01*
X183882914Y-75786169D01*
X183882918Y-75786163D01*
X183990102Y-75575802D01*
X184063065Y-75351247D01*
X184100000Y-75118052D01*
X184100000Y-74881947D01*
X184063065Y-74648752D01*
X183990102Y-74424197D01*
X183882914Y-74213828D01*
X183822658Y-74130894D01*
X183822658Y-74130893D01*
X183082962Y-74870590D01*
X183065925Y-74807007D01*
X183000099Y-74692993D01*
X182907007Y-74599901D01*
X182792993Y-74534075D01*
X182729409Y-74517037D01*
X183469105Y-73777340D01*
X183469104Y-73777338D01*
X183386174Y-73717087D01*
X183175802Y-73609897D01*
X182951247Y-73536934D01*
X182951248Y-73536934D01*
X182718052Y-73500000D01*
X182481948Y-73500000D01*
X182248752Y-73536934D01*
X182024197Y-73609897D01*
X181813830Y-73717084D01*
X181730894Y-73777340D01*
X182470591Y-74517037D01*
X182407007Y-74534075D01*
X182292993Y-74599901D01*
X182199901Y-74692993D01*
X182134075Y-74807007D01*
X182117037Y-74870591D01*
X181377340Y-74130894D01*
X181317084Y-74213830D01*
X181209897Y-74424197D01*
X181136934Y-74648752D01*
X181100000Y-74881947D01*
X176500499Y-74881947D01*
X176500499Y-73952128D01*
X176494091Y-73892517D01*
X176494090Y-73892514D01*
X176484922Y-73867931D01*
X176443797Y-73757671D01*
X176443793Y-73757664D01*
X176357547Y-73642455D01*
X176357544Y-73642452D01*
X176242335Y-73556206D01*
X176242328Y-73556202D01*
X176107482Y-73505908D01*
X176107483Y-73505908D01*
X176047883Y-73499501D01*
X176047881Y-73499500D01*
X176047873Y-73499500D01*
X176047864Y-73499500D01*
X173952129Y-73499500D01*
X173952123Y-73499501D01*
X173892516Y-73505908D01*
X173757671Y-73556202D01*
X173757664Y-73556206D01*
X173642455Y-73642452D01*
X173642452Y-73642455D01*
X173556206Y-73757664D01*
X173556202Y-73757671D01*
X173505908Y-73892517D01*
X173499501Y-73952116D01*
X173499501Y-73952123D01*
X173499500Y-73952135D01*
X164801370Y-73952135D01*
X163256819Y-72407584D01*
X163223334Y-72346261D01*
X163220500Y-72319903D01*
X163220500Y-70006500D01*
X163240185Y-69939461D01*
X163292989Y-69893706D01*
X163344500Y-69882500D01*
X164584526Y-69882500D01*
X164584534Y-69882500D01*
X164621548Y-69879587D01*
X164621550Y-69879586D01*
X164621552Y-69879586D01*
X164663323Y-69867449D01*
X164779959Y-69833564D01*
X164921947Y-69749592D01*
X165038592Y-69632947D01*
X165122564Y-69490959D01*
X165168587Y-69332548D01*
X165171500Y-69295534D01*
X165171500Y-67944466D01*
X165168587Y-67907452D01*
X165122564Y-67749041D01*
X165038592Y-67607053D01*
X165038590Y-67607051D01*
X165038587Y-67607047D01*
X164921952Y-67490412D01*
X164921944Y-67490406D01*
X164865004Y-67456732D01*
X164817321Y-67405663D01*
X164804817Y-67336921D01*
X164831462Y-67272332D01*
X164865004Y-67243268D01*
X164921947Y-67209592D01*
X165038592Y-67092947D01*
X165122564Y-66950959D01*
X165168587Y-66792548D01*
X165171500Y-66755534D01*
X165171500Y-65404466D01*
X165168587Y-65367452D01*
X165165665Y-65357395D01*
X165122565Y-65209045D01*
X165122564Y-65209042D01*
X165122564Y-65209041D01*
X165038592Y-65067053D01*
X165038590Y-65067051D01*
X165038587Y-65067047D01*
X164921952Y-64950412D01*
X164921944Y-64950406D01*
X164865004Y-64916732D01*
X164817321Y-64865663D01*
X164804817Y-64796921D01*
X164831462Y-64732332D01*
X164865004Y-64703268D01*
X164921947Y-64669592D01*
X165038592Y-64552947D01*
X165122564Y-64410959D01*
X165168587Y-64252548D01*
X165171500Y-64215534D01*
X165171500Y-62864466D01*
X165168587Y-62827452D01*
X165122564Y-62669041D01*
X165038592Y-62527053D01*
X165038590Y-62527051D01*
X165038587Y-62527047D01*
X164921952Y-62410412D01*
X164921944Y-62410406D01*
X164865004Y-62376732D01*
X164817321Y-62325663D01*
X164804817Y-62256921D01*
X164831462Y-62192332D01*
X164865004Y-62163268D01*
X164921947Y-62129592D01*
X165038592Y-62012947D01*
X165122564Y-61870959D01*
X165161107Y-61738294D01*
X165168586Y-61712552D01*
X165168587Y-61712546D01*
X165168587Y-61712544D01*
X165171500Y-61675534D01*
X165171500Y-60324466D01*
X165168587Y-60287452D01*
X165122564Y-60129041D01*
X165038592Y-59987053D01*
X165038590Y-59987051D01*
X165038587Y-59987047D01*
X164921952Y-59870412D01*
X164921944Y-59870406D01*
X164865004Y-59836732D01*
X164817321Y-59785663D01*
X164804817Y-59716921D01*
X164831462Y-59652332D01*
X164865004Y-59623268D01*
X164921947Y-59589592D01*
X165038592Y-59472947D01*
X165122564Y-59330959D01*
X165168587Y-59172548D01*
X165171500Y-59135534D01*
X165171500Y-57784466D01*
X165168587Y-57747452D01*
X165160286Y-57718881D01*
X165122565Y-57589045D01*
X165122564Y-57589042D01*
X165122564Y-57589041D01*
X165038592Y-57447053D01*
X165038590Y-57447051D01*
X165038587Y-57447047D01*
X164921952Y-57330412D01*
X164921949Y-57330410D01*
X164921947Y-57330408D01*
X164864511Y-57296440D01*
X164816829Y-57245371D01*
X164804326Y-57176630D01*
X164830972Y-57112040D01*
X164864514Y-57082976D01*
X164921637Y-57049193D01*
X164921643Y-57049189D01*
X165038189Y-56932643D01*
X165038196Y-56932634D01*
X165122102Y-56790756D01*
X165122103Y-56790753D01*
X165168088Y-56632473D01*
X165168089Y-56632467D01*
X165170999Y-56595488D01*
X165170999Y-55244530D01*
X165170998Y-55244508D01*
X165168089Y-55207533D01*
X165122102Y-55049242D01*
X165038196Y-54907365D01*
X165038189Y-54907356D01*
X164921643Y-54790810D01*
X164921634Y-54790803D01*
X164864513Y-54757022D01*
X164816829Y-54705953D01*
X164804326Y-54637211D01*
X164830972Y-54572622D01*
X164864514Y-54543558D01*
X164921941Y-54509596D01*
X164921942Y-54509594D01*
X164921947Y-54509592D01*
X165038592Y-54392947D01*
X165122564Y-54250959D01*
X165168587Y-54092548D01*
X165171500Y-54055534D01*
X165171500Y-52704466D01*
X165168587Y-52667452D01*
X165122564Y-52509041D01*
X165038592Y-52367053D01*
X165038590Y-52367051D01*
X165038587Y-52367047D01*
X164921952Y-52250412D01*
X164921943Y-52250405D01*
X164779957Y-52166435D01*
X164779954Y-52166434D01*
X164621552Y-52120413D01*
X164621546Y-52120412D01*
X164584541Y-52117500D01*
X164584534Y-52117500D01*
X162325466Y-52117500D01*
X162325458Y-52117500D01*
X162288453Y-52120412D01*
X162288447Y-52120413D01*
X162130045Y-52166434D01*
X162130042Y-52166435D01*
X161988056Y-52250405D01*
X161988046Y-52250413D01*
X161891854Y-52346604D01*
X161877061Y-52359239D01*
X161797536Y-52417018D01*
X161657021Y-52557533D01*
X161540213Y-52718305D01*
X161449994Y-52895367D01*
X161449993Y-52895370D01*
X161388587Y-53084362D01*
X161357500Y-53280639D01*
X161357500Y-53479360D01*
X161388587Y-53675637D01*
X161449993Y-53864629D01*
X161449994Y-53864632D01*
X161540213Y-54041694D01*
X161657019Y-54202464D01*
X161657021Y-54202466D01*
X161797539Y-54342984D01*
X161877060Y-54400758D01*
X161883786Y-54406007D01*
X161887979Y-54409518D01*
X161988053Y-54509592D01*
X162054208Y-54548716D01*
X162061975Y-54555220D01*
X162075962Y-54576197D01*
X162093170Y-54594627D01*
X162095015Y-54604773D01*
X162100736Y-54613353D01*
X162101161Y-54638564D01*
X162105673Y-54663369D01*
X162101740Y-54672900D01*
X162101915Y-54683212D01*
X162088643Y-54704649D01*
X162079028Y-54727958D01*
X162068643Y-54736956D01*
X162065137Y-54742620D01*
X162058391Y-54745838D01*
X162045487Y-54757021D01*
X161988370Y-54790800D01*
X161988357Y-54790810D01*
X161916360Y-54862806D01*
X161916360Y-54862807D01*
X162535905Y-55482352D01*
X162448429Y-55505792D01*
X162347070Y-55564311D01*
X162264311Y-55647070D01*
X162205792Y-55748429D01*
X162182352Y-55835905D01*
X161567730Y-55221282D01*
X161567729Y-55221283D01*
X161540643Y-55258564D01*
X161450457Y-55435562D01*
X161389075Y-55624476D01*
X161389075Y-55624479D01*
X161358000Y-55820678D01*
X161358000Y-56019321D01*
X161389075Y-56215520D01*
X161389075Y-56215523D01*
X161450457Y-56404437D01*
X161540641Y-56581432D01*
X161567730Y-56618715D01*
X162182352Y-56004093D01*
X162205792Y-56091571D01*
X162264311Y-56192930D01*
X162347070Y-56275689D01*
X162448429Y-56334208D01*
X162535904Y-56357647D01*
X161916360Y-56977191D01*
X161988360Y-57049192D01*
X161988364Y-57049195D01*
X162045486Y-57082977D01*
X162093169Y-57134046D01*
X162105673Y-57202788D01*
X162079028Y-57267377D01*
X162061975Y-57284779D01*
X162054204Y-57291285D01*
X161988053Y-57330408D01*
X161887990Y-57430469D01*
X161883784Y-57433992D01*
X161882598Y-57434509D01*
X161877061Y-57439239D01*
X161797536Y-57497018D01*
X161657021Y-57637533D01*
X161540213Y-57798305D01*
X161449994Y-57975367D01*
X161449993Y-57975370D01*
X161388587Y-58164362D01*
X161357500Y-58360639D01*
X161357500Y-58559360D01*
X161388587Y-58755637D01*
X161449993Y-58944629D01*
X161449994Y-58944632D01*
X161491841Y-59026760D01*
X161540213Y-59121694D01*
X161657019Y-59282464D01*
X161657021Y-59282466D01*
X161797539Y-59422984D01*
X161877060Y-59480758D01*
X161883824Y-59486039D01*
X161887998Y-59489537D01*
X161988053Y-59589592D01*
X162053737Y-59628437D01*
X162061522Y-59634962D01*
X162075488Y-59655926D01*
X162092679Y-59674338D01*
X162094528Y-59684506D01*
X162100260Y-59693110D01*
X162100674Y-59718297D01*
X162105182Y-59743079D01*
X162101239Y-59752634D01*
X162101410Y-59762970D01*
X162088143Y-59784381D01*
X162078536Y-59807669D01*
X162068122Y-59816692D01*
X162064609Y-59822363D01*
X162057871Y-59825575D01*
X162044996Y-59836731D01*
X162024150Y-59849060D01*
X161988053Y-59870408D01*
X161988046Y-59870413D01*
X161891854Y-59966604D01*
X161877061Y-59979239D01*
X161797536Y-60037018D01*
X161657021Y-60177533D01*
X161540213Y-60338305D01*
X161449994Y-60515367D01*
X161449993Y-60515370D01*
X161388587Y-60704362D01*
X161357500Y-60900639D01*
X161357500Y-61099360D01*
X161388587Y-61295637D01*
X161449993Y-61484629D01*
X161449994Y-61484632D01*
X161513923Y-61610097D01*
X161540213Y-61661694D01*
X161657019Y-61822464D01*
X161657021Y-61822466D01*
X161797539Y-61962984D01*
X161877060Y-62020758D01*
X161883824Y-62026039D01*
X161887998Y-62029537D01*
X161988053Y-62129592D01*
X162053737Y-62168437D01*
X162061522Y-62174962D01*
X162075488Y-62195926D01*
X162092679Y-62214338D01*
X162094528Y-62224506D01*
X162100260Y-62233110D01*
X162100674Y-62258297D01*
X162105182Y-62283079D01*
X162101239Y-62292634D01*
X162101410Y-62302970D01*
X162088143Y-62324381D01*
X162078536Y-62347669D01*
X162068122Y-62356692D01*
X162064609Y-62362363D01*
X162057871Y-62365575D01*
X162044996Y-62376731D01*
X162025148Y-62388470D01*
X161988053Y-62410408D01*
X161988046Y-62410413D01*
X161891854Y-62506604D01*
X161877061Y-62519239D01*
X161797536Y-62577018D01*
X161657021Y-62717533D01*
X161540213Y-62878305D01*
X161449994Y-63055367D01*
X161449993Y-63055370D01*
X161388587Y-63244362D01*
X161357500Y-63440639D01*
X161357500Y-63639360D01*
X161388587Y-63835637D01*
X161449993Y-64024629D01*
X161449994Y-64024632D01*
X161518399Y-64158882D01*
X161540213Y-64201694D01*
X161657019Y-64362464D01*
X161657021Y-64362466D01*
X161797539Y-64502984D01*
X161877060Y-64560758D01*
X161883824Y-64566039D01*
X161887998Y-64569537D01*
X161988053Y-64669592D01*
X162053737Y-64708437D01*
X162061522Y-64714962D01*
X162075488Y-64735926D01*
X162092679Y-64754338D01*
X162094528Y-64764506D01*
X162100260Y-64773110D01*
X162100674Y-64798297D01*
X162105182Y-64823079D01*
X162101239Y-64832634D01*
X162101410Y-64842970D01*
X162088143Y-64864381D01*
X162078536Y-64887669D01*
X162068122Y-64896692D01*
X162064609Y-64902363D01*
X162057871Y-64905575D01*
X162044996Y-64916732D01*
X161988053Y-64950408D01*
X161988046Y-64950413D01*
X161891854Y-65046604D01*
X161877061Y-65059239D01*
X161797536Y-65117018D01*
X161657021Y-65257533D01*
X161540213Y-65418305D01*
X161449994Y-65595367D01*
X161449993Y-65595370D01*
X161388587Y-65784362D01*
X161357500Y-65980639D01*
X161357500Y-66179360D01*
X161388587Y-66375637D01*
X161449993Y-66564629D01*
X161449994Y-66564632D01*
X161521036Y-66704057D01*
X161540213Y-66741694D01*
X161657019Y-66902464D01*
X161657021Y-66902466D01*
X161797539Y-67042984D01*
X161877060Y-67100758D01*
X161883824Y-67106039D01*
X161887998Y-67109537D01*
X161988053Y-67209592D01*
X162053737Y-67248437D01*
X162061522Y-67254962D01*
X162075488Y-67275926D01*
X162092679Y-67294338D01*
X162094528Y-67304506D01*
X162100260Y-67313110D01*
X162100674Y-67338297D01*
X162105182Y-67363079D01*
X162101239Y-67372634D01*
X162101410Y-67382970D01*
X162088143Y-67404381D01*
X162078536Y-67427669D01*
X162068122Y-67436692D01*
X162064609Y-67442363D01*
X162057871Y-67445575D01*
X162044996Y-67456732D01*
X161988053Y-67490408D01*
X161988046Y-67490413D01*
X161891854Y-67586604D01*
X161877061Y-67599239D01*
X161797536Y-67657018D01*
X161657021Y-67797533D01*
X161540213Y-67958305D01*
X161449994Y-68135367D01*
X161449993Y-68135370D01*
X161388587Y-68324362D01*
X161357500Y-68520639D01*
X161357500Y-68719360D01*
X161388587Y-68915637D01*
X161449993Y-69104629D01*
X161449994Y-69104632D01*
X161540213Y-69281694D01*
X161657019Y-69442464D01*
X161657021Y-69442466D01*
X161797539Y-69582984D01*
X161877060Y-69640758D01*
X161891857Y-69653396D01*
X161983181Y-69744720D01*
X162016666Y-69806043D01*
X162019500Y-69832401D01*
X162019500Y-72533330D01*
X162019499Y-72533348D01*
X162019499Y-72699054D01*
X162019498Y-72699054D01*
X162060423Y-72851785D01*
X162089358Y-72901900D01*
X162089359Y-72901904D01*
X162089360Y-72901904D01*
X162139479Y-72988714D01*
X162139481Y-72988717D01*
X162258349Y-73107585D01*
X162258355Y-73107590D01*
X174363181Y-85212416D01*
X174396666Y-85273739D01*
X174399500Y-85300097D01*
X174399500Y-99275500D01*
X174379815Y-99342539D01*
X174327011Y-99388294D01*
X174275500Y-99399500D01*
X165300097Y-99399500D01*
X165233058Y-99379815D01*
X165212416Y-99363181D01*
X160636819Y-94787584D01*
X160603334Y-94726261D01*
X160600500Y-94699903D01*
X160600500Y-94142254D01*
X160620185Y-94075215D01*
X160672989Y-94029460D01*
X160677048Y-94027693D01*
X160740416Y-94001445D01*
X160740416Y-94001444D01*
X160740428Y-94001440D01*
X160930071Y-93891950D01*
X161103800Y-93758643D01*
X161258643Y-93603800D01*
X161391950Y-93430071D01*
X161501440Y-93240428D01*
X161585241Y-93038117D01*
X161641917Y-92826598D01*
X161670500Y-92609490D01*
X161670500Y-92390510D01*
X161641917Y-92173402D01*
X161585241Y-91961883D01*
X161501440Y-91759572D01*
X161490260Y-91740208D01*
X161391950Y-91569929D01*
X161258644Y-91396201D01*
X161258638Y-91396194D01*
X161103805Y-91241361D01*
X161103798Y-91241355D01*
X160930070Y-91108049D01*
X160740438Y-90998565D01*
X160740433Y-90998562D01*
X160740428Y-90998560D01*
X160538117Y-90914759D01*
X160538118Y-90914759D01*
X160538115Y-90914758D01*
X160432357Y-90886421D01*
X160326598Y-90858083D01*
X160290314Y-90853306D01*
X160109497Y-90829500D01*
X160109490Y-90829500D01*
X159890510Y-90829500D01*
X159890502Y-90829500D01*
X159683853Y-90856707D01*
X159673402Y-90858083D01*
X159628699Y-90870060D01*
X159461884Y-90914758D01*
X159353165Y-90959792D01*
X159259572Y-90998560D01*
X159259569Y-90998561D01*
X159259561Y-90998565D01*
X159069929Y-91108049D01*
X158896201Y-91241355D01*
X158896194Y-91241361D01*
X158741361Y-91396194D01*
X158741355Y-91396201D01*
X158608049Y-91569929D01*
X158498565Y-91759561D01*
X158498560Y-91759573D01*
X158414758Y-91961884D01*
X158358084Y-92173399D01*
X158358082Y-92173410D01*
X158329500Y-92390502D01*
X146330985Y-92390502D01*
X146317246Y-92303757D01*
X146251557Y-92101588D01*
X146155051Y-91912184D01*
X146155049Y-91912181D01*
X146155048Y-91912179D01*
X146030109Y-91740213D01*
X145879786Y-91589890D01*
X145707820Y-91464951D01*
X145707115Y-91464591D01*
X145699054Y-91460485D01*
X145648259Y-91412512D01*
X145631463Y-91344692D01*
X145653999Y-91278556D01*
X145699054Y-91239515D01*
X145707816Y-91235051D01*
X145760363Y-91196874D01*
X145879786Y-91110109D01*
X145879788Y-91110106D01*
X145879792Y-91110104D01*
X146030104Y-90959792D01*
X146030106Y-90959788D01*
X146030109Y-90959786D01*
X146124766Y-90829500D01*
X146155051Y-90787816D01*
X146155349Y-90787230D01*
X146175235Y-90748205D01*
X146223209Y-90697409D01*
X146285719Y-90680500D01*
X149833331Y-90680500D01*
X149833347Y-90680501D01*
X149840943Y-90680501D01*
X149999054Y-90680501D01*
X149999057Y-90680501D01*
X150151785Y-90639577D01*
X150215148Y-90602994D01*
X150288716Y-90560520D01*
X150400520Y-90448716D01*
X150400520Y-90448714D01*
X150410724Y-90438511D01*
X150410728Y-90438506D01*
X150958732Y-89890502D01*
X168329500Y-89890502D01*
X168329500Y-90109497D01*
X168353306Y-90290314D01*
X168358083Y-90326598D01*
X168414759Y-90538117D01*
X168498560Y-90740428D01*
X168498562Y-90740433D01*
X168498565Y-90740438D01*
X168608049Y-90930070D01*
X168741355Y-91103798D01*
X168741361Y-91103805D01*
X168896194Y-91258638D01*
X168896201Y-91258644D01*
X169069929Y-91391950D01*
X169259561Y-91501434D01*
X169259563Y-91501434D01*
X169259572Y-91501440D01*
X169461883Y-91585241D01*
X169673402Y-91641917D01*
X169890510Y-91670500D01*
X169890517Y-91670500D01*
X170109483Y-91670500D01*
X170109490Y-91670500D01*
X170326598Y-91641917D01*
X170538117Y-91585241D01*
X170740428Y-91501440D01*
X170930071Y-91391950D01*
X171103800Y-91258643D01*
X171258643Y-91103800D01*
X171391950Y-90930071D01*
X171501440Y-90740428D01*
X171585241Y-90538117D01*
X171641917Y-90326598D01*
X171670500Y-90109490D01*
X171670500Y-89890510D01*
X171641917Y-89673402D01*
X171585241Y-89461883D01*
X171501440Y-89259572D01*
X171467166Y-89200208D01*
X171391950Y-89069929D01*
X171258644Y-88896201D01*
X171258638Y-88896194D01*
X171103805Y-88741361D01*
X171103798Y-88741355D01*
X170930070Y-88608049D01*
X170740438Y-88498565D01*
X170740433Y-88498562D01*
X170740428Y-88498560D01*
X170538117Y-88414759D01*
X170538118Y-88414759D01*
X170538115Y-88414758D01*
X170432357Y-88386421D01*
X170326598Y-88358083D01*
X170290314Y-88353306D01*
X170109497Y-88329500D01*
X170109490Y-88329500D01*
X169890510Y-88329500D01*
X169890502Y-88329500D01*
X169683853Y-88356707D01*
X169673402Y-88358083D01*
X169628699Y-88370060D01*
X169461884Y-88414758D01*
X169343374Y-88463847D01*
X169259572Y-88498560D01*
X169259569Y-88498561D01*
X169259561Y-88498565D01*
X169069929Y-88608049D01*
X168896201Y-88741355D01*
X168896194Y-88741361D01*
X168741361Y-88896194D01*
X168741355Y-88896201D01*
X168608049Y-89069929D01*
X168498565Y-89259561D01*
X168498560Y-89259573D01*
X168414758Y-89461884D01*
X168358084Y-89673399D01*
X168358082Y-89673410D01*
X168329500Y-89890502D01*
X150958732Y-89890502D01*
X153458686Y-87390548D01*
X158330000Y-87390548D01*
X158330000Y-87609451D01*
X158330001Y-87609467D01*
X158358573Y-87826496D01*
X158415234Y-88037956D01*
X158499004Y-88240198D01*
X158499012Y-88240214D01*
X158608460Y-88429782D01*
X158608466Y-88429790D01*
X158655438Y-88491007D01*
X159398958Y-87747487D01*
X159423978Y-87807890D01*
X159495112Y-87914351D01*
X159585649Y-88004888D01*
X159692110Y-88076022D01*
X159752511Y-88101041D01*
X159008991Y-88844560D01*
X159008991Y-88844561D01*
X159070200Y-88891527D01*
X159070208Y-88891532D01*
X159259792Y-89000990D01*
X159259801Y-89000995D01*
X159462043Y-89084765D01*
X159673503Y-89141426D01*
X159890532Y-89169998D01*
X159890549Y-89170000D01*
X160109451Y-89170000D01*
X160109467Y-89169998D01*
X160326496Y-89141426D01*
X160537956Y-89084765D01*
X160740198Y-89000995D01*
X160740214Y-89000987D01*
X160929785Y-88891537D01*
X160929793Y-88891531D01*
X160991007Y-88844560D01*
X160247488Y-88101041D01*
X160307890Y-88076022D01*
X160414351Y-88004888D01*
X160504888Y-87914351D01*
X160576022Y-87807890D01*
X160601041Y-87747488D01*
X161344560Y-88491007D01*
X161391531Y-88429793D01*
X161391537Y-88429785D01*
X161500987Y-88240214D01*
X161500995Y-88240198D01*
X161584765Y-88037956D01*
X161641426Y-87826496D01*
X161669998Y-87609467D01*
X161670000Y-87609451D01*
X161670000Y-87390548D01*
X161669998Y-87390532D01*
X161641426Y-87173503D01*
X161584765Y-86962043D01*
X161500995Y-86759801D01*
X161500990Y-86759792D01*
X161391532Y-86570208D01*
X161391527Y-86570200D01*
X161344560Y-86508991D01*
X160601041Y-87252510D01*
X160576022Y-87192110D01*
X160504888Y-87085649D01*
X160414351Y-86995112D01*
X160307890Y-86923978D01*
X160247487Y-86898957D01*
X160991007Y-86155438D01*
X160991007Y-86155437D01*
X160929790Y-86108466D01*
X160929782Y-86108460D01*
X160740214Y-85999012D01*
X160740198Y-85999004D01*
X160537956Y-85915234D01*
X160326496Y-85858573D01*
X160109467Y-85830001D01*
X160109451Y-85830000D01*
X159890549Y-85830000D01*
X159890532Y-85830001D01*
X159673503Y-85858573D01*
X159462043Y-85915234D01*
X159259801Y-85999004D01*
X159259785Y-85999012D01*
X159070215Y-86108461D01*
X159070200Y-86108471D01*
X159008990Y-86155438D01*
X159752511Y-86898958D01*
X159692110Y-86923978D01*
X159585649Y-86995112D01*
X159495112Y-87085649D01*
X159423978Y-87192110D01*
X159398958Y-87252511D01*
X158655438Y-86508990D01*
X158608471Y-86570200D01*
X158608461Y-86570215D01*
X158499012Y-86759785D01*
X158499004Y-86759801D01*
X158415234Y-86962043D01*
X158358573Y-87173503D01*
X158330001Y-87390532D01*
X158330000Y-87390548D01*
X153458686Y-87390548D01*
X155368713Y-85480521D01*
X155368716Y-85480520D01*
X155480520Y-85368716D01*
X155530639Y-85281904D01*
X155559577Y-85231785D01*
X155600501Y-85079057D01*
X155600501Y-84920943D01*
X155600501Y-84913348D01*
X155600500Y-84913330D01*
X155600500Y-72789060D01*
X155600501Y-72789047D01*
X155600501Y-72620944D01*
X155600501Y-72620943D01*
X155559577Y-72468216D01*
X155558265Y-72465943D01*
X155480524Y-72331290D01*
X155480518Y-72331282D01*
X148867590Y-65718355D01*
X148867588Y-65718352D01*
X148748717Y-65599481D01*
X148748716Y-65599480D01*
X148728239Y-65587657D01*
X148669254Y-65553603D01*
X148669251Y-65553601D01*
X148661904Y-65549360D01*
X148611785Y-65520423D01*
X148541831Y-65501678D01*
X148534637Y-65498747D01*
X148513138Y-65481625D01*
X148489677Y-65467324D01*
X148482944Y-65457577D01*
X148479983Y-65455219D01*
X148478697Y-65451429D01*
X148470948Y-65440211D01*
X148459787Y-65418306D01*
X148342981Y-65257536D01*
X148202464Y-65117019D01*
X148122937Y-65059239D01*
X148116175Y-65053960D01*
X148112000Y-65050461D01*
X148011947Y-64950408D01*
X147946259Y-64911560D01*
X147938477Y-64905038D01*
X147924510Y-64884073D01*
X147907321Y-64865663D01*
X147905471Y-64855492D01*
X147899740Y-64846890D01*
X147899324Y-64821702D01*
X147894817Y-64796921D01*
X147898758Y-64787366D01*
X147898588Y-64777030D01*
X147911856Y-64755616D01*
X147921462Y-64732332D01*
X147931874Y-64723309D01*
X147935389Y-64717638D01*
X147942127Y-64714425D01*
X147955004Y-64703268D01*
X148011947Y-64669592D01*
X148108148Y-64573389D01*
X148122939Y-64560758D01*
X148202464Y-64502981D01*
X148342981Y-64362464D01*
X148459787Y-64201694D01*
X148550005Y-64024632D01*
X148611413Y-63835636D01*
X148642500Y-63639361D01*
X148642500Y-63440639D01*
X148611413Y-63244364D01*
X148580709Y-63149866D01*
X148550006Y-63055370D01*
X148550005Y-63055367D01*
X148494961Y-62947339D01*
X148459787Y-62878306D01*
X148342981Y-62717536D01*
X148202464Y-62577019D01*
X148122937Y-62519239D01*
X148116175Y-62513960D01*
X148112000Y-62510461D01*
X148011947Y-62410408D01*
X147946259Y-62371560D01*
X147938477Y-62365038D01*
X147924510Y-62344073D01*
X147907321Y-62325663D01*
X147905471Y-62315492D01*
X147899740Y-62306890D01*
X147899324Y-62281702D01*
X147894817Y-62256921D01*
X147898758Y-62247366D01*
X147898588Y-62237030D01*
X147911856Y-62215616D01*
X147921462Y-62192332D01*
X147931874Y-62183309D01*
X147935389Y-62177638D01*
X147942127Y-62174425D01*
X147955004Y-62163268D01*
X148011947Y-62129592D01*
X148108148Y-62033389D01*
X148122939Y-62020758D01*
X148202464Y-61962981D01*
X148342981Y-61822464D01*
X148459787Y-61661694D01*
X148550005Y-61484632D01*
X148611413Y-61295636D01*
X148642500Y-61099361D01*
X148642500Y-60900639D01*
X148611413Y-60704364D01*
X148550005Y-60515368D01*
X148550005Y-60515367D01*
X148459786Y-60338305D01*
X148342981Y-60177536D01*
X148202464Y-60037019D01*
X148122937Y-59979239D01*
X148116175Y-59973960D01*
X148112000Y-59970461D01*
X148011947Y-59870408D01*
X147946259Y-59831560D01*
X147938477Y-59825038D01*
X147924510Y-59804073D01*
X147907321Y-59785663D01*
X147905471Y-59775492D01*
X147899740Y-59766890D01*
X147899324Y-59741702D01*
X147894817Y-59716921D01*
X147898758Y-59707366D01*
X147898588Y-59697030D01*
X147911856Y-59675616D01*
X147921462Y-59652332D01*
X147931874Y-59643309D01*
X147935389Y-59637638D01*
X147942127Y-59634425D01*
X147955004Y-59623268D01*
X148011947Y-59589592D01*
X148108148Y-59493389D01*
X148122939Y-59480758D01*
X148202464Y-59422981D01*
X148342981Y-59282464D01*
X148459787Y-59121694D01*
X148550005Y-58944632D01*
X148611413Y-58755636D01*
X148642500Y-58559361D01*
X148642500Y-58360639D01*
X148611413Y-58164364D01*
X148550005Y-57975368D01*
X148550005Y-57975367D01*
X148459786Y-57798305D01*
X148342981Y-57637536D01*
X148202464Y-57497019D01*
X148122937Y-57439239D01*
X148116175Y-57433960D01*
X148112000Y-57430461D01*
X148011947Y-57330408D01*
X147946259Y-57291560D01*
X147938477Y-57285038D01*
X147924510Y-57264073D01*
X147907321Y-57245663D01*
X147905471Y-57235492D01*
X147899740Y-57226890D01*
X147899324Y-57201702D01*
X147894817Y-57176921D01*
X147898758Y-57167366D01*
X147898588Y-57157030D01*
X147911856Y-57135616D01*
X147921462Y-57112332D01*
X147931874Y-57103309D01*
X147935389Y-57097638D01*
X147942127Y-57094425D01*
X147955004Y-57083268D01*
X147955498Y-57082976D01*
X148011947Y-57049592D01*
X148108148Y-56953389D01*
X148122939Y-56940758D01*
X148202464Y-56882981D01*
X148342981Y-56742464D01*
X148459787Y-56581694D01*
X148550005Y-56404632D01*
X148611413Y-56215636D01*
X148642500Y-56019361D01*
X148642500Y-55820639D01*
X148611413Y-55624364D01*
X148563045Y-55475500D01*
X148550006Y-55435370D01*
X148550005Y-55435367D01*
X148490967Y-55319500D01*
X148459787Y-55258306D01*
X148342981Y-55097536D01*
X148202464Y-54957019D01*
X148122938Y-54899240D01*
X148116175Y-54893960D01*
X148112000Y-54890461D01*
X148011947Y-54790408D01*
X147946259Y-54751560D01*
X147938477Y-54745038D01*
X147924510Y-54724073D01*
X147907321Y-54705663D01*
X147905471Y-54695492D01*
X147899740Y-54686890D01*
X147899324Y-54661702D01*
X147894817Y-54636921D01*
X147898758Y-54627366D01*
X147898588Y-54617030D01*
X147911856Y-54595616D01*
X147921462Y-54572332D01*
X147931874Y-54563309D01*
X147935389Y-54557638D01*
X147942127Y-54554425D01*
X147955004Y-54543268D01*
X148011947Y-54509592D01*
X148108148Y-54413389D01*
X148122939Y-54400758D01*
X148202464Y-54342981D01*
X148342981Y-54202464D01*
X148459787Y-54041694D01*
X148550005Y-53864632D01*
X148611413Y-53675636D01*
X148642500Y-53479361D01*
X148642500Y-53280639D01*
X148611413Y-53084364D01*
X148550005Y-52895368D01*
X148550005Y-52895367D01*
X148459786Y-52718305D01*
X148342981Y-52557536D01*
X148202464Y-52417019D01*
X148122937Y-52359239D01*
X148108147Y-52346608D01*
X148011947Y-52250408D01*
X148011946Y-52250407D01*
X148011943Y-52250405D01*
X147869957Y-52166435D01*
X147869954Y-52166434D01*
X147711552Y-52120413D01*
X147711546Y-52120412D01*
X147674541Y-52117500D01*
X147674534Y-52117500D01*
X145415466Y-52117500D01*
X145415458Y-52117500D01*
X145378453Y-52120412D01*
X145378447Y-52120413D01*
X145220045Y-52166434D01*
X145220042Y-52166435D01*
X145078056Y-52250405D01*
X145078047Y-52250412D01*
X144961412Y-52367047D01*
X144961405Y-52367056D01*
X144877435Y-52509042D01*
X144877434Y-52509045D01*
X144831413Y-52667447D01*
X144831412Y-52667453D01*
X144828500Y-52704458D01*
X144828500Y-54055541D01*
X144831412Y-54092546D01*
X144831413Y-54092552D01*
X144877434Y-54250954D01*
X144877435Y-54250957D01*
X144961405Y-54392943D01*
X144961412Y-54392952D01*
X145078047Y-54509587D01*
X145078050Y-54509589D01*
X145078053Y-54509592D01*
X145134996Y-54543268D01*
X145182679Y-54594338D01*
X145195182Y-54663079D01*
X145168536Y-54727669D01*
X145134996Y-54756731D01*
X145078053Y-54790408D01*
X145078047Y-54790412D01*
X144961412Y-54907047D01*
X144961405Y-54907056D01*
X144877435Y-55049042D01*
X144877434Y-55049045D01*
X144831413Y-55207447D01*
X144830274Y-55213688D01*
X144828487Y-55213361D01*
X144806706Y-55270514D01*
X144750476Y-55311987D01*
X144707970Y-55319500D01*
X139166670Y-55319500D01*
X139166654Y-55319499D01*
X139159058Y-55319499D01*
X139000943Y-55319499D01*
X138924579Y-55339961D01*
X138848214Y-55360423D01*
X138848209Y-55360426D01*
X138711290Y-55439475D01*
X138711282Y-55439481D01*
X129387584Y-64763181D01*
X129326261Y-64796666D01*
X129299903Y-64799500D01*
X127200098Y-64799500D01*
X127133059Y-64779815D01*
X127112417Y-64763181D01*
X126811416Y-64462180D01*
X126777931Y-64400857D01*
X126782915Y-64331165D01*
X126824787Y-64275232D01*
X126890251Y-64250815D01*
X126899097Y-64250499D01*
X127837871Y-64250499D01*
X127837872Y-64250499D01*
X127897483Y-64244091D01*
X128032331Y-64193796D01*
X128147546Y-64107546D01*
X128233796Y-63992331D01*
X128284091Y-63857483D01*
X128290500Y-63797873D01*
X128290499Y-62202128D01*
X128284091Y-62142517D01*
X128279271Y-62129595D01*
X128233797Y-62007671D01*
X128233793Y-62007664D01*
X128147547Y-61892455D01*
X128147544Y-61892452D01*
X128032335Y-61806206D01*
X128032328Y-61806202D01*
X127897482Y-61755908D01*
X127897483Y-61755908D01*
X127837883Y-61749501D01*
X127837881Y-61749500D01*
X127837873Y-61749500D01*
X127837865Y-61749500D01*
X127764500Y-61749500D01*
X127697461Y-61729815D01*
X127651706Y-61677011D01*
X127640500Y-61625500D01*
X127640500Y-60070096D01*
X127660185Y-60003057D01*
X127676815Y-59982419D01*
X128449169Y-59210064D01*
X128510490Y-59176581D01*
X128556246Y-59175274D01*
X128715514Y-59200500D01*
X128715519Y-59200500D01*
X128904486Y-59200500D01*
X129091118Y-59170940D01*
X129121753Y-59160986D01*
X129270832Y-59112547D01*
X129439199Y-59026760D01*
X129592073Y-58915690D01*
X129725690Y-58782073D01*
X129836760Y-58629199D01*
X129922547Y-58460832D01*
X129980940Y-58281118D01*
X129985274Y-58253752D01*
X130010500Y-58094486D01*
X130010500Y-57905513D01*
X129980940Y-57718881D01*
X129922545Y-57539163D01*
X129836759Y-57370800D01*
X129725690Y-57217927D01*
X129592073Y-57084310D01*
X129439199Y-56973240D01*
X129386709Y-56946495D01*
X129270836Y-56887454D01*
X129091118Y-56829059D01*
X128904486Y-56799500D01*
X128904481Y-56799500D01*
X128715519Y-56799500D01*
X128715514Y-56799500D01*
X128528881Y-56829059D01*
X128349163Y-56887454D01*
X128180800Y-56973240D01*
X128093579Y-57036610D01*
X128027927Y-57084310D01*
X128027925Y-57084312D01*
X128027924Y-57084312D01*
X127894312Y-57217924D01*
X127894312Y-57217925D01*
X127894310Y-57217927D01*
X127874371Y-57245371D01*
X127783240Y-57370800D01*
X127697454Y-57539163D01*
X127639059Y-57718881D01*
X127609500Y-57905513D01*
X127609500Y-58094486D01*
X127634725Y-58253751D01*
X127625770Y-58323045D01*
X127599933Y-58360830D01*
X126671286Y-59289478D01*
X126559481Y-59401282D01*
X126559477Y-59401287D01*
X126518106Y-59472946D01*
X126518106Y-59472947D01*
X126480423Y-59538214D01*
X126480423Y-59538215D01*
X126439499Y-59690943D01*
X126439499Y-59690945D01*
X126439499Y-59859046D01*
X126439500Y-59859059D01*
X126439500Y-61625500D01*
X126419815Y-61692539D01*
X126367011Y-61738294D01*
X126315502Y-61749500D01*
X126242130Y-61749500D01*
X126242123Y-61749501D01*
X126182516Y-61755908D01*
X126047671Y-61806202D01*
X126047664Y-61806206D01*
X125932455Y-61892452D01*
X125932452Y-61892455D01*
X125846206Y-62007664D01*
X125846202Y-62007671D01*
X125795908Y-62142517D01*
X125789501Y-62202116D01*
X125789501Y-62202123D01*
X125789500Y-62202135D01*
X125789500Y-62265732D01*
X125769815Y-62332771D01*
X125717011Y-62378526D01*
X125647853Y-62388470D01*
X125584297Y-62359445D01*
X125565182Y-62338618D01*
X125488525Y-62233110D01*
X125453828Y-62185354D01*
X125314646Y-62046172D01*
X125261654Y-62007671D01*
X125151614Y-61927721D01*
X125108949Y-61872390D01*
X125100500Y-61827403D01*
X125100500Y-61399059D01*
X125100501Y-61399046D01*
X125100501Y-61230945D01*
X125100501Y-61230943D01*
X125059577Y-61078215D01*
X125030639Y-61028095D01*
X124980520Y-60941284D01*
X124868716Y-60829480D01*
X124868715Y-60829479D01*
X124864385Y-60825149D01*
X124864374Y-60825139D01*
X122400066Y-58360831D01*
X122366581Y-58299508D01*
X122365274Y-58253752D01*
X122390500Y-58094486D01*
X122390500Y-57905513D01*
X122360940Y-57718881D01*
X122302545Y-57539163D01*
X122216759Y-57370800D01*
X122105690Y-57217927D01*
X121972073Y-57084310D01*
X121819199Y-56973240D01*
X121766709Y-56946495D01*
X121650836Y-56887454D01*
X121471118Y-56829059D01*
X121284486Y-56799500D01*
X121284481Y-56799500D01*
X121095519Y-56799500D01*
X121095514Y-56799500D01*
X120908881Y-56829059D01*
X120729163Y-56887454D01*
X120560800Y-56973240D01*
X120473579Y-57036610D01*
X120407927Y-57084310D01*
X120407925Y-57084312D01*
X120407924Y-57084312D01*
X120274312Y-57217924D01*
X120274312Y-57217925D01*
X120274310Y-57217927D01*
X120254371Y-57245371D01*
X120163240Y-57370800D01*
X120077454Y-57539163D01*
X120019059Y-57718881D01*
X119989500Y-57905513D01*
X119989500Y-58094486D01*
X120019059Y-58281118D01*
X120077454Y-58460836D01*
X120163240Y-58629199D01*
X120274310Y-58782073D01*
X120407927Y-58915690D01*
X120560801Y-59026760D01*
X120640347Y-59067290D01*
X120729163Y-59112545D01*
X120729165Y-59112545D01*
X120729168Y-59112547D01*
X120799936Y-59135541D01*
X120908881Y-59170940D01*
X121095514Y-59200500D01*
X121095519Y-59200500D01*
X121284486Y-59200500D01*
X121401017Y-59182042D01*
X121443753Y-59175274D01*
X121513045Y-59184228D01*
X121550831Y-59210066D01*
X123863181Y-61522416D01*
X123877884Y-61549343D01*
X123894477Y-61575162D01*
X123895368Y-61581362D01*
X123896666Y-61583739D01*
X123899500Y-61610097D01*
X123899500Y-61827403D01*
X123879815Y-61894442D01*
X123848386Y-61927721D01*
X123685352Y-62046173D01*
X123546174Y-62185351D01*
X123546174Y-62185352D01*
X123546172Y-62185354D01*
X123517726Y-62224506D01*
X123430476Y-62344594D01*
X123340485Y-62521213D01*
X123292511Y-62572009D01*
X123224690Y-62588804D01*
X123158555Y-62566267D01*
X123119515Y-62521213D01*
X123051879Y-62388470D01*
X123029524Y-62344595D01*
X122913828Y-62185354D01*
X122774646Y-62046172D01*
X122615405Y-61930476D01*
X122560499Y-61902500D01*
X122440029Y-61841117D01*
X122252826Y-61780290D01*
X122058422Y-61749500D01*
X122058417Y-61749500D01*
X121861583Y-61749500D01*
X121861578Y-61749500D01*
X121667173Y-61780290D01*
X121479970Y-61841117D01*
X121304594Y-61930476D01*
X121213741Y-61996485D01*
X121145354Y-62046172D01*
X121145352Y-62046174D01*
X121145351Y-62046174D01*
X121006174Y-62185351D01*
X121006174Y-62185352D01*
X121006172Y-62185354D01*
X120977726Y-62224506D01*
X120890476Y-62344594D01*
X120800204Y-62521764D01*
X120752229Y-62572560D01*
X120684408Y-62589355D01*
X120618274Y-62566818D01*
X120579234Y-62521764D01*
X120489096Y-62344858D01*
X120463678Y-62309873D01*
X120463677Y-62309873D01*
X119820000Y-62953551D01*
X119820000Y-62947339D01*
X119792741Y-62845606D01*
X119740080Y-62754394D01*
X119665606Y-62679920D01*
X119574394Y-62627259D01*
X119472661Y-62600000D01*
X119466447Y-62600000D01*
X120110125Y-61956320D01*
X120110125Y-61956319D01*
X120075145Y-61930905D01*
X119899835Y-61841581D01*
X119712705Y-61780778D01*
X119518382Y-61750000D01*
X119321618Y-61750000D01*
X119127294Y-61780778D01*
X118940161Y-61841582D01*
X118764863Y-61930899D01*
X118764859Y-61930902D01*
X118729873Y-61956320D01*
X118729872Y-61956320D01*
X119373554Y-62600000D01*
X119367339Y-62600000D01*
X119265606Y-62627259D01*
X119174394Y-62679920D01*
X119099920Y-62754394D01*
X119047259Y-62845606D01*
X119020000Y-62947339D01*
X119020000Y-62953552D01*
X118376320Y-62309872D01*
X118376320Y-62309873D01*
X118350902Y-62344859D01*
X118350899Y-62344863D01*
X118261582Y-62520161D01*
X118200778Y-62707294D01*
X118170000Y-62901617D01*
X118170000Y-63098382D01*
X118200778Y-63292705D01*
X118261581Y-63479835D01*
X118350905Y-63655145D01*
X118376319Y-63690125D01*
X118376320Y-63690125D01*
X119020000Y-63046445D01*
X119020000Y-63052661D01*
X119047259Y-63154394D01*
X119099920Y-63245606D01*
X119174394Y-63320080D01*
X119265606Y-63372741D01*
X119367339Y-63400000D01*
X119373553Y-63400000D01*
X118729873Y-64043677D01*
X118729873Y-64043678D01*
X118764858Y-64069096D01*
X118940164Y-64158418D01*
X119127294Y-64219221D01*
X119321618Y-64250000D01*
X119518382Y-64250000D01*
X119712705Y-64219221D01*
X119899835Y-64158418D01*
X120075143Y-64069095D01*
X120110125Y-64043678D01*
X120110126Y-64043678D01*
X119466448Y-63400000D01*
X119472661Y-63400000D01*
X119574394Y-63372741D01*
X119665606Y-63320080D01*
X119740080Y-63245606D01*
X119792741Y-63154394D01*
X119820000Y-63052661D01*
X119820000Y-63046448D01*
X120463678Y-63690126D01*
X120463678Y-63690125D01*
X120489097Y-63655141D01*
X120579234Y-63478236D01*
X120627208Y-63427439D01*
X120695029Y-63410644D01*
X120761164Y-63433181D01*
X120800204Y-63478235D01*
X120801115Y-63480024D01*
X120801116Y-63480025D01*
X120890476Y-63655405D01*
X121006172Y-63814646D01*
X121145354Y-63953828D01*
X121304595Y-64069524D01*
X121379214Y-64107544D01*
X121479970Y-64158882D01*
X121479972Y-64158882D01*
X121479975Y-64158884D01*
X121580317Y-64191487D01*
X121667173Y-64219709D01*
X121861578Y-64250500D01*
X121861583Y-64250500D01*
X122058422Y-64250500D01*
X122252826Y-64219709D01*
X122308270Y-64201694D01*
X122440025Y-64158884D01*
X122615405Y-64069524D01*
X122774646Y-63953828D01*
X122913828Y-63814646D01*
X123029524Y-63655405D01*
X123118884Y-63480025D01*
X123119515Y-63478787D01*
X123167489Y-63427990D01*
X123235310Y-63411195D01*
X123301445Y-63433732D01*
X123340485Y-63478787D01*
X123430474Y-63655403D01*
X123455702Y-63690125D01*
X123546172Y-63814646D01*
X123685354Y-63953828D01*
X123844595Y-64069524D01*
X123919214Y-64107544D01*
X124019970Y-64158882D01*
X124019972Y-64158882D01*
X124019975Y-64158884D01*
X124120317Y-64191487D01*
X124207173Y-64219709D01*
X124401578Y-64250500D01*
X124401583Y-64250500D01*
X124598422Y-64250500D01*
X124797454Y-64218976D01*
X124866747Y-64227930D01*
X124904532Y-64253767D01*
X126531284Y-65880520D01*
X126531286Y-65880521D01*
X126531290Y-65880524D01*
X126668209Y-65959573D01*
X126668216Y-65959577D01*
X126820943Y-66000501D01*
X126820945Y-66000501D01*
X126986654Y-66000501D01*
X126986670Y-66000500D01*
X129513331Y-66000500D01*
X129513347Y-66000501D01*
X129520943Y-66000501D01*
X129679054Y-66000501D01*
X129679057Y-66000501D01*
X129831785Y-65959577D01*
X129881904Y-65930639D01*
X129968716Y-65880520D01*
X130080520Y-65768716D01*
X130080520Y-65768714D01*
X130090728Y-65758507D01*
X130090729Y-65758504D01*
X139292417Y-56556819D01*
X139353740Y-56523334D01*
X139380098Y-56520500D01*
X144707970Y-56520500D01*
X144775009Y-56540185D01*
X144820764Y-56592989D01*
X144829435Y-56626465D01*
X144830274Y-56626312D01*
X144831413Y-56632552D01*
X144877434Y-56790954D01*
X144877435Y-56790957D01*
X144961405Y-56932943D01*
X144961412Y-56932952D01*
X145078047Y-57049587D01*
X145078050Y-57049589D01*
X145078053Y-57049592D01*
X145134502Y-57082976D01*
X145134996Y-57083268D01*
X145182679Y-57134338D01*
X145195182Y-57203079D01*
X145168536Y-57267669D01*
X145134996Y-57296732D01*
X145078053Y-57330408D01*
X145078047Y-57330412D01*
X144961412Y-57447047D01*
X144961405Y-57447056D01*
X144877435Y-57589042D01*
X144877434Y-57589045D01*
X144831413Y-57747447D01*
X144831412Y-57747453D01*
X144828500Y-57784458D01*
X144828500Y-58033272D01*
X144808815Y-58100311D01*
X144792181Y-58120953D01*
X132788181Y-70124953D01*
X132726858Y-70158438D01*
X132657166Y-70153454D01*
X132601233Y-70111582D01*
X132576816Y-70046118D01*
X132576500Y-70037272D01*
X132576500Y-69872163D01*
X132576499Y-69872149D01*
X132560364Y-69749594D01*
X132543126Y-69618660D01*
X132476950Y-69371687D01*
X132379104Y-69135465D01*
X132379102Y-69135462D01*
X132379100Y-69135457D01*
X132251265Y-68914042D01*
X132251261Y-68914035D01*
X132101882Y-68719361D01*
X132095611Y-68711188D01*
X132095605Y-68711181D01*
X131914818Y-68530394D01*
X131914811Y-68530388D01*
X131711973Y-68374745D01*
X131711971Y-68374743D01*
X131711965Y-68374739D01*
X131711960Y-68374736D01*
X131711957Y-68374734D01*
X131490542Y-68246899D01*
X131490531Y-68246894D01*
X131254322Y-68149053D01*
X131254315Y-68149051D01*
X131254313Y-68149050D01*
X131007340Y-68082874D01*
X130951007Y-68075457D01*
X130753850Y-68049500D01*
X130753843Y-68049500D01*
X129598157Y-68049500D01*
X129598149Y-68049500D01*
X129372826Y-68079165D01*
X129344660Y-68082874D01*
X129148753Y-68135367D01*
X129097687Y-68149050D01*
X129097677Y-68149053D01*
X128861468Y-68246894D01*
X128861457Y-68246899D01*
X128640042Y-68374734D01*
X128640026Y-68374745D01*
X128437188Y-68530388D01*
X128437181Y-68530394D01*
X128256394Y-68711181D01*
X128256388Y-68711188D01*
X128100745Y-68914026D01*
X128100734Y-68914042D01*
X127972899Y-69135457D01*
X127972894Y-69135468D01*
X127875053Y-69371677D01*
X127875050Y-69371687D01*
X127818434Y-69582984D01*
X127808874Y-69618661D01*
X127775500Y-69872149D01*
X127775500Y-70127850D01*
X127801457Y-70325007D01*
X127808874Y-70381340D01*
X127875050Y-70628312D01*
X127875053Y-70628322D01*
X127972894Y-70864531D01*
X127972899Y-70864542D01*
X128100734Y-71085957D01*
X128100745Y-71085973D01*
X128256388Y-71288811D01*
X128256394Y-71288818D01*
X128437181Y-71469605D01*
X128437187Y-71469610D01*
X128640035Y-71625261D01*
X128640042Y-71625265D01*
X128861457Y-71753100D01*
X128861462Y-71753102D01*
X128861465Y-71753104D01*
X129097687Y-71850950D01*
X129344660Y-71917126D01*
X129598157Y-71950500D01*
X129598164Y-71950500D01*
X130663272Y-71950500D01*
X130730311Y-71970185D01*
X130776066Y-72022989D01*
X130786010Y-72092147D01*
X130756985Y-72155703D01*
X130750953Y-72162181D01*
X124519481Y-78393652D01*
X124519479Y-78393655D01*
X124469361Y-78480464D01*
X124469359Y-78480466D01*
X124440425Y-78530579D01*
X124440424Y-78530580D01*
X124440423Y-78530585D01*
X124399499Y-78683313D01*
X124399499Y-78683315D01*
X124399499Y-78851416D01*
X124399500Y-78851429D01*
X124399500Y-79275500D01*
X124379815Y-79342539D01*
X124327011Y-79388294D01*
X124275500Y-79399500D01*
X99920943Y-79399500D01*
X99768216Y-79440423D01*
X99768209Y-79440426D01*
X99631290Y-79519475D01*
X99631282Y-79519481D01*
X99519481Y-79631282D01*
X99519475Y-79631290D01*
X99440426Y-79768209D01*
X99440423Y-79768216D01*
X99399500Y-79920943D01*
X99399500Y-94913330D01*
X99399499Y-94913348D01*
X99399499Y-95079054D01*
X99399498Y-95079054D01*
X79850257Y-95079054D01*
X79469796Y-69872149D01*
X105423500Y-69872149D01*
X105423500Y-70127850D01*
X105449457Y-70325007D01*
X105456874Y-70381340D01*
X105523050Y-70628312D01*
X105523053Y-70628322D01*
X105620894Y-70864531D01*
X105620899Y-70864542D01*
X105748734Y-71085957D01*
X105748745Y-71085973D01*
X105904388Y-71288811D01*
X105904394Y-71288818D01*
X106085181Y-71469605D01*
X106085187Y-71469610D01*
X106288035Y-71625261D01*
X106288042Y-71625265D01*
X106509457Y-71753100D01*
X106509462Y-71753102D01*
X106509465Y-71753104D01*
X106745687Y-71850950D01*
X106992660Y-71917126D01*
X107246157Y-71950500D01*
X107246164Y-71950500D01*
X108401836Y-71950500D01*
X108401843Y-71950500D01*
X108655340Y-71917126D01*
X108902313Y-71850950D01*
X109138535Y-71753104D01*
X109359965Y-71625261D01*
X109562813Y-71469610D01*
X109743610Y-71288813D01*
X109899261Y-71085965D01*
X110027104Y-70864535D01*
X110124950Y-70628313D01*
X110191126Y-70381340D01*
X110224500Y-70127843D01*
X110224500Y-69872157D01*
X110191126Y-69618660D01*
X110124950Y-69371687D01*
X110027104Y-69135465D01*
X110027102Y-69135462D01*
X110027100Y-69135457D01*
X109899265Y-68914042D01*
X109899261Y-68914035D01*
X109749882Y-68719361D01*
X109743611Y-68711188D01*
X109743605Y-68711181D01*
X109562818Y-68530394D01*
X109562811Y-68530388D01*
X109359973Y-68374745D01*
X109359971Y-68374743D01*
X109359965Y-68374739D01*
X109359960Y-68374736D01*
X109359957Y-68374734D01*
X109138542Y-68246899D01*
X109138531Y-68246894D01*
X108902322Y-68149053D01*
X108902315Y-68149051D01*
X108902313Y-68149050D01*
X108655340Y-68082874D01*
X108599007Y-68075457D01*
X108401850Y-68049500D01*
X108401843Y-68049500D01*
X107246157Y-68049500D01*
X107246149Y-68049500D01*
X107020826Y-68079165D01*
X106992660Y-68082874D01*
X106796753Y-68135367D01*
X106745687Y-68149050D01*
X106745677Y-68149053D01*
X106509468Y-68246894D01*
X106509457Y-68246899D01*
X106288042Y-68374734D01*
X106288026Y-68374745D01*
X106085188Y-68530388D01*
X106085181Y-68530394D01*
X105904394Y-68711181D01*
X105904388Y-68711188D01*
X105748745Y-68914026D01*
X105748734Y-68914042D01*
X105620899Y-69135457D01*
X105620894Y-69135468D01*
X105523053Y-69371677D01*
X105523050Y-69371687D01*
X105466434Y-69582984D01*
X105456874Y-69618661D01*
X105423500Y-69872149D01*
X79469796Y-69872149D01*
X79388756Y-64502984D01*
X79381138Y-63998290D01*
X79364540Y-62898622D01*
X79351059Y-62005450D01*
X79291104Y-58033272D01*
X79195829Y-51720973D01*
X79214500Y-51653646D01*
X79266607Y-51607100D01*
X79317941Y-51595118D01*
X163878404Y-50318800D01*
X163879839Y-50318787D01*
X184875773Y-50280203D01*
X184942848Y-50299765D01*
G37*
%TD.AperFunction*%
%TD*%
M02*
