%TF.GenerationSoftware,KiCad,Pcbnew,10.0.3*%
%TF.CreationDate,2026-10-10T15:27:19-04:00*%
%TF.ProjectId,Starbie,53746172-6269-4652-9e6b-696361645f70,rev?*%
%TF.SameCoordinates,Original*%
%TF.FileFunction,Legend,Top*%
%TF.FilePolarity,Positive*%
%FSLAX46Y46*%
G04 Gerber Fmt 4.6, Leading zero omitted, Abs format (unit mm)*
G04 Created by KiCad (PCBNEW 10.0.3) date 2026-10-10 15:27:19*
%MOMM*%
%LPD*%
G01*
G04 APERTURE LIST*
%ADD10C,0.100000*%
%ADD11C,0.150000*%
%ADD12C,0.101600*%
%ADD13C,0.120000*%
%ADD14C,0.000000*%
%ADD15C,0.127000*%
%ADD16C,0.504000*%
G04 APERTURE END LIST*
D10*
X160161027Y-98872419D02*
X160494360Y-99872419D01*
X160494360Y-99872419D02*
X160827693Y-98872419D01*
X161303884Y-99872419D02*
X161208646Y-99824800D01*
X161208646Y-99824800D02*
X161161027Y-99777180D01*
X161161027Y-99777180D02*
X161113408Y-99681942D01*
X161113408Y-99681942D02*
X161113408Y-99396228D01*
X161113408Y-99396228D02*
X161161027Y-99300990D01*
X161161027Y-99300990D02*
X161208646Y-99253371D01*
X161208646Y-99253371D02*
X161303884Y-99205752D01*
X161303884Y-99205752D02*
X161446741Y-99205752D01*
X161446741Y-99205752D02*
X161541979Y-99253371D01*
X161541979Y-99253371D02*
X161589598Y-99300990D01*
X161589598Y-99300990D02*
X161637217Y-99396228D01*
X161637217Y-99396228D02*
X161637217Y-99681942D01*
X161637217Y-99681942D02*
X161589598Y-99777180D01*
X161589598Y-99777180D02*
X161541979Y-99824800D01*
X161541979Y-99824800D02*
X161446741Y-99872419D01*
X161446741Y-99872419D02*
X161303884Y-99872419D01*
X162208646Y-99872419D02*
X162113408Y-99824800D01*
X162113408Y-99824800D02*
X162065789Y-99729561D01*
X162065789Y-99729561D02*
X162065789Y-98872419D01*
X163018170Y-99205752D02*
X163018170Y-99872419D01*
X162589599Y-99205752D02*
X162589599Y-99729561D01*
X162589599Y-99729561D02*
X162637218Y-99824800D01*
X162637218Y-99824800D02*
X162732456Y-99872419D01*
X162732456Y-99872419D02*
X162875313Y-99872419D01*
X162875313Y-99872419D02*
X162970551Y-99824800D01*
X162970551Y-99824800D02*
X163018170Y-99777180D01*
X163494361Y-99872419D02*
X163494361Y-99205752D01*
X163494361Y-99300990D02*
X163541980Y-99253371D01*
X163541980Y-99253371D02*
X163637218Y-99205752D01*
X163637218Y-99205752D02*
X163780075Y-99205752D01*
X163780075Y-99205752D02*
X163875313Y-99253371D01*
X163875313Y-99253371D02*
X163922932Y-99348609D01*
X163922932Y-99348609D02*
X163922932Y-99872419D01*
X163922932Y-99348609D02*
X163970551Y-99253371D01*
X163970551Y-99253371D02*
X164065789Y-99205752D01*
X164065789Y-99205752D02*
X164208646Y-99205752D01*
X164208646Y-99205752D02*
X164303885Y-99253371D01*
X164303885Y-99253371D02*
X164351504Y-99348609D01*
X164351504Y-99348609D02*
X164351504Y-99872419D01*
X165208646Y-99824800D02*
X165113408Y-99872419D01*
X165113408Y-99872419D02*
X164922932Y-99872419D01*
X164922932Y-99872419D02*
X164827694Y-99824800D01*
X164827694Y-99824800D02*
X164780075Y-99729561D01*
X164780075Y-99729561D02*
X164780075Y-99348609D01*
X164780075Y-99348609D02*
X164827694Y-99253371D01*
X164827694Y-99253371D02*
X164922932Y-99205752D01*
X164922932Y-99205752D02*
X165113408Y-99205752D01*
X165113408Y-99205752D02*
X165208646Y-99253371D01*
X165208646Y-99253371D02*
X165256265Y-99348609D01*
X165256265Y-99348609D02*
X165256265Y-99443847D01*
X165256265Y-99443847D02*
X164780075Y-99539085D01*
X167018170Y-99777180D02*
X166970551Y-99824800D01*
X166970551Y-99824800D02*
X166827694Y-99872419D01*
X166827694Y-99872419D02*
X166732456Y-99872419D01*
X166732456Y-99872419D02*
X166589599Y-99824800D01*
X166589599Y-99824800D02*
X166494361Y-99729561D01*
X166494361Y-99729561D02*
X166446742Y-99634323D01*
X166446742Y-99634323D02*
X166399123Y-99443847D01*
X166399123Y-99443847D02*
X166399123Y-99300990D01*
X166399123Y-99300990D02*
X166446742Y-99110514D01*
X166446742Y-99110514D02*
X166494361Y-99015276D01*
X166494361Y-99015276D02*
X166589599Y-98920038D01*
X166589599Y-98920038D02*
X166732456Y-98872419D01*
X166732456Y-98872419D02*
X166827694Y-98872419D01*
X166827694Y-98872419D02*
X166970551Y-98920038D01*
X166970551Y-98920038D02*
X167018170Y-98967657D01*
X167589599Y-99872419D02*
X167494361Y-99824800D01*
X167494361Y-99824800D02*
X167446742Y-99777180D01*
X167446742Y-99777180D02*
X167399123Y-99681942D01*
X167399123Y-99681942D02*
X167399123Y-99396228D01*
X167399123Y-99396228D02*
X167446742Y-99300990D01*
X167446742Y-99300990D02*
X167494361Y-99253371D01*
X167494361Y-99253371D02*
X167589599Y-99205752D01*
X167589599Y-99205752D02*
X167732456Y-99205752D01*
X167732456Y-99205752D02*
X167827694Y-99253371D01*
X167827694Y-99253371D02*
X167875313Y-99300990D01*
X167875313Y-99300990D02*
X167922932Y-99396228D01*
X167922932Y-99396228D02*
X167922932Y-99681942D01*
X167922932Y-99681942D02*
X167875313Y-99777180D01*
X167875313Y-99777180D02*
X167827694Y-99824800D01*
X167827694Y-99824800D02*
X167732456Y-99872419D01*
X167732456Y-99872419D02*
X167589599Y-99872419D01*
X168351504Y-99205752D02*
X168351504Y-99872419D01*
X168351504Y-99300990D02*
X168399123Y-99253371D01*
X168399123Y-99253371D02*
X168494361Y-99205752D01*
X168494361Y-99205752D02*
X168637218Y-99205752D01*
X168637218Y-99205752D02*
X168732456Y-99253371D01*
X168732456Y-99253371D02*
X168780075Y-99348609D01*
X168780075Y-99348609D02*
X168780075Y-99872419D01*
X169113409Y-99205752D02*
X169494361Y-99205752D01*
X169256266Y-98872419D02*
X169256266Y-99729561D01*
X169256266Y-99729561D02*
X169303885Y-99824800D01*
X169303885Y-99824800D02*
X169399123Y-99872419D01*
X169399123Y-99872419D02*
X169494361Y-99872419D01*
X169827695Y-99872419D02*
X169827695Y-99205752D01*
X169827695Y-99396228D02*
X169875314Y-99300990D01*
X169875314Y-99300990D02*
X169922933Y-99253371D01*
X169922933Y-99253371D02*
X170018171Y-99205752D01*
X170018171Y-99205752D02*
X170113409Y-99205752D01*
X170589600Y-99872419D02*
X170494362Y-99824800D01*
X170494362Y-99824800D02*
X170446743Y-99777180D01*
X170446743Y-99777180D02*
X170399124Y-99681942D01*
X170399124Y-99681942D02*
X170399124Y-99396228D01*
X170399124Y-99396228D02*
X170446743Y-99300990D01*
X170446743Y-99300990D02*
X170494362Y-99253371D01*
X170494362Y-99253371D02*
X170589600Y-99205752D01*
X170589600Y-99205752D02*
X170732457Y-99205752D01*
X170732457Y-99205752D02*
X170827695Y-99253371D01*
X170827695Y-99253371D02*
X170875314Y-99300990D01*
X170875314Y-99300990D02*
X170922933Y-99396228D01*
X170922933Y-99396228D02*
X170922933Y-99681942D01*
X170922933Y-99681942D02*
X170875314Y-99777180D01*
X170875314Y-99777180D02*
X170827695Y-99824800D01*
X170827695Y-99824800D02*
X170732457Y-99872419D01*
X170732457Y-99872419D02*
X170589600Y-99872419D01*
X171494362Y-99872419D02*
X171399124Y-99824800D01*
X171399124Y-99824800D02*
X171351505Y-99729561D01*
X171351505Y-99729561D02*
X171351505Y-98872419D01*
D11*
X164404761Y-84304819D02*
X164071428Y-83828628D01*
X163833333Y-84304819D02*
X163833333Y-83304819D01*
X163833333Y-83304819D02*
X164214285Y-83304819D01*
X164214285Y-83304819D02*
X164309523Y-83352438D01*
X164309523Y-83352438D02*
X164357142Y-83400057D01*
X164357142Y-83400057D02*
X164404761Y-83495295D01*
X164404761Y-83495295D02*
X164404761Y-83638152D01*
X164404761Y-83638152D02*
X164357142Y-83733390D01*
X164357142Y-83733390D02*
X164309523Y-83781009D01*
X164309523Y-83781009D02*
X164214285Y-83828628D01*
X164214285Y-83828628D02*
X163833333Y-83828628D01*
X164690476Y-83304819D02*
X165023809Y-84304819D01*
X165023809Y-84304819D02*
X165357142Y-83304819D01*
X165642857Y-83400057D02*
X165690476Y-83352438D01*
X165690476Y-83352438D02*
X165785714Y-83304819D01*
X165785714Y-83304819D02*
X166023809Y-83304819D01*
X166023809Y-83304819D02*
X166119047Y-83352438D01*
X166119047Y-83352438D02*
X166166666Y-83400057D01*
X166166666Y-83400057D02*
X166214285Y-83495295D01*
X166214285Y-83495295D02*
X166214285Y-83590533D01*
X166214285Y-83590533D02*
X166166666Y-83733390D01*
X166166666Y-83733390D02*
X165595238Y-84304819D01*
X165595238Y-84304819D02*
X166214285Y-84304819D01*
X124833333Y-55454819D02*
X124500000Y-54978628D01*
X124261905Y-55454819D02*
X124261905Y-54454819D01*
X124261905Y-54454819D02*
X124642857Y-54454819D01*
X124642857Y-54454819D02*
X124738095Y-54502438D01*
X124738095Y-54502438D02*
X124785714Y-54550057D01*
X124785714Y-54550057D02*
X124833333Y-54645295D01*
X124833333Y-54645295D02*
X124833333Y-54788152D01*
X124833333Y-54788152D02*
X124785714Y-54883390D01*
X124785714Y-54883390D02*
X124738095Y-54931009D01*
X124738095Y-54931009D02*
X124642857Y-54978628D01*
X124642857Y-54978628D02*
X124261905Y-54978628D01*
X125785714Y-55454819D02*
X125214286Y-55454819D01*
X125500000Y-55454819D02*
X125500000Y-54454819D01*
X125500000Y-54454819D02*
X125404762Y-54597676D01*
X125404762Y-54597676D02*
X125309524Y-54692914D01*
X125309524Y-54692914D02*
X125214286Y-54740533D01*
X129994819Y-62761904D02*
X130804342Y-62761904D01*
X130804342Y-62761904D02*
X130899580Y-62714285D01*
X130899580Y-62714285D02*
X130947200Y-62666666D01*
X130947200Y-62666666D02*
X130994819Y-62571428D01*
X130994819Y-62571428D02*
X130994819Y-62380952D01*
X130994819Y-62380952D02*
X130947200Y-62285714D01*
X130947200Y-62285714D02*
X130899580Y-62238095D01*
X130899580Y-62238095D02*
X130804342Y-62190476D01*
X130804342Y-62190476D02*
X129994819Y-62190476D01*
X130090057Y-61761904D02*
X130042438Y-61714285D01*
X130042438Y-61714285D02*
X129994819Y-61619047D01*
X129994819Y-61619047D02*
X129994819Y-61380952D01*
X129994819Y-61380952D02*
X130042438Y-61285714D01*
X130042438Y-61285714D02*
X130090057Y-61238095D01*
X130090057Y-61238095D02*
X130185295Y-61190476D01*
X130185295Y-61190476D02*
X130280533Y-61190476D01*
X130280533Y-61190476D02*
X130423390Y-61238095D01*
X130423390Y-61238095D02*
X130994819Y-61809523D01*
X130994819Y-61809523D02*
X130994819Y-61190476D01*
X113460667Y-112882200D02*
X113603524Y-112929819D01*
X113603524Y-112929819D02*
X113841619Y-112929819D01*
X113841619Y-112929819D02*
X113936857Y-112882200D01*
X113936857Y-112882200D02*
X113984476Y-112834580D01*
X113984476Y-112834580D02*
X114032095Y-112739342D01*
X114032095Y-112739342D02*
X114032095Y-112644104D01*
X114032095Y-112644104D02*
X113984476Y-112548866D01*
X113984476Y-112548866D02*
X113936857Y-112501247D01*
X113936857Y-112501247D02*
X113841619Y-112453628D01*
X113841619Y-112453628D02*
X113651143Y-112406009D01*
X113651143Y-112406009D02*
X113555905Y-112358390D01*
X113555905Y-112358390D02*
X113508286Y-112310771D01*
X113508286Y-112310771D02*
X113460667Y-112215533D01*
X113460667Y-112215533D02*
X113460667Y-112120295D01*
X113460667Y-112120295D02*
X113508286Y-112025057D01*
X113508286Y-112025057D02*
X113555905Y-111977438D01*
X113555905Y-111977438D02*
X113651143Y-111929819D01*
X113651143Y-111929819D02*
X113889238Y-111929819D01*
X113889238Y-111929819D02*
X114032095Y-111977438D01*
X114365429Y-111929819D02*
X114603524Y-112929819D01*
X114603524Y-112929819D02*
X114794000Y-112215533D01*
X114794000Y-112215533D02*
X114984476Y-112929819D01*
X114984476Y-112929819D02*
X115222572Y-111929819D01*
X116127333Y-112929819D02*
X115555905Y-112929819D01*
X115841619Y-112929819D02*
X115841619Y-111929819D01*
X115841619Y-111929819D02*
X115746381Y-112072676D01*
X115746381Y-112072676D02*
X115651143Y-112167914D01*
X115651143Y-112167914D02*
X115555905Y-112215533D01*
X112799266Y-82573619D02*
X112799266Y-83287904D01*
X112799266Y-83287904D02*
X112751647Y-83430761D01*
X112751647Y-83430761D02*
X112656409Y-83526000D01*
X112656409Y-83526000D02*
X112513552Y-83573619D01*
X112513552Y-83573619D02*
X112418314Y-83573619D01*
X113799266Y-83573619D02*
X113227838Y-83573619D01*
X113513552Y-83573619D02*
X113513552Y-82573619D01*
X113513552Y-82573619D02*
X113418314Y-82716476D01*
X113418314Y-82716476D02*
X113323076Y-82811714D01*
X113323076Y-82811714D02*
X113227838Y-82859333D01*
X114150000Y-90407200D02*
X114250000Y-90454819D01*
X114250000Y-90454819D02*
X114416667Y-90454819D01*
X114416667Y-90454819D02*
X114483333Y-90407200D01*
X114483333Y-90407200D02*
X114516667Y-90359580D01*
X114516667Y-90359580D02*
X114550000Y-90264342D01*
X114550000Y-90264342D02*
X114550000Y-90169104D01*
X114550000Y-90169104D02*
X114516667Y-90073866D01*
X114516667Y-90073866D02*
X114483333Y-90026247D01*
X114483333Y-90026247D02*
X114416667Y-89978628D01*
X114416667Y-89978628D02*
X114283333Y-89931009D01*
X114283333Y-89931009D02*
X114216667Y-89883390D01*
X114216667Y-89883390D02*
X114183333Y-89835771D01*
X114183333Y-89835771D02*
X114150000Y-89740533D01*
X114150000Y-89740533D02*
X114150000Y-89645295D01*
X114150000Y-89645295D02*
X114183333Y-89550057D01*
X114183333Y-89550057D02*
X114216667Y-89502438D01*
X114216667Y-89502438D02*
X114283333Y-89454819D01*
X114283333Y-89454819D02*
X114450000Y-89454819D01*
X114450000Y-89454819D02*
X114550000Y-89502438D01*
X114850000Y-90454819D02*
X114850000Y-89454819D01*
X114850000Y-89454819D02*
X115016667Y-89454819D01*
X115016667Y-89454819D02*
X115116667Y-89502438D01*
X115116667Y-89502438D02*
X115183334Y-89597676D01*
X115183334Y-89597676D02*
X115216667Y-89692914D01*
X115216667Y-89692914D02*
X115250000Y-89883390D01*
X115250000Y-89883390D02*
X115250000Y-90026247D01*
X115250000Y-90026247D02*
X115216667Y-90216723D01*
X115216667Y-90216723D02*
X115183334Y-90311961D01*
X115183334Y-90311961D02*
X115116667Y-90407200D01*
X115116667Y-90407200D02*
X115016667Y-90454819D01*
X115016667Y-90454819D02*
X114850000Y-90454819D01*
X115516667Y-90169104D02*
X115850000Y-90169104D01*
X115450000Y-90454819D02*
X115683334Y-89454819D01*
X115683334Y-89454819D02*
X115916667Y-90454819D01*
X119066666Y-91285819D02*
X119300000Y-92285819D01*
X119300000Y-92285819D02*
X119533333Y-91285819D01*
X119766666Y-92285819D02*
X119766666Y-91285819D01*
X119766666Y-91285819D02*
X119933333Y-91285819D01*
X119933333Y-91285819D02*
X120033333Y-91333438D01*
X120033333Y-91333438D02*
X120100000Y-91428676D01*
X120100000Y-91428676D02*
X120133333Y-91523914D01*
X120133333Y-91523914D02*
X120166666Y-91714390D01*
X120166666Y-91714390D02*
X120166666Y-91857247D01*
X120166666Y-91857247D02*
X120133333Y-92047723D01*
X120133333Y-92047723D02*
X120100000Y-92142961D01*
X120100000Y-92142961D02*
X120033333Y-92238200D01*
X120033333Y-92238200D02*
X119933333Y-92285819D01*
X119933333Y-92285819D02*
X119766666Y-92285819D01*
X120466666Y-92285819D02*
X120466666Y-91285819D01*
X120466666Y-91285819D02*
X120633333Y-91285819D01*
X120633333Y-91285819D02*
X120733333Y-91333438D01*
X120733333Y-91333438D02*
X120800000Y-91428676D01*
X120800000Y-91428676D02*
X120833333Y-91523914D01*
X120833333Y-91523914D02*
X120866666Y-91714390D01*
X120866666Y-91714390D02*
X120866666Y-91857247D01*
X120866666Y-91857247D02*
X120833333Y-92047723D01*
X120833333Y-92047723D02*
X120800000Y-92142961D01*
X120800000Y-92142961D02*
X120733333Y-92238200D01*
X120733333Y-92238200D02*
X120633333Y-92285819D01*
X120633333Y-92285819D02*
X120466666Y-92285819D01*
X119166666Y-95407200D02*
X119266666Y-95454819D01*
X119266666Y-95454819D02*
X119433333Y-95454819D01*
X119433333Y-95454819D02*
X119499999Y-95407200D01*
X119499999Y-95407200D02*
X119533333Y-95359580D01*
X119533333Y-95359580D02*
X119566666Y-95264342D01*
X119566666Y-95264342D02*
X119566666Y-95169104D01*
X119566666Y-95169104D02*
X119533333Y-95073866D01*
X119533333Y-95073866D02*
X119499999Y-95026247D01*
X119499999Y-95026247D02*
X119433333Y-94978628D01*
X119433333Y-94978628D02*
X119299999Y-94931009D01*
X119299999Y-94931009D02*
X119233333Y-94883390D01*
X119233333Y-94883390D02*
X119199999Y-94835771D01*
X119199999Y-94835771D02*
X119166666Y-94740533D01*
X119166666Y-94740533D02*
X119166666Y-94645295D01*
X119166666Y-94645295D02*
X119199999Y-94550057D01*
X119199999Y-94550057D02*
X119233333Y-94502438D01*
X119233333Y-94502438D02*
X119299999Y-94454819D01*
X119299999Y-94454819D02*
X119466666Y-94454819D01*
X119466666Y-94454819D02*
X119566666Y-94502438D01*
X120266666Y-95359580D02*
X120233333Y-95407200D01*
X120233333Y-95407200D02*
X120133333Y-95454819D01*
X120133333Y-95454819D02*
X120066666Y-95454819D01*
X120066666Y-95454819D02*
X119966666Y-95407200D01*
X119966666Y-95407200D02*
X119900000Y-95311961D01*
X119900000Y-95311961D02*
X119866666Y-95216723D01*
X119866666Y-95216723D02*
X119833333Y-95026247D01*
X119833333Y-95026247D02*
X119833333Y-94883390D01*
X119833333Y-94883390D02*
X119866666Y-94692914D01*
X119866666Y-94692914D02*
X119900000Y-94597676D01*
X119900000Y-94597676D02*
X119966666Y-94502438D01*
X119966666Y-94502438D02*
X120066666Y-94454819D01*
X120066666Y-94454819D02*
X120133333Y-94454819D01*
X120133333Y-94454819D02*
X120233333Y-94502438D01*
X120233333Y-94502438D02*
X120266666Y-94550057D01*
X120900000Y-95454819D02*
X120566666Y-95454819D01*
X120566666Y-95454819D02*
X120566666Y-94454819D01*
X124466667Y-90743438D02*
X124400000Y-90695819D01*
X124400000Y-90695819D02*
X124300000Y-90695819D01*
X124300000Y-90695819D02*
X124200000Y-90743438D01*
X124200000Y-90743438D02*
X124133334Y-90838676D01*
X124133334Y-90838676D02*
X124100000Y-90933914D01*
X124100000Y-90933914D02*
X124066667Y-91124390D01*
X124066667Y-91124390D02*
X124066667Y-91267247D01*
X124066667Y-91267247D02*
X124100000Y-91457723D01*
X124100000Y-91457723D02*
X124133334Y-91552961D01*
X124133334Y-91552961D02*
X124200000Y-91648200D01*
X124200000Y-91648200D02*
X124300000Y-91695819D01*
X124300000Y-91695819D02*
X124366667Y-91695819D01*
X124366667Y-91695819D02*
X124466667Y-91648200D01*
X124466667Y-91648200D02*
X124500000Y-91600580D01*
X124500000Y-91600580D02*
X124500000Y-91267247D01*
X124500000Y-91267247D02*
X124366667Y-91267247D01*
X124800000Y-91695819D02*
X124800000Y-90695819D01*
X124800000Y-90695819D02*
X125200000Y-91695819D01*
X125200000Y-91695819D02*
X125200000Y-90695819D01*
X125533333Y-91695819D02*
X125533333Y-90695819D01*
X125533333Y-90695819D02*
X125700000Y-90695819D01*
X125700000Y-90695819D02*
X125800000Y-90743438D01*
X125800000Y-90743438D02*
X125866667Y-90838676D01*
X125866667Y-90838676D02*
X125900000Y-90933914D01*
X125900000Y-90933914D02*
X125933333Y-91124390D01*
X125933333Y-91124390D02*
X125933333Y-91267247D01*
X125933333Y-91267247D02*
X125900000Y-91457723D01*
X125900000Y-91457723D02*
X125866667Y-91552961D01*
X125866667Y-91552961D02*
X125800000Y-91648200D01*
X125800000Y-91648200D02*
X125700000Y-91695819D01*
X125700000Y-91695819D02*
X125533333Y-91695819D01*
X131126667Y-112533200D02*
X131269524Y-112580819D01*
X131269524Y-112580819D02*
X131507619Y-112580819D01*
X131507619Y-112580819D02*
X131602857Y-112533200D01*
X131602857Y-112533200D02*
X131650476Y-112485580D01*
X131650476Y-112485580D02*
X131698095Y-112390342D01*
X131698095Y-112390342D02*
X131698095Y-112295104D01*
X131698095Y-112295104D02*
X131650476Y-112199866D01*
X131650476Y-112199866D02*
X131602857Y-112152247D01*
X131602857Y-112152247D02*
X131507619Y-112104628D01*
X131507619Y-112104628D02*
X131317143Y-112057009D01*
X131317143Y-112057009D02*
X131221905Y-112009390D01*
X131221905Y-112009390D02*
X131174286Y-111961771D01*
X131174286Y-111961771D02*
X131126667Y-111866533D01*
X131126667Y-111866533D02*
X131126667Y-111771295D01*
X131126667Y-111771295D02*
X131174286Y-111676057D01*
X131174286Y-111676057D02*
X131221905Y-111628438D01*
X131221905Y-111628438D02*
X131317143Y-111580819D01*
X131317143Y-111580819D02*
X131555238Y-111580819D01*
X131555238Y-111580819D02*
X131698095Y-111628438D01*
X132031429Y-111580819D02*
X132269524Y-112580819D01*
X132269524Y-112580819D02*
X132460000Y-111866533D01*
X132460000Y-111866533D02*
X132650476Y-112580819D01*
X132650476Y-112580819D02*
X132888572Y-111580819D01*
X133221905Y-111676057D02*
X133269524Y-111628438D01*
X133269524Y-111628438D02*
X133364762Y-111580819D01*
X133364762Y-111580819D02*
X133602857Y-111580819D01*
X133602857Y-111580819D02*
X133698095Y-111628438D01*
X133698095Y-111628438D02*
X133745714Y-111676057D01*
X133745714Y-111676057D02*
X133793333Y-111771295D01*
X133793333Y-111771295D02*
X133793333Y-111866533D01*
X133793333Y-111866533D02*
X133745714Y-112009390D01*
X133745714Y-112009390D02*
X133174286Y-112580819D01*
X133174286Y-112580819D02*
X133793333Y-112580819D01*
X177919047Y-67731009D02*
X178061904Y-67778628D01*
X178061904Y-67778628D02*
X178109523Y-67826247D01*
X178109523Y-67826247D02*
X178157142Y-67921485D01*
X178157142Y-67921485D02*
X178157142Y-68064342D01*
X178157142Y-68064342D02*
X178109523Y-68159580D01*
X178109523Y-68159580D02*
X178061904Y-68207200D01*
X178061904Y-68207200D02*
X177966666Y-68254819D01*
X177966666Y-68254819D02*
X177585714Y-68254819D01*
X177585714Y-68254819D02*
X177585714Y-67254819D01*
X177585714Y-67254819D02*
X177919047Y-67254819D01*
X177919047Y-67254819D02*
X178014285Y-67302438D01*
X178014285Y-67302438D02*
X178061904Y-67350057D01*
X178061904Y-67350057D02*
X178109523Y-67445295D01*
X178109523Y-67445295D02*
X178109523Y-67540533D01*
X178109523Y-67540533D02*
X178061904Y-67635771D01*
X178061904Y-67635771D02*
X178014285Y-67683390D01*
X178014285Y-67683390D02*
X177919047Y-67731009D01*
X177919047Y-67731009D02*
X177585714Y-67731009D01*
X178490476Y-67254819D02*
X179157142Y-67254819D01*
X179157142Y-67254819D02*
X178490476Y-68254819D01*
X178490476Y-68254819D02*
X179157142Y-68254819D01*
X180061904Y-68254819D02*
X179490476Y-68254819D01*
X179776190Y-68254819D02*
X179776190Y-67254819D01*
X179776190Y-67254819D02*
X179680952Y-67397676D01*
X179680952Y-67397676D02*
X179585714Y-67492914D01*
X179585714Y-67492914D02*
X179490476Y-67540533D01*
X174609048Y-72533866D02*
X175370953Y-72533866D01*
X174990000Y-72914819D02*
X174990000Y-72152914D01*
D12*
X140662479Y-66284809D02*
X141176526Y-66284809D01*
X141176526Y-66284809D02*
X141237002Y-66254571D01*
X141237002Y-66254571D02*
X141267241Y-66224333D01*
X141267241Y-66224333D02*
X141297479Y-66163857D01*
X141297479Y-66163857D02*
X141297479Y-66042904D01*
X141297479Y-66042904D02*
X141267241Y-65982428D01*
X141267241Y-65982428D02*
X141237002Y-65952190D01*
X141237002Y-65952190D02*
X141176526Y-65921952D01*
X141176526Y-65921952D02*
X140662479Y-65921952D01*
X141297479Y-65286952D02*
X141297479Y-65649809D01*
X141297479Y-65468381D02*
X140662479Y-65468381D01*
X140662479Y-65468381D02*
X140753193Y-65528857D01*
X140753193Y-65528857D02*
X140813669Y-65589333D01*
X140813669Y-65589333D02*
X140843907Y-65649809D01*
X149738572Y-59653479D02*
X150161905Y-60288479D01*
X150161905Y-59653479D02*
X149738572Y-60288479D01*
X150403810Y-60288479D02*
X150403810Y-59653479D01*
X150675953Y-60107050D02*
X150978334Y-60107050D01*
X150615477Y-60288479D02*
X150827143Y-59653479D01*
X150827143Y-59653479D02*
X151038810Y-60288479D01*
X151371429Y-59653479D02*
X151492382Y-59653479D01*
X151492382Y-59653479D02*
X151552858Y-59683717D01*
X151552858Y-59683717D02*
X151613334Y-59744193D01*
X151613334Y-59744193D02*
X151643572Y-59865145D01*
X151643572Y-59865145D02*
X151643572Y-60076812D01*
X151643572Y-60076812D02*
X151613334Y-60197764D01*
X151613334Y-60197764D02*
X151552858Y-60258241D01*
X151552858Y-60258241D02*
X151492382Y-60288479D01*
X151492382Y-60288479D02*
X151371429Y-60288479D01*
X151371429Y-60288479D02*
X151310953Y-60258241D01*
X151310953Y-60258241D02*
X151250477Y-60197764D01*
X151250477Y-60197764D02*
X151220239Y-60076812D01*
X151220239Y-60076812D02*
X151220239Y-59865145D01*
X151220239Y-59865145D02*
X151250477Y-59744193D01*
X151250477Y-59744193D02*
X151310953Y-59683717D01*
X151310953Y-59683717D02*
X151371429Y-59653479D01*
X151915715Y-60046574D02*
X152399525Y-60046574D01*
X152701905Y-59955860D02*
X152913572Y-59955860D01*
X153004286Y-60288479D02*
X152701905Y-60288479D01*
X152701905Y-60288479D02*
X152701905Y-59653479D01*
X152701905Y-59653479D02*
X153004286Y-59653479D01*
X153246191Y-60258241D02*
X153336905Y-60288479D01*
X153336905Y-60288479D02*
X153488096Y-60288479D01*
X153488096Y-60288479D02*
X153548572Y-60258241D01*
X153548572Y-60258241D02*
X153578810Y-60228002D01*
X153578810Y-60228002D02*
X153609048Y-60167526D01*
X153609048Y-60167526D02*
X153609048Y-60107050D01*
X153609048Y-60107050D02*
X153578810Y-60046574D01*
X153578810Y-60046574D02*
X153548572Y-60016336D01*
X153548572Y-60016336D02*
X153488096Y-59986098D01*
X153488096Y-59986098D02*
X153367143Y-59955860D01*
X153367143Y-59955860D02*
X153306667Y-59925621D01*
X153306667Y-59925621D02*
X153276429Y-59895383D01*
X153276429Y-59895383D02*
X153246191Y-59834907D01*
X153246191Y-59834907D02*
X153246191Y-59774431D01*
X153246191Y-59774431D02*
X153276429Y-59713955D01*
X153276429Y-59713955D02*
X153306667Y-59683717D01*
X153306667Y-59683717D02*
X153367143Y-59653479D01*
X153367143Y-59653479D02*
X153518334Y-59653479D01*
X153518334Y-59653479D02*
X153609048Y-59683717D01*
X153881191Y-60288479D02*
X153881191Y-59653479D01*
X153881191Y-59653479D02*
X154123096Y-59653479D01*
X154123096Y-59653479D02*
X154183572Y-59683717D01*
X154183572Y-59683717D02*
X154213810Y-59713955D01*
X154213810Y-59713955D02*
X154244048Y-59774431D01*
X154244048Y-59774431D02*
X154244048Y-59865145D01*
X154244048Y-59865145D02*
X154213810Y-59925621D01*
X154213810Y-59925621D02*
X154183572Y-59955860D01*
X154183572Y-59955860D02*
X154123096Y-59986098D01*
X154123096Y-59986098D02*
X153881191Y-59986098D01*
X154455715Y-59653479D02*
X154848810Y-59653479D01*
X154848810Y-59653479D02*
X154637143Y-59895383D01*
X154637143Y-59895383D02*
X154727858Y-59895383D01*
X154727858Y-59895383D02*
X154788334Y-59925621D01*
X154788334Y-59925621D02*
X154818572Y-59955860D01*
X154818572Y-59955860D02*
X154848810Y-60016336D01*
X154848810Y-60016336D02*
X154848810Y-60167526D01*
X154848810Y-60167526D02*
X154818572Y-60228002D01*
X154818572Y-60228002D02*
X154788334Y-60258241D01*
X154788334Y-60258241D02*
X154727858Y-60288479D01*
X154727858Y-60288479D02*
X154546429Y-60288479D01*
X154546429Y-60288479D02*
X154485953Y-60258241D01*
X154485953Y-60258241D02*
X154455715Y-60228002D01*
X155090715Y-59713955D02*
X155120953Y-59683717D01*
X155120953Y-59683717D02*
X155181429Y-59653479D01*
X155181429Y-59653479D02*
X155332620Y-59653479D01*
X155332620Y-59653479D02*
X155393096Y-59683717D01*
X155393096Y-59683717D02*
X155423334Y-59713955D01*
X155423334Y-59713955D02*
X155453572Y-59774431D01*
X155453572Y-59774431D02*
X155453572Y-59834907D01*
X155453572Y-59834907D02*
X155423334Y-59925621D01*
X155423334Y-59925621D02*
X155060477Y-60288479D01*
X155060477Y-60288479D02*
X155453572Y-60288479D01*
X155725715Y-60046574D02*
X156209525Y-60046574D01*
X156874762Y-60228002D02*
X156844524Y-60258241D01*
X156844524Y-60258241D02*
X156753810Y-60288479D01*
X156753810Y-60288479D02*
X156693334Y-60288479D01*
X156693334Y-60288479D02*
X156602619Y-60258241D01*
X156602619Y-60258241D02*
X156542143Y-60197764D01*
X156542143Y-60197764D02*
X156511905Y-60137288D01*
X156511905Y-60137288D02*
X156481667Y-60016336D01*
X156481667Y-60016336D02*
X156481667Y-59925621D01*
X156481667Y-59925621D02*
X156511905Y-59804669D01*
X156511905Y-59804669D02*
X156542143Y-59744193D01*
X156542143Y-59744193D02*
X156602619Y-59683717D01*
X156602619Y-59683717D02*
X156693334Y-59653479D01*
X156693334Y-59653479D02*
X156753810Y-59653479D01*
X156753810Y-59653479D02*
X156844524Y-59683717D01*
X156844524Y-59683717D02*
X156874762Y-59713955D01*
X157086429Y-59653479D02*
X157479524Y-59653479D01*
X157479524Y-59653479D02*
X157267857Y-59895383D01*
X157267857Y-59895383D02*
X157358572Y-59895383D01*
X157358572Y-59895383D02*
X157419048Y-59925621D01*
X157419048Y-59925621D02*
X157449286Y-59955860D01*
X157449286Y-59955860D02*
X157479524Y-60016336D01*
X157479524Y-60016336D02*
X157479524Y-60167526D01*
X157479524Y-60167526D02*
X157449286Y-60228002D01*
X157449286Y-60228002D02*
X157419048Y-60258241D01*
X157419048Y-60258241D02*
X157358572Y-60288479D01*
X157358572Y-60288479D02*
X157177143Y-60288479D01*
X157177143Y-60288479D02*
X157116667Y-60258241D01*
X157116667Y-60258241D02*
X157086429Y-60228002D01*
X157751667Y-60046574D02*
X158235477Y-60046574D01*
X158507619Y-60258241D02*
X158598333Y-60288479D01*
X158598333Y-60288479D02*
X158749524Y-60288479D01*
X158749524Y-60288479D02*
X158810000Y-60258241D01*
X158810000Y-60258241D02*
X158840238Y-60228002D01*
X158840238Y-60228002D02*
X158870476Y-60167526D01*
X158870476Y-60167526D02*
X158870476Y-60107050D01*
X158870476Y-60107050D02*
X158840238Y-60046574D01*
X158840238Y-60046574D02*
X158810000Y-60016336D01*
X158810000Y-60016336D02*
X158749524Y-59986098D01*
X158749524Y-59986098D02*
X158628571Y-59955860D01*
X158628571Y-59955860D02*
X158568095Y-59925621D01*
X158568095Y-59925621D02*
X158537857Y-59895383D01*
X158537857Y-59895383D02*
X158507619Y-59834907D01*
X158507619Y-59834907D02*
X158507619Y-59774431D01*
X158507619Y-59774431D02*
X158537857Y-59713955D01*
X158537857Y-59713955D02*
X158568095Y-59683717D01*
X158568095Y-59683717D02*
X158628571Y-59653479D01*
X158628571Y-59653479D02*
X158779762Y-59653479D01*
X158779762Y-59653479D02*
X158870476Y-59683717D01*
X159142619Y-60288479D02*
X159142619Y-59653479D01*
X159142619Y-59653479D02*
X159354286Y-60107050D01*
X159354286Y-60107050D02*
X159565952Y-59653479D01*
X159565952Y-59653479D02*
X159565952Y-60288479D01*
X159868333Y-60288479D02*
X159868333Y-59653479D01*
X159868333Y-59653479D02*
X160019523Y-59653479D01*
X160019523Y-59653479D02*
X160110238Y-59683717D01*
X160110238Y-59683717D02*
X160170714Y-59744193D01*
X160170714Y-59744193D02*
X160200952Y-59804669D01*
X160200952Y-59804669D02*
X160231190Y-59925621D01*
X160231190Y-59925621D02*
X160231190Y-60016336D01*
X160231190Y-60016336D02*
X160200952Y-60137288D01*
X160200952Y-60137288D02*
X160170714Y-60197764D01*
X160170714Y-60197764D02*
X160110238Y-60258241D01*
X160110238Y-60258241D02*
X160019523Y-60288479D01*
X160019523Y-60288479D02*
X159868333Y-60288479D01*
%TO.C,RV2*%
D13*
X159890000Y-84990000D02*
X170110000Y-84990000D01*
X159890000Y-86104000D02*
X159890000Y-84990000D01*
X159890000Y-91104000D02*
X159890000Y-88896000D01*
X159890000Y-95010000D02*
X159890000Y-93896000D01*
X170110000Y-84990000D02*
X170110000Y-88604000D01*
X170110000Y-91396000D02*
X170110000Y-95010000D01*
X170110000Y-95010000D02*
X159890000Y-95010000D01*
%TO.C,R1*%
X122130000Y-58000000D02*
X123080000Y-58000000D01*
X127870000Y-58000000D02*
X126920000Y-58000000D01*
X123080000Y-57080000D02*
X126920000Y-57080000D01*
X126920000Y-58920000D01*
X123080000Y-58920000D01*
X123080000Y-57080000D01*
%TO.C,U2*%
X117100000Y-60120000D02*
X129350000Y-60120000D01*
X117100000Y-65880000D02*
X117100000Y-60120000D01*
X129360000Y-60130000D02*
X129360000Y-65870000D01*
X129360000Y-65880000D02*
X117100000Y-65880000D01*
X129640000Y-59840000D02*
X127640000Y-59840000D01*
X129640000Y-59840000D02*
X129640000Y-61450000D01*
%TO.C,J2*%
X143620000Y-81080000D02*
X145000000Y-81080000D01*
X143620000Y-82460000D02*
X143620000Y-81080000D01*
X143620000Y-83730000D02*
X143620000Y-101620000D01*
X143620000Y-83730000D02*
X146380000Y-83730000D01*
X143620000Y-101620000D02*
X146380000Y-101620000D01*
X146380000Y-83730000D02*
X146380000Y-101620000D01*
D14*
%TO.C,G\u002A\u002A\u002A*%
G36*
X66591248Y-77251299D02*
G01*
X66571758Y-77276579D01*
X66520832Y-77330822D01*
X66498100Y-77330586D01*
X66497527Y-77324464D01*
X66521370Y-77295340D01*
X66558585Y-77263406D01*
X66599912Y-77233232D01*
X66591248Y-77251299D01*
G37*
G36*
X80523351Y-89531730D02*
G01*
X80523351Y-90595879D01*
X80436126Y-90595879D01*
X80348901Y-90595879D01*
X80348901Y-89531730D01*
X80348901Y-88467582D01*
X80436126Y-88467582D01*
X80523351Y-88467582D01*
X80523351Y-89531730D01*
G37*
G36*
X81988736Y-90351648D02*
G01*
X81988736Y-90595879D01*
X81884066Y-90595879D01*
X81779395Y-90595879D01*
X81779395Y-90351648D01*
X81779395Y-90107417D01*
X81884066Y-90107417D01*
X81988736Y-90107417D01*
X81988736Y-90351648D01*
G37*
G36*
X83070329Y-89130494D02*
G01*
X83070329Y-90595879D01*
X82983104Y-90595879D01*
X82895879Y-90595879D01*
X82895879Y-89130494D01*
X82895879Y-87665110D01*
X82983104Y-87665110D01*
X83070329Y-87665110D01*
X83070329Y-89130494D01*
G37*
G36*
X84500824Y-90351648D02*
G01*
X84500824Y-90595879D01*
X84396153Y-90595879D01*
X84291483Y-90595879D01*
X84291483Y-90351648D01*
X84291483Y-90107417D01*
X84396153Y-90107417D01*
X84500824Y-90107417D01*
X84500824Y-90351648D01*
G37*
G36*
X86524450Y-89531730D02*
G01*
X86524450Y-90595879D01*
X86437225Y-90595879D01*
X86350000Y-90595879D01*
X86350000Y-89531730D01*
X86350000Y-88467582D01*
X86437225Y-88467582D01*
X86524450Y-88467582D01*
X86524450Y-89531730D01*
G37*
G36*
X92340855Y-62993242D02*
G01*
X92351099Y-63050137D01*
X92332900Y-63120290D01*
X92298763Y-63137362D01*
X92256671Y-63107032D01*
X92246428Y-63050137D01*
X92264626Y-62979984D01*
X92298763Y-62962912D01*
X92340855Y-62993242D01*
G37*
G36*
X98875549Y-74685186D02*
G01*
X98846558Y-74715089D01*
X98805769Y-74730988D01*
X98750055Y-74734545D01*
X98735989Y-74721682D01*
X98764980Y-74691778D01*
X98805769Y-74675879D01*
X98861482Y-74672323D01*
X98875549Y-74685186D01*
G37*
G36*
X80896899Y-63028132D02*
G01*
X80907142Y-63085027D01*
X80892654Y-63157027D01*
X80854163Y-63169431D01*
X80825732Y-63148992D01*
X80802301Y-63092487D01*
X80812513Y-63030762D01*
X80849766Y-62998142D01*
X80854807Y-62997802D01*
X80896899Y-63028132D01*
G37*
G36*
X82485504Y-64024618D02*
G01*
X82505576Y-64105563D01*
X82505997Y-64184234D01*
X82478765Y-64215083D01*
X82442307Y-64218956D01*
X82391882Y-64208008D01*
X82376146Y-64161847D01*
X82379039Y-64105563D01*
X82402386Y-64018749D01*
X82442307Y-63992170D01*
X82485504Y-64024618D01*
G37*
G36*
X69734117Y-65247531D02*
G01*
X69742307Y-65275638D01*
X69710572Y-65333711D01*
X69620425Y-65365441D01*
X69547558Y-65370329D01*
X69479547Y-65351614D01*
X69463186Y-65317994D01*
X69493358Y-65275807D01*
X69547558Y-65265659D01*
X69637960Y-65257019D01*
X69687119Y-65244481D01*
X69734117Y-65247531D01*
G37*
G36*
X72041062Y-76215832D02*
G01*
X72062500Y-76221153D01*
X72122963Y-76239823D01*
X72117350Y-76249617D01*
X72093028Y-76251916D01*
X72004262Y-76261861D01*
X71909855Y-76277850D01*
X71832572Y-76285768D01*
X71803103Y-76263051D01*
X71800824Y-76242960D01*
X71826199Y-76200905D01*
X71904961Y-76191972D01*
X72041062Y-76215832D01*
G37*
G36*
X72304719Y-63911490D02*
G01*
X72398507Y-63928241D01*
X72456498Y-63950871D01*
X72463108Y-63975051D01*
X72457828Y-63979115D01*
X72407002Y-64002747D01*
X72393956Y-64003853D01*
X72350355Y-63996075D01*
X72271840Y-63984258D01*
X72184624Y-63963736D01*
X72135373Y-63937602D01*
X72133412Y-63914970D01*
X72188061Y-63904955D01*
X72190721Y-63904945D01*
X72304719Y-63911490D01*
G37*
G36*
X72932835Y-63304320D02*
G01*
X72980585Y-63374747D01*
X72988755Y-63470550D01*
X72954785Y-63574081D01*
X72901448Y-63644855D01*
X72825223Y-63711188D01*
X72769605Y-63723799D01*
X72712852Y-63684426D01*
X72691379Y-63661661D01*
X72647285Y-63578410D01*
X72651288Y-63481813D01*
X72691608Y-63359173D01*
X72757154Y-63294338D01*
X72848066Y-63276923D01*
X72932835Y-63304320D01*
G37*
G36*
X69350428Y-64633008D02*
G01*
X69443614Y-64710280D01*
X69506795Y-64814292D01*
X69507690Y-64816805D01*
X69503361Y-64896111D01*
X69452376Y-64971032D01*
X69374822Y-65016815D01*
X69341625Y-65021428D01*
X69258165Y-64993153D01*
X69186598Y-64929498D01*
X69126313Y-64819867D01*
X69114961Y-64719067D01*
X69149543Y-64642194D01*
X69227061Y-64604346D01*
X69251497Y-64602747D01*
X69350428Y-64633008D01*
G37*
G36*
X69870419Y-64275678D02*
G01*
X69897557Y-64301253D01*
X69972029Y-64414413D01*
X69977522Y-64533500D01*
X69932225Y-64629874D01*
X69849841Y-64693311D01*
X69741976Y-64707584D01*
X69632455Y-64672903D01*
X69573939Y-64626666D01*
X69507912Y-64516909D01*
X69506005Y-64408435D01*
X69563546Y-64314244D01*
X69675866Y-64247332D01*
X69714384Y-64235777D01*
X69795947Y-64232071D01*
X69870419Y-64275678D01*
G37*
G36*
X72504149Y-63168140D02*
G01*
X72564265Y-63244035D01*
X72593205Y-63340386D01*
X72589033Y-63398784D01*
X72559896Y-63460567D01*
X72499354Y-63484061D01*
X72449898Y-63486263D01*
X72359791Y-63474179D01*
X72300843Y-63444871D01*
X72298974Y-63442651D01*
X72252900Y-63339978D01*
X72262924Y-63242585D01*
X72321240Y-63168939D01*
X72420040Y-63137505D01*
X72428041Y-63137362D01*
X72504149Y-63168140D01*
G37*
G36*
X85365740Y-74877884D02*
G01*
X85376352Y-74989542D01*
X85389264Y-75036571D01*
X85406073Y-75024118D01*
X85409026Y-75017445D01*
X85437952Y-74947664D01*
X85439870Y-75017445D01*
X85429101Y-75093817D01*
X85400617Y-75147019D01*
X85366824Y-75155673D01*
X85361971Y-75151714D01*
X85350742Y-75107025D01*
X85344610Y-75013413D01*
X85344784Y-74898237D01*
X85351381Y-74668544D01*
X85365740Y-74877884D01*
G37*
G36*
X72805569Y-76225639D02*
G01*
X72838741Y-76245215D01*
X72835783Y-76300810D01*
X72828751Y-76334546D01*
X72796323Y-76450002D01*
X72759477Y-76499760D01*
X72712570Y-76487892D01*
X72672542Y-76447295D01*
X72612970Y-76398003D01*
X72522158Y-76344068D01*
X72502542Y-76334366D01*
X72376511Y-76274416D01*
X72481181Y-76251913D01*
X72590197Y-76235276D01*
X72712279Y-76225530D01*
X72719461Y-76225281D01*
X72805569Y-76225639D01*
G37*
G36*
X79092857Y-87822115D02*
G01*
X79092857Y-87979121D01*
X78866071Y-87979121D01*
X78639285Y-87979121D01*
X78639285Y-89287500D01*
X78639285Y-90595879D01*
X78552060Y-90595879D01*
X78464835Y-90595879D01*
X78464835Y-89287500D01*
X78464835Y-87979121D01*
X78238049Y-87979121D01*
X78011263Y-87979121D01*
X78011263Y-87822115D01*
X78011263Y-87665110D01*
X78552060Y-87665110D01*
X79092857Y-87665110D01*
X79092857Y-87822115D01*
G37*
G36*
X80486082Y-87670091D02*
G01*
X80512093Y-87696419D01*
X80521922Y-87761169D01*
X80523351Y-87857005D01*
X80521087Y-87966908D01*
X80509120Y-88024133D01*
X80479688Y-88045757D01*
X80436126Y-88048901D01*
X80386170Y-88043919D01*
X80360159Y-88017592D01*
X80350330Y-87952842D01*
X80348901Y-87857005D01*
X80351165Y-87747102D01*
X80363132Y-87689877D01*
X80392564Y-87668253D01*
X80436126Y-87665110D01*
X80486082Y-87670091D01*
G37*
G36*
X86487181Y-87670091D02*
G01*
X86513192Y-87696419D01*
X86523021Y-87761169D01*
X86524450Y-87857005D01*
X86522186Y-87966908D01*
X86510219Y-88024133D01*
X86480787Y-88045757D01*
X86437225Y-88048901D01*
X86387269Y-88043919D01*
X86361258Y-88017592D01*
X86351429Y-87952842D01*
X86350000Y-87857005D01*
X86352264Y-87747102D01*
X86364231Y-87689877D01*
X86393663Y-87668253D01*
X86437225Y-87665110D01*
X86487181Y-87670091D01*
G37*
G36*
X92325807Y-63295867D02*
G01*
X92338556Y-63346236D01*
X92346493Y-63444703D01*
X92350380Y-63599280D01*
X92351099Y-63745032D01*
X92348508Y-63953677D01*
X92340957Y-64104954D01*
X92328772Y-64194540D01*
X92315113Y-64218956D01*
X92271512Y-64191393D01*
X92261613Y-64173312D01*
X92255536Y-64121994D01*
X92252099Y-64016554D01*
X92251562Y-63872609D01*
X92253986Y-63713865D01*
X92261434Y-63516449D01*
X92273203Y-63382981D01*
X92290010Y-63307718D01*
X92307486Y-63285585D01*
X92325807Y-63295867D01*
G37*
G36*
X80876604Y-63321921D02*
G01*
X80891543Y-63359127D01*
X80900816Y-63433753D01*
X80905613Y-63556120D01*
X80907125Y-63736551D01*
X80907142Y-63765384D01*
X80904994Y-63934108D01*
X80899117Y-64074374D01*
X80890360Y-64173228D01*
X80879575Y-64217718D01*
X80877372Y-64218956D01*
X80860571Y-64186935D01*
X80842910Y-64102100D01*
X80827691Y-63981295D01*
X80825037Y-63952016D01*
X80807295Y-63703930D01*
X80801834Y-63520251D01*
X80808855Y-63396662D01*
X80828558Y-63328843D01*
X80854807Y-63311813D01*
X80876604Y-63321921D01*
G37*
G36*
X86140659Y-87822115D02*
G01*
X86140659Y-87979121D01*
X85861538Y-87979121D01*
X85582417Y-87979121D01*
X85582417Y-88467582D01*
X85582417Y-88956044D01*
X85809203Y-88956044D01*
X86035989Y-88956044D01*
X86035989Y-89113049D01*
X86035989Y-89270055D01*
X85809203Y-89270055D01*
X85582417Y-89270055D01*
X85582417Y-89932967D01*
X85582417Y-90595879D01*
X85495192Y-90595879D01*
X85407967Y-90595879D01*
X85407967Y-89130494D01*
X85407967Y-87665110D01*
X85774313Y-87665110D01*
X86140659Y-87665110D01*
X86140659Y-87822115D01*
G37*
G36*
X75580468Y-75821177D02*
G01*
X75612568Y-75833027D01*
X75682616Y-75870077D01*
X75703988Y-75918792D01*
X75680183Y-75997554D01*
X75654032Y-76050859D01*
X75591091Y-76129892D01*
X75480868Y-76204784D01*
X75371658Y-76258467D01*
X75219288Y-76322290D01*
X75113853Y-76353332D01*
X75041848Y-76353689D01*
X74989770Y-76325458D01*
X74982802Y-76318846D01*
X74939455Y-76245447D01*
X74953310Y-76163624D01*
X75027055Y-76067781D01*
X75156399Y-75957612D01*
X75290311Y-75862847D01*
X75393170Y-75811921D01*
X75483661Y-75799732D01*
X75580468Y-75821177D01*
G37*
G36*
X81334578Y-63323936D02*
G01*
X81360714Y-63383944D01*
X81338651Y-63437451D01*
X81274716Y-63451373D01*
X81190316Y-63478054D01*
X81138475Y-63560504D01*
X81117243Y-63702334D01*
X81116483Y-63744004D01*
X81130206Y-63906458D01*
X81169650Y-64014903D01*
X81232232Y-64064293D01*
X81280061Y-64063418D01*
X81341609Y-64059829D01*
X81360440Y-64101166D01*
X81360714Y-64112393D01*
X81332594Y-64183575D01*
X81293227Y-64217728D01*
X81225883Y-64248670D01*
X81182674Y-64240742D01*
X81137342Y-64199940D01*
X81074049Y-64099842D01*
X81034691Y-63961957D01*
X81018435Y-63803286D01*
X81024450Y-63640828D01*
X81051903Y-63491583D01*
X81099960Y-63372549D01*
X81167789Y-63300727D01*
X81181705Y-63294250D01*
X81265957Y-63287987D01*
X81334578Y-63323936D01*
G37*
G36*
X68095261Y-69274685D02*
G01*
X68136802Y-69330228D01*
X68145245Y-69356524D01*
X68176725Y-69468581D01*
X68199098Y-69548420D01*
X68218821Y-69600424D01*
X68253240Y-69631225D01*
X68319961Y-69648606D01*
X68436587Y-69660354D01*
X68455538Y-69661813D01*
X68583223Y-69677887D01*
X68688213Y-69702476D01*
X68742703Y-69727143D01*
X68794690Y-69806330D01*
X68782363Y-69891770D01*
X68722731Y-69956400D01*
X68634724Y-69989246D01*
X68502864Y-70006422D01*
X68351326Y-70007806D01*
X68204283Y-69993279D01*
X68085908Y-69962719D01*
X68078484Y-69959614D01*
X67978408Y-69879200D01*
X67917869Y-69741986D01*
X67896732Y-69547589D01*
X67899353Y-69452472D01*
X67907811Y-69342771D01*
X67923458Y-69285645D01*
X67956569Y-69263959D01*
X68014407Y-69260577D01*
X68095261Y-69274685D01*
G37*
G36*
X89377686Y-63304073D02*
G01*
X89385439Y-63346703D01*
X89361759Y-63422656D01*
X89315659Y-63486263D01*
X89282279Y-63528935D01*
X89261427Y-63586456D01*
X89250327Y-63674796D01*
X89246201Y-63809925D01*
X89245879Y-63887500D01*
X89244006Y-64045502D01*
X89237155Y-64145492D01*
X89223480Y-64199167D01*
X89201134Y-64218227D01*
X89193544Y-64218956D01*
X89171831Y-64208889D01*
X89156920Y-64171832D01*
X89147634Y-64097505D01*
X89142797Y-63975623D01*
X89141233Y-63795905D01*
X89141208Y-63761315D01*
X89141706Y-63575581D01*
X89144324Y-63448997D01*
X89150748Y-63370935D01*
X89162667Y-63330767D01*
X89181767Y-63317863D01*
X89209734Y-63321596D01*
X89210954Y-63321913D01*
X89275840Y-63323483D01*
X89300238Y-63308537D01*
X89343062Y-63276993D01*
X89377686Y-63304073D01*
G37*
G36*
X90128031Y-63313236D02*
G01*
X90153022Y-63380087D01*
X90134239Y-63434117D01*
X90075949Y-63442239D01*
X90007726Y-63455592D01*
X89987934Y-63508807D01*
X90016377Y-63591701D01*
X90080493Y-63680359D01*
X90168148Y-63826161D01*
X90187809Y-63987037D01*
X90153885Y-64129459D01*
X90095042Y-64200434D01*
X89999221Y-64217181D01*
X89917513Y-64195849D01*
X89888150Y-64157373D01*
X89874525Y-64092416D01*
X89879312Y-64032689D01*
X89901813Y-64009615D01*
X89948637Y-64031383D01*
X89968553Y-64048443D01*
X90023165Y-64070249D01*
X90045311Y-64063829D01*
X90079699Y-64006881D01*
X90075122Y-63923061D01*
X90035127Y-63840832D01*
X90014775Y-63818908D01*
X89940530Y-63717461D01*
X89900993Y-63592439D01*
X89897418Y-63465277D01*
X89931065Y-63357409D01*
X89984348Y-63300207D01*
X90063324Y-63281007D01*
X90128031Y-63313236D01*
G37*
G36*
X85331630Y-63292287D02*
G01*
X85395057Y-63335514D01*
X85408967Y-63392484D01*
X85375041Y-63438633D01*
X85320741Y-63451373D01*
X85250984Y-63471971D01*
X85236506Y-63531559D01*
X85277087Y-63626832D01*
X85338186Y-63713049D01*
X85423003Y-63862637D01*
X85439552Y-64010154D01*
X85402743Y-64125302D01*
X85340160Y-64217002D01*
X85274798Y-64245820D01*
X85192636Y-64217739D01*
X85189903Y-64216161D01*
X85143099Y-64156617D01*
X85128846Y-64090834D01*
X85134940Y-64030491D01*
X85160806Y-64029183D01*
X85180737Y-64044136D01*
X85249221Y-64071070D01*
X85285407Y-64066949D01*
X85330130Y-64018958D01*
X85331819Y-63945180D01*
X85290744Y-63874545D01*
X85283551Y-63868145D01*
X85201092Y-63765257D01*
X85144385Y-63630266D01*
X85128846Y-63526751D01*
X85150485Y-63415197D01*
X85205982Y-63330529D01*
X85281205Y-63289085D01*
X85331630Y-63292287D01*
G37*
G36*
X69003721Y-70099780D02*
G01*
X69068080Y-70175885D01*
X69079395Y-70237076D01*
X69067843Y-70299512D01*
X69026069Y-70343411D01*
X68943400Y-70373218D01*
X68809161Y-70393380D01*
X68678159Y-70404177D01*
X68539841Y-70415845D01*
X68424909Y-70429671D01*
X68354225Y-70443045D01*
X68346703Y-70445660D01*
X68303396Y-70483265D01*
X68233898Y-70563660D01*
X68150968Y-70671738D01*
X68123137Y-70710465D01*
X68024380Y-70843068D01*
X67951948Y-70920934D01*
X67898077Y-70950213D01*
X67855001Y-70937054D01*
X67846611Y-70929487D01*
X67825201Y-70883374D01*
X67836462Y-70812755D01*
X67883754Y-70709331D01*
X67970437Y-70564801D01*
X68032572Y-70470080D01*
X68127045Y-70331875D01*
X68204691Y-70234747D01*
X68281663Y-70169326D01*
X68374115Y-70126243D01*
X68498202Y-70096126D01*
X68670078Y-70069605D01*
X68739280Y-70060148D01*
X68890890Y-70059520D01*
X69003721Y-70099780D01*
G37*
G36*
X69890132Y-66514224D02*
G01*
X69973013Y-66587771D01*
X70017102Y-66699967D01*
X70020319Y-66741499D01*
X69990046Y-66882522D01*
X69904319Y-67027219D01*
X69775367Y-67162289D01*
X69615419Y-67274430D01*
X69470348Y-67339727D01*
X69361372Y-67362892D01*
X69201931Y-67379278D01*
X69011062Y-67388338D01*
X68807803Y-67389522D01*
X68611191Y-67382283D01*
X68460939Y-67368779D01*
X68342959Y-67323639D01*
X68277766Y-67264987D01*
X68222647Y-67185882D01*
X68215355Y-67128973D01*
X68256890Y-67064722D01*
X68285645Y-67032279D01*
X68324064Y-66995875D01*
X68371186Y-66969391D01*
X68440367Y-66949671D01*
X68544964Y-66933558D01*
X68698333Y-66917894D01*
X68810953Y-66908103D01*
X69040975Y-66884987D01*
X69211677Y-66857560D01*
X69333516Y-66822032D01*
X69416951Y-66774612D01*
X69472440Y-66711511D01*
X69499132Y-66658714D01*
X69572960Y-66551574D01*
X69673683Y-66493517D01*
X69784881Y-66481937D01*
X69890132Y-66514224D01*
G37*
G36*
X86010336Y-63324620D02*
G01*
X86030120Y-63376484D01*
X86029290Y-63434544D01*
X85991244Y-63441086D01*
X85969062Y-63434834D01*
X85916076Y-63428925D01*
X85897700Y-63469601D01*
X85896428Y-63505043D01*
X85918675Y-63593534D01*
X85973266Y-63688960D01*
X85983653Y-63701967D01*
X86049378Y-63826349D01*
X86072865Y-63974889D01*
X86050528Y-64116039D01*
X86034761Y-64151469D01*
X85977306Y-64200571D01*
X85894799Y-64220052D01*
X85823297Y-64202654D01*
X85815018Y-64195696D01*
X85797218Y-64146249D01*
X85791758Y-64084047D01*
X85798463Y-64025697D01*
X85823447Y-64028145D01*
X85833626Y-64037527D01*
X85898421Y-64080663D01*
X85942133Y-64070257D01*
X85962205Y-64020043D01*
X85956079Y-63943757D01*
X85921199Y-63855132D01*
X85878983Y-63793911D01*
X85820107Y-63691316D01*
X85792793Y-63573765D01*
X85794726Y-63457687D01*
X85823592Y-63359508D01*
X85877077Y-63295658D01*
X85951070Y-63282208D01*
X86010336Y-63324620D01*
G37*
G36*
X86304866Y-63167692D02*
G01*
X86315110Y-63224588D01*
X86333308Y-63294741D01*
X86367445Y-63311813D01*
X86411370Y-63335604D01*
X86414848Y-63387260D01*
X86377051Y-63437204D01*
X86371054Y-63440917D01*
X86336561Y-63498162D01*
X86315517Y-63620631D01*
X86308333Y-63805001D01*
X86310424Y-63931112D01*
X86321291Y-64031000D01*
X86348910Y-64074688D01*
X86370003Y-64079395D01*
X86411430Y-64099932D01*
X86411095Y-64145299D01*
X86376726Y-64191135D01*
X86327916Y-64212078D01*
X86257148Y-64196948D01*
X86232325Y-64165612D01*
X86222713Y-64106969D01*
X86215251Y-63997499D01*
X86211013Y-63856147D01*
X86210439Y-63779976D01*
X86206931Y-63624585D01*
X86197173Y-63513095D01*
X86182316Y-63456338D01*
X86175549Y-63451373D01*
X86147201Y-63422151D01*
X86140659Y-63381593D01*
X86155270Y-63324898D01*
X86175549Y-63311813D01*
X86201777Y-63281955D01*
X86210439Y-63224588D01*
X86228637Y-63154434D01*
X86262774Y-63137362D01*
X86304866Y-63167692D01*
G37*
G36*
X83125242Y-63341344D02*
G01*
X83173636Y-63416038D01*
X83194142Y-63460096D01*
X83255752Y-63608379D01*
X83297002Y-63468818D01*
X83335068Y-63379139D01*
X83380097Y-63324518D01*
X83393703Y-63318455D01*
X83420710Y-63320531D01*
X83426893Y-63349937D01*
X83411199Y-63419777D01*
X83376661Y-63530619D01*
X83304169Y-63753584D01*
X83378903Y-63974882D01*
X83414468Y-64088761D01*
X83435667Y-64173972D01*
X83437938Y-64211878D01*
X83392343Y-64218904D01*
X83340483Y-64169137D01*
X83292425Y-64073622D01*
X83280782Y-64039414D01*
X83233781Y-63887500D01*
X83180820Y-64053228D01*
X83141877Y-64148580D01*
X83101112Y-64208492D01*
X83081649Y-64218956D01*
X83039242Y-64201979D01*
X83035439Y-64190840D01*
X83045881Y-64145329D01*
X83073104Y-64054552D01*
X83106848Y-63951271D01*
X83178257Y-63739817D01*
X83106866Y-63551982D01*
X83061529Y-63428931D01*
X83041065Y-63357006D01*
X83044181Y-63322643D01*
X83069584Y-63312280D01*
X83083986Y-63311813D01*
X83125242Y-63341344D01*
G37*
G36*
X86752863Y-63326575D02*
G01*
X86811679Y-63418946D01*
X86853644Y-63553092D01*
X86872747Y-63722105D01*
X86873297Y-63757782D01*
X86859922Y-63955005D01*
X86821213Y-64101296D01*
X86759461Y-64191073D01*
X86684040Y-64218956D01*
X86589070Y-64185391D01*
X86533977Y-64124542D01*
X86494998Y-64022127D01*
X86473235Y-63876344D01*
X86470498Y-63778043D01*
X86559340Y-63778043D01*
X86566253Y-63926354D01*
X86588881Y-64020137D01*
X86616660Y-64061950D01*
X86680135Y-64097858D01*
X86729693Y-64068618D01*
X86763124Y-63977873D01*
X86778217Y-63829268D01*
X86778830Y-63794683D01*
X86771909Y-63605869D01*
X86747847Y-63482723D01*
X86706093Y-63423135D01*
X86680332Y-63416483D01*
X86618539Y-63449569D01*
X86578517Y-63548451D01*
X86560453Y-63712568D01*
X86559340Y-63778043D01*
X86470498Y-63778043D01*
X86468644Y-63711436D01*
X86481179Y-63551648D01*
X86510796Y-63421223D01*
X86535378Y-63369198D01*
X86608704Y-63294792D01*
X86683202Y-63282888D01*
X86752863Y-63326575D01*
G37*
G36*
X91055833Y-63308516D02*
G01*
X91110505Y-63377735D01*
X91139909Y-63474177D01*
X91158215Y-63612890D01*
X91164942Y-63769806D01*
X91159610Y-63920857D01*
X91141739Y-64041975D01*
X91124721Y-64090411D01*
X91049474Y-64187655D01*
X90966790Y-64218881D01*
X90885825Y-64183620D01*
X90827556Y-64105563D01*
X90789833Y-63988242D01*
X90770081Y-63830728D01*
X90769397Y-63747939D01*
X90850824Y-63747939D01*
X90862853Y-63898150D01*
X90894152Y-64006138D01*
X90937539Y-64066948D01*
X90985830Y-64075619D01*
X91031844Y-64027196D01*
X91068397Y-63916719D01*
X91071577Y-63900318D01*
X91084682Y-63759573D01*
X91076211Y-63623589D01*
X91049619Y-63510510D01*
X91008359Y-63438479D01*
X90980714Y-63422943D01*
X90923225Y-63443573D01*
X90880037Y-63523059D01*
X90855212Y-63651230D01*
X90850824Y-63747939D01*
X90769397Y-63747939D01*
X90768674Y-63660354D01*
X90785986Y-63504451D01*
X90817909Y-63399038D01*
X90888389Y-63308827D01*
X90972969Y-63278269D01*
X91055833Y-63308516D01*
G37*
G36*
X74755013Y-60437575D02*
G01*
X74810646Y-60512190D01*
X74818725Y-60529327D01*
X74937541Y-60795989D01*
X75028074Y-61006675D01*
X75092882Y-61168000D01*
X75134524Y-61286583D01*
X75155559Y-61369039D01*
X75159371Y-61410302D01*
X75142923Y-61591267D01*
X75096264Y-61753043D01*
X75011649Y-61911545D01*
X74881338Y-62082685D01*
X74774080Y-62202248D01*
X74676210Y-62298810D01*
X74599822Y-62350445D01*
X74525734Y-62368935D01*
X74501260Y-62369780D01*
X74399771Y-62350944D01*
X74346063Y-62296750D01*
X74321719Y-62211105D01*
X74341266Y-62114086D01*
X74408762Y-61993677D01*
X74481612Y-61895477D01*
X74575894Y-61773639D01*
X74634922Y-61681410D01*
X74663271Y-61597929D01*
X74665518Y-61502331D01*
X74646237Y-61373754D01*
X74622451Y-61253296D01*
X74590977Y-61096463D01*
X74562649Y-60954133D01*
X74541771Y-60847979D01*
X74535598Y-60815910D01*
X74532030Y-60713192D01*
X74548315Y-60591245D01*
X74555133Y-60562956D01*
X74587397Y-60468486D01*
X74626456Y-60425443D01*
X74681167Y-60415934D01*
X74755013Y-60437575D01*
G37*
G36*
X75752647Y-60181847D02*
G01*
X75805424Y-60208289D01*
X75864259Y-60258604D01*
X75917879Y-60346827D01*
X75974215Y-60486786D01*
X75988034Y-60526697D01*
X76046749Y-60689949D01*
X76097602Y-60799389D01*
X76150786Y-60868612D01*
X76216498Y-60911209D01*
X76296990Y-60938624D01*
X76423150Y-60986715D01*
X76566061Y-61061355D01*
X76703529Y-61148813D01*
X76813358Y-61235356D01*
X76862012Y-61288186D01*
X76933379Y-61412897D01*
X76947110Y-61510704D01*
X76904382Y-61592256D01*
X76896565Y-61600413D01*
X76830502Y-61651253D01*
X76758075Y-61666678D01*
X76663679Y-61645290D01*
X76531707Y-61585690D01*
X76489732Y-61563983D01*
X76357559Y-61489115D01*
X76229360Y-61407751D01*
X76155411Y-61354642D01*
X76072800Y-61294420D01*
X76011269Y-61258115D01*
X75995765Y-61253296D01*
X75933304Y-61219989D01*
X75859880Y-61123501D01*
X75778674Y-60968985D01*
X75694085Y-60764835D01*
X75628099Y-60582561D01*
X75588874Y-60451727D01*
X75575192Y-60359847D01*
X75585836Y-60294435D01*
X75619586Y-60243005D01*
X75641120Y-60221880D01*
X75699458Y-60179253D01*
X75752647Y-60181847D01*
G37*
G36*
X92569130Y-63298539D02*
G01*
X92577443Y-63311098D01*
X92621507Y-63323277D01*
X92668852Y-63302376D01*
X92729787Y-63279007D01*
X92776470Y-63310657D01*
X92789350Y-63327204D01*
X92810668Y-63386932D01*
X92826752Y-63491483D01*
X92837489Y-63625605D01*
X92842764Y-63774046D01*
X92842464Y-63921553D01*
X92836475Y-64052874D01*
X92824683Y-64152758D01*
X92806973Y-64205952D01*
X92795947Y-64210302D01*
X92773259Y-64174632D01*
X92756830Y-64081625D01*
X92745982Y-63926367D01*
X92742432Y-63823603D01*
X92735825Y-63671908D01*
X92725625Y-63550018D01*
X92713341Y-63472235D01*
X92703091Y-63451373D01*
X92655486Y-63473824D01*
X92621680Y-63545581D01*
X92599853Y-63673247D01*
X92588186Y-63863427D01*
X92588006Y-63869121D01*
X92578240Y-64047660D01*
X92561805Y-64159732D01*
X92538223Y-64208379D01*
X92534272Y-64210318D01*
X92515950Y-64200022D01*
X92503201Y-64149636D01*
X92495263Y-64051149D01*
X92491377Y-63896549D01*
X92490659Y-63750847D01*
X92493246Y-63537935D01*
X92501560Y-63390439D01*
X92516427Y-63304169D01*
X92538675Y-63274933D01*
X92569130Y-63298539D01*
G37*
G36*
X83745826Y-63299866D02*
G01*
X83808373Y-63361440D01*
X83854070Y-63480409D01*
X83872758Y-63656058D01*
X83872802Y-63665920D01*
X83868677Y-63753079D01*
X83843890Y-63790973D01*
X83779821Y-63800089D01*
X83750686Y-63800274D01*
X83668555Y-63806246D01*
X83634873Y-63835702D01*
X83628571Y-63900673D01*
X83652749Y-64004178D01*
X83716486Y-64064314D01*
X83802836Y-64069334D01*
X83857207Y-64076076D01*
X83874309Y-64119151D01*
X83853759Y-64175657D01*
X83805315Y-64217728D01*
X83737865Y-64248266D01*
X83691397Y-64240220D01*
X83631929Y-64187423D01*
X83630517Y-64186012D01*
X83566205Y-64081643D01*
X83531948Y-63924537D01*
X83526840Y-63709764D01*
X83530305Y-63641815D01*
X83532023Y-63631206D01*
X83599821Y-63631206D01*
X83627367Y-63656757D01*
X83695234Y-63660714D01*
X83769459Y-63654976D01*
X83791439Y-63624932D01*
X83781737Y-63564766D01*
X83754763Y-63482295D01*
X83728737Y-63435673D01*
X83684844Y-63423226D01*
X83641932Y-63473279D01*
X83609813Y-63564766D01*
X83599821Y-63631206D01*
X83532023Y-63631206D01*
X83558669Y-63466661D01*
X83610816Y-63351761D01*
X83676588Y-63296401D01*
X83745826Y-63299866D01*
G37*
G36*
X89687346Y-63311029D02*
G01*
X89751776Y-63402206D01*
X89792357Y-63540068D01*
X89804121Y-63686651D01*
X89799338Y-63759436D01*
X89771607Y-63791786D01*
X89700851Y-63800048D01*
X89664560Y-63800274D01*
X89563128Y-63815252D01*
X89522920Y-63861779D01*
X89542962Y-63942247D01*
X89581271Y-64004646D01*
X89644496Y-64063064D01*
X89720831Y-64064080D01*
X89783941Y-64059390D01*
X89803746Y-64097610D01*
X89804121Y-64109888D01*
X89778707Y-64175738D01*
X89748932Y-64197778D01*
X89636168Y-64217949D01*
X89551236Y-64175911D01*
X89501732Y-64105563D01*
X89462255Y-63991472D01*
X89443374Y-63850241D01*
X89443168Y-63697356D01*
X89458247Y-63561556D01*
X89527059Y-63561556D01*
X89535876Y-63628811D01*
X89595957Y-63659890D01*
X89612225Y-63660714D01*
X89675003Y-63649137D01*
X89697598Y-63600305D01*
X89699450Y-63558103D01*
X89683794Y-63466783D01*
X89644107Y-63427545D01*
X89591314Y-63447927D01*
X89572042Y-63470157D01*
X89527059Y-63561556D01*
X89458247Y-63561556D01*
X89459719Y-63548302D01*
X89491105Y-63418566D01*
X89535408Y-63323633D01*
X89590707Y-63278989D01*
X89604398Y-63277457D01*
X89687346Y-63311029D01*
G37*
G36*
X91537305Y-63284312D02*
G01*
X91594895Y-63347605D01*
X91619141Y-63407761D01*
X91636759Y-63504665D01*
X91646412Y-63635683D01*
X91648667Y-63783855D01*
X91644094Y-63932221D01*
X91633262Y-64063822D01*
X91616737Y-64161697D01*
X91595090Y-64208888D01*
X91592239Y-64210318D01*
X91571792Y-64199524D01*
X91558413Y-64145319D01*
X91551047Y-64039157D01*
X91548636Y-63872495D01*
X91548626Y-63857576D01*
X91544546Y-63664777D01*
X91531342Y-63536686D01*
X91507563Y-63468655D01*
X91471762Y-63456035D01*
X91432193Y-63483998D01*
X91412474Y-63536850D01*
X91395476Y-63644938D01*
X91383168Y-63793726D01*
X91379629Y-63871728D01*
X91368976Y-64048959D01*
X91351837Y-64165865D01*
X91329045Y-64219802D01*
X91301430Y-64208128D01*
X91284690Y-64173312D01*
X91278613Y-64121994D01*
X91275176Y-64016554D01*
X91274638Y-63872609D01*
X91277063Y-63713865D01*
X91284511Y-63516449D01*
X91296280Y-63382981D01*
X91313087Y-63307718D01*
X91330563Y-63285585D01*
X91366934Y-63301313D01*
X91375236Y-63335073D01*
X91379379Y-63379337D01*
X91398277Y-63360800D01*
X91411860Y-63337980D01*
X91471969Y-63279648D01*
X91537305Y-63284312D01*
G37*
G36*
X88187072Y-63311029D02*
G01*
X88251501Y-63402206D01*
X88292082Y-63540068D01*
X88303846Y-63686651D01*
X88299103Y-63759315D01*
X88271521Y-63791699D01*
X88201066Y-63800034D01*
X88163621Y-63800274D01*
X88074894Y-63803441D01*
X88039312Y-63821999D01*
X88040263Y-63869537D01*
X88046316Y-63896222D01*
X88088813Y-64011576D01*
X88149502Y-64064212D01*
X88222754Y-64063528D01*
X88284737Y-64059828D01*
X88303627Y-64100408D01*
X88303846Y-64109888D01*
X88278432Y-64175738D01*
X88248657Y-64197778D01*
X88135893Y-64217949D01*
X88050961Y-64175911D01*
X88001457Y-64105563D01*
X87961980Y-63991472D01*
X87943099Y-63850241D01*
X87942894Y-63697356D01*
X87957972Y-63561556D01*
X88026784Y-63561556D01*
X88035601Y-63628811D01*
X88095682Y-63659890D01*
X88111950Y-63660714D01*
X88174728Y-63649137D01*
X88197323Y-63600305D01*
X88199175Y-63558103D01*
X88183519Y-63466783D01*
X88143832Y-63427545D01*
X88091039Y-63447927D01*
X88071767Y-63470157D01*
X88026784Y-63561556D01*
X87957972Y-63561556D01*
X87959444Y-63548302D01*
X87990831Y-63418566D01*
X88035133Y-63323633D01*
X88090432Y-63278989D01*
X88104124Y-63277457D01*
X88187072Y-63311029D01*
G37*
G36*
X88729672Y-62911660D02*
G01*
X88741444Y-62958322D01*
X88749607Y-63048812D01*
X88754645Y-63190295D01*
X88757043Y-63389936D01*
X88757417Y-63545722D01*
X88757417Y-64204128D01*
X88620507Y-64209587D01*
X88499458Y-64197025D01*
X88437334Y-64159338D01*
X88411529Y-64093561D01*
X88391679Y-63974037D01*
X88380619Y-63821114D01*
X88381895Y-63768753D01*
X88466344Y-63768753D01*
X88474943Y-63897917D01*
X88495127Y-64003551D01*
X88525152Y-64067934D01*
X88546763Y-64079395D01*
X88588679Y-64053708D01*
X88633323Y-64001852D01*
X88666840Y-63913982D01*
X88684623Y-63786901D01*
X88685654Y-63649605D01*
X88668915Y-63531096D01*
X88651519Y-63483970D01*
X88595630Y-63424597D01*
X88537930Y-63429925D01*
X88494659Y-63497251D01*
X88490863Y-63510723D01*
X88471070Y-63633782D01*
X88466344Y-63768753D01*
X88381895Y-63768753D01*
X88385650Y-63614733D01*
X88415976Y-63454073D01*
X88469251Y-63345818D01*
X88543131Y-63296649D01*
X88565522Y-63294368D01*
X88607391Y-63283930D01*
X88632408Y-63241835D01*
X88648030Y-63151906D01*
X88652747Y-63105188D01*
X88670185Y-62994833D01*
X88695965Y-62920624D01*
X88713805Y-62901663D01*
X88729672Y-62911660D01*
G37*
G36*
X79442524Y-88144849D02*
G01*
X79443290Y-88799038D01*
X79507377Y-88659478D01*
X79594573Y-88511245D01*
X79687660Y-88426764D01*
X79781491Y-88407170D01*
X79870914Y-88453595D01*
X79948402Y-88562443D01*
X79968657Y-88608009D01*
X79984672Y-88661675D01*
X79997099Y-88732262D01*
X80006585Y-88828591D01*
X80013780Y-88959486D01*
X80019334Y-89133767D01*
X80023895Y-89360257D01*
X80028077Y-89645123D01*
X80040718Y-90595879D01*
X79950578Y-90595879D01*
X79860439Y-90595879D01*
X79860439Y-89760787D01*
X79858992Y-89510721D01*
X79854904Y-89285037D01*
X79848557Y-89093858D01*
X79840333Y-88947310D01*
X79830614Y-88855517D01*
X79825493Y-88833780D01*
X79775557Y-88759161D01*
X79710942Y-88749507D01*
X79636510Y-88802793D01*
X79557124Y-88916996D01*
X79537706Y-88953577D01*
X79505683Y-89018427D01*
X79481719Y-89076514D01*
X79464646Y-89138990D01*
X79453295Y-89217005D01*
X79446499Y-89321709D01*
X79443090Y-89464252D01*
X79441899Y-89655785D01*
X79441758Y-89869443D01*
X79441758Y-90595879D01*
X79354533Y-90595879D01*
X79267307Y-90595879D01*
X79267307Y-89043269D01*
X79267307Y-87490659D01*
X79354533Y-87490659D01*
X79441758Y-87490659D01*
X79442524Y-88144849D01*
G37*
G36*
X80680470Y-63002074D02*
G01*
X80690778Y-63022419D01*
X80682962Y-63070127D01*
X80654704Y-63156491D01*
X80603682Y-63292801D01*
X80582323Y-63348413D01*
X80494340Y-63576909D01*
X80628752Y-63897932D01*
X80688833Y-64044423D01*
X80722943Y-64138477D01*
X80733550Y-64191381D01*
X80723123Y-64214421D01*
X80698950Y-64218956D01*
X80654104Y-64197154D01*
X80603478Y-64126201D01*
X80541441Y-63997773D01*
X80527822Y-63966002D01*
X80420909Y-63713049D01*
X80419795Y-63966002D01*
X80416258Y-64101525D01*
X80405346Y-64180093D01*
X80384381Y-64214374D01*
X80366346Y-64218956D01*
X80347198Y-64210028D01*
X80333256Y-64177213D01*
X80323741Y-64111460D01*
X80317880Y-64003718D01*
X80314896Y-63844938D01*
X80314014Y-63626069D01*
X80314011Y-63608379D01*
X80314776Y-63384994D01*
X80317589Y-63222327D01*
X80323225Y-63111328D01*
X80332460Y-63042947D01*
X80346069Y-63008134D01*
X80364830Y-62997838D01*
X80366346Y-62997802D01*
X80395490Y-63013050D01*
X80412448Y-63067291D01*
X80420198Y-63173267D01*
X80421390Y-63233310D01*
X80424099Y-63468818D01*
X80513438Y-63233310D01*
X80570116Y-63102475D01*
X80620735Y-63020926D01*
X80654358Y-62997802D01*
X80680470Y-63002074D01*
G37*
G36*
X83809772Y-88416023D02*
G01*
X83879424Y-88476507D01*
X83906569Y-88587985D01*
X83907692Y-88626711D01*
X83907692Y-88783385D01*
X83802707Y-88729095D01*
X83690312Y-88697287D01*
X83604791Y-88729347D01*
X83549984Y-88823276D01*
X83539533Y-88866209D01*
X83530719Y-88989760D01*
X83560566Y-89100554D01*
X83636672Y-89218372D01*
X83705541Y-89298305D01*
X83847578Y-89480521D01*
X83933316Y-89664506D01*
X83972056Y-89874166D01*
X83976706Y-89995145D01*
X83956468Y-90245195D01*
X83894837Y-90444729D01*
X83813728Y-90568434D01*
X83726474Y-90617481D01*
X83606360Y-90625308D01*
X83477184Y-90591432D01*
X83445398Y-90575922D01*
X83386840Y-90535446D01*
X83358439Y-90481427D01*
X83349765Y-90389480D01*
X83349450Y-90351585D01*
X83349450Y-90179300D01*
X83476434Y-90265474D01*
X83581346Y-90328916D01*
X83652971Y-90347133D01*
X83709628Y-90321867D01*
X83740593Y-90290590D01*
X83814525Y-90156851D01*
X83824288Y-90004802D01*
X83770912Y-89841004D01*
X83655427Y-89672014D01*
X83640859Y-89655479D01*
X83510400Y-89491029D01*
X83430903Y-89334802D01*
X83392377Y-89161050D01*
X83384340Y-88994326D01*
X83400959Y-88776650D01*
X83448502Y-88601986D01*
X83523503Y-88477114D01*
X83622495Y-88408818D01*
X83689282Y-88397802D01*
X83809772Y-88416023D01*
G37*
G36*
X84928541Y-63297904D02*
G01*
X84968891Y-63357300D01*
X84997149Y-63467806D01*
X85016538Y-63636308D01*
X85026536Y-63792022D01*
X85033219Y-63987632D01*
X85030828Y-64133119D01*
X85019992Y-64223865D01*
X85001340Y-64255253D01*
X84975502Y-64222664D01*
X84969755Y-64208657D01*
X84947276Y-64171950D01*
X84908795Y-64179215D01*
X84867223Y-64204684D01*
X84804887Y-64237278D01*
X84763641Y-64220518D01*
X84730892Y-64178164D01*
X84680907Y-64053930D01*
X84680462Y-63969941D01*
X84770424Y-63969941D01*
X84782231Y-64037884D01*
X84821666Y-64072308D01*
X84845513Y-64072061D01*
X84887363Y-64036443D01*
X84909872Y-63943693D01*
X84912966Y-63909731D01*
X84914387Y-63812832D01*
X84898240Y-63773429D01*
X84878076Y-63773227D01*
X84820615Y-63816790D01*
X84783975Y-63889303D01*
X84770424Y-63969941D01*
X84680462Y-63969941D01*
X84680170Y-63914925D01*
X84726722Y-63789336D01*
X84760914Y-63746353D01*
X84829207Y-63688369D01*
X84881698Y-63661030D01*
X84885347Y-63660714D01*
X84910236Y-63630951D01*
X84913100Y-63564766D01*
X84893412Y-63495127D01*
X84841356Y-63474483D01*
X84806112Y-63475387D01*
X84732333Y-63459869D01*
X84707153Y-63412837D01*
X84731415Y-63353656D01*
X84798679Y-63304877D01*
X84872878Y-63282726D01*
X84928541Y-63297904D01*
G37*
G36*
X87490967Y-88460558D02*
G01*
X87562494Y-88577670D01*
X87586778Y-88646788D01*
X87604661Y-88722050D01*
X87618379Y-88818386D01*
X87628393Y-88944861D01*
X87635162Y-89110542D01*
X87639149Y-89324496D01*
X87640814Y-89595789D01*
X87640934Y-89712514D01*
X87640934Y-90595879D01*
X87553708Y-90595879D01*
X87466483Y-90595879D01*
X87466483Y-89730295D01*
X87465661Y-89437984D01*
X87462424Y-89208339D01*
X87455615Y-89034256D01*
X87444078Y-88908629D01*
X87426657Y-88824357D01*
X87402195Y-88774334D01*
X87369536Y-88751456D01*
X87327524Y-88748621D01*
X87307172Y-88751631D01*
X87250831Y-88791011D01*
X87183467Y-88882250D01*
X87143750Y-88953577D01*
X87111727Y-89018427D01*
X87087763Y-89076514D01*
X87070690Y-89138990D01*
X87059339Y-89217005D01*
X87052543Y-89321709D01*
X87049134Y-89464252D01*
X87047943Y-89655785D01*
X87047802Y-89869443D01*
X87047802Y-90595879D01*
X86960577Y-90595879D01*
X86873351Y-90595879D01*
X86873351Y-89531730D01*
X86873351Y-88467582D01*
X86960577Y-88467582D01*
X87013427Y-88473772D01*
X87039440Y-88504512D01*
X87048415Y-88578054D01*
X87049541Y-88633310D01*
X87051280Y-88799038D01*
X87124373Y-88648249D01*
X87215241Y-88502946D01*
X87310914Y-88423216D01*
X87404965Y-88409080D01*
X87490967Y-88460558D01*
G37*
G36*
X82847369Y-63314987D02*
G01*
X82892291Y-63382487D01*
X82932191Y-63492871D01*
X82958930Y-63619312D01*
X82965464Y-63704327D01*
X82959341Y-63765584D01*
X82927508Y-63793077D01*
X82850275Y-63800139D01*
X82823747Y-63800274D01*
X82744857Y-63801209D01*
X82705856Y-63814566D01*
X82700224Y-63856171D01*
X82721443Y-63941853D01*
X82739617Y-64004551D01*
X82768387Y-64061590D01*
X82823502Y-64072946D01*
X82864501Y-64066481D01*
X82936867Y-64059896D01*
X82963434Y-64086963D01*
X82965659Y-64113930D01*
X82937576Y-64183820D01*
X82898172Y-64217728D01*
X82839375Y-64246799D01*
X82800024Y-64245385D01*
X82743969Y-64209902D01*
X82731605Y-64201223D01*
X82667808Y-64117954D01*
X82619555Y-63970143D01*
X82615958Y-63953426D01*
X82595742Y-63789330D01*
X82600528Y-63632097D01*
X82614207Y-63558291D01*
X82690051Y-63558291D01*
X82695671Y-63626408D01*
X82752913Y-63659349D01*
X82773763Y-63660714D01*
X82840735Y-63645726D01*
X82860391Y-63589890D01*
X82860454Y-63582211D01*
X82844769Y-63494730D01*
X82824901Y-63451373D01*
X82792654Y-63420029D01*
X82757064Y-63443261D01*
X82738210Y-63466764D01*
X82690051Y-63558291D01*
X82614207Y-63558291D01*
X82626387Y-63492573D01*
X82669386Y-63381601D01*
X82725595Y-63310030D01*
X82791082Y-63288703D01*
X82847369Y-63314987D01*
G37*
G36*
X93185950Y-63286085D02*
G01*
X93328022Y-63291751D01*
X93327507Y-63816411D01*
X93325025Y-64055860D01*
X93316495Y-64234536D01*
X93299486Y-64361352D01*
X93271568Y-64445219D01*
X93230311Y-64495052D01*
X93173286Y-64519762D01*
X93134076Y-64525898D01*
X93051635Y-64525808D01*
X93004034Y-64511360D01*
X92982668Y-64458501D01*
X92979121Y-64421817D01*
X92992084Y-64377391D01*
X93043518Y-64374080D01*
X93070091Y-64380019D01*
X93159002Y-64378540D01*
X93209530Y-64319248D01*
X93222817Y-64227013D01*
X93212816Y-64171226D01*
X93167928Y-64162935D01*
X93135945Y-64169784D01*
X93074565Y-64175201D01*
X93033285Y-64142107D01*
X92996385Y-64066899D01*
X92960456Y-63927457D01*
X92947480Y-63768187D01*
X93032645Y-63768187D01*
X93042194Y-63886144D01*
X93059766Y-63952714D01*
X93106048Y-64003001D01*
X93168704Y-63997852D01*
X93222124Y-63942129D01*
X93244286Y-63866493D01*
X93257032Y-63756711D01*
X93258241Y-63713049D01*
X93244823Y-63563243D01*
X93207022Y-63461814D01*
X93148520Y-63417663D01*
X93135563Y-63416483D01*
X93094086Y-63448050D01*
X93061301Y-63529969D01*
X93039917Y-63643072D01*
X93032645Y-63768187D01*
X92947480Y-63768187D01*
X92946303Y-63753741D01*
X92954033Y-63576780D01*
X92983756Y-63427603D01*
X92994055Y-63399666D01*
X93032969Y-63323045D01*
X93081196Y-63290419D01*
X93166427Y-63285398D01*
X93185950Y-63286085D01*
G37*
G36*
X75943199Y-61520474D02*
G01*
X75976095Y-61587174D01*
X75961724Y-61701758D01*
X75945549Y-61754413D01*
X75970386Y-61779661D01*
X76045274Y-61814889D01*
X76134653Y-61846193D01*
X76264491Y-61895133D01*
X76382993Y-61954300D01*
X76437762Y-61990543D01*
X76534814Y-62065469D01*
X76627367Y-62133398D01*
X76630925Y-62135900D01*
X76702607Y-62216449D01*
X76720329Y-62284183D01*
X76696219Y-62369633D01*
X76638036Y-62451457D01*
X76567000Y-62503476D01*
X76537156Y-62510176D01*
X76488031Y-62498672D01*
X76389619Y-62466936D01*
X76257584Y-62420234D01*
X76147972Y-62379338D01*
X75983751Y-62313914D01*
X75872091Y-62260828D01*
X75798910Y-62211731D01*
X75750125Y-62158277D01*
X75734567Y-62134272D01*
X75675332Y-62049591D01*
X75628239Y-62025929D01*
X75580093Y-62059285D01*
X75561866Y-62081936D01*
X75508312Y-62142620D01*
X75426014Y-62224647D01*
X75329516Y-62314895D01*
X75233359Y-62400241D01*
X75152084Y-62467561D01*
X75100233Y-62503734D01*
X75091305Y-62506586D01*
X75035120Y-62492092D01*
X75019436Y-62486233D01*
X74980469Y-62437759D01*
X74987039Y-62351897D01*
X75037349Y-62242534D01*
X75054327Y-62216382D01*
X75108000Y-62152470D01*
X75197441Y-62061051D01*
X75311228Y-61952285D01*
X75437938Y-61836334D01*
X75566149Y-61723357D01*
X75684437Y-61623516D01*
X75781380Y-61546971D01*
X75845556Y-61503883D01*
X75861860Y-61498061D01*
X75943199Y-61520474D01*
G37*
G36*
X82205100Y-62911670D02*
G01*
X82216818Y-62958140D01*
X82224980Y-63048230D01*
X82230061Y-63189059D01*
X82232533Y-63387745D01*
X82232967Y-63557205D01*
X82232709Y-63788594D01*
X82231298Y-63959127D01*
X82227779Y-64077729D01*
X82221198Y-64153324D01*
X82210598Y-64194836D01*
X82195025Y-64211190D01*
X82173523Y-64211309D01*
X82163221Y-64208855D01*
X82098336Y-64207286D01*
X82073937Y-64222231D01*
X82029704Y-64251840D01*
X81964751Y-64226434D01*
X81907035Y-64151756D01*
X81868126Y-64017856D01*
X81855301Y-63885845D01*
X81942109Y-63885845D01*
X81952311Y-63990047D01*
X81968219Y-64039535D01*
X82021578Y-64078090D01*
X82082228Y-64058629D01*
X82129160Y-63989899D01*
X82155796Y-63876034D01*
X82164003Y-63741337D01*
X82154879Y-63610378D01*
X82129522Y-63507731D01*
X82105867Y-63468818D01*
X82056083Y-63430823D01*
X82014530Y-63446559D01*
X81996066Y-63463981D01*
X81970621Y-63523525D01*
X81952393Y-63629244D01*
X81942513Y-63757797D01*
X81942109Y-63885845D01*
X81855301Y-63885845D01*
X81850195Y-63833281D01*
X81849230Y-63771835D01*
X81862378Y-63586203D01*
X81899167Y-63440042D01*
X81955758Y-63342404D01*
X82028310Y-63302343D01*
X82048393Y-63302374D01*
X82092205Y-63300342D01*
X82116775Y-63271962D01*
X82129396Y-63201358D01*
X82135299Y-63113235D01*
X82149082Y-62992017D01*
X82173117Y-62917458D01*
X82189354Y-62901703D01*
X82205100Y-62911670D01*
G37*
G36*
X84306709Y-62913868D02*
G01*
X84320629Y-62975462D01*
X84326125Y-63095368D01*
X84326373Y-63139862D01*
X84327108Y-63269342D01*
X84332111Y-63340198D01*
X84345578Y-63363586D01*
X84371705Y-63350661D01*
X84397240Y-63328275D01*
X84452563Y-63285620D01*
X84491998Y-63291479D01*
X84528077Y-63324017D01*
X84556550Y-63383415D01*
X84579246Y-63488891D01*
X84595676Y-63624819D01*
X84605350Y-63775571D01*
X84607780Y-63925520D01*
X84602476Y-64059039D01*
X84588951Y-64160499D01*
X84566714Y-64214274D01*
X84556081Y-64218956D01*
X84530980Y-64209432D01*
X84514687Y-64173077D01*
X84505430Y-64098209D01*
X84501436Y-63973150D01*
X84500824Y-63854669D01*
X84497892Y-63702085D01*
X84489971Y-63576835D01*
X84478376Y-63494453D01*
X84468321Y-63470294D01*
X84427308Y-63480406D01*
X84381096Y-63528333D01*
X84350594Y-63598852D01*
X84332988Y-63711534D01*
X84326499Y-63878860D01*
X84326373Y-63912708D01*
X84324312Y-64063334D01*
X84316722Y-64156445D01*
X84301489Y-64204223D01*
X84276502Y-64218847D01*
X84273268Y-64218956D01*
X84254562Y-64211089D01*
X84241133Y-64181556D01*
X84232385Y-64121459D01*
X84227724Y-64021902D01*
X84226552Y-63873985D01*
X84228274Y-63668811D01*
X84229656Y-63567645D01*
X84234573Y-63321281D01*
X84241505Y-63138181D01*
X84250970Y-63011844D01*
X84263486Y-62935769D01*
X84279572Y-62903455D01*
X84282761Y-62901825D01*
X84306709Y-62913868D01*
G37*
G36*
X90577126Y-63287682D02*
G01*
X90634374Y-63334664D01*
X90636204Y-63337980D01*
X90679659Y-63467092D01*
X90700780Y-63630550D01*
X90700374Y-63806104D01*
X90679249Y-63971507D01*
X90638212Y-64104509D01*
X90606468Y-64156994D01*
X90552315Y-64209837D01*
X90503351Y-64210498D01*
X90469305Y-64192492D01*
X90428241Y-64171656D01*
X90406767Y-64182393D01*
X90398549Y-64237739D01*
X90397252Y-64340775D01*
X90390721Y-64465963D01*
X90369983Y-64526062D01*
X90333318Y-64524640D01*
X90315842Y-64509707D01*
X90304864Y-64464958D01*
X90297199Y-64365498D01*
X90292667Y-64225423D01*
X90291090Y-64058826D01*
X90292286Y-63879803D01*
X90294828Y-63760898D01*
X90397252Y-63760898D01*
X90407089Y-63915437D01*
X90433889Y-64022477D01*
X90473590Y-64076419D01*
X90522130Y-64071662D01*
X90574238Y-64004878D01*
X90593562Y-63929671D01*
X90601110Y-63815462D01*
X90597975Y-63685993D01*
X90585252Y-63565005D01*
X90564036Y-63476243D01*
X90548623Y-63449227D01*
X90501124Y-63435625D01*
X90454323Y-63469068D01*
X90419503Y-63529882D01*
X90401469Y-63633538D01*
X90397252Y-63760898D01*
X90294828Y-63760898D01*
X90296077Y-63702449D01*
X90302283Y-63540858D01*
X90310723Y-63409124D01*
X90321218Y-63321344D01*
X90331373Y-63291957D01*
X90380707Y-63294310D01*
X90396792Y-63311068D01*
X90428879Y-63334271D01*
X90447285Y-63315538D01*
X90503481Y-63279966D01*
X90577126Y-63287682D01*
G37*
G36*
X87786035Y-63352105D02*
G01*
X87832078Y-63457244D01*
X87859702Y-63598823D01*
X87865488Y-63765886D01*
X87849540Y-63926904D01*
X87815361Y-64080603D01*
X87770105Y-64172553D01*
X87708304Y-64210560D01*
X87651778Y-64209155D01*
X87603563Y-64205561D01*
X87579751Y-64229823D01*
X87571826Y-64298230D01*
X87571153Y-64363354D01*
X87565246Y-64471355D01*
X87544884Y-64523202D01*
X87518818Y-64532967D01*
X87499701Y-64524052D01*
X87485771Y-64491283D01*
X87476256Y-64425624D01*
X87470385Y-64318041D01*
X87467386Y-64159498D01*
X87466487Y-63940958D01*
X87466483Y-63920197D01*
X87466823Y-63767696D01*
X87552814Y-63767696D01*
X87555835Y-63888093D01*
X87577327Y-63995653D01*
X87616318Y-64072424D01*
X87654360Y-64098165D01*
X87701887Y-64068190D01*
X87707717Y-64062455D01*
X87739836Y-64005947D01*
X87757486Y-63907723D01*
X87763044Y-63754297D01*
X87763049Y-63748438D01*
X87758565Y-63617971D01*
X87746742Y-63514096D01*
X87730019Y-63457204D01*
X87727867Y-63454571D01*
X87675779Y-63432835D01*
X87629747Y-63467033D01*
X87592253Y-63543413D01*
X87565781Y-63648218D01*
X87552814Y-63767696D01*
X87466823Y-63767696D01*
X87466975Y-63699441D01*
X87469081Y-63539109D01*
X87473744Y-63429849D01*
X87481908Y-63362309D01*
X87494516Y-63327135D01*
X87512512Y-63314975D01*
X87527541Y-63314982D01*
X87611916Y-63307806D01*
X87652362Y-63294959D01*
X87724990Y-63294359D01*
X87786035Y-63352105D01*
G37*
G36*
X81249889Y-88416036D02*
G01*
X81264021Y-88419842D01*
X81334241Y-88445988D01*
X81369726Y-88486814D01*
X81384880Y-88564973D01*
X81388752Y-88616000D01*
X81399346Y-88779596D01*
X81271626Y-88726231D01*
X81185109Y-88694543D01*
X81132214Y-88694551D01*
X81083913Y-88727213D01*
X81077859Y-88732637D01*
X81030839Y-88805525D01*
X81012522Y-88921990D01*
X81011813Y-88960132D01*
X81015924Y-89049316D01*
X81034871Y-89120738D01*
X81078580Y-89194349D01*
X81156974Y-89290095D01*
X81200393Y-89339202D01*
X81345448Y-89531132D01*
X81430169Y-89722498D01*
X81460994Y-89933006D01*
X81452947Y-90112174D01*
X81423758Y-90272535D01*
X81374984Y-90419595D01*
X81314291Y-90535696D01*
X81249347Y-90603180D01*
X81237231Y-90609021D01*
X81106689Y-90628609D01*
X80972515Y-90602087D01*
X80915865Y-90572348D01*
X80866102Y-90522811D01*
X80842701Y-90449874D01*
X80837362Y-90344291D01*
X80837362Y-90170994D01*
X80946844Y-90263117D01*
X81060250Y-90330344D01*
X81156601Y-90333632D01*
X81229693Y-90277977D01*
X81273321Y-90168372D01*
X81281280Y-90009812D01*
X81280163Y-89994846D01*
X81261183Y-89882432D01*
X81216519Y-89788618D01*
X81131757Y-89683856D01*
X81124643Y-89676102D01*
X80999559Y-89529988D01*
X80919714Y-89402844D01*
X80875572Y-89270406D01*
X80857600Y-89108409D01*
X80855410Y-88990934D01*
X80871660Y-88755245D01*
X80919939Y-88578925D01*
X80999541Y-88462958D01*
X81109760Y-88408333D01*
X81249889Y-88416036D01*
G37*
G36*
X87249383Y-63302431D02*
G01*
X87308318Y-63379352D01*
X87308582Y-63379860D01*
X87341873Y-63489707D01*
X87358811Y-63641927D01*
X87359361Y-63811049D01*
X87343489Y-63971604D01*
X87311160Y-64098118D01*
X87309553Y-64102043D01*
X87267526Y-64183773D01*
X87222353Y-64213545D01*
X87169992Y-64210431D01*
X87117829Y-64205147D01*
X87092100Y-64226342D01*
X87083501Y-64290309D01*
X87082692Y-64363354D01*
X87076785Y-64471355D01*
X87056422Y-64523202D01*
X87030357Y-64532967D01*
X87011265Y-64524062D01*
X86997346Y-64491332D01*
X86987831Y-64425755D01*
X86981952Y-64318306D01*
X86978940Y-64159965D01*
X86978027Y-63941706D01*
X86978022Y-63918320D01*
X86978079Y-63876124D01*
X87051702Y-63876124D01*
X87071070Y-63975270D01*
X87099407Y-64030843D01*
X87144855Y-64090562D01*
X87179432Y-64096421D01*
X87213384Y-64068327D01*
X87245961Y-64007711D01*
X87263215Y-63899885D01*
X87267404Y-63765384D01*
X87255420Y-63593011D01*
X87224498Y-63480679D01*
X87182183Y-63429529D01*
X87136022Y-63440701D01*
X87093562Y-63515337D01*
X87062347Y-63654578D01*
X87054363Y-63733181D01*
X87051702Y-63876124D01*
X86978079Y-63876124D01*
X86978320Y-63698025D01*
X86979941Y-63538220D01*
X86983970Y-63429616D01*
X86991494Y-63362924D01*
X87003599Y-63328855D01*
X87021371Y-63318120D01*
X87045896Y-63321429D01*
X87047767Y-63321913D01*
X87112653Y-63323483D01*
X87137051Y-63308537D01*
X87187128Y-63276678D01*
X87249383Y-63302431D01*
G37*
G36*
X81651850Y-63298875D02*
G01*
X81689678Y-63331750D01*
X81716912Y-63376499D01*
X81733907Y-63453544D01*
X81742480Y-63575959D01*
X81744505Y-63726008D01*
X81748637Y-63896842D01*
X81760238Y-64024055D01*
X81778119Y-64096230D01*
X81784028Y-64104962D01*
X81806808Y-64167610D01*
X81800746Y-64203915D01*
X81779291Y-64242752D01*
X81747316Y-64233658D01*
X81708888Y-64200852D01*
X81659260Y-64167144D01*
X81639835Y-64174925D01*
X81613356Y-64220434D01*
X81553439Y-64231109D01*
X81489366Y-64202707D01*
X81483839Y-64197536D01*
X81441216Y-64128905D01*
X81425425Y-64025514D01*
X81426796Y-63989539D01*
X81499849Y-63989539D01*
X81519692Y-64051929D01*
X81523534Y-64056135D01*
X81585234Y-64078735D01*
X81641745Y-64045879D01*
X81653547Y-64024206D01*
X81672494Y-63935410D01*
X81670151Y-63846539D01*
X81647937Y-63788817D01*
X81642648Y-63784568D01*
X81592639Y-63785765D01*
X81545831Y-63834778D01*
X81511731Y-63909929D01*
X81499849Y-63989539D01*
X81426796Y-63989539D01*
X81430019Y-63904945D01*
X81466645Y-63787385D01*
X81558066Y-63709106D01*
X81596893Y-63692033D01*
X81653761Y-63656857D01*
X81666939Y-63596249D01*
X81661910Y-63552817D01*
X81642040Y-63460013D01*
X81613172Y-63425414D01*
X81561979Y-63437579D01*
X81540446Y-63448546D01*
X81467406Y-63481644D01*
X81436118Y-63473540D01*
X81430494Y-63435907D01*
X81456915Y-63383428D01*
X81517452Y-63324171D01*
X81584020Y-63282982D01*
X81610216Y-63276923D01*
X81651850Y-63298875D01*
G37*
G36*
X92108899Y-62900998D02*
G01*
X92122328Y-62930531D01*
X92131076Y-62990628D01*
X92135737Y-63090185D01*
X92136909Y-63238102D01*
X92135187Y-63443276D01*
X92133805Y-63544443D01*
X92128888Y-63790806D01*
X92121956Y-63973906D01*
X92112491Y-64100243D01*
X92099975Y-64176318D01*
X92083889Y-64208632D01*
X92080700Y-64210262D01*
X92044324Y-64194567D01*
X92036027Y-64160805D01*
X92031884Y-64116542D01*
X92012986Y-64135079D01*
X91999403Y-64157898D01*
X91936200Y-64210860D01*
X91859005Y-64208866D01*
X91795137Y-64153200D01*
X91792322Y-64148177D01*
X91748698Y-64019178D01*
X91728566Y-63855487D01*
X91729995Y-63749684D01*
X91828281Y-63749684D01*
X91836196Y-63919160D01*
X91860603Y-64022424D01*
X91901176Y-64058918D01*
X91957590Y-64028081D01*
X91977495Y-64005691D01*
X92013727Y-63941624D01*
X92030184Y-63852385D01*
X92030462Y-63717134D01*
X92029830Y-63702295D01*
X92018400Y-63565674D01*
X91996502Y-63483085D01*
X91959913Y-63439056D01*
X91957592Y-63437571D01*
X91900196Y-63421169D01*
X91860870Y-63458443D01*
X91837649Y-63554130D01*
X91828568Y-63712973D01*
X91828281Y-63749684D01*
X91729995Y-63749684D01*
X91730938Y-63679848D01*
X91754830Y-63515001D01*
X91799254Y-63383688D01*
X91827387Y-63339484D01*
X91881684Y-63286298D01*
X91930457Y-63285176D01*
X91965035Y-63303386D01*
X92003650Y-63323226D01*
X92025216Y-63314878D01*
X92034692Y-63265736D01*
X92037034Y-63163196D01*
X92037088Y-63120213D01*
X92040480Y-62993329D01*
X92052725Y-62922718D01*
X92076926Y-62895109D01*
X92090193Y-62893132D01*
X92108899Y-62900998D01*
G37*
G36*
X88451551Y-88472748D02*
G01*
X88459567Y-88480571D01*
X88525085Y-88565991D01*
X88573800Y-88679974D01*
X88608520Y-88833674D01*
X88632052Y-89038240D01*
X88642941Y-89208997D01*
X88661710Y-89584066D01*
X88364948Y-89584066D01*
X88068187Y-89584066D01*
X88085724Y-89749794D01*
X88120398Y-89955085D01*
X88174976Y-90127320D01*
X88244345Y-90253636D01*
X88310217Y-90314795D01*
X88379552Y-90345553D01*
X88441434Y-90343230D01*
X88528280Y-90307461D01*
X88652747Y-90248107D01*
X88652747Y-90385124D01*
X88638894Y-90495149D01*
X88590598Y-90564705D01*
X88575203Y-90576455D01*
X88451238Y-90624322D01*
X88312905Y-90618598D01*
X88189031Y-90560498D01*
X88188645Y-90560194D01*
X88126667Y-90489085D01*
X88060474Y-90379305D01*
X88019124Y-90289796D01*
X87988901Y-90207742D01*
X87967331Y-90127711D01*
X87952958Y-90035729D01*
X87944328Y-89917819D01*
X87939986Y-89760007D01*
X87938478Y-89548317D01*
X87938411Y-89514285D01*
X87941116Y-89304945D01*
X88094505Y-89304945D01*
X88284342Y-89304945D01*
X88393378Y-89299298D01*
X88471276Y-89284778D01*
X88494712Y-89271720D01*
X88504800Y-89207856D01*
X88495032Y-89102039D01*
X88470535Y-88977470D01*
X88436440Y-88857347D01*
X88397873Y-88764873D01*
X88375680Y-88733250D01*
X88322177Y-88686692D01*
X88282220Y-88689597D01*
X88235493Y-88727966D01*
X88164905Y-88830054D01*
X88115807Y-88978877D01*
X88094977Y-89152962D01*
X88094700Y-89174107D01*
X88094505Y-89304945D01*
X87941116Y-89304945D01*
X87942076Y-89230691D01*
X87955495Y-89005956D01*
X87980803Y-88829580D01*
X88020133Y-88691060D01*
X88075620Y-88579892D01*
X88146907Y-88488252D01*
X88247893Y-88413398D01*
X88348788Y-88408247D01*
X88451551Y-88472748D01*
G37*
G36*
X67572175Y-69193817D02*
G01*
X67590320Y-69210054D01*
X67620751Y-69263773D01*
X67655227Y-69365659D01*
X67691139Y-69501723D01*
X67725879Y-69657978D01*
X67756840Y-69820434D01*
X67781413Y-69975102D01*
X67796989Y-70107995D01*
X67800961Y-70205123D01*
X67790720Y-70252498D01*
X67785141Y-70254945D01*
X67762054Y-70285077D01*
X67753037Y-70350892D01*
X67747827Y-70411805D01*
X67729780Y-70409963D01*
X67718681Y-70394505D01*
X67692954Y-70366311D01*
X67684649Y-70400688D01*
X67684325Y-70417420D01*
X67670153Y-70486397D01*
X67633530Y-70594645D01*
X67582842Y-70717666D01*
X67501853Y-70867999D01*
X67423957Y-70952731D01*
X67350881Y-70970480D01*
X67302942Y-70941733D01*
X67267330Y-70859694D01*
X67286267Y-70738260D01*
X67360060Y-70576106D01*
X67405234Y-70499175D01*
X67500613Y-70336888D01*
X67560467Y-70205628D01*
X67584787Y-70097939D01*
X67718681Y-70097939D01*
X67736126Y-70115384D01*
X67753571Y-70097939D01*
X67736126Y-70080494D01*
X67718681Y-70097939D01*
X67584787Y-70097939D01*
X67587858Y-70084342D01*
X67585848Y-69951973D01*
X67557498Y-69787468D01*
X67527554Y-69658102D01*
X67487447Y-69476020D01*
X67467537Y-69346185D01*
X67468642Y-69274586D01*
X67473721Y-69264794D01*
X67489961Y-69250270D01*
X67503806Y-69250943D01*
X67519293Y-69276845D01*
X67540453Y-69338006D01*
X67571323Y-69444454D01*
X67615934Y-69606220D01*
X67626388Y-69644368D01*
X67663165Y-69770395D01*
X67692772Y-69856421D01*
X67711312Y-69891986D01*
X67715560Y-69883608D01*
X67709748Y-69801384D01*
X67690698Y-69679719D01*
X67662949Y-69539453D01*
X67631040Y-69401427D01*
X67599509Y-69286479D01*
X67572894Y-69215450D01*
X67568483Y-69208241D01*
X67548580Y-69176899D01*
X67572175Y-69193817D01*
G37*
G36*
X94567134Y-61785371D02*
G01*
X94575136Y-61885755D01*
X94578612Y-62042663D01*
X94577975Y-62247856D01*
X94573636Y-62493098D01*
X94566007Y-62770149D01*
X94555500Y-63070771D01*
X94542527Y-63386727D01*
X94527501Y-63709779D01*
X94510832Y-64031688D01*
X94492934Y-64344216D01*
X94474218Y-64639125D01*
X94455095Y-64908177D01*
X94435979Y-65143135D01*
X94417281Y-65335760D01*
X94399413Y-65477813D01*
X94382786Y-65561058D01*
X94377658Y-65574190D01*
X94337380Y-65649450D01*
X92655159Y-65648688D01*
X92101825Y-65646791D01*
X91594100Y-65641693D01*
X91137149Y-65633502D01*
X90736138Y-65622327D01*
X90396231Y-65608275D01*
X90205357Y-65597312D01*
X89957341Y-65583544D01*
X89658633Y-65571125D01*
X89328317Y-65560596D01*
X88985477Y-65552497D01*
X88649198Y-65547365D01*
X88381254Y-65545739D01*
X88078762Y-65545812D01*
X87838797Y-65546885D01*
X87654111Y-65549320D01*
X87517454Y-65553482D01*
X87421576Y-65559734D01*
X87359228Y-65568440D01*
X87323160Y-65579962D01*
X87306123Y-65594665D01*
X87303628Y-65599778D01*
X87305471Y-65647406D01*
X87321305Y-65748647D01*
X87348008Y-65889464D01*
X87382454Y-66055821D01*
X87421520Y-66233684D01*
X87462080Y-66409016D01*
X87501011Y-66567780D01*
X87535189Y-66695942D01*
X87561489Y-66779465D01*
X87570867Y-66800360D01*
X87614797Y-66807705D01*
X87715838Y-66788083D01*
X87867336Y-66742860D01*
X87893934Y-66733976D01*
X88032699Y-66692880D01*
X88195677Y-66653493D01*
X88367311Y-66618482D01*
X88532040Y-66590519D01*
X88674309Y-66572271D01*
X88778557Y-66566407D01*
X88826985Y-66573907D01*
X88839130Y-66587183D01*
X88851116Y-66617520D01*
X88864833Y-66674505D01*
X88882167Y-66767731D01*
X88905006Y-66906786D01*
X88935238Y-67101261D01*
X88950637Y-67202060D01*
X88984348Y-67402873D01*
X89026765Y-67626927D01*
X89070100Y-67833634D01*
X89081229Y-67882417D01*
X89121364Y-68042472D01*
X89161751Y-68163095D01*
X89214047Y-68268589D01*
X89289910Y-68383256D01*
X89378293Y-68501717D01*
X89464242Y-68619522D01*
X89525580Y-68713867D01*
X89555497Y-68773545D01*
X89552735Y-68788823D01*
X89511179Y-68762240D01*
X89443314Y-68692776D01*
X89362878Y-68594697D01*
X89352273Y-68580666D01*
X89275832Y-68483180D01*
X89215632Y-68414985D01*
X89182958Y-68388684D01*
X89180944Y-68389294D01*
X89188926Y-68423649D01*
X89222833Y-68469360D01*
X89265264Y-68537656D01*
X89280397Y-68604862D01*
X89264484Y-68646211D01*
X89250175Y-68650000D01*
X89223448Y-68621186D01*
X89181800Y-68549379D01*
X89135842Y-68456524D01*
X89096184Y-68364571D01*
X89073435Y-68295467D01*
X89071428Y-68280240D01*
X89051522Y-68230497D01*
X88997422Y-68138159D01*
X88917560Y-68015882D01*
X88820366Y-67876320D01*
X88714271Y-67732129D01*
X88655332Y-67655632D01*
X88568949Y-67545391D01*
X88500363Y-67457528D01*
X88459936Y-67405330D01*
X88453718Y-67397056D01*
X88410588Y-67389469D01*
X88317781Y-67401453D01*
X88191254Y-67428884D01*
X88046965Y-67467639D01*
X87900871Y-67513596D01*
X87768928Y-67562629D01*
X87706872Y-67590039D01*
X87586498Y-67643085D01*
X87490327Y-67676849D01*
X87435010Y-67685746D01*
X87429219Y-67683139D01*
X87406680Y-67637974D01*
X87372115Y-67545402D01*
X87332832Y-67425062D01*
X87331138Y-67419528D01*
X87291095Y-67300526D01*
X87230811Y-67136416D01*
X87157518Y-66946233D01*
X87078446Y-66749016D01*
X87052816Y-66686836D01*
X86976983Y-66502089D01*
X86907454Y-66328761D01*
X86850312Y-66182305D01*
X86811641Y-66078174D01*
X86802342Y-66050686D01*
X86759152Y-65926648D01*
X86706490Y-65790871D01*
X86692589Y-65757570D01*
X86651771Y-65667545D01*
X86624046Y-65633017D01*
X86596782Y-65644616D01*
X86574977Y-65670345D01*
X86542191Y-65707311D01*
X86532617Y-65695266D01*
X86541692Y-65625142D01*
X86544319Y-65609414D01*
X86565764Y-65482152D01*
X86204929Y-65461181D01*
X86115809Y-65457934D01*
X85962678Y-65454641D01*
X85751305Y-65451353D01*
X85487458Y-65448118D01*
X85176906Y-65444987D01*
X84825418Y-65442009D01*
X84438763Y-65439235D01*
X84022709Y-65436713D01*
X83583027Y-65434494D01*
X83125483Y-65432627D01*
X82756318Y-65431437D01*
X79668544Y-65422664D01*
X79669905Y-65289348D01*
X79745310Y-65289348D01*
X80265168Y-65312783D01*
X80387736Y-65316687D01*
X80572978Y-65320353D01*
X80813787Y-65323730D01*
X81103058Y-65326764D01*
X81433685Y-65329405D01*
X81798561Y-65331601D01*
X82190581Y-65333299D01*
X82602638Y-65334448D01*
X83027627Y-65334996D01*
X83308638Y-65335005D01*
X83734647Y-65335129D01*
X84149652Y-65335879D01*
X84546899Y-65337204D01*
X84919632Y-65339054D01*
X85261094Y-65341378D01*
X85564531Y-65344124D01*
X85823186Y-65347242D01*
X86030304Y-65350681D01*
X86179129Y-65354389D01*
X86245030Y-65357121D01*
X86421105Y-65367970D01*
X86539590Y-65378724D01*
X86612621Y-65392109D01*
X86652329Y-65410850D01*
X86670850Y-65437675D01*
X86675697Y-65453892D01*
X86700973Y-65535040D01*
X86750006Y-65671850D01*
X86819454Y-65855677D01*
X86905977Y-66077880D01*
X87006231Y-66329816D01*
X87116876Y-66602841D01*
X87169481Y-66731044D01*
X87247771Y-66924968D01*
X87319245Y-67109143D01*
X87378246Y-67268451D01*
X87419114Y-67387775D01*
X87432655Y-67434194D01*
X87473068Y-67596549D01*
X87687839Y-67496174D01*
X87833801Y-67437881D01*
X88010648Y-67381255D01*
X88180280Y-67338486D01*
X88181462Y-67338242D01*
X88460315Y-67280684D01*
X88565254Y-67412469D01*
X88646677Y-67513000D01*
X88747535Y-67635210D01*
X88819893Y-67721634D01*
X88900819Y-67825857D01*
X88962722Y-67920920D01*
X88989811Y-67979566D01*
X89009893Y-68035960D01*
X89023543Y-68046603D01*
X89021688Y-68009270D01*
X89006373Y-67918263D01*
X88980232Y-67787806D01*
X88950545Y-67652465D01*
X88908934Y-67456181D01*
X88868947Y-67244821D01*
X88836592Y-67051093D01*
X88824567Y-66966552D01*
X88804743Y-66820770D01*
X88787469Y-66730821D01*
X88766933Y-66683261D01*
X88737327Y-66664644D01*
X88692840Y-66661527D01*
X88692756Y-66661527D01*
X88521256Y-66675363D01*
X88308545Y-66712891D01*
X88077136Y-66769371D01*
X87856869Y-66837516D01*
X87713118Y-66882933D01*
X87601680Y-66909532D01*
X87536390Y-66914262D01*
X87527064Y-66910251D01*
X87507444Y-66865660D01*
X87476158Y-66766040D01*
X87436475Y-66624525D01*
X87391663Y-66454248D01*
X87344991Y-66268345D01*
X87299726Y-66079949D01*
X87259137Y-65902194D01*
X87226492Y-65748215D01*
X87205061Y-65631145D01*
X87200303Y-65597115D01*
X87179748Y-65422664D01*
X88169201Y-65431683D01*
X88462180Y-65435701D01*
X88765670Y-65442256D01*
X89062895Y-65450816D01*
X89337082Y-65460850D01*
X89571457Y-65471825D01*
X89716895Y-65480772D01*
X89858158Y-65488579D01*
X90060551Y-65496400D01*
X90315422Y-65504053D01*
X90614122Y-65511355D01*
X90948000Y-65518122D01*
X91308406Y-65524172D01*
X91686688Y-65529322D01*
X92074198Y-65533389D01*
X92285540Y-65535080D01*
X94295942Y-65549318D01*
X94316096Y-65451101D01*
X94323122Y-65389793D01*
X94332186Y-65269542D01*
X94342650Y-65101131D01*
X94353881Y-64895346D01*
X94365240Y-64662973D01*
X94373338Y-64480632D01*
X94385515Y-64211281D01*
X94399155Y-63938167D01*
X94413348Y-63677647D01*
X94427184Y-63446081D01*
X94439751Y-63259825D01*
X94445200Y-63189697D01*
X94458527Y-62989158D01*
X94469443Y-62748431D01*
X94476858Y-62497094D01*
X94479683Y-62264726D01*
X94479684Y-62254193D01*
X94479395Y-61737370D01*
X92115590Y-61753991D01*
X91695497Y-61757468D01*
X91280537Y-61761897D01*
X90878510Y-61767133D01*
X90497222Y-61773029D01*
X90144474Y-61779441D01*
X89828070Y-61786224D01*
X89555812Y-61793233D01*
X89335504Y-61800323D01*
X89174948Y-61807347D01*
X89141208Y-61809318D01*
X89026835Y-61814561D01*
X88847553Y-61820067D01*
X88608233Y-61825767D01*
X88313745Y-61831596D01*
X87968959Y-61837486D01*
X87578747Y-61843371D01*
X87147978Y-61849183D01*
X86681524Y-61854856D01*
X86184254Y-61860323D01*
X85661040Y-61865517D01*
X85116752Y-61870372D01*
X84556260Y-61874819D01*
X84169368Y-61877570D01*
X83623868Y-61881302D01*
X83098053Y-61884968D01*
X82596100Y-61888536D01*
X82122187Y-61891973D01*
X81680491Y-61895247D01*
X81275191Y-61898326D01*
X80910465Y-61901176D01*
X80590490Y-61903765D01*
X80319443Y-61906061D01*
X80101504Y-61908030D01*
X79940850Y-61909640D01*
X79841658Y-61910858D01*
X79808104Y-61911646D01*
X79808104Y-61946274D01*
X79808104Y-62041839D01*
X79808104Y-62189499D01*
X79808104Y-62380414D01*
X79808104Y-62605739D01*
X79808104Y-62856633D01*
X79808104Y-62901838D01*
X79806844Y-63205848D01*
X79803307Y-63530912D01*
X79797855Y-63857566D01*
X79790850Y-64166347D01*
X79782654Y-64437791D01*
X79776707Y-64588424D01*
X79745310Y-65289348D01*
X79669905Y-65289348D01*
X79673531Y-64934203D01*
X79677403Y-64593775D01*
X79682104Y-64244641D01*
X79687480Y-63893808D01*
X79693377Y-63548284D01*
X79699643Y-63215076D01*
X79706124Y-62901191D01*
X79712667Y-62613637D01*
X79719119Y-62359421D01*
X79725327Y-62145551D01*
X79731137Y-61979034D01*
X79736396Y-61866878D01*
X79740950Y-61816090D01*
X79741762Y-61813915D01*
X79778241Y-61811489D01*
X79880392Y-61808787D01*
X80044106Y-61805845D01*
X80265276Y-61802704D01*
X80539795Y-61799400D01*
X80863553Y-61795974D01*
X81232444Y-61792463D01*
X81642359Y-61788907D01*
X82089191Y-61785343D01*
X82568832Y-61781810D01*
X83077174Y-61778347D01*
X83610108Y-61774993D01*
X84163528Y-61771785D01*
X84319796Y-61770928D01*
X85037591Y-61766864D01*
X85689288Y-61762779D01*
X86278568Y-61758620D01*
X86809113Y-61754332D01*
X87284604Y-61749863D01*
X87708723Y-61745157D01*
X88085152Y-61740162D01*
X88417573Y-61734824D01*
X88709667Y-61729087D01*
X88965116Y-61722900D01*
X89187601Y-61716207D01*
X89380804Y-61708954D01*
X89548408Y-61701089D01*
X89694093Y-61692557D01*
X89699450Y-61692205D01*
X89952763Y-61677678D01*
X90237563Y-61665595D01*
X90559905Y-61655841D01*
X90925840Y-61648297D01*
X91341420Y-61642849D01*
X91812700Y-61639379D01*
X92345731Y-61637771D01*
X92532134Y-61637630D01*
X94544900Y-61637088D01*
X94567134Y-61785371D01*
G37*
G36*
X92886299Y-67894041D02*
G01*
X92909340Y-67917307D01*
X92938610Y-67945508D01*
X92980216Y-67952197D01*
X93051291Y-67977900D01*
X93074879Y-68044152D01*
X93052404Y-68120102D01*
X93035349Y-68190949D01*
X93052324Y-68291928D01*
X93070373Y-68349412D01*
X93101301Y-68451409D01*
X93105032Y-68523976D01*
X93079368Y-68602561D01*
X93050917Y-68663280D01*
X93003870Y-68798650D01*
X92961542Y-68998816D01*
X92925997Y-69250090D01*
X92903159Y-69442134D01*
X92879854Y-69632815D01*
X92859012Y-69798455D01*
X92845154Y-69903805D01*
X92815047Y-70123957D01*
X93027922Y-70102581D01*
X93376453Y-70069090D01*
X93682384Y-70043583D01*
X93965799Y-70025086D01*
X94246781Y-70012619D01*
X94545414Y-70005207D01*
X94881780Y-70001872D01*
X95107417Y-70001421D01*
X95780788Y-70010882D01*
X96392950Y-70039780D01*
X96949997Y-70089135D01*
X97458025Y-70159964D01*
X97923130Y-70253286D01*
X98351406Y-70370119D01*
X98748951Y-70511481D01*
X99102335Y-70668750D01*
X99411547Y-70828263D01*
X99663532Y-70976394D01*
X99868350Y-71120244D01*
X100036063Y-71266911D01*
X100176730Y-71423498D01*
X100183006Y-71431426D01*
X100333345Y-71649244D01*
X100429872Y-71861284D01*
X100480827Y-72091335D01*
X100494526Y-72330906D01*
X100492271Y-72493032D01*
X100480767Y-72612274D01*
X100454695Y-72715417D01*
X100408734Y-72829247D01*
X100385567Y-72879555D01*
X100319469Y-73035294D01*
X100258097Y-73204411D01*
X100220552Y-73329201D01*
X100093144Y-73688249D01*
X99899878Y-74032265D01*
X99771700Y-74206480D01*
X99599925Y-74402813D01*
X99384674Y-74620884D01*
X99142094Y-74846174D01*
X98888332Y-75064164D01*
X98639532Y-75260335D01*
X98449452Y-75395460D01*
X98295480Y-75499994D01*
X98194368Y-75573808D01*
X98139559Y-75622774D01*
X98124497Y-75652765D01*
X98142626Y-75669653D01*
X98143120Y-75669837D01*
X98173286Y-75683270D01*
X98196269Y-75705318D01*
X98215578Y-75747362D01*
X98234719Y-75820786D01*
X98257201Y-75936972D01*
X98286531Y-76107302D01*
X98296880Y-76168818D01*
X98378880Y-76665042D01*
X98451039Y-77121782D01*
X98514163Y-77548145D01*
X98569058Y-77953241D01*
X98616533Y-78346179D01*
X98657392Y-78736066D01*
X98692442Y-79132011D01*
X98722491Y-79543123D01*
X98748345Y-79978510D01*
X98770810Y-80447280D01*
X98790694Y-80958543D01*
X98808802Y-81521406D01*
X98825872Y-82142270D01*
X98849439Y-83056656D01*
X99003783Y-83079801D01*
X99148067Y-83118759D01*
X99231616Y-83185405D01*
X99259321Y-83283699D01*
X99259340Y-83286914D01*
X99227625Y-83376572D01*
X99143546Y-83443790D01*
X99023703Y-83476779D01*
X98989901Y-83478296D01*
X98910590Y-83486036D01*
X98879592Y-83519505D01*
X98875549Y-83563250D01*
X98855899Y-83707709D01*
X98797888Y-83796397D01*
X98702923Y-83827187D01*
X98700785Y-83827197D01*
X98616231Y-83811604D01*
X98552672Y-83753150D01*
X98525708Y-83711324D01*
X98457341Y-83595451D01*
X98151816Y-83607780D01*
X97934436Y-83617645D01*
X97776671Y-83628645D01*
X97668367Y-83643223D01*
X97599371Y-83663820D01*
X97559529Y-83692881D01*
X97538690Y-83732846D01*
X97532418Y-83756787D01*
X97486291Y-83869638D01*
X97418898Y-83919671D01*
X97341958Y-83905560D01*
X97267192Y-83825981D01*
X97246912Y-83789089D01*
X97230942Y-83730760D01*
X97209183Y-83614339D01*
X97183374Y-83451107D01*
X97155251Y-83252344D01*
X97126550Y-83029332D01*
X97114437Y-82928560D01*
X97081690Y-82660058D01*
X97044903Y-82374880D01*
X97006947Y-82094206D01*
X96970688Y-81839218D01*
X96938996Y-81631095D01*
X96937241Y-81620181D01*
X96903165Y-81377916D01*
X96870894Y-81091058D01*
X96842900Y-80784794D01*
X96821655Y-80484307D01*
X96816537Y-80390522D01*
X96801297Y-80091861D01*
X96785168Y-79789621D01*
X96767543Y-79473375D01*
X96747816Y-79132697D01*
X96725378Y-78757159D01*
X96699622Y-78336335D01*
X96669942Y-77859799D01*
X96659057Y-77686538D01*
X96644290Y-77440541D01*
X96631192Y-77200590D01*
X96623879Y-77051160D01*
X97031831Y-77051160D01*
X97033748Y-77115255D01*
X97040571Y-77212657D01*
X97052702Y-77350322D01*
X97070542Y-77535204D01*
X97094492Y-77774260D01*
X97124954Y-78074445D01*
X97131627Y-78140110D01*
X97165800Y-78502195D01*
X97196655Y-78878963D01*
X97222790Y-79250234D01*
X97242804Y-79595833D01*
X97255295Y-79895582D01*
X97256476Y-79936950D01*
X97282464Y-80511462D01*
X97330008Y-81120112D01*
X97375999Y-81559340D01*
X97406072Y-81829426D01*
X97434715Y-82107170D01*
X97460294Y-82375153D01*
X97481177Y-82615961D01*
X97495728Y-82812176D01*
X97499525Y-82876442D01*
X97508764Y-83046637D01*
X97517041Y-83188372D01*
X97523568Y-83288898D01*
X97527554Y-83335462D01*
X97528035Y-83337196D01*
X97560931Y-83328144D01*
X97639570Y-83306926D01*
X97689285Y-83293583D01*
X97791610Y-83258106D01*
X97838618Y-83217097D01*
X97846291Y-83181730D01*
X97852207Y-83147962D01*
X97878888Y-83126385D01*
X97939736Y-83113498D01*
X98048154Y-83105795D01*
X98151774Y-83101866D01*
X98457257Y-83091783D01*
X98440949Y-82962306D01*
X98433618Y-82880533D01*
X98424794Y-82745829D01*
X98415451Y-82574998D01*
X98406563Y-82384845D01*
X98404145Y-82326923D01*
X98398626Y-82204508D01*
X98391392Y-82071045D01*
X98382013Y-81921257D01*
X98370057Y-81749870D01*
X98355094Y-81551607D01*
X98336691Y-81321193D01*
X98314418Y-81053353D01*
X98287843Y-80742811D01*
X98256535Y-80384290D01*
X98220062Y-79972517D01*
X98177993Y-79502214D01*
X98129897Y-78968107D01*
X98126018Y-78925137D01*
X98100320Y-78634078D01*
X98074696Y-78332123D01*
X98050508Y-78036166D01*
X98029115Y-77763102D01*
X98011878Y-77529824D01*
X98002421Y-77389972D01*
X97988856Y-77183469D01*
X97975063Y-76986565D01*
X97962312Y-76816511D01*
X97951870Y-76690561D01*
X97948043Y-76650763D01*
X97929046Y-76469795D01*
X97713218Y-76604047D01*
X97566902Y-76695510D01*
X97408840Y-76794995D01*
X97300708Y-76863517D01*
X97194890Y-76927404D01*
X97109714Y-76972523D01*
X97065199Y-76988736D01*
X97051504Y-76989160D01*
X97041110Y-76995068D01*
X97034419Y-77013416D01*
X97031831Y-77051160D01*
X96623879Y-77051160D01*
X96620468Y-76981450D01*
X96612828Y-76797882D01*
X96608980Y-76664649D01*
X96608669Y-76636172D01*
X96607692Y-76370833D01*
X96103104Y-76521391D01*
X95924102Y-76572309D01*
X95714213Y-76627997D01*
X95485451Y-76685686D01*
X95249831Y-76742605D01*
X95019364Y-76795982D01*
X94806066Y-76843046D01*
X94621949Y-76881027D01*
X94479027Y-76907153D01*
X94389313Y-76918653D01*
X94379514Y-76918956D01*
X94311589Y-76934383D01*
X94287500Y-76953846D01*
X94298072Y-76981408D01*
X94336971Y-76988736D01*
X94384256Y-76994743D01*
X94422414Y-77017578D01*
X94452921Y-77064462D01*
X94477252Y-77142613D01*
X94496881Y-77259253D01*
X94513285Y-77421602D01*
X94527938Y-77636879D01*
X94542316Y-77912305D01*
X94547268Y-78017994D01*
X94557062Y-78258503D01*
X94567050Y-78554181D01*
X94576856Y-78890419D01*
X94586106Y-79252608D01*
X94594425Y-79626138D01*
X94601437Y-79996402D01*
X94606400Y-80320741D01*
X94611629Y-80706402D01*
X94617706Y-81141283D01*
X94624333Y-81604831D01*
X94631211Y-82076497D01*
X94638040Y-82535729D01*
X94644524Y-82961976D01*
X94648489Y-83216621D01*
X94671575Y-84682005D01*
X94767381Y-84776367D01*
X94846515Y-84891969D01*
X94858615Y-85010825D01*
X94803503Y-85123700D01*
X94774605Y-85154295D01*
X94725866Y-85192740D01*
X94666104Y-85219579D01*
X94579779Y-85238504D01*
X94451348Y-85253205D01*
X94312311Y-85264088D01*
X94153339Y-85273585D01*
X93955890Y-85282578D01*
X93731103Y-85290840D01*
X93490116Y-85298145D01*
X93244066Y-85304265D01*
X93004092Y-85308973D01*
X92781330Y-85312043D01*
X92586919Y-85313247D01*
X92431997Y-85312358D01*
X92327700Y-85309149D01*
X92290348Y-85305306D01*
X92197494Y-85260311D01*
X92147059Y-85172034D01*
X92135868Y-85033257D01*
X92141201Y-84966185D01*
X92146343Y-84863762D01*
X92146449Y-84709466D01*
X92141846Y-84520997D01*
X92132861Y-84316054D01*
X92127464Y-84222985D01*
X92123420Y-84130272D01*
X92491735Y-84130272D01*
X92492561Y-84366719D01*
X92495493Y-84555932D01*
X92500691Y-84689224D01*
X92504888Y-84738126D01*
X92529314Y-84933623D01*
X92658269Y-84908040D01*
X92752121Y-84890357D01*
X92889952Y-84865506D01*
X93046937Y-84837940D01*
X93101236Y-84828574D01*
X93243670Y-84804571D01*
X93381867Y-84782412D01*
X93531647Y-84759744D01*
X93708828Y-84734214D01*
X93929229Y-84703469D01*
X94100708Y-84679910D01*
X94262817Y-84657722D01*
X94248578Y-84460523D01*
X94234742Y-84243834D01*
X94220114Y-83969781D01*
X94205181Y-83650767D01*
X94190434Y-83299197D01*
X94176361Y-82927474D01*
X94163450Y-82548004D01*
X94152192Y-82173189D01*
X94143074Y-81815435D01*
X94141453Y-81742513D01*
X94135605Y-81440178D01*
X94130715Y-81200959D01*
X94123987Y-81018291D01*
X94112623Y-80885612D01*
X94093825Y-80796357D01*
X94064798Y-80743963D01*
X94022744Y-80721867D01*
X93964865Y-80723505D01*
X93888364Y-80742312D01*
X93790444Y-80771727D01*
X93734592Y-80787803D01*
X93606177Y-80818554D01*
X93497283Y-80836012D01*
X93431393Y-80836417D01*
X93431214Y-80836371D01*
X93363845Y-80788447D01*
X93339611Y-80709480D01*
X93367416Y-80629236D01*
X93368752Y-80627596D01*
X93425188Y-80583347D01*
X93525428Y-80524239D01*
X93649102Y-80460228D01*
X93775838Y-80401268D01*
X93885265Y-80357318D01*
X93957012Y-80338331D01*
X93960928Y-80338186D01*
X94045291Y-80330379D01*
X94096212Y-80297925D01*
X94121794Y-80227276D01*
X94130140Y-80104883D01*
X94130494Y-80054668D01*
X94129210Y-79928452D01*
X94122057Y-79857923D01*
X94104080Y-79828991D01*
X94070327Y-79827568D01*
X94051991Y-79831388D01*
X93984174Y-79846484D01*
X93868030Y-79871997D01*
X93723432Y-79903570D01*
X93646991Y-79920198D01*
X93465985Y-79961246D01*
X93275074Y-80007304D01*
X93108683Y-80050002D01*
X93072005Y-80059986D01*
X92934926Y-80094371D01*
X92811723Y-80119054D01*
X92728459Y-80128837D01*
X92726868Y-80128846D01*
X92656282Y-80142474D01*
X92628982Y-80172458D01*
X92626042Y-80219443D01*
X92618585Y-80324551D01*
X92607450Y-80476333D01*
X92593480Y-80663339D01*
X92577514Y-80874120D01*
X92575812Y-80896428D01*
X92564052Y-81079099D01*
X92552633Y-81310094D01*
X92541718Y-81580727D01*
X92531465Y-81882309D01*
X92522036Y-82206154D01*
X92513591Y-82543576D01*
X92506290Y-82885886D01*
X92500294Y-83224398D01*
X92495762Y-83550424D01*
X92492856Y-83855278D01*
X92491735Y-84130272D01*
X92123420Y-84130272D01*
X92122243Y-84103298D01*
X92117379Y-83919660D01*
X92112919Y-83677903D01*
X92108908Y-83383856D01*
X92105395Y-83043348D01*
X92102424Y-82662210D01*
X92100045Y-82246271D01*
X92098302Y-81801361D01*
X92097244Y-81333309D01*
X92096916Y-80847947D01*
X92097210Y-80451579D01*
X92097901Y-79903617D01*
X92097989Y-79802448D01*
X92632461Y-79802448D01*
X92633885Y-79847298D01*
X92636421Y-79849725D01*
X92673987Y-79838584D01*
X92760828Y-79808889D01*
X92880748Y-79766228D01*
X92928830Y-79748798D01*
X93119785Y-79685835D01*
X93364821Y-79615421D01*
X93649177Y-79541520D01*
X93958094Y-79468098D01*
X94051991Y-79447058D01*
X94094512Y-79431281D01*
X94118142Y-79396429D01*
X94128322Y-79325578D01*
X94130494Y-79202884D01*
X94130494Y-78976054D01*
X93996354Y-79044487D01*
X93869712Y-79097417D01*
X93696241Y-79154377D01*
X93496042Y-79210357D01*
X93289217Y-79260345D01*
X93095865Y-79299331D01*
X92936088Y-79322305D01*
X92865728Y-79326320D01*
X92665110Y-79326373D01*
X92664726Y-79457211D01*
X92658138Y-79587611D01*
X92642825Y-79718221D01*
X92642715Y-79718887D01*
X92632461Y-79802448D01*
X92097989Y-79802448D01*
X92098320Y-79421280D01*
X92098398Y-79000412D01*
X92098119Y-78696223D01*
X92629990Y-78696223D01*
X92630219Y-78736909D01*
X92634671Y-78885603D01*
X92645947Y-79038111D01*
X92652903Y-79098339D01*
X92675587Y-79263836D01*
X92818631Y-79241446D01*
X92907687Y-79221432D01*
X93043856Y-79183587D01*
X93208472Y-79133371D01*
X93379697Y-79077321D01*
X93557980Y-79014601D01*
X93728946Y-78950461D01*
X93872470Y-78892685D01*
X93964106Y-78851271D01*
X94130494Y-78766956D01*
X94130494Y-78405014D01*
X94130494Y-78043072D01*
X93809159Y-78164005D01*
X93624086Y-78230294D01*
X93418994Y-78298555D01*
X93231371Y-78356420D01*
X93189860Y-78368297D01*
X92984474Y-78425693D01*
X92836545Y-78469262D01*
X92736679Y-78505190D01*
X92675483Y-78539663D01*
X92643564Y-78578869D01*
X92631531Y-78628993D01*
X92629990Y-78696223D01*
X92098119Y-78696223D01*
X92098065Y-78636860D01*
X92097251Y-78326468D01*
X92095886Y-78065080D01*
X92093902Y-77848543D01*
X92091228Y-77672700D01*
X92087794Y-77533398D01*
X92083532Y-77426480D01*
X92078370Y-77347793D01*
X92072240Y-77293181D01*
X92065072Y-77258488D01*
X92056795Y-77239561D01*
X92047342Y-77232244D01*
X92043202Y-77231637D01*
X91656329Y-77221044D01*
X91277051Y-77207264D01*
X90913711Y-77190821D01*
X90574650Y-77172237D01*
X90268210Y-77152035D01*
X90002733Y-77130738D01*
X89786560Y-77108868D01*
X89628035Y-77086947D01*
X89577335Y-77077118D01*
X89537110Y-77074222D01*
X89518494Y-77099547D01*
X89516185Y-77168675D01*
X89520823Y-77243183D01*
X89532156Y-77341805D01*
X89546541Y-77375415D01*
X89557647Y-77359592D01*
X89569358Y-77370769D01*
X89587691Y-77442530D01*
X89611297Y-77566137D01*
X89638825Y-77732851D01*
X89668927Y-77933932D01*
X89700254Y-78160643D01*
X89731455Y-78404243D01*
X89761181Y-78655995D01*
X89769767Y-78733241D01*
X89776149Y-78820834D01*
X89783372Y-78971208D01*
X89791236Y-79177375D01*
X89799539Y-79432345D01*
X89808083Y-79729127D01*
X89816666Y-80060733D01*
X89825088Y-80420170D01*
X89833149Y-80800451D01*
X89840649Y-81194584D01*
X89841243Y-81227884D01*
X89880265Y-83425961D01*
X89968784Y-83497770D01*
X90031878Y-83578575D01*
X90026132Y-83660513D01*
X89952379Y-83740870D01*
X89880719Y-83784671D01*
X89767324Y-83828838D01*
X89678423Y-83825224D01*
X89669015Y-83822017D01*
X89596757Y-83812048D01*
X89470061Y-83811680D01*
X89303568Y-83820658D01*
X89191596Y-83830334D01*
X88950697Y-83849084D01*
X88719653Y-83858285D01*
X88509330Y-83858313D01*
X88330591Y-83849544D01*
X88194301Y-83832355D01*
X88111324Y-83807122D01*
X88093650Y-83792307D01*
X88085368Y-83744695D01*
X88078099Y-83633756D01*
X88071995Y-83465940D01*
X88067210Y-83247696D01*
X88063897Y-82985472D01*
X88062211Y-82685717D01*
X88062068Y-82466483D01*
X88061763Y-82088856D01*
X88059465Y-81765668D01*
X88054596Y-81481592D01*
X88046576Y-81221301D01*
X88034825Y-80969467D01*
X88018765Y-80710765D01*
X87997815Y-80429867D01*
X87974377Y-80146291D01*
X87948246Y-79839901D01*
X87926929Y-79592273D01*
X87909242Y-79392647D01*
X87893999Y-79230263D01*
X87880018Y-79094362D01*
X87866114Y-78974182D01*
X87851102Y-78858965D01*
X87834736Y-78744512D01*
X88208576Y-78744512D01*
X88214390Y-78785577D01*
X88223506Y-78854453D01*
X88237145Y-78983033D01*
X88254449Y-79161447D01*
X88274561Y-79379827D01*
X88296624Y-79628303D01*
X88319781Y-79897006D01*
X88343175Y-80176068D01*
X88365949Y-80455618D01*
X88387245Y-80725789D01*
X88406207Y-80976711D01*
X88413885Y-81082604D01*
X88431189Y-81385863D01*
X88435694Y-81655806D01*
X88427285Y-81927732D01*
X88410303Y-82181643D01*
X88392885Y-82417695D01*
X88375824Y-82674736D01*
X88360904Y-82924248D01*
X88349908Y-83137715D01*
X88348529Y-83169027D01*
X88329762Y-83609896D01*
X88412751Y-83598112D01*
X88476829Y-83589686D01*
X88594875Y-83574768D01*
X88751584Y-83555272D01*
X88931652Y-83533111D01*
X88984203Y-83526685D01*
X89161993Y-83503682D01*
X89314693Y-83481483D01*
X89429037Y-83462202D01*
X89491757Y-83447954D01*
X89498917Y-83444672D01*
X89502808Y-83407043D01*
X89505928Y-83305049D01*
X89508271Y-83144100D01*
X89509830Y-82929608D01*
X89510600Y-82666982D01*
X89510574Y-82361633D01*
X89509747Y-82018972D01*
X89508113Y-81644411D01*
X89505665Y-81243358D01*
X89502398Y-80821226D01*
X89501899Y-80763548D01*
X89497468Y-80268122D01*
X89493356Y-79838028D01*
X89489428Y-79468819D01*
X89485551Y-79156047D01*
X89481591Y-78895266D01*
X89477415Y-78682028D01*
X89472889Y-78511887D01*
X89467878Y-78380396D01*
X89462250Y-78283107D01*
X89455870Y-78215573D01*
X89448605Y-78173348D01*
X89440320Y-78151984D01*
X89430882Y-78147034D01*
X89423311Y-78151126D01*
X89348568Y-78197758D01*
X89230055Y-78255470D01*
X89090642Y-78314644D01*
X88953199Y-78365664D01*
X88840596Y-78398914D01*
X88827197Y-78401787D01*
X88736898Y-78429248D01*
X88610127Y-78479583D01*
X88471923Y-78542716D01*
X88450115Y-78553485D01*
X88324632Y-78617754D01*
X88250350Y-78663334D01*
X88215565Y-78701746D01*
X88208576Y-78744512D01*
X87834736Y-78744512D01*
X87833798Y-78737951D01*
X87813019Y-78600379D01*
X87787578Y-78435489D01*
X87782368Y-78401785D01*
X87754336Y-78213488D01*
X87724296Y-77999927D01*
X87693885Y-77774091D01*
X87664743Y-77548969D01*
X87638507Y-77337552D01*
X87616817Y-77152828D01*
X87601311Y-77007787D01*
X87593628Y-76915418D01*
X87593112Y-76901511D01*
X87603783Y-76809242D01*
X87617387Y-76757781D01*
X87623316Y-76723866D01*
X87607832Y-76694774D01*
X87560500Y-76664399D01*
X87470882Y-76626635D01*
X87328541Y-76575375D01*
X87272221Y-76555839D01*
X87071787Y-76481001D01*
X86848930Y-76389035D01*
X86640015Y-76295232D01*
X86559908Y-76256329D01*
X86391958Y-76168111D01*
X86275148Y-76095715D01*
X86195729Y-76029287D01*
X86139955Y-75958976D01*
X86135776Y-75952364D01*
X86084979Y-75873694D01*
X86058973Y-75849421D01*
X86046541Y-75874172D01*
X86041368Y-75907142D01*
X86004294Y-76019579D01*
X85930149Y-76074524D01*
X85875939Y-76081593D01*
X85791580Y-76050595D01*
X85738512Y-75963222D01*
X85721978Y-75841927D01*
X85708493Y-75719464D01*
X85673399Y-75620707D01*
X85624734Y-75564569D01*
X85601391Y-75558241D01*
X85575239Y-75553635D01*
X85555038Y-75532668D01*
X85538064Y-75484618D01*
X85521595Y-75398764D01*
X85502908Y-75264382D01*
X85480771Y-75083271D01*
X85465108Y-74924169D01*
X85931853Y-74924169D01*
X85949220Y-75023142D01*
X85960264Y-75096762D01*
X85975668Y-75212561D01*
X85993075Y-75351078D01*
X86010131Y-75492847D01*
X86024478Y-75618406D01*
X86033762Y-75708290D01*
X86035989Y-75740023D01*
X86067598Y-75753743D01*
X86149462Y-75761922D01*
X86236607Y-75763006D01*
X86390083Y-75772430D01*
X86528761Y-75801789D01*
X86567421Y-75816017D01*
X86712365Y-75873875D01*
X86908933Y-75944976D01*
X87141416Y-76024247D01*
X87394105Y-76106613D01*
X87651290Y-76187001D01*
X87897263Y-76260336D01*
X88116314Y-76321546D01*
X88199579Y-76343193D01*
X88473886Y-76409775D01*
X88738877Y-76468082D01*
X89004929Y-76519634D01*
X89282419Y-76565957D01*
X89581721Y-76608574D01*
X89913212Y-76649008D01*
X90287267Y-76688782D01*
X90714263Y-76729420D01*
X91007829Y-76755517D01*
X91157776Y-76764176D01*
X91364650Y-76769839D01*
X91615667Y-76772648D01*
X91898044Y-76772745D01*
X92198998Y-76770271D01*
X92505747Y-76765368D01*
X92805506Y-76758177D01*
X93085494Y-76748840D01*
X93332925Y-76737499D01*
X93485027Y-76728080D01*
X94335136Y-76633527D01*
X95185005Y-76472728D01*
X96024417Y-76248499D01*
X96843159Y-75963659D01*
X97631015Y-75621024D01*
X97798742Y-75538390D01*
X97956841Y-75452492D01*
X98128529Y-75348609D01*
X98305180Y-75233221D01*
X98478169Y-75112806D01*
X98638869Y-74993845D01*
X98778655Y-74882817D01*
X98888902Y-74786201D01*
X98960983Y-74710476D01*
X98986274Y-74662122D01*
X98980068Y-74651005D01*
X98985065Y-74624582D01*
X99040183Y-74584898D01*
X99066838Y-74571189D01*
X99130136Y-74524383D01*
X99217555Y-74438596D01*
X99317390Y-74328053D01*
X99417941Y-74206980D01*
X99507504Y-74089602D01*
X99574379Y-73990144D01*
X99606863Y-73922832D01*
X99608241Y-73913049D01*
X99584370Y-73913990D01*
X99522670Y-73951956D01*
X99459958Y-73999940D01*
X99265650Y-74143167D01*
X99018001Y-74301448D01*
X98729899Y-74467866D01*
X98414234Y-74635500D01*
X98083894Y-74797431D01*
X97751770Y-74946742D01*
X97514835Y-75044094D01*
X96613174Y-75364437D01*
X95667336Y-75635594D01*
X94683829Y-75856340D01*
X93669162Y-76025449D01*
X92629843Y-76141694D01*
X91572382Y-76203850D01*
X91321840Y-76210478D01*
X90488992Y-76210777D01*
X89716268Y-76176646D01*
X89003753Y-76108102D01*
X88351530Y-76005165D01*
X87759686Y-75867853D01*
X87228304Y-75696183D01*
X86757469Y-75490176D01*
X86347265Y-75249850D01*
X86097314Y-75062103D01*
X85931853Y-74924169D01*
X85465108Y-74924169D01*
X85462843Y-74901165D01*
X85450770Y-74712942D01*
X85444590Y-74531400D01*
X85444344Y-74369338D01*
X85450074Y-74239557D01*
X85461819Y-74154857D01*
X85477747Y-74127747D01*
X85500764Y-74158593D01*
X85514080Y-74235070D01*
X85515089Y-74258585D01*
X85523975Y-74365620D01*
X85542394Y-74452612D01*
X85544782Y-74459203D01*
X85554183Y-74452037D01*
X85561688Y-74385298D01*
X85566724Y-74269183D01*
X85568714Y-74113887D01*
X85568497Y-74038473D01*
X85567817Y-73943855D01*
X86309895Y-73943855D01*
X86336442Y-74123344D01*
X86364662Y-74192145D01*
X86473467Y-74343370D01*
X86641605Y-74499300D01*
X86859467Y-74653849D01*
X87117447Y-74800933D01*
X87405935Y-74934466D01*
X87715323Y-75048362D01*
X87717799Y-75049159D01*
X87997893Y-75128302D01*
X88331377Y-75204422D01*
X88701859Y-75274740D01*
X89092949Y-75336479D01*
X89488255Y-75386857D01*
X89871388Y-75423098D01*
X89961126Y-75429477D01*
X90140933Y-75437792D01*
X90374525Y-75443311D01*
X90645967Y-75446126D01*
X90939325Y-75446328D01*
X91238663Y-75444010D01*
X91528046Y-75439262D01*
X91791539Y-75432177D01*
X92013207Y-75422847D01*
X92106868Y-75417123D01*
X92890282Y-75346228D01*
X93661306Y-75246027D01*
X94414151Y-75118228D01*
X95143028Y-74964536D01*
X95842151Y-74786658D01*
X96505729Y-74586300D01*
X97127976Y-74365169D01*
X97703103Y-74124971D01*
X98225321Y-73867412D01*
X98286789Y-73831181D01*
X99643132Y-73831181D01*
X99660577Y-73848626D01*
X99678022Y-73831181D01*
X99660577Y-73813736D01*
X99643132Y-73831181D01*
X98286789Y-73831181D01*
X98688844Y-73594198D01*
X98980109Y-73390918D01*
X99238858Y-73174410D01*
X99449427Y-72953106D01*
X99607354Y-72733325D01*
X99708177Y-72521386D01*
X99747433Y-72323608D01*
X99747802Y-72303842D01*
X99713901Y-72124158D01*
X99615520Y-71943444D01*
X99457636Y-71767340D01*
X99245231Y-71601485D01*
X99004679Y-71462162D01*
X98790666Y-71369266D01*
X98518283Y-71274742D01*
X98198792Y-71181473D01*
X97843457Y-71092341D01*
X97463542Y-71010230D01*
X97070309Y-70938022D01*
X96782142Y-70893338D01*
X96588202Y-70872389D01*
X96336295Y-70855437D01*
X96038119Y-70842482D01*
X95705372Y-70833527D01*
X95349754Y-70828574D01*
X94982963Y-70827623D01*
X94616698Y-70830678D01*
X94262656Y-70837739D01*
X93932538Y-70848808D01*
X93638040Y-70863888D01*
X93390862Y-70882980D01*
X93298774Y-70892811D01*
X93118200Y-70915382D01*
X92962063Y-70936877D01*
X92843642Y-70955315D01*
X92776214Y-70968718D01*
X92766700Y-70972095D01*
X92740565Y-71023060D01*
X92736018Y-71108980D01*
X92750925Y-71199189D01*
X92783149Y-71263020D01*
X92787225Y-71266758D01*
X92824731Y-71304944D01*
X92831619Y-71343887D01*
X92802257Y-71396994D01*
X92731016Y-71477670D01*
X92673832Y-71536720D01*
X92524024Y-71691332D01*
X92396370Y-71826395D01*
X92296609Y-71935527D01*
X92230479Y-72012351D01*
X92203718Y-72050485D01*
X92211538Y-72050709D01*
X92266353Y-72015257D01*
X92357345Y-71953605D01*
X92452831Y-71887452D01*
X92576962Y-71807411D01*
X92666644Y-71763499D01*
X92715434Y-71757773D01*
X92716895Y-71792290D01*
X92710388Y-71805198D01*
X92657511Y-71866051D01*
X92550966Y-71959400D01*
X92396389Y-72080969D01*
X92199416Y-72226480D01*
X91965684Y-72391655D01*
X91700828Y-72572218D01*
X91690900Y-72578874D01*
X91311423Y-72834018D01*
X90988649Y-73053013D01*
X90720500Y-73237312D01*
X90504900Y-73388370D01*
X90339770Y-73507645D01*
X90223035Y-73596590D01*
X90152617Y-73656662D01*
X90152545Y-73656730D01*
X90083229Y-73718591D01*
X90036738Y-73751143D01*
X90028615Y-73752678D01*
X89971602Y-73749895D01*
X89935014Y-73808218D01*
X89914212Y-73842588D01*
X89863916Y-73866117D01*
X89769955Y-73883089D01*
X89646560Y-73895443D01*
X89231076Y-73916321D01*
X88809289Y-73911432D01*
X88412419Y-73881422D01*
X88303846Y-73867750D01*
X88141216Y-73848012D01*
X87930323Y-73826702D01*
X87692593Y-73805759D01*
X87449454Y-73787121D01*
X87309478Y-73777825D01*
X87056304Y-73761858D01*
X86864340Y-73748462D01*
X86725130Y-73736180D01*
X86630218Y-73723557D01*
X86571149Y-73709137D01*
X86540933Y-73692280D01*
X86728589Y-73692280D01*
X86730686Y-73693091D01*
X86784205Y-73676954D01*
X86890433Y-73656757D01*
X87032642Y-73635378D01*
X87154891Y-73620067D01*
X87549935Y-73596774D01*
X87989359Y-73611050D01*
X88459105Y-73662334D01*
X88548077Y-73675812D01*
X88663717Y-73688424D01*
X88814488Y-73696923D01*
X88985320Y-73701416D01*
X89161143Y-73702011D01*
X89326888Y-73698814D01*
X89467486Y-73691934D01*
X89567868Y-73681477D01*
X89612357Y-73668229D01*
X89629997Y-73621391D01*
X89652379Y-73519840D01*
X89677407Y-73378304D01*
X89702986Y-73211514D01*
X89727020Y-73034199D01*
X89747412Y-72861091D01*
X89762067Y-72706918D01*
X89768889Y-72586411D01*
X89769130Y-72566414D01*
X89769230Y-72313461D01*
X89601264Y-72313461D01*
X89502368Y-72317550D01*
X89436053Y-72339165D01*
X89377094Y-72392323D01*
X89313421Y-72473454D01*
X89250318Y-72563761D01*
X89211388Y-72631463D01*
X89204650Y-72656627D01*
X89241763Y-72677298D01*
X89326498Y-72707044D01*
X89413991Y-72732207D01*
X89532920Y-72769436D01*
X89597369Y-72807214D01*
X89622132Y-72854495D01*
X89622792Y-72858604D01*
X89614628Y-72923062D01*
X89562722Y-72951931D01*
X89461306Y-72945988D01*
X89304611Y-72906010D01*
X89294226Y-72902824D01*
X89063337Y-72831510D01*
X88962712Y-72927914D01*
X88892125Y-72985556D01*
X88863471Y-72990544D01*
X88881685Y-72949386D01*
X88932677Y-72888287D01*
X89003266Y-72813148D01*
X88741704Y-72737148D01*
X88480141Y-72661148D01*
X88266040Y-72818761D01*
X88166231Y-72893714D01*
X88094792Y-72950220D01*
X88064420Y-72978157D01*
X88064499Y-72979461D01*
X88102596Y-72982263D01*
X88194021Y-72987168D01*
X88322385Y-72993325D01*
X88391071Y-72996420D01*
X88582638Y-73009001D01*
X88787389Y-73029372D01*
X88991297Y-73055368D01*
X89180340Y-73084824D01*
X89340489Y-73115575D01*
X89457721Y-73145458D01*
X89515032Y-73169886D01*
X89555815Y-73214325D01*
X89536938Y-73256815D01*
X89534151Y-73259694D01*
X89503472Y-73275108D01*
X89445698Y-73279183D01*
X89350732Y-73271020D01*
X89208478Y-73249720D01*
X89008838Y-73214383D01*
X88993354Y-73211527D01*
X88779925Y-73173446D01*
X88557280Y-73136012D01*
X88350521Y-73103313D01*
X88184750Y-73079436D01*
X88171912Y-73077758D01*
X88028345Y-73055823D01*
X87912170Y-73031710D01*
X87840043Y-73009190D01*
X87825452Y-72999327D01*
X87837265Y-72958841D01*
X87892417Y-72895928D01*
X87938699Y-72856149D01*
X88005335Y-72798756D01*
X88111176Y-72701444D01*
X88192793Y-72624231D01*
X88538958Y-72624231D01*
X88796470Y-72635999D01*
X88924699Y-72641536D01*
X89024481Y-72645244D01*
X89076402Y-72646410D01*
X89078556Y-72646342D01*
X89110170Y-72619333D01*
X89167675Y-72550527D01*
X89227289Y-72470467D01*
X89351450Y-72296016D01*
X89258174Y-72284436D01*
X89179407Y-72292814D01*
X89107385Y-72348788D01*
X89077637Y-72384353D01*
X89014598Y-72454841D01*
X88954613Y-72481983D01*
X88865002Y-72478556D01*
X88843839Y-72475766D01*
X88740859Y-72469196D01*
X88672674Y-72491512D01*
X88618130Y-72539956D01*
X88538958Y-72624231D01*
X88192793Y-72624231D01*
X88246177Y-72573728D01*
X88400295Y-72425123D01*
X88464584Y-72362099D01*
X88811645Y-72362099D01*
X88821394Y-72378723D01*
X88852951Y-72383084D01*
X88873197Y-72383241D01*
X88933677Y-72364675D01*
X89014493Y-72304719D01*
X89105444Y-72214796D01*
X89240730Y-72214796D01*
X89242063Y-72239276D01*
X89266689Y-72243681D01*
X89352400Y-72222540D01*
X89389484Y-72200068D01*
X89402402Y-72186631D01*
X89543078Y-72186631D01*
X89571145Y-72204347D01*
X89653780Y-72208774D01*
X89663333Y-72208791D01*
X89804121Y-72208791D01*
X89804121Y-72045258D01*
X89804121Y-71881725D01*
X89696448Y-71984200D01*
X89620217Y-72063565D01*
X89564235Y-72133785D01*
X89555660Y-72147733D01*
X89543078Y-72186631D01*
X89402402Y-72186631D01*
X89441688Y-72145765D01*
X89510891Y-72061016D01*
X89537489Y-72025618D01*
X89591760Y-71940209D01*
X89599746Y-71899831D01*
X89567186Y-71903006D01*
X89499818Y-71948259D01*
X89403379Y-72034112D01*
X89367994Y-72069230D01*
X89281013Y-72161030D01*
X89240730Y-72214796D01*
X89105444Y-72214796D01*
X89123452Y-72196991D01*
X89190131Y-72124105D01*
X89294281Y-72006156D01*
X89356381Y-71929561D01*
X89381867Y-71884543D01*
X89376176Y-71861327D01*
X89344744Y-71850137D01*
X89342690Y-71849736D01*
X89305429Y-71838971D01*
X89333900Y-71832229D01*
X89376717Y-71829751D01*
X89460622Y-71814812D01*
X89489027Y-71785380D01*
X89455799Y-71750751D01*
X89434921Y-71741507D01*
X89390873Y-71727747D01*
X89351968Y-71730335D01*
X89307571Y-71757328D01*
X89247045Y-71816782D01*
X89159755Y-71916752D01*
X89082876Y-72008173D01*
X88959321Y-72156250D01*
X88876002Y-72259103D01*
X88828312Y-72324973D01*
X88811645Y-72362099D01*
X88464584Y-72362099D01*
X88563485Y-72265145D01*
X88585173Y-72243681D01*
X88757006Y-72075277D01*
X88929028Y-71909984D01*
X89088984Y-71759340D01*
X89207503Y-71650590D01*
X89404380Y-71650590D01*
X89517025Y-71693109D01*
X89592754Y-71733371D01*
X89629112Y-71775654D01*
X89629670Y-71780314D01*
X89653963Y-71818867D01*
X89707538Y-71818743D01*
X89760138Y-71781387D01*
X89791519Y-71710221D01*
X89812040Y-71606353D01*
X89819306Y-71497031D01*
X89810920Y-71409503D01*
X89795714Y-71376978D01*
X89733253Y-71340274D01*
X89681477Y-71347877D01*
X89664560Y-71386333D01*
X89639411Y-71436403D01*
X89575593Y-71506898D01*
X89534470Y-71543359D01*
X89404380Y-71650590D01*
X89207503Y-71650590D01*
X89224622Y-71634882D01*
X89323687Y-71548147D01*
X89325598Y-71546555D01*
X89427649Y-71459123D01*
X89503251Y-71389480D01*
X89540844Y-71348494D01*
X89542627Y-71342536D01*
X89513697Y-71360240D01*
X89441344Y-71417275D01*
X89334188Y-71506486D01*
X89200847Y-71620715D01*
X89072120Y-71733226D01*
X88880942Y-71895797D01*
X88666291Y-72068637D01*
X88450127Y-72234633D01*
X88254411Y-72376671D01*
X88188730Y-72421633D01*
X88023450Y-72534361D01*
X87866758Y-72645000D01*
X87733901Y-72742530D01*
X87640127Y-72815932D01*
X87623489Y-72830182D01*
X87535420Y-72909988D01*
X87424231Y-73013391D01*
X87298613Y-73131989D01*
X87167256Y-73257383D01*
X87038852Y-73381173D01*
X86922092Y-73494957D01*
X86825668Y-73590337D01*
X86758270Y-73658911D01*
X86728589Y-73692280D01*
X86540933Y-73692280D01*
X86539470Y-73691464D01*
X86526723Y-73669082D01*
X86524450Y-73642649D01*
X86549190Y-73596583D01*
X86617649Y-73512781D01*
X86721187Y-73399635D01*
X86851165Y-73265537D01*
X86998942Y-73118878D01*
X87155878Y-72968051D01*
X87313334Y-72821448D01*
X87462670Y-72687460D01*
X87595245Y-72574480D01*
X87702419Y-72490899D01*
X87730059Y-72471652D01*
X87866108Y-72379633D01*
X87944306Y-72323200D01*
X87965892Y-72300825D01*
X87932104Y-72310979D01*
X87844182Y-72352133D01*
X87815384Y-72366343D01*
X87545508Y-72514937D01*
X87278843Y-72688653D01*
X87026374Y-72878279D01*
X86799082Y-73074604D01*
X86607952Y-73268417D01*
X86463966Y-73450507D01*
X86405579Y-73548702D01*
X86333354Y-73745804D01*
X86309895Y-73943855D01*
X85567817Y-73943855D01*
X85564972Y-73547963D01*
X85718348Y-73236001D01*
X85794584Y-73089891D01*
X85871566Y-72966653D01*
X85962971Y-72848201D01*
X86082473Y-72716448D01*
X86206810Y-72589999D01*
X86535174Y-72295227D01*
X86581539Y-72261126D01*
X88024725Y-72261126D01*
X88042170Y-72278571D01*
X88059615Y-72261126D01*
X88042170Y-72243681D01*
X88024725Y-72261126D01*
X86581539Y-72261126D01*
X86913265Y-72017144D01*
X87344781Y-71753744D01*
X87833424Y-71503020D01*
X88254422Y-71319093D01*
X89594780Y-71319093D01*
X89612225Y-71336538D01*
X89629670Y-71319093D01*
X89612225Y-71301648D01*
X89594780Y-71319093D01*
X88254422Y-71319093D01*
X88382893Y-71262966D01*
X88996889Y-71031578D01*
X89228434Y-70952027D01*
X89415972Y-70888192D01*
X89581393Y-70830243D01*
X89712865Y-70782457D01*
X89798557Y-70749108D01*
X89825432Y-70736316D01*
X89831017Y-70725961D01*
X91234615Y-70725961D01*
X91252060Y-70743406D01*
X91269505Y-70725961D01*
X91252060Y-70708516D01*
X91234615Y-70725961D01*
X89831017Y-70725961D01*
X89851574Y-70687846D01*
X89876313Y-70594534D01*
X89886076Y-70535202D01*
X91343775Y-70535202D01*
X91357675Y-70620449D01*
X91370586Y-70672777D01*
X91397497Y-70873449D01*
X91390675Y-71035461D01*
X91381336Y-71148198D01*
X91382819Y-71234016D01*
X91389989Y-71264118D01*
X91446149Y-71296510D01*
X91534993Y-71295792D01*
X91616640Y-71267703D01*
X91665158Y-71212482D01*
X91700732Y-71121776D01*
X91703699Y-71107782D01*
X91727857Y-71023780D01*
X91761929Y-70998363D01*
X91781424Y-71002561D01*
X91819455Y-71004040D01*
X91814187Y-70967734D01*
X91795451Y-70883874D01*
X91792857Y-70845223D01*
X91774786Y-70795653D01*
X91709588Y-70778708D01*
X91689414Y-70778296D01*
X91587792Y-70753642D01*
X91536892Y-70685916D01*
X91541386Y-70584475D01*
X91564156Y-70527421D01*
X91600823Y-70446106D01*
X91618190Y-70392216D01*
X91618406Y-70389145D01*
X91591767Y-70361349D01*
X91528426Y-70361897D01*
X91453242Y-70386281D01*
X91391078Y-70429996D01*
X91390694Y-70430419D01*
X91354082Y-70480283D01*
X91343775Y-70535202D01*
X89886076Y-70535202D01*
X89887738Y-70525101D01*
X89907600Y-70381502D01*
X89931397Y-70223004D01*
X91047481Y-70223004D01*
X91051770Y-70283351D01*
X91070161Y-70350613D01*
X91113551Y-70371992D01*
X91176566Y-70367986D01*
X91270109Y-70353584D01*
X91335312Y-70338852D01*
X91361606Y-70309879D01*
X91338528Y-70267531D01*
X91281460Y-70224433D01*
X91205788Y-70193208D01*
X91148025Y-70185164D01*
X91072456Y-70191407D01*
X91047481Y-70223004D01*
X89931397Y-70223004D01*
X89932229Y-70217463D01*
X89945746Y-70132829D01*
X89965389Y-70010519D01*
X89980640Y-69910178D01*
X89986864Y-69864337D01*
X90022210Y-69811123D01*
X90076172Y-69784442D01*
X90143112Y-69758342D01*
X90233019Y-69712514D01*
X90325017Y-69659147D01*
X90398226Y-69610430D01*
X90431771Y-69578553D01*
X90432142Y-69576606D01*
X90404487Y-69583219D01*
X90333250Y-69615635D01*
X90266414Y-69649763D01*
X90189239Y-69687812D01*
X90156896Y-69697673D01*
X90170467Y-69682293D01*
X90344104Y-69539697D01*
X90467033Y-69539697D01*
X90484478Y-69557142D01*
X90501923Y-69539697D01*
X90484478Y-69522252D01*
X90467033Y-69539697D01*
X90344104Y-69539697D01*
X90352440Y-69532851D01*
X90577317Y-69338658D01*
X90763174Y-69173351D01*
X90906622Y-69052275D01*
X91065261Y-68930531D01*
X91210690Y-68829630D01*
X91246891Y-68807005D01*
X91368855Y-68732180D01*
X91528380Y-68632547D01*
X91704491Y-68521281D01*
X91871056Y-68414877D01*
X92129720Y-68249734D01*
X92243034Y-68178983D01*
X92944230Y-68178983D01*
X92961675Y-68196428D01*
X92979121Y-68178983D01*
X92961675Y-68161538D01*
X92944230Y-68178983D01*
X92243034Y-68178983D01*
X92337072Y-68120267D01*
X92499492Y-68022892D01*
X92623360Y-67954031D01*
X92715054Y-67910099D01*
X92780954Y-67887518D01*
X92819480Y-67882417D01*
X92886299Y-67894041D01*
G37*
G36*
X70315247Y-58277345D02*
G01*
X70411347Y-58288937D01*
X70491817Y-58310669D01*
X70574698Y-58345343D01*
X70625644Y-58369861D01*
X70744888Y-58438104D01*
X70847809Y-58522036D01*
X70941571Y-58631660D01*
X71033340Y-58776980D01*
X71130279Y-58967999D01*
X71239553Y-59214721D01*
X71252237Y-59244748D01*
X71341683Y-59459889D01*
X71405529Y-59621814D01*
X71446708Y-59740989D01*
X71468154Y-59827876D01*
X71472801Y-59892940D01*
X71463582Y-59946645D01*
X71455598Y-59970142D01*
X71447745Y-60082001D01*
X71468199Y-60134630D01*
X71512130Y-60216715D01*
X71595419Y-60103574D01*
X71744894Y-59955601D01*
X71932891Y-59853576D01*
X72138315Y-59808338D01*
X72172414Y-59807083D01*
X72322438Y-59821658D01*
X72425006Y-59875432D01*
X72491663Y-59978490D01*
X72530100Y-60119637D01*
X72547675Y-60330811D01*
X72514504Y-60528979D01*
X72426656Y-60722958D01*
X72280200Y-60921567D01*
X72082976Y-61122775D01*
X71871657Y-61318420D01*
X71956581Y-61501719D01*
X72009819Y-61607463D01*
X72060314Y-61668618D01*
X72131504Y-61705277D01*
X72225305Y-61732057D01*
X72479996Y-61832077D01*
X72716903Y-61992840D01*
X72931066Y-62206497D01*
X73117525Y-62465198D01*
X73271321Y-62761094D01*
X73387494Y-63086336D01*
X73461086Y-63433076D01*
X73486169Y-63727582D01*
X73489826Y-63848706D01*
X73493075Y-63936799D01*
X73495261Y-63974297D01*
X73495384Y-63974590D01*
X73527005Y-63965814D01*
X73605443Y-63943178D01*
X73669835Y-63924408D01*
X73785725Y-63894336D01*
X73941736Y-63858862D01*
X74109213Y-63824406D01*
X74155906Y-63815507D01*
X74554521Y-63771568D01*
X74981597Y-63779486D01*
X75422137Y-63836526D01*
X75861141Y-63939952D01*
X76283608Y-64087030D01*
X76674008Y-64274724D01*
X76779208Y-64330499D01*
X76849603Y-64354227D01*
X76909814Y-64350439D01*
X76970574Y-64329291D01*
X77159760Y-64254327D01*
X77303816Y-64201821D01*
X77422174Y-64167753D01*
X77534267Y-64148106D01*
X77659526Y-64138860D01*
X77817383Y-64135996D01*
X77906593Y-64135715D01*
X78180540Y-64142370D01*
X78402067Y-64165833D01*
X78587290Y-64209803D01*
X78752327Y-64277979D01*
X78896675Y-64362927D01*
X79126595Y-64555370D01*
X79302912Y-64790168D01*
X79422745Y-65061754D01*
X79483213Y-65364560D01*
X79490289Y-65509890D01*
X79476716Y-65747365D01*
X79427926Y-65942984D01*
X79335343Y-66119382D01*
X79191914Y-66297541D01*
X79097241Y-66383048D01*
X78970030Y-66474938D01*
X78828361Y-66562652D01*
X78690313Y-66635630D01*
X78573966Y-66683313D01*
X78509432Y-66696153D01*
X78468243Y-66710412D01*
X78486974Y-66755238D01*
X78517170Y-66788363D01*
X78564015Y-66882385D01*
X78563289Y-67014941D01*
X78519838Y-67178503D01*
X78438507Y-67365539D01*
X78324142Y-67568521D01*
X78181588Y-67779920D01*
X78015689Y-67992205D01*
X77831292Y-68197849D01*
X77633241Y-68389320D01*
X77426383Y-68559089D01*
X77336420Y-68623212D01*
X77003484Y-68819529D01*
X76620945Y-68994080D01*
X76207266Y-69140482D01*
X75780909Y-69252350D01*
X75360333Y-69323301D01*
X75289835Y-69330923D01*
X75138551Y-69347009D01*
X75045726Y-69361984D01*
X75000267Y-69380392D01*
X74991083Y-69406777D01*
X75007081Y-69445682D01*
X75007550Y-69446560D01*
X75016815Y-69530715D01*
X74961190Y-69618242D01*
X74844998Y-69703609D01*
X74780948Y-69736658D01*
X74606604Y-69850058D01*
X74464788Y-70014623D01*
X74375481Y-70175266D01*
X74332615Y-70286355D01*
X74317388Y-70394787D01*
X74324985Y-70535334D01*
X74325264Y-70538009D01*
X74338741Y-70642010D01*
X74360599Y-70719148D01*
X74401839Y-70788903D01*
X74473460Y-70870752D01*
X74565537Y-70963489D01*
X74722129Y-71131394D01*
X74862746Y-71312602D01*
X74995221Y-71519705D01*
X75127385Y-71765297D01*
X75267070Y-72061971D01*
X75312082Y-72163892D01*
X75411714Y-72383449D01*
X75533037Y-72637287D01*
X75663126Y-72899097D01*
X75789056Y-73142571D01*
X75834915Y-73228098D01*
X75949816Y-73443470D01*
X76031573Y-73606313D01*
X76083299Y-73723721D01*
X76108105Y-73802785D01*
X76109105Y-73850598D01*
X76108705Y-73851927D01*
X76098907Y-73897126D01*
X76118330Y-73915288D01*
X76182414Y-73912327D01*
X76243665Y-73903632D01*
X76351211Y-73893821D01*
X76420014Y-73909197D01*
X76474239Y-73951437D01*
X76527196Y-74025796D01*
X76545879Y-74088268D01*
X76554936Y-74122962D01*
X76591589Y-74145130D01*
X76670060Y-74159359D01*
X76798832Y-74169868D01*
X76960978Y-74189340D01*
X77108767Y-74229068D01*
X77247488Y-74294310D01*
X77382430Y-74390327D01*
X77518881Y-74522377D01*
X77662131Y-74695720D01*
X77817469Y-74915615D01*
X77990183Y-75187320D01*
X78185562Y-75516096D01*
X78230110Y-75593132D01*
X78425912Y-75934875D01*
X78591176Y-76227862D01*
X78731673Y-76482925D01*
X78853174Y-76710897D01*
X78961452Y-76922611D01*
X79062278Y-77128900D01*
X79161422Y-77340596D01*
X79163374Y-77344843D01*
X79261821Y-77566088D01*
X79358995Y-77797082D01*
X79450759Y-78026705D01*
X79532977Y-78243832D01*
X79601513Y-78437341D01*
X79652230Y-78596110D01*
X79680991Y-78709016D01*
X79685989Y-78750127D01*
X79692299Y-78816031D01*
X79704484Y-78837912D01*
X79737722Y-78816860D01*
X79810282Y-78760746D01*
X79908689Y-78680134D01*
X79947797Y-78647194D01*
X80129985Y-78502438D01*
X80289214Y-78401364D01*
X80446246Y-78333268D01*
X80621843Y-78287447D01*
X80659512Y-78280286D01*
X80933517Y-78263296D01*
X81194826Y-78314382D01*
X81444581Y-78433913D01*
X81663689Y-78603314D01*
X81806681Y-78751937D01*
X81899215Y-78896448D01*
X81950441Y-79058424D01*
X81969511Y-79259445D01*
X81970335Y-79326373D01*
X81967392Y-79482306D01*
X81954750Y-79595609D01*
X81926467Y-79693332D01*
X81876601Y-79802523D01*
X81857621Y-79839492D01*
X81780537Y-79974151D01*
X81694536Y-80104256D01*
X81631372Y-80185829D01*
X81516197Y-80294770D01*
X81352382Y-80419486D01*
X81156020Y-80549689D01*
X80943205Y-80675095D01*
X80730029Y-80785418D01*
X80605981Y-80841211D01*
X80396397Y-80926544D01*
X80235517Y-80984503D01*
X80109209Y-81018064D01*
X80003341Y-81030202D01*
X79903782Y-81023892D01*
X79817560Y-81007183D01*
X79675875Y-80974534D01*
X79531939Y-80941956D01*
X79480366Y-80930481D01*
X79376503Y-80901783D01*
X79298681Y-80870095D01*
X79282575Y-80859731D01*
X79242592Y-80849392D01*
X79203233Y-80897200D01*
X79191374Y-80920670D01*
X79119795Y-81005882D01*
X79053720Y-81029127D01*
X79009869Y-81037432D01*
X78981902Y-81059324D01*
X78964909Y-81108915D01*
X78953980Y-81200321D01*
X78944478Y-81343138D01*
X78905262Y-81645190D01*
X78821756Y-81910305D01*
X78685849Y-82161212D01*
X78617817Y-82258868D01*
X78538035Y-82370945D01*
X78494777Y-82446788D01*
X78481120Y-82504769D01*
X78490141Y-82563260D01*
X78495866Y-82582481D01*
X78525533Y-82706128D01*
X78556922Y-82889657D01*
X78588646Y-83123241D01*
X78619315Y-83397052D01*
X78637206Y-83582868D01*
X78654288Y-83751860D01*
X78671562Y-83865792D01*
X78692854Y-83939289D01*
X78721994Y-83986978D01*
X78749919Y-84013493D01*
X78829421Y-84077869D01*
X78709369Y-84175851D01*
X78589316Y-84273833D01*
X78097155Y-84264658D01*
X77902646Y-84261540D01*
X77766451Y-84261607D01*
X77677126Y-84266265D01*
X77623227Y-84276923D01*
X77593310Y-84294989D01*
X77575931Y-84321869D01*
X77572620Y-84329184D01*
X77516207Y-84393907D01*
X77440396Y-84413512D01*
X77371891Y-84384411D01*
X77352727Y-84358725D01*
X77330710Y-84283070D01*
X77312389Y-84156845D01*
X77298737Y-83999208D01*
X77290728Y-83829315D01*
X77289335Y-83666325D01*
X77295533Y-83529393D01*
X77306611Y-83451486D01*
X77340158Y-83307144D01*
X77418132Y-83307144D01*
X77435256Y-83375503D01*
X77475161Y-83450545D01*
X77520643Y-83503671D01*
X77542065Y-83513186D01*
X77580379Y-83543106D01*
X77608178Y-83609134D01*
X77647132Y-83770189D01*
X77676028Y-83874962D01*
X77702624Y-83934641D01*
X77734677Y-83960411D01*
X77779944Y-83963460D01*
X77846183Y-83954974D01*
X77847853Y-83954753D01*
X77973763Y-83938490D01*
X78120410Y-83919990D01*
X78176991Y-83912975D01*
X78360164Y-83890430D01*
X78360164Y-83246669D01*
X78360164Y-82602908D01*
X78089766Y-82808182D01*
X77943029Y-82917374D01*
X77788869Y-83028535D01*
X77654134Y-83122405D01*
X77618750Y-83146145D01*
X77518552Y-83216226D01*
X77446634Y-83273793D01*
X77418156Y-83306681D01*
X77418132Y-83307144D01*
X77340158Y-83307144D01*
X77341223Y-83302560D01*
X77227477Y-83372859D01*
X77141882Y-83427322D01*
X77022978Y-83504924D01*
X76895236Y-83589681D01*
X76884420Y-83596928D01*
X76654946Y-83733912D01*
X76440539Y-83829687D01*
X76247539Y-83884033D01*
X76082283Y-83896730D01*
X75951110Y-83867557D01*
X75860358Y-83796292D01*
X75816366Y-83682717D01*
X75813186Y-83634207D01*
X75798028Y-83534788D01*
X75760491Y-83490775D01*
X75717014Y-83452084D01*
X75647630Y-83365883D01*
X75561117Y-83245210D01*
X75466255Y-83103103D01*
X75371823Y-82952602D01*
X75286600Y-82806745D01*
X75235257Y-82710714D01*
X75195544Y-82626957D01*
X75133635Y-82489620D01*
X75054253Y-82309501D01*
X74962122Y-82097397D01*
X74861967Y-81864107D01*
X74765449Y-81636859D01*
X74653088Y-81372402D01*
X74563852Y-81166508D01*
X74494668Y-81013063D01*
X74442459Y-80905956D01*
X74404151Y-80839074D01*
X74376670Y-80806305D01*
X74356941Y-80801536D01*
X74348619Y-80808219D01*
X74270964Y-80856357D01*
X74184922Y-80846386D01*
X74139690Y-80810684D01*
X74067652Y-80775326D01*
X74003380Y-80778650D01*
X73922534Y-80783223D01*
X73798813Y-80777472D01*
X73658151Y-80762655D01*
X73649904Y-80761528D01*
X73523856Y-80745860D01*
X73427838Y-80737310D01*
X73379821Y-80737406D01*
X73377735Y-80738382D01*
X73379713Y-80775665D01*
X73395991Y-80864174D01*
X73423405Y-80987573D01*
X73436491Y-81041867D01*
X73471350Y-81200852D01*
X73508846Y-81400077D01*
X73543742Y-81610448D01*
X73564152Y-81751236D01*
X73585491Y-81902908D01*
X73615900Y-82108557D01*
X73653100Y-82353307D01*
X73694811Y-82622284D01*
X73738754Y-82900613D01*
X73772678Y-83111950D01*
X73819165Y-83402079D01*
X73859840Y-83663839D01*
X73895719Y-83906362D01*
X73927815Y-84138779D01*
X73957142Y-84370222D01*
X73984714Y-84609823D01*
X74011545Y-84866714D01*
X74038648Y-85150025D01*
X74067038Y-85468890D01*
X74097728Y-85832438D01*
X74131733Y-86249803D01*
X74159155Y-86592751D01*
X74167678Y-86743664D01*
X74163007Y-86844861D01*
X74143257Y-86915483D01*
X74123889Y-86950375D01*
X74045410Y-87022362D01*
X73955345Y-87029447D01*
X73879277Y-86982260D01*
X73834717Y-86916809D01*
X73824450Y-86877590D01*
X73814689Y-86861117D01*
X73780161Y-86848602D01*
X73712999Y-86839541D01*
X73605335Y-86833433D01*
X73449303Y-86829773D01*
X73237033Y-86828059D01*
X73044830Y-86827747D01*
X72789974Y-86827318D01*
X72595789Y-86825570D01*
X72453169Y-86821814D01*
X72353008Y-86815358D01*
X72286199Y-86805511D01*
X72243636Y-86791584D01*
X72216213Y-86772885D01*
X72207759Y-86764264D01*
X72175277Y-86717100D01*
X72146961Y-86648862D01*
X72122342Y-86554334D01*
X72100954Y-86428300D01*
X72082329Y-86265542D01*
X72066001Y-86060847D01*
X72051502Y-85808996D01*
X72038365Y-85504775D01*
X72026122Y-85142967D01*
X72014308Y-84718357D01*
X72010333Y-84559890D01*
X72002313Y-84237773D01*
X71995077Y-83975050D01*
X71987727Y-83761357D01*
X71979363Y-83586328D01*
X71969085Y-83439598D01*
X71955994Y-83310801D01*
X71939190Y-83189573D01*
X71917775Y-83065547D01*
X71890848Y-82928359D01*
X71857510Y-82767643D01*
X71852893Y-82745604D01*
X71799266Y-82477789D01*
X71760428Y-82249701D01*
X71733038Y-82034623D01*
X71713751Y-81805834D01*
X71699226Y-81536614D01*
X71697931Y-81507005D01*
X71686802Y-81296466D01*
X71672746Y-81102918D01*
X71657058Y-80940129D01*
X71641032Y-80821867D01*
X71628371Y-80767306D01*
X71607107Y-80720598D01*
X71593595Y-80704533D01*
X72057603Y-80704533D01*
X72159600Y-81135940D01*
X72261598Y-81567348D01*
X72192003Y-81661480D01*
X72168244Y-81698421D01*
X72152297Y-81740712D01*
X72145012Y-81796653D01*
X72147238Y-81874547D01*
X72159826Y-81982696D01*
X72183627Y-82129402D01*
X72219491Y-82322968D01*
X72268267Y-82571695D01*
X72303030Y-82745604D01*
X72342306Y-82948936D01*
X72374740Y-83137386D01*
X72401158Y-83321325D01*
X72422384Y-83511122D01*
X72439244Y-83717149D01*
X72452563Y-83949774D01*
X72463167Y-84219370D01*
X72471880Y-84536305D01*
X72479529Y-84910950D01*
X72480738Y-84978571D01*
X72486307Y-85264704D01*
X72492571Y-85534716D01*
X72499232Y-85779074D01*
X72505991Y-85988241D01*
X72512551Y-86152684D01*
X72518613Y-86262866D01*
X72522027Y-86300015D01*
X72542742Y-86452641D01*
X73130582Y-86437346D01*
X73326159Y-86431130D01*
X73496648Y-86423572D01*
X73630139Y-86415372D01*
X73714719Y-86407230D01*
X73738899Y-86401576D01*
X73744047Y-86359253D01*
X73742274Y-86254387D01*
X73734064Y-86093821D01*
X73719901Y-85884396D01*
X73700270Y-85632957D01*
X73675654Y-85346345D01*
X73646538Y-85031404D01*
X73629558Y-84856456D01*
X73610868Y-84685116D01*
X73583510Y-84459078D01*
X73549363Y-84192622D01*
X73510303Y-83900029D01*
X73468208Y-83595580D01*
X73424956Y-83293555D01*
X73416239Y-83234066D01*
X73370048Y-82917145D01*
X73333498Y-82656619D01*
X73305445Y-82439938D01*
X73284743Y-82254555D01*
X73270246Y-82087922D01*
X73260808Y-81927491D01*
X73255283Y-81760714D01*
X73252526Y-81575045D01*
X73251647Y-81431500D01*
X73248763Y-80727973D01*
X72864972Y-80704767D01*
X72681133Y-80695981D01*
X72497634Y-80691154D01*
X72340954Y-80690809D01*
X72269392Y-80693047D01*
X72057603Y-80704533D01*
X71593595Y-80704533D01*
X71577372Y-80685245D01*
X71529674Y-80659285D01*
X71454519Y-80640756D01*
X71342417Y-80627696D01*
X71183873Y-80618143D01*
X70969395Y-80610136D01*
X70850068Y-80606453D01*
X70643789Y-80602725D01*
X70503424Y-80606077D01*
X70425449Y-80616706D01*
X70405586Y-80631384D01*
X70413381Y-80686873D01*
X70434171Y-80795650D01*
X70464751Y-80943130D01*
X70501916Y-81114730D01*
X70542461Y-81295863D01*
X70583183Y-81471945D01*
X70620876Y-81628390D01*
X70647808Y-81733791D01*
X70684420Y-81887629D01*
X70723712Y-82079039D01*
X70759377Y-82276394D01*
X70773033Y-82361813D01*
X70802175Y-82553034D01*
X70837111Y-82780650D01*
X70872838Y-83012115D01*
X70896459Y-83164285D01*
X70920581Y-83327394D01*
X70950607Y-83543191D01*
X70984330Y-83795060D01*
X71019543Y-84066382D01*
X71054038Y-84340540D01*
X71069813Y-84469259D01*
X71099456Y-84708553D01*
X71127434Y-84925140D01*
X71152398Y-85109301D01*
X71173001Y-85251315D01*
X71187893Y-85341465D01*
X71194758Y-85369662D01*
X71204129Y-85442893D01*
X71168484Y-85526333D01*
X71101174Y-85591950D01*
X71084771Y-85600611D01*
X71008234Y-85617835D01*
X70866860Y-85630577D01*
X70665467Y-85638552D01*
X70408872Y-85641475D01*
X70392801Y-85641483D01*
X70149961Y-85640075D01*
X69967896Y-85634414D01*
X69837635Y-85622350D01*
X69750205Y-85601730D01*
X69696633Y-85570401D01*
X69667947Y-85526212D01*
X69655174Y-85467010D01*
X69654888Y-85464488D01*
X69641712Y-85386800D01*
X69616762Y-85268854D01*
X69589514Y-85153022D01*
X69540961Y-84933825D01*
X69490178Y-84665626D01*
X69440391Y-84368987D01*
X69394827Y-84064471D01*
X69356714Y-83772643D01*
X69329278Y-83514065D01*
X69325626Y-83471469D01*
X69306405Y-83265070D01*
X69282350Y-83048323D01*
X69256810Y-82849672D01*
X69237296Y-82721331D01*
X69211160Y-82549357D01*
X69183889Y-82340610D01*
X69159617Y-82127901D01*
X69148992Y-82020550D01*
X69128441Y-81831693D01*
X69102274Y-81640238D01*
X69074469Y-81473540D01*
X69057664Y-81392528D01*
X69022353Y-81169677D01*
X69015000Y-80910237D01*
X69018007Y-80822314D01*
X69033464Y-80486525D01*
X68588345Y-80427703D01*
X68374846Y-80396593D01*
X68144101Y-80358263D01*
X67927298Y-80318118D01*
X67788480Y-80289143D01*
X67433735Y-80209404D01*
X67400227Y-80297537D01*
X67356649Y-80449984D01*
X67345447Y-80606609D01*
X67367177Y-80786459D01*
X67420899Y-81003378D01*
X67464704Y-81171591D01*
X67500940Y-81340124D01*
X67523869Y-81481124D01*
X67528011Y-81523303D01*
X67540632Y-81643788D01*
X67565458Y-81822881D01*
X67600796Y-82050806D01*
X67644951Y-82317789D01*
X67696231Y-82614056D01*
X67752940Y-82929833D01*
X67813386Y-83255344D01*
X67875875Y-83580815D01*
X67938712Y-83896471D01*
X67942363Y-83914423D01*
X68030582Y-84361842D01*
X68102052Y-84757110D01*
X68159231Y-85115157D01*
X68204577Y-85450918D01*
X68226107Y-85638385D01*
X68250190Y-85862072D01*
X67717212Y-85839003D01*
X67505838Y-85830616D01*
X67295230Y-85823592D01*
X67106312Y-85818542D01*
X66960008Y-85816077D01*
X66928106Y-85815934D01*
X66671978Y-85815934D01*
X66671978Y-85701582D01*
X66655316Y-85595357D01*
X66618009Y-85510178D01*
X66600843Y-85469886D01*
X66583876Y-85395058D01*
X66566440Y-85279861D01*
X66547864Y-85118462D01*
X66527478Y-84905026D01*
X66504614Y-84633720D01*
X66478601Y-84298711D01*
X66477943Y-84289984D01*
X66455113Y-84000770D01*
X66431138Y-83721873D01*
X66407093Y-83464102D01*
X66384056Y-83238263D01*
X66363101Y-83055164D01*
X66345305Y-82925614D01*
X66338107Y-82885164D01*
X66310831Y-82747501D01*
X66275994Y-82564657D01*
X66238024Y-82360195D01*
X66201349Y-82157678D01*
X66200421Y-82152472D01*
X66164977Y-81959105D01*
X66119592Y-81719705D01*
X66068574Y-81456546D01*
X66016231Y-81191906D01*
X65977728Y-81001099D01*
X65930514Y-80758123D01*
X65885664Y-80506411D01*
X65846468Y-80265984D01*
X65816214Y-80056865D01*
X65800117Y-79920030D01*
X65782701Y-79741809D01*
X65765924Y-79572454D01*
X65751964Y-79433837D01*
X65744502Y-79361788D01*
X65736233Y-79278782D01*
X65737000Y-79249541D01*
X65750511Y-79277839D01*
X65780477Y-79367452D01*
X65795409Y-79413599D01*
X65844634Y-79570648D01*
X65895842Y-79741191D01*
X65920685Y-79827307D01*
X65952916Y-79931789D01*
X65979398Y-80000099D01*
X65992926Y-80017055D01*
X65997734Y-79973988D01*
X65988606Y-79886620D01*
X65969938Y-79777980D01*
X65946124Y-79671095D01*
X65921559Y-79588996D01*
X65905223Y-79557476D01*
X65874292Y-79496067D01*
X65874303Y-79494669D01*
X65999518Y-79494669D01*
X66024886Y-79785477D01*
X66039085Y-79920695D01*
X66054764Y-80027053D01*
X66069187Y-80087106D01*
X66073272Y-80093843D01*
X66082680Y-80133857D01*
X66090230Y-80228470D01*
X66095030Y-80362505D01*
X66096291Y-80485223D01*
X66100478Y-80682447D01*
X66115759Y-80820087D01*
X66146212Y-80907985D01*
X66195916Y-80955985D01*
X66268948Y-80973928D01*
X66299209Y-80974931D01*
X66333623Y-80976655D01*
X66360025Y-80987907D01*
X66380648Y-81017807D01*
X66397723Y-81075472D01*
X66413483Y-81170023D01*
X66430159Y-81310579D01*
X66449985Y-81506258D01*
X66463609Y-81646566D01*
X66496505Y-81928568D01*
X66542288Y-82217146D01*
X66603983Y-82527868D01*
X66684619Y-82876301D01*
X66762481Y-83183783D01*
X66801075Y-83333587D01*
X66831205Y-83459175D01*
X66854215Y-83572849D01*
X66871450Y-83686908D01*
X66884254Y-83813654D01*
X66893971Y-83965386D01*
X66901946Y-84154405D01*
X66909523Y-84393012D01*
X66914781Y-84577335D01*
X66921865Y-84877788D01*
X66924870Y-85126585D01*
X66923832Y-85319518D01*
X66918789Y-85452379D01*
X66909776Y-85520961D01*
X66906532Y-85528090D01*
X66906489Y-85546070D01*
X66944245Y-85558617D01*
X67027940Y-85566534D01*
X67165716Y-85570626D01*
X67348063Y-85571703D01*
X67823351Y-85571703D01*
X67822982Y-85475755D01*
X67816082Y-85382910D01*
X67796390Y-85226756D01*
X67764728Y-85012421D01*
X67721918Y-84745036D01*
X67668784Y-84429729D01*
X67606147Y-84071629D01*
X67534831Y-83675867D01*
X67530607Y-83652747D01*
X67478627Y-83354734D01*
X67424715Y-83021631D01*
X67372604Y-82678193D01*
X67326031Y-82349178D01*
X67288728Y-82059343D01*
X67283248Y-82012912D01*
X67252542Y-81758732D01*
X67219420Y-81502505D01*
X67186217Y-81261105D01*
X67155274Y-81051406D01*
X67128928Y-80890282D01*
X67123703Y-80861538D01*
X67094228Y-80685209D01*
X67071058Y-80511171D01*
X67057343Y-80365019D01*
X67054962Y-80303296D01*
X67054776Y-80170308D01*
X67166916Y-80170308D01*
X67179969Y-80246844D01*
X67207549Y-80310314D01*
X67240813Y-80340256D01*
X67263035Y-80325018D01*
X67265110Y-80306150D01*
X67276619Y-80246929D01*
X67284560Y-80223427D01*
X67274155Y-80170227D01*
X67244676Y-80149972D01*
X67185349Y-80137677D01*
X67166916Y-80170308D01*
X67054776Y-80170308D01*
X67054693Y-80111401D01*
X66715052Y-79947832D01*
X66549234Y-79862583D01*
X66384090Y-79768573D01*
X66244400Y-79680286D01*
X66187465Y-79639467D01*
X65999518Y-79494669D01*
X65874303Y-79494669D01*
X65874842Y-79428443D01*
X65904944Y-79390155D01*
X65908786Y-79357953D01*
X65876985Y-79290611D01*
X65854651Y-79256410D01*
X65800059Y-79162796D01*
X65736407Y-79030200D01*
X65676675Y-78885849D01*
X65671783Y-78872802D01*
X65623329Y-78744896D01*
X65591916Y-78674445D01*
X65570993Y-78653231D01*
X65554006Y-78673040D01*
X65540495Y-78708199D01*
X65480413Y-78800296D01*
X65389452Y-78834084D01*
X65273129Y-78810790D01*
X65136959Y-78731640D01*
X64986460Y-78597863D01*
X64970757Y-78581446D01*
X64733875Y-78296552D01*
X64501725Y-77951226D01*
X64279899Y-77554808D01*
X64073993Y-77116641D01*
X64027514Y-77006181D01*
X63941729Y-76800950D01*
X63844976Y-76574507D01*
X63750706Y-76358107D01*
X63689703Y-76221153D01*
X63508979Y-75807977D01*
X63352701Y-75420396D01*
X63210882Y-75034890D01*
X63163903Y-74905900D01*
X63097232Y-74728782D01*
X63017230Y-74520141D01*
X62930261Y-74296581D01*
X62849280Y-74091281D01*
X62765068Y-73874148D01*
X62686283Y-73661367D01*
X62618243Y-73468043D01*
X62566268Y-73309282D01*
X62535998Y-73201583D01*
X62501523Y-73063685D01*
X62453469Y-72885910D01*
X62399181Y-72694950D01*
X62362920Y-72572727D01*
X62277238Y-72263611D01*
X62221746Y-71992044D01*
X62193691Y-71734061D01*
X62190322Y-71465697D01*
X62190858Y-71456425D01*
X62630597Y-71456425D01*
X62634270Y-71640457D01*
X62638558Y-71733899D01*
X62654874Y-71960594D01*
X62682066Y-72161401D01*
X62724847Y-72355465D01*
X62787929Y-72561929D01*
X62876027Y-72799939D01*
X62940315Y-72959672D01*
X63062362Y-73259813D01*
X63195787Y-73592970D01*
X63336296Y-73948025D01*
X63479592Y-74313863D01*
X63621378Y-74679366D01*
X63757361Y-75033420D01*
X63883242Y-75364906D01*
X63994728Y-75662710D01*
X64087521Y-75915715D01*
X64144318Y-76075261D01*
X64305140Y-76519614D01*
X64459885Y-76914115D01*
X64606752Y-77254706D01*
X64743937Y-77537327D01*
X64869639Y-77757922D01*
X64932867Y-77850852D01*
X65025033Y-77988146D01*
X65083850Y-78102331D01*
X65101923Y-78172688D01*
X65129801Y-78256567D01*
X65202310Y-78355932D01*
X65302758Y-78452966D01*
X65414458Y-78529850D01*
X65454806Y-78549417D01*
X65546014Y-78587866D01*
X65567634Y-78355265D01*
X65641783Y-77925856D01*
X65782203Y-77518109D01*
X65915054Y-77254359D01*
X66029252Y-77071320D01*
X66127945Y-76951085D01*
X66216039Y-76889728D01*
X66298439Y-76883325D01*
X66350292Y-76906152D01*
X66411658Y-76981111D01*
X66437690Y-77088597D01*
X66424570Y-77184924D01*
X66419857Y-77266628D01*
X66439017Y-77300384D01*
X66460004Y-77329071D01*
X66427361Y-77321725D01*
X66393836Y-77328708D01*
X66354444Y-77379876D01*
X66303924Y-77483658D01*
X66259945Y-77590056D01*
X66163860Y-77848051D01*
X66099134Y-78065438D01*
X66061330Y-78261505D01*
X66046012Y-78455543D01*
X66045136Y-78523901D01*
X66057702Y-78734129D01*
X66096245Y-78892617D01*
X66109905Y-78925137D01*
X66226337Y-79107102D01*
X66400965Y-79285358D01*
X66622374Y-79451349D01*
X66879148Y-79596516D01*
X67159872Y-79712304D01*
X67160154Y-79712400D01*
X67288140Y-79754568D01*
X67366833Y-79774480D01*
X67412614Y-79773464D01*
X67441863Y-79752852D01*
X67454881Y-79736332D01*
X67514916Y-79681984D01*
X67560486Y-79689747D01*
X67579108Y-79757275D01*
X67579121Y-79759703D01*
X67586014Y-79806030D01*
X67616562Y-79838313D01*
X67685568Y-79865161D01*
X67807835Y-79895188D01*
X67814629Y-79896708D01*
X68040861Y-79944420D01*
X68266741Y-79985749D01*
X68499887Y-80021317D01*
X68747919Y-80051746D01*
X69018453Y-80077658D01*
X69319109Y-80099673D01*
X69657505Y-80118415D01*
X70041260Y-80134505D01*
X70477991Y-80148565D01*
X70975317Y-80161217D01*
X71085577Y-80163696D01*
X71626229Y-80176613D01*
X72101205Y-80190243D01*
X72514606Y-80204942D01*
X72870534Y-80221068D01*
X73173091Y-80238979D01*
X73426381Y-80259030D01*
X73634504Y-80281579D01*
X73801563Y-80306983D01*
X73931660Y-80335600D01*
X74028898Y-80367786D01*
X74097379Y-80403899D01*
X74127273Y-80428497D01*
X74197049Y-80533469D01*
X74197461Y-80638677D01*
X74174813Y-80685917D01*
X74164762Y-80756068D01*
X74179619Y-80781865D01*
X74223335Y-80821135D01*
X74267411Y-80811397D01*
X74314744Y-80772654D01*
X74337713Y-80746215D01*
X74346429Y-80711788D01*
X74338068Y-80657563D01*
X74309803Y-80571731D01*
X74258809Y-80442482D01*
X74204118Y-80310360D01*
X74108182Y-80085630D01*
X74027285Y-79917789D01*
X73951561Y-79798544D01*
X73871147Y-79719599D01*
X73776176Y-79672660D01*
X73656783Y-79649432D01*
X73503103Y-79641620D01*
X73407907Y-79640899D01*
X73273546Y-79641484D01*
X73170738Y-79646881D01*
X73081745Y-79661821D01*
X72988832Y-79691036D01*
X72874262Y-79739257D01*
X72720299Y-79811215D01*
X72657770Y-79841002D01*
X72236950Y-80041621D01*
X71556593Y-80051830D01*
X71300299Y-80054509D01*
X71094982Y-80053093D01*
X70921900Y-80046376D01*
X70762310Y-80033149D01*
X70597468Y-80012204D01*
X70408631Y-79982333D01*
X70365678Y-79975070D01*
X70016612Y-79908289D01*
X69710672Y-79831517D01*
X69430499Y-79737749D01*
X69158734Y-79619979D01*
X68878018Y-79471202D01*
X68570993Y-79284413D01*
X68433928Y-79195512D01*
X68115980Y-78980011D01*
X67848972Y-78783313D01*
X67620745Y-78594431D01*
X67419137Y-78402380D01*
X67231988Y-78196171D01*
X67047138Y-77964817D01*
X66995500Y-77895879D01*
X66940348Y-77814903D01*
X66870836Y-77703662D01*
X66794516Y-77575502D01*
X66718943Y-77443768D01*
X66651672Y-77321807D01*
X66600256Y-77222964D01*
X66572250Y-77160585D01*
X66570889Y-77145741D01*
X66564295Y-77115211D01*
X66539879Y-77033662D01*
X66502237Y-76916157D01*
X66483948Y-76860783D01*
X66389048Y-76575825D01*
X66027541Y-76377905D01*
X65719486Y-76185810D01*
X65462401Y-75976385D01*
X65263621Y-75756104D01*
X65179930Y-75629417D01*
X65098407Y-75503932D01*
X64999914Y-75374250D01*
X64962177Y-75330249D01*
X64910180Y-75267403D01*
X64867944Y-75199935D01*
X64830220Y-75114435D01*
X64791760Y-74997495D01*
X64747315Y-74835705D01*
X64707726Y-74680181D01*
X64644749Y-74402899D01*
X64581219Y-74076190D01*
X64518900Y-73713407D01*
X64459557Y-73327903D01*
X64404956Y-72933031D01*
X64356861Y-72542145D01*
X64317037Y-72168598D01*
X64287251Y-71825744D01*
X64269265Y-71526935D01*
X64264560Y-71327419D01*
X64264560Y-71208993D01*
X64638935Y-71208993D01*
X64659790Y-71473383D01*
X64680580Y-71648844D01*
X64714252Y-71845816D01*
X64749859Y-72006461D01*
X64780528Y-72138614D01*
X64817810Y-72319337D01*
X64857721Y-72528232D01*
X64896279Y-72744898D01*
X64909970Y-72826379D01*
X64944967Y-73029156D01*
X64988364Y-73265753D01*
X65037969Y-73525548D01*
X65091591Y-73797920D01*
X65147037Y-74072247D01*
X65202115Y-74337907D01*
X65254634Y-74584279D01*
X65302401Y-74800741D01*
X65343224Y-74976671D01*
X65374911Y-75101448D01*
X65389446Y-75149732D01*
X65440025Y-75247469D01*
X65529318Y-75376146D01*
X65644006Y-75520437D01*
X65770768Y-75665013D01*
X65896286Y-75794545D01*
X66007238Y-75893706D01*
X66077191Y-75941188D01*
X66206969Y-76007396D01*
X66053338Y-75494975D01*
X65991653Y-75280914D01*
X65921473Y-75023874D01*
X65849438Y-74748996D01*
X65782192Y-74481419D01*
X65747437Y-74337088D01*
X65688797Y-74094359D01*
X65624437Y-73837689D01*
X65560121Y-73589453D01*
X65501615Y-73372024D01*
X65468760Y-73255494D01*
X65396567Y-72981064D01*
X65334425Y-72695640D01*
X65285714Y-72418441D01*
X65253817Y-72168690D01*
X65242122Y-71967418D01*
X65248661Y-71821614D01*
X65267053Y-71670226D01*
X65293760Y-71530545D01*
X65325241Y-71419863D01*
X65357955Y-71355469D01*
X65369146Y-71347027D01*
X65405089Y-71337397D01*
X65430865Y-71349203D01*
X65451871Y-71394189D01*
X65473502Y-71484101D01*
X65501153Y-71630681D01*
X65502254Y-71636749D01*
X65568681Y-71980338D01*
X65644426Y-72333686D01*
X65724875Y-72677119D01*
X65805420Y-72990964D01*
X65881447Y-73255545D01*
X65882312Y-73258337D01*
X65932630Y-73428546D01*
X65993135Y-73645651D01*
X66058158Y-73888592D01*
X66122031Y-74136311D01*
X66163247Y-74302197D01*
X66225952Y-74547798D01*
X66302176Y-74827617D01*
X66388784Y-75131649D01*
X66482645Y-75449891D01*
X66580624Y-75772337D01*
X66679588Y-76088983D01*
X66776404Y-76389825D01*
X66867938Y-76664860D01*
X66951056Y-76904081D01*
X67022626Y-77097486D01*
X67079513Y-77235069D01*
X67086652Y-77250412D01*
X67223186Y-77499321D01*
X67397638Y-77760356D01*
X67592411Y-78009786D01*
X67789907Y-78223879D01*
X67851037Y-78281256D01*
X67980309Y-78388068D01*
X68154971Y-78519243D01*
X68359813Y-78664539D01*
X68579629Y-78813716D01*
X68799211Y-78956534D01*
X69003351Y-79082752D01*
X69176842Y-79182128D01*
X69230490Y-79210180D01*
X69556716Y-79355861D01*
X69900897Y-79470965D01*
X70273869Y-79557761D01*
X70686465Y-79618519D01*
X71149520Y-79655510D01*
X71405076Y-79665853D01*
X72038586Y-79684387D01*
X72381999Y-79524116D01*
X72593546Y-79426944D01*
X72759296Y-79356583D01*
X72895917Y-79308740D01*
X73020078Y-79279121D01*
X73148446Y-79263435D01*
X73297690Y-79257389D01*
X73420750Y-79256593D01*
X73598545Y-79258184D01*
X73725579Y-79264979D01*
X73820836Y-79280009D01*
X73903302Y-79306305D01*
X73991963Y-79346897D01*
X73994614Y-79348217D01*
X74148947Y-79446864D01*
X74270679Y-79580988D01*
X74296567Y-79618615D01*
X74343425Y-79702383D01*
X74411866Y-79842413D01*
X74498158Y-80029942D01*
X74598567Y-80256206D01*
X74709359Y-80512443D01*
X74826801Y-80789888D01*
X74947159Y-81079780D01*
X75066700Y-81373354D01*
X75181690Y-81661848D01*
X75288395Y-81936497D01*
X75324085Y-82030357D01*
X75475685Y-82413121D01*
X75616755Y-82731202D01*
X75746820Y-82983721D01*
X75865409Y-83169802D01*
X75972050Y-83288566D01*
X76019773Y-83321907D01*
X76180838Y-83370353D01*
X76366521Y-83355909D01*
X76572229Y-83279056D01*
X76608102Y-83260233D01*
X76855225Y-83124748D01*
X77055641Y-83012934D01*
X77224384Y-82915944D01*
X77376488Y-82824931D01*
X77526987Y-82731046D01*
X77690914Y-82625444D01*
X77729185Y-82600471D01*
X78048752Y-82371931D01*
X78304919Y-82145943D01*
X78495435Y-81924649D01*
X78579869Y-81790241D01*
X78614993Y-81715036D01*
X78637576Y-81635540D01*
X78650175Y-81534026D01*
X78655345Y-81392766D01*
X78655918Y-81262774D01*
X78654004Y-81087507D01*
X78646998Y-80962968D01*
X78631690Y-80870128D01*
X78604869Y-80789962D01*
X78563325Y-80703442D01*
X78560689Y-80698390D01*
X78497779Y-80596058D01*
X78434369Y-80521221D01*
X78397410Y-80495939D01*
X78301732Y-80487628D01*
X78166256Y-80504479D01*
X78005055Y-80541487D01*
X77832204Y-80593645D01*
X77661779Y-80655947D01*
X77507853Y-80723388D01*
X77384502Y-80790961D01*
X77305800Y-80853659D01*
X77284857Y-80891659D01*
X77241989Y-80972328D01*
X77159866Y-81020213D01*
X77074117Y-81020095D01*
X77011162Y-81028808D01*
X76900993Y-81075573D01*
X76752238Y-81156597D01*
X76720498Y-81175447D01*
X76514484Y-81291804D01*
X76349375Y-81366269D01*
X76213188Y-81402471D01*
X76093938Y-81404039D01*
X76018794Y-81387893D01*
X75910507Y-81337547D01*
X75864617Y-81273843D01*
X75884047Y-81203286D01*
X75919587Y-81167132D01*
X75991860Y-81121394D01*
X76042480Y-81105769D01*
X76091943Y-81084990D01*
X76175932Y-81030573D01*
X76274123Y-80955983D01*
X76402007Y-80855603D01*
X76538952Y-80753286D01*
X76624382Y-80692631D01*
X76713784Y-80628736D01*
X76773957Y-80580694D01*
X76790110Y-80562522D01*
X76774068Y-80520108D01*
X76728713Y-80424513D01*
X76677244Y-80321799D01*
X77113144Y-80321799D01*
X77120131Y-80335865D01*
X77153400Y-80371937D01*
X77159520Y-80346498D01*
X77151050Y-80319237D01*
X77125364Y-80281240D01*
X77113762Y-80282025D01*
X77113144Y-80321799D01*
X76677244Y-80321799D01*
X76658196Y-80283786D01*
X76566671Y-80105977D01*
X76458288Y-79899136D01*
X76337202Y-79671312D01*
X76207565Y-79430555D01*
X76179427Y-79378708D01*
X76052887Y-79142658D01*
X75914272Y-78878729D01*
X75890121Y-78831945D01*
X76515463Y-78831945D01*
X76519284Y-78842575D01*
X76538111Y-78888906D01*
X76578916Y-78988581D01*
X76637112Y-79130417D01*
X76708112Y-79303234D01*
X76782196Y-79483379D01*
X76861782Y-79677936D01*
X76933284Y-79854839D01*
X76991931Y-80002113D01*
X77032948Y-80107782D01*
X77050916Y-80157643D01*
X77072844Y-80219395D01*
X77084059Y-80224084D01*
X77084416Y-80169392D01*
X77074189Y-80057607D01*
X77663017Y-80057607D01*
X77663454Y-80101688D01*
X77686583Y-80120512D01*
X77744963Y-80118179D01*
X77851155Y-80098788D01*
X77958928Y-80077596D01*
X78063599Y-80057404D01*
X78055638Y-79655003D01*
X78051155Y-79479190D01*
X78047649Y-79422721D01*
X78134280Y-79422721D01*
X78161212Y-79487163D01*
X78163737Y-79492101D01*
X78198524Y-79573236D01*
X78243043Y-79695731D01*
X78287959Y-79833825D01*
X78290147Y-79841002D01*
X78337516Y-79976770D01*
X78381272Y-80064553D01*
X78414803Y-80093956D01*
X78446649Y-80070137D01*
X78440555Y-80032898D01*
X78405203Y-79944767D01*
X78354279Y-79829282D01*
X78295424Y-79702357D01*
X78236284Y-79579907D01*
X78184500Y-79477846D01*
X78147717Y-79412088D01*
X78134737Y-79396153D01*
X78134280Y-79422721D01*
X78047649Y-79422721D01*
X78043451Y-79355109D01*
X78028815Y-79264713D01*
X78003540Y-79189953D01*
X77963915Y-79112783D01*
X77933523Y-79060860D01*
X77819368Y-78869120D01*
X77792258Y-79193694D01*
X77775758Y-79359213D01*
X77755343Y-79518269D01*
X77734604Y-79644000D01*
X77727906Y-79675274D01*
X77699372Y-79813965D01*
X77676108Y-79957520D01*
X77672713Y-79984170D01*
X77663017Y-80057607D01*
X77074189Y-80057607D01*
X77073767Y-80052999D01*
X77051965Y-79872586D01*
X77018865Y-79625835D01*
X77015899Y-79604416D01*
X76987762Y-79392302D01*
X76963489Y-79191558D01*
X76944775Y-79017646D01*
X76933314Y-78886027D01*
X76930503Y-78825575D01*
X76929670Y-78656232D01*
X76806341Y-78764517D01*
X76725348Y-78833982D01*
X76675000Y-78864618D01*
X76632998Y-78863054D01*
X76577047Y-78835921D01*
X76573185Y-78833853D01*
X76521508Y-78812080D01*
X76515463Y-78831945D01*
X75890121Y-78831945D01*
X75776453Y-78611759D01*
X75652297Y-78366586D01*
X75591922Y-78244780D01*
X75429702Y-77928143D01*
X75279333Y-77667373D01*
X75132993Y-77451387D01*
X74982861Y-77269102D01*
X74821115Y-77109435D01*
X74744131Y-77043390D01*
X74707790Y-77014312D01*
X75609685Y-77014312D01*
X75621192Y-77089688D01*
X75670288Y-77183673D01*
X75756160Y-77314801D01*
X75780848Y-77351894D01*
X76111814Y-77912402D01*
X76355681Y-78432867D01*
X76408528Y-78553854D01*
X76444577Y-78617984D01*
X76470539Y-78634101D01*
X76492144Y-78612708D01*
X76526648Y-78563485D01*
X76595195Y-78471969D01*
X76688402Y-78350487D01*
X76796889Y-78211369D01*
X76816277Y-78186724D01*
X76922436Y-78050711D01*
X77010940Y-77934936D01*
X77073794Y-77850040D01*
X77103002Y-77806662D01*
X77104121Y-77803687D01*
X77085596Y-77769759D01*
X77035042Y-77689954D01*
X76959990Y-77575877D01*
X76867969Y-77439135D01*
X76859523Y-77426716D01*
X76674387Y-77170127D01*
X76509697Y-76975574D01*
X76361855Y-76839588D01*
X76227261Y-76758697D01*
X76140294Y-76733201D01*
X76023332Y-76697075D01*
X75965654Y-76636451D01*
X75943947Y-76598198D01*
X75918086Y-76595713D01*
X75874763Y-76635615D01*
X75808837Y-76714480D01*
X75702694Y-76845243D01*
X75636581Y-76939008D01*
X75609685Y-77014312D01*
X74707790Y-77014312D01*
X74608039Y-76934497D01*
X74519256Y-76872134D01*
X74474498Y-76854766D01*
X74470482Y-76880862D01*
X74490626Y-76925055D01*
X74514208Y-77015494D01*
X74521639Y-77152364D01*
X74514630Y-77314639D01*
X74494889Y-77481294D01*
X74464125Y-77631304D01*
X74424092Y-77743558D01*
X74265658Y-77981104D01*
X74059464Y-78169206D01*
X73808640Y-78306160D01*
X73516319Y-78390264D01*
X73185632Y-78419816D01*
X73180375Y-78419835D01*
X73026264Y-78424158D01*
X72838250Y-78435075D01*
X72651660Y-78450437D01*
X72612282Y-78454413D01*
X72371243Y-78470936D01*
X72177413Y-78460600D01*
X72011988Y-78419168D01*
X71856166Y-78342405D01*
X71729605Y-78255587D01*
X71599658Y-78147001D01*
X71457475Y-78011478D01*
X71333027Y-77877648D01*
X71328913Y-77872818D01*
X71216617Y-77726727D01*
X71153482Y-77600072D01*
X71133663Y-77469355D01*
X71151310Y-77311080D01*
X71168789Y-77229437D01*
X71198001Y-77103793D01*
X71019673Y-77171701D01*
X70884810Y-77213452D01*
X70767034Y-77221974D01*
X70669618Y-77210120D01*
X70547291Y-77179680D01*
X70491992Y-77142800D01*
X70504652Y-77101019D01*
X70578355Y-77059061D01*
X70650734Y-77022259D01*
X70684088Y-76991846D01*
X70684340Y-76990002D01*
X70653144Y-76970036D01*
X70569240Y-76936812D01*
X70447152Y-76895747D01*
X70361607Y-76869598D01*
X70199508Y-76820744D01*
X70043075Y-76771867D01*
X69917840Y-76731004D01*
X69881868Y-76718585D01*
X69719118Y-76630947D01*
X69547681Y-76484581D01*
X69375813Y-76288453D01*
X69211771Y-76051526D01*
X69118486Y-75889697D01*
X69027262Y-75724366D01*
X68931762Y-75559200D01*
X68845670Y-75417518D01*
X68801126Y-75348901D01*
X68662575Y-75129829D01*
X68555729Y-74921099D01*
X68463209Y-74687583D01*
X68438556Y-74616102D01*
X68393513Y-74468548D01*
X68374734Y-74363284D01*
X68379232Y-74279247D01*
X68386398Y-74248584D01*
X68396872Y-74193173D01*
X68393525Y-74133987D01*
X68372223Y-74057692D01*
X68328834Y-73950951D01*
X68259224Y-73800431D01*
X68225862Y-73730698D01*
X68077761Y-73408377D01*
X67965707Y-73129061D01*
X67885496Y-72878758D01*
X67832923Y-72643472D01*
X67803785Y-72409208D01*
X67797379Y-72304517D01*
X67791515Y-72127297D01*
X67793385Y-72004594D01*
X67804294Y-71921442D01*
X67825549Y-71862873D01*
X67837733Y-71842223D01*
X67893218Y-71779667D01*
X67941999Y-71755219D01*
X68001768Y-71773876D01*
X68045689Y-71835002D01*
X68076436Y-71946327D01*
X68096681Y-72115585D01*
X68103616Y-72222737D01*
X68114095Y-72385695D01*
X68129656Y-72509249D01*
X68156665Y-72617627D01*
X68201489Y-72735053D01*
X68270495Y-72885755D01*
X68286960Y-72920348D01*
X68354220Y-73070408D01*
X68407114Y-73205924D01*
X68439342Y-73309635D01*
X68446143Y-73356474D01*
X68463053Y-73435776D01*
X68516628Y-73561026D01*
X68601373Y-73722572D01*
X68711794Y-73910758D01*
X68842395Y-74115929D01*
X68987682Y-74328431D01*
X69043977Y-74406868D01*
X69188328Y-74605252D01*
X69296362Y-74754453D01*
X69372584Y-74861880D01*
X69421502Y-74934941D01*
X69447623Y-74981045D01*
X69455455Y-75007600D01*
X69449505Y-75022014D01*
X69434279Y-75031697D01*
X69426656Y-75035873D01*
X69341009Y-75086570D01*
X69291541Y-75128951D01*
X69278500Y-75177132D01*
X69302131Y-75245229D01*
X69362683Y-75347359D01*
X69434026Y-75457158D01*
X69572776Y-75662864D01*
X69697118Y-75826895D01*
X69820560Y-75961004D01*
X69956611Y-76076946D01*
X70118782Y-76186472D01*
X70320581Y-76301338D01*
X70528729Y-76409600D01*
X70755109Y-76527246D01*
X70924565Y-76621746D01*
X71044265Y-76697554D01*
X71121375Y-76759124D01*
X71156252Y-76799660D01*
X71227671Y-76907149D01*
X71317995Y-76839713D01*
X71393917Y-76795905D01*
X71456778Y-76799858D01*
X71481656Y-76811526D01*
X71557347Y-76867282D01*
X71597730Y-76943195D01*
X71606504Y-77054081D01*
X71587368Y-77214755D01*
X71585327Y-77226806D01*
X71543852Y-77468665D01*
X71666287Y-77611702D01*
X71780447Y-77730803D01*
X71911640Y-77845989D01*
X72041077Y-77942400D01*
X72149970Y-78005173D01*
X72176861Y-78015557D01*
X72241434Y-78021826D01*
X72362591Y-78020885D01*
X72527606Y-78013590D01*
X72723749Y-78000794D01*
X72938293Y-77983355D01*
X73158511Y-77962126D01*
X73371674Y-77937962D01*
X73417160Y-77932234D01*
X73657247Y-77876456D01*
X73844056Y-77778720D01*
X73975743Y-77640808D01*
X74050467Y-77464503D01*
X74068025Y-77302747D01*
X74044477Y-77068589D01*
X73974989Y-76886487D01*
X73883419Y-76775921D01*
X73823757Y-76707068D01*
X73818379Y-76695998D01*
X74202047Y-76695998D01*
X74203366Y-76721864D01*
X74261600Y-76755372D01*
X74281535Y-76763066D01*
X74361678Y-76792301D01*
X74406450Y-76809109D01*
X74408860Y-76810123D01*
X74417582Y-76800853D01*
X74389034Y-76766063D01*
X74323556Y-76727108D01*
X74251393Y-76698705D01*
X74202795Y-76695567D01*
X74202047Y-76695998D01*
X73818379Y-76695998D01*
X73774851Y-76606396D01*
X73729014Y-76457055D01*
X73717849Y-76413049D01*
X73677343Y-76269917D01*
X73632429Y-76143538D01*
X73591616Y-76057287D01*
X73584542Y-76046703D01*
X73557436Y-76013069D01*
X73526174Y-75989338D01*
X73478989Y-75973681D01*
X73404118Y-75964270D01*
X73289795Y-75959275D01*
X73124255Y-75956869D01*
X73000650Y-75955941D01*
X72740798Y-75950711D01*
X72539443Y-75938379D01*
X72385571Y-75918008D01*
X72289285Y-75895298D01*
X72155527Y-75862482D01*
X72025470Y-75841631D01*
X71966854Y-75837776D01*
X71852597Y-75818592D01*
X71731841Y-75755268D01*
X71676338Y-75715247D01*
X71583557Y-75648818D01*
X71510591Y-75604466D01*
X71480842Y-75593132D01*
X71431957Y-75573575D01*
X71343946Y-75522211D01*
X71232823Y-75449996D01*
X71114602Y-75367889D01*
X71005296Y-75286848D01*
X70920919Y-75217830D01*
X70892253Y-75190375D01*
X70849535Y-75129281D01*
X70863005Y-75104573D01*
X70926462Y-75121384D01*
X70957032Y-75136763D01*
X70956264Y-75125481D01*
X70913561Y-75072356D01*
X70835860Y-74985351D01*
X70730099Y-74872428D01*
X70693063Y-74833781D01*
X70548648Y-74679634D01*
X70450683Y-74564210D01*
X70393422Y-74479918D01*
X70371119Y-74419167D01*
X70370329Y-74407430D01*
X70382248Y-74325894D01*
X70403897Y-74282586D01*
X70403897Y-74235470D01*
X70368393Y-74133617D01*
X70299051Y-73981344D01*
X70249877Y-73883094D01*
X70083220Y-73541468D01*
X69950607Y-73229094D01*
X69842322Y-72920872D01*
X69748646Y-72591704D01*
X69746158Y-72582015D01*
X69666422Y-72250047D01*
X69613423Y-71980446D01*
X69586893Y-71771234D01*
X69586561Y-71620436D01*
X69604202Y-71542365D01*
X69633026Y-71484754D01*
X69661688Y-71459366D01*
X69692963Y-71471331D01*
X69729623Y-71525779D01*
X69774444Y-71627840D01*
X69830200Y-71782642D01*
X69899663Y-71995316D01*
X69968869Y-72216722D01*
X70019698Y-72375379D01*
X70065714Y-72508402D01*
X70101987Y-72602233D01*
X70123586Y-72643312D01*
X70124119Y-72643694D01*
X70172445Y-72644293D01*
X70257817Y-72624030D01*
X70287797Y-72614179D01*
X70374012Y-72578357D01*
X70411903Y-72534852D01*
X70420252Y-72456837D01*
X70419859Y-72425507D01*
X70403335Y-72318183D01*
X70352857Y-72197382D01*
X70268870Y-72056714D01*
X70180046Y-71897755D01*
X70139356Y-71774431D01*
X70143279Y-71691847D01*
X70188292Y-71655111D01*
X70270873Y-71669329D01*
X70387500Y-71739608D01*
X70451431Y-71792008D01*
X70632039Y-71982092D01*
X70748937Y-72182230D01*
X70808186Y-72403634D01*
X70814749Y-72464229D01*
X70821518Y-72589830D01*
X70813044Y-72671703D01*
X70783702Y-72735234D01*
X70743027Y-72788011D01*
X70612078Y-72897972D01*
X70420819Y-72991815D01*
X70327857Y-73024218D01*
X70292117Y-73042035D01*
X70287010Y-73076952D01*
X70311770Y-73149652D01*
X70322251Y-73175459D01*
X70459183Y-73479486D01*
X70626643Y-73804673D01*
X70808304Y-74120470D01*
X70927908Y-74308702D01*
X71028481Y-74462433D01*
X71093063Y-74569311D01*
X71126311Y-74639201D01*
X71132883Y-74681969D01*
X71117434Y-74707480D01*
X71116489Y-74708231D01*
X71105433Y-74730602D01*
X71121805Y-74766592D01*
X71171752Y-74822610D01*
X71261419Y-74905063D01*
X71396952Y-75020358D01*
X71488862Y-75096462D01*
X71912194Y-75445005D01*
X72330643Y-75469980D01*
X72548489Y-75478306D01*
X72792399Y-75480292D01*
X73025433Y-75475921D01*
X73142266Y-75470389D01*
X73349153Y-75460988D01*
X73494594Y-75462962D01*
X73586031Y-75476567D01*
X73611701Y-75486637D01*
X73650458Y-75504431D01*
X73662698Y-75495448D01*
X73646721Y-75448746D01*
X73600825Y-75353381D01*
X73586544Y-75324783D01*
X73502798Y-75134189D01*
X73460757Y-74982629D01*
X73461469Y-74875474D01*
X73489592Y-74828372D01*
X73537576Y-74751219D01*
X73563786Y-74633467D01*
X73564991Y-74501791D01*
X73542233Y-74393998D01*
X73519051Y-74307896D01*
X73523208Y-74227699D01*
X73556901Y-74120920D01*
X73561537Y-74108685D01*
X73660516Y-73927424D01*
X73814515Y-73764667D01*
X74029676Y-73614471D01*
X74129208Y-73559214D01*
X74343255Y-73461852D01*
X74524656Y-73410270D01*
X74667871Y-73405316D01*
X74767354Y-73447839D01*
X74779341Y-73459653D01*
X74828464Y-73538834D01*
X74823102Y-73614029D01*
X74759473Y-73691086D01*
X74633796Y-73775848D01*
X74543253Y-73824612D01*
X74310269Y-73959115D01*
X74126284Y-74097902D01*
X73997810Y-74235214D01*
X73931364Y-74365291D01*
X73931284Y-74365590D01*
X73910419Y-74468343D01*
X73890005Y-74608366D01*
X73876081Y-74738324D01*
X73863013Y-74874181D01*
X73849288Y-74992115D01*
X73838307Y-75064130D01*
X73840978Y-75118573D01*
X73876066Y-75184619D01*
X73951696Y-75274771D01*
X74023632Y-75349389D01*
X74118682Y-75448821D01*
X74192444Y-75532787D01*
X74232346Y-75586755D01*
X74235762Y-75594606D01*
X74224831Y-75655510D01*
X74183311Y-75729399D01*
X74130650Y-75787178D01*
X74096791Y-75802472D01*
X74042400Y-75781018D01*
X73988536Y-75741414D01*
X73956812Y-75718381D01*
X73965611Y-75744075D01*
X74009431Y-75812343D01*
X74065421Y-75896992D01*
X74102923Y-75956840D01*
X74109769Y-75969349D01*
X74144834Y-75996026D01*
X74225659Y-76041523D01*
X74330357Y-76093854D01*
X74566368Y-76220380D01*
X74815758Y-76378191D01*
X75047320Y-76546755D01*
X75157328Y-76637977D01*
X75319208Y-76780470D01*
X75393030Y-76676797D01*
X75453417Y-76579186D01*
X75512994Y-76465384D01*
X75952747Y-76465384D01*
X75965513Y-76494103D01*
X75976007Y-76488644D01*
X75980183Y-76447238D01*
X75976007Y-76442124D01*
X75955265Y-76446914D01*
X75952747Y-76465384D01*
X75512994Y-76465384D01*
X75516955Y-76457817D01*
X75536981Y-76414584D01*
X75600826Y-76301746D01*
X75662084Y-76256829D01*
X75670987Y-76256044D01*
X75746573Y-76230770D01*
X75778296Y-76203708D01*
X75851822Y-76156952D01*
X75934053Y-76159747D01*
X76004574Y-76201241D01*
X76042970Y-76270583D01*
X76036114Y-76340741D01*
X76034874Y-76372980D01*
X76072071Y-76389669D01*
X76161275Y-76395361D01*
X76199674Y-76395604D01*
X76370136Y-76412927D01*
X76528093Y-76469711D01*
X76687009Y-76573179D01*
X76860348Y-76730553D01*
X76900020Y-76771314D01*
X77009971Y-76896803D01*
X77149238Y-77072298D01*
X77311126Y-77288034D01*
X77488940Y-77534247D01*
X77675985Y-77801172D01*
X77865565Y-78079045D01*
X78050986Y-78358102D01*
X78225552Y-78628578D01*
X78382568Y-78880709D01*
X78515339Y-79104731D01*
X78582309Y-79224789D01*
X78655399Y-79370890D01*
X78741871Y-79560557D01*
X78831982Y-79771520D01*
X78915989Y-79981509D01*
X78933398Y-80027261D01*
X79002674Y-80210947D01*
X79066497Y-80379416D01*
X79119344Y-80518141D01*
X79155689Y-80612593D01*
X79165184Y-80636770D01*
X79207764Y-80743459D01*
X79291138Y-80660085D01*
X79355297Y-80607616D01*
X79422675Y-80591458D01*
X79521527Y-80602901D01*
X79722095Y-80625298D01*
X79908648Y-80613456D01*
X80103634Y-80563762D01*
X80328838Y-80472904D01*
X80552134Y-80362661D01*
X80775525Y-80236641D01*
X80986455Y-80103305D01*
X81172370Y-79971108D01*
X81320716Y-79848510D01*
X81418937Y-79743968D01*
X81426512Y-79733397D01*
X81541400Y-79524942D01*
X81588328Y-79331604D01*
X81567236Y-79152399D01*
X81478060Y-78986344D01*
X81372567Y-78875169D01*
X81214345Y-78757376D01*
X81059362Y-78690739D01*
X80899845Y-78676430D01*
X80728021Y-78715621D01*
X80536116Y-78809485D01*
X80316357Y-78959195D01*
X80197139Y-79052496D01*
X80061617Y-79162068D01*
X79928970Y-79269225D01*
X79819953Y-79357204D01*
X79782446Y-79387431D01*
X79644930Y-79473547D01*
X79524996Y-79499039D01*
X79428474Y-79463374D01*
X79391401Y-79423280D01*
X79344955Y-79334766D01*
X79352213Y-79260521D01*
X79416691Y-79178559D01*
X79433035Y-79162804D01*
X79491094Y-79099571D01*
X79496142Y-79065047D01*
X79479061Y-79054789D01*
X79390224Y-78993539D01*
X79297041Y-78869379D01*
X79197601Y-78679581D01*
X79164629Y-78605653D01*
X78950471Y-78114851D01*
X78756235Y-77681148D01*
X78577944Y-77296085D01*
X78411622Y-76951201D01*
X78253294Y-76638034D01*
X78134252Y-76413049D01*
X77935200Y-76046092D01*
X77764556Y-75735796D01*
X77618837Y-75476755D01*
X77494558Y-75263564D01*
X77388235Y-75090816D01*
X77296385Y-74953108D01*
X77215524Y-74845034D01*
X77142166Y-74761188D01*
X77072830Y-74696165D01*
X77004029Y-74644559D01*
X76987341Y-74633653D01*
X76891193Y-74595348D01*
X76757083Y-74572005D01*
X76599385Y-74562565D01*
X76432473Y-74565963D01*
X76270723Y-74581137D01*
X76128509Y-74607025D01*
X76020205Y-74642564D01*
X75960187Y-74686691D01*
X75952747Y-74710130D01*
X75929990Y-74761930D01*
X75870090Y-74845381D01*
X75785604Y-74943151D01*
X75778296Y-74950927D01*
X75692561Y-75048097D01*
X75630309Y-75131081D01*
X75604022Y-75183090D01*
X75603846Y-75185535D01*
X75579143Y-75248576D01*
X75551511Y-75279121D01*
X75495667Y-75304966D01*
X75446840Y-75279121D01*
X75401351Y-75200118D01*
X75398530Y-75090390D01*
X75436118Y-74972603D01*
X75484832Y-74898006D01*
X75538771Y-74823925D01*
X75545392Y-74792051D01*
X75507439Y-74808019D01*
X75459945Y-74846922D01*
X75380854Y-74890015D01*
X75284906Y-74912064D01*
X75221395Y-74924368D01*
X75161637Y-74956102D01*
X75098489Y-75015492D01*
X75024810Y-75110763D01*
X74933457Y-75250140D01*
X74817288Y-75441849D01*
X74800910Y-75469490D01*
X74711142Y-75624878D01*
X74655123Y-75732713D01*
X74628427Y-75803855D01*
X74626627Y-75849161D01*
X74637346Y-75870726D01*
X74662051Y-75906140D01*
X74638938Y-75892942D01*
X74622613Y-75880365D01*
X74576459Y-75858303D01*
X74535697Y-75885891D01*
X74507279Y-75925713D01*
X74449562Y-75988637D01*
X74385064Y-75995310D01*
X74372028Y-75991769D01*
X74308677Y-75970570D01*
X74286819Y-75961033D01*
X74290595Y-75923717D01*
X74316684Y-75836552D01*
X74359721Y-75713747D01*
X74414340Y-75569510D01*
X74475175Y-75418048D01*
X74536860Y-75273570D01*
X74589568Y-75159404D01*
X74673385Y-74997480D01*
X74775395Y-74816349D01*
X74887755Y-74628308D01*
X75002620Y-74445654D01*
X75112148Y-74280684D01*
X75208494Y-74145694D01*
X75283814Y-74052982D01*
X75313563Y-74024367D01*
X75424312Y-73962729D01*
X75515998Y-73967804D01*
X75581665Y-74026903D01*
X75633221Y-74100510D01*
X75836597Y-74029658D01*
X75931703Y-73993246D01*
X75983193Y-73966727D01*
X75980591Y-73956051D01*
X75922020Y-73924901D01*
X75843620Y-73834859D01*
X75744242Y-73684211D01*
X75622735Y-73471247D01*
X75505273Y-73247920D01*
X75423089Y-73089236D01*
X75347164Y-72946054D01*
X75285810Y-72833834D01*
X75247341Y-72768034D01*
X75246688Y-72767033D01*
X75211998Y-72703486D01*
X75156913Y-72590407D01*
X75088347Y-72442477D01*
X75013215Y-72274377D01*
X74994432Y-72231415D01*
X74876817Y-71969997D01*
X74760150Y-71726989D01*
X74650044Y-71513154D01*
X74552113Y-71339255D01*
X74471972Y-71216055D01*
X74450223Y-71188164D01*
X74426409Y-71161805D01*
X74409477Y-71154169D01*
X74398582Y-71173701D01*
X74392880Y-71228849D01*
X74391525Y-71328059D01*
X74393673Y-71479777D01*
X74398477Y-71692449D01*
X74398726Y-71702884D01*
X74410016Y-72008982D01*
X74428761Y-72261318D01*
X74456433Y-72475654D01*
X74484996Y-72625839D01*
X74524793Y-72816081D01*
X74547392Y-72950720D01*
X74553294Y-73041653D01*
X74543000Y-73100775D01*
X74517012Y-73139982D01*
X74507038Y-73148973D01*
X74433889Y-73175099D01*
X74361510Y-73133765D01*
X74291344Y-73027289D01*
X74224831Y-72857986D01*
X74163414Y-72628174D01*
X74152859Y-72579842D01*
X74059163Y-72041066D01*
X74008358Y-71517860D01*
X74000731Y-71020630D01*
X74036570Y-70559784D01*
X74088674Y-70259860D01*
X74106811Y-70177551D01*
X74013261Y-70251138D01*
X73882894Y-70312670D01*
X73720885Y-70328778D01*
X73546058Y-70302231D01*
X73377239Y-70235797D01*
X73238435Y-70137195D01*
X73163161Y-70053668D01*
X73133894Y-69977293D01*
X73133765Y-69909899D01*
X73159699Y-69812407D01*
X73206939Y-69752572D01*
X73254877Y-69737065D01*
X73303606Y-69762686D01*
X73364866Y-69829771D01*
X73428941Y-69899309D01*
X73489312Y-69931333D01*
X73575479Y-69937341D01*
X73633394Y-69934441D01*
X73739611Y-69923501D01*
X73801283Y-69897849D01*
X73843642Y-69842304D01*
X73867937Y-69793326D01*
X73940501Y-69690225D01*
X74029809Y-69637416D01*
X74120764Y-69641540D01*
X74159736Y-69664991D01*
X74208275Y-69690787D01*
X74244545Y-69657534D01*
X74252047Y-69644643D01*
X74304594Y-69572930D01*
X74372296Y-69501330D01*
X74455493Y-69424226D01*
X74323145Y-69404898D01*
X74220716Y-69392142D01*
X74079289Y-69377262D01*
X73929443Y-69363476D01*
X73929121Y-69363449D01*
X73680014Y-69335054D01*
X73416034Y-69292411D01*
X73158242Y-69239824D01*
X72927695Y-69181596D01*
X72745453Y-69122030D01*
X72742945Y-69121051D01*
X72608460Y-69069494D01*
X72525958Y-69043306D01*
X72482780Y-69041581D01*
X72466266Y-69063410D01*
X72463736Y-69101039D01*
X72431832Y-69181440D01*
X72347912Y-69256700D01*
X72229667Y-69318435D01*
X72094785Y-69358261D01*
X71960956Y-69367791D01*
X71913836Y-69361682D01*
X71851238Y-69356269D01*
X71794549Y-69375153D01*
X71726067Y-69428144D01*
X71638714Y-69514135D01*
X71513684Y-69627957D01*
X71405241Y-69691813D01*
X71335645Y-69711790D01*
X71193894Y-69710518D01*
X71083646Y-69655959D01*
X71017179Y-69554761D01*
X71011859Y-69536431D01*
X71008053Y-69473186D01*
X71037464Y-69407926D01*
X71109645Y-69321419D01*
X71128628Y-69301364D01*
X71226187Y-69191867D01*
X71335440Y-69058080D01*
X71411410Y-68957903D01*
X71479486Y-68872124D01*
X72101582Y-68872124D01*
X72116705Y-68911796D01*
X72170292Y-68905649D01*
X72206558Y-68862926D01*
X72204065Y-68834539D01*
X72185381Y-68762837D01*
X72183379Y-68743094D01*
X72168860Y-68739372D01*
X72135485Y-68786646D01*
X72134105Y-68789122D01*
X72101582Y-68872124D01*
X71479486Y-68872124D01*
X71492935Y-68855178D01*
X71568562Y-68776395D01*
X71621790Y-68738680D01*
X71687053Y-68696248D01*
X71731188Y-68612571D01*
X71755814Y-68480363D01*
X71762547Y-68292340D01*
X71757631Y-68126776D01*
X71752365Y-67920330D01*
X71761190Y-67773811D01*
X71786994Y-67678269D01*
X71832669Y-67624753D01*
X71901105Y-67604315D01*
X71926698Y-67603296D01*
X71996181Y-67621635D01*
X72047435Y-67687482D01*
X72064543Y-67724920D01*
X72123136Y-67908144D01*
X72171921Y-68150514D01*
X72201694Y-68373306D01*
X72215589Y-68483377D01*
X72233229Y-68539619D01*
X72265213Y-68557646D01*
X72322140Y-68553070D01*
X72323585Y-68552858D01*
X72407847Y-68555464D01*
X72530883Y-68576600D01*
X72662040Y-68610555D01*
X72902158Y-68681757D01*
X73107553Y-68736679D01*
X73293782Y-68777404D01*
X73476403Y-68806017D01*
X73670974Y-68824601D01*
X73893054Y-68835239D01*
X74158200Y-68840015D01*
X74382692Y-68840992D01*
X74701464Y-68839580D01*
X74965101Y-68833231D01*
X75188191Y-68819934D01*
X75385317Y-68797681D01*
X75571065Y-68764460D01*
X75760020Y-68718263D01*
X75966767Y-68657080D01*
X76150626Y-68597373D01*
X76615864Y-68417545D01*
X77019526Y-68207377D01*
X77363679Y-67965141D01*
X77650392Y-67689107D01*
X77881734Y-67377548D01*
X78059773Y-67028733D01*
X78076303Y-66987731D01*
X78146862Y-66808292D01*
X77721439Y-66818225D01*
X77497833Y-66819776D01*
X77320948Y-66811305D01*
X77168208Y-66790951D01*
X77036007Y-66761779D01*
X76882030Y-66727022D01*
X76773270Y-66715235D01*
X76689651Y-66724774D01*
X76666584Y-66731509D01*
X76499051Y-66752201D01*
X76324422Y-66714205D01*
X76152492Y-66626537D01*
X75993059Y-66498213D01*
X75855919Y-66338248D01*
X75750868Y-66155659D01*
X75687703Y-65959463D01*
X75673654Y-65817670D01*
X75687124Y-65700484D01*
X75721977Y-65609879D01*
X75769809Y-65560833D01*
X75815999Y-65563963D01*
X75836961Y-65547253D01*
X75847705Y-65480694D01*
X75848077Y-65462506D01*
X75880580Y-65278442D01*
X75975746Y-65078936D01*
X76130060Y-64870673D01*
X76148080Y-64850963D01*
X77075728Y-64850963D01*
X77112843Y-64923197D01*
X77179451Y-64987916D01*
X77264491Y-65027763D01*
X77383736Y-65046844D01*
X77552957Y-65049268D01*
X77592582Y-65048168D01*
X77748081Y-65040203D01*
X77855779Y-65024899D01*
X77937623Y-64997018D01*
X78015559Y-64951321D01*
X78024804Y-64945004D01*
X78176155Y-64812158D01*
X78266037Y-64667761D01*
X78291481Y-64518294D01*
X78268711Y-64412414D01*
X78205294Y-64340137D01*
X78080135Y-64282747D01*
X77900257Y-64243267D01*
X77864528Y-64238528D01*
X77682317Y-64237908D01*
X77517436Y-64277017D01*
X77386297Y-64349672D01*
X77305602Y-64449056D01*
X77250770Y-64538752D01*
X77174398Y-64631578D01*
X77165859Y-64640311D01*
X77086429Y-64749616D01*
X77075728Y-64850963D01*
X76148080Y-64850963D01*
X76198794Y-64795491D01*
X76409753Y-64575798D01*
X76138256Y-64462774D01*
X75825975Y-64354757D01*
X75470677Y-64269569D01*
X75096904Y-64212577D01*
X74923489Y-64197168D01*
X74553125Y-64200653D01*
X74147368Y-64257523D01*
X73714351Y-64366621D01*
X73697601Y-64371740D01*
X73537472Y-64416323D01*
X73373608Y-64454444D01*
X73239576Y-64478353D01*
X73231318Y-64479399D01*
X73090991Y-64505203D01*
X72953399Y-64544175D01*
X72899862Y-64564879D01*
X72772827Y-64630407D01*
X72612940Y-64725775D01*
X72436830Y-64839652D01*
X72261128Y-64960709D01*
X72102465Y-65077614D01*
X71977469Y-65179037D01*
X71922939Y-65230467D01*
X71826497Y-65323095D01*
X71698275Y-65434877D01*
X71563169Y-65544258D01*
X71539148Y-65562708D01*
X71360539Y-65710515D01*
X71179445Y-65881019D01*
X71016010Y-66054101D01*
X70890377Y-66209644D01*
X70887977Y-66213017D01*
X70836979Y-66266733D01*
X70795540Y-66261099D01*
X70789401Y-66255654D01*
X70776530Y-66218091D01*
X70792387Y-66148769D01*
X70840245Y-66036775D01*
X70878342Y-65959088D01*
X71050089Y-65649978D01*
X71235046Y-65385962D01*
X71450835Y-65142494D01*
X71499191Y-65094157D01*
X71727127Y-64870320D01*
X71570284Y-64695872D01*
X71448679Y-64534916D01*
X71326257Y-64328350D01*
X71214698Y-64099213D01*
X71125682Y-63870548D01*
X71088565Y-63745575D01*
X71026459Y-63411204D01*
X71009293Y-63083854D01*
X71016233Y-62998758D01*
X71313054Y-62998758D01*
X71327415Y-63328590D01*
X71388271Y-63661915D01*
X71491447Y-63981993D01*
X71632772Y-64272082D01*
X71803263Y-64510011D01*
X71881587Y-64595036D01*
X71942362Y-64653781D01*
X71969517Y-64672314D01*
X72007225Y-64655080D01*
X72090527Y-64608749D01*
X72205771Y-64541092D01*
X72297442Y-64485629D01*
X72470228Y-64387379D01*
X72664625Y-64288350D01*
X72846637Y-64205566D01*
X72899297Y-64184284D01*
X73196428Y-64069411D01*
X73196428Y-63783418D01*
X73171582Y-63458762D01*
X73100689Y-63141889D01*
X72989218Y-62843340D01*
X72842636Y-62573652D01*
X72666411Y-62343366D01*
X72466011Y-62163022D01*
X72306730Y-62068555D01*
X72135472Y-62004781D01*
X71987035Y-61992394D01*
X71837232Y-62031211D01*
X71764604Y-62064491D01*
X71624382Y-62169099D01*
X71499520Y-62326099D01*
X71401503Y-62518209D01*
X71349360Y-62689160D01*
X71313054Y-62998758D01*
X71016233Y-62998758D01*
X71034718Y-62772084D01*
X71100382Y-62484451D01*
X71203937Y-62229515D01*
X71343032Y-62015834D01*
X71515317Y-61851965D01*
X71627143Y-61784291D01*
X71768868Y-61714171D01*
X71685240Y-61616947D01*
X71601612Y-61519723D01*
X71378484Y-61690706D01*
X71009035Y-61969604D01*
X70683894Y-62205549D01*
X70396150Y-62402975D01*
X70138891Y-62566320D01*
X69905206Y-62700019D01*
X69688183Y-62808507D01*
X69530625Y-62876630D01*
X69256289Y-62987244D01*
X69442504Y-63028918D01*
X69684020Y-63117345D01*
X69911759Y-63267021D01*
X70118721Y-63469747D01*
X70297912Y-63717323D01*
X70442332Y-64001547D01*
X70544986Y-64314220D01*
X70547269Y-64323626D01*
X70590110Y-64613647D01*
X70590019Y-64926313D01*
X70549461Y-65238801D01*
X70470904Y-65528291D01*
X70398836Y-65696852D01*
X70284026Y-65869752D01*
X70130410Y-66029009D01*
X69958672Y-66155962D01*
X69813990Y-66224505D01*
X69563166Y-66273970D01*
X69317400Y-66258277D01*
X69081807Y-66182051D01*
X68861501Y-66049914D01*
X68661598Y-65866489D01*
X68487212Y-65636400D01*
X68343459Y-65364270D01*
X68235452Y-65054721D01*
X68171982Y-64740333D01*
X68155727Y-64439816D01*
X68508709Y-64439816D01*
X68522210Y-64705506D01*
X68572180Y-64968930D01*
X68657991Y-65220209D01*
X68779019Y-65449460D01*
X68934637Y-65646803D01*
X69124220Y-65802356D01*
X69162231Y-65825342D01*
X69365448Y-65910259D01*
X69558642Y-65926129D01*
X69741871Y-65872954D01*
X69789535Y-65846824D01*
X69952841Y-65708883D01*
X70081366Y-65520410D01*
X70173418Y-65292313D01*
X70227304Y-65035497D01*
X70241330Y-64760869D01*
X70213802Y-64479335D01*
X70143029Y-64201801D01*
X70072109Y-64026758D01*
X69968257Y-63847327D01*
X69836359Y-63677767D01*
X69693398Y-63537435D01*
X69566809Y-63450839D01*
X69377273Y-63376570D01*
X69208161Y-63362015D01*
X69045004Y-63406455D01*
X69010117Y-63423230D01*
X68831894Y-63552029D01*
X68693267Y-63727968D01*
X68593611Y-63941166D01*
X68532300Y-64181742D01*
X68508709Y-64439816D01*
X68155727Y-64439816D01*
X68155568Y-64436877D01*
X68185269Y-64132814D01*
X68257088Y-63843595D01*
X68367033Y-63584670D01*
X68511108Y-63371490D01*
X68531878Y-63348222D01*
X68585641Y-63286590D01*
X68602360Y-63259713D01*
X68590934Y-63264875D01*
X68542151Y-63290046D01*
X68440855Y-63335924D01*
X68299361Y-63397394D01*
X68129984Y-63469340D01*
X67945036Y-63546650D01*
X67756834Y-63624206D01*
X67577690Y-63696895D01*
X67419919Y-63759600D01*
X67295836Y-63807209D01*
X67224120Y-63832607D01*
X67095906Y-63873735D01*
X67094095Y-64349076D01*
X67090828Y-64538053D01*
X67083139Y-64693818D01*
X67071897Y-64804551D01*
X67057968Y-64858433D01*
X67056582Y-64860121D01*
X67040131Y-64909619D01*
X67027686Y-65009993D01*
X67021304Y-65142364D01*
X67020879Y-65187740D01*
X67023350Y-65338363D01*
X67033669Y-65439772D01*
X67056195Y-65512447D01*
X67095286Y-65576867D01*
X67107057Y-65592641D01*
X67202070Y-65740719D01*
X67279138Y-65915847D01*
X67339506Y-66124995D01*
X67384422Y-66375134D01*
X67415131Y-66673234D01*
X67432879Y-67026266D01*
X67438912Y-67441200D01*
X67438921Y-67448993D01*
X67438922Y-67642369D01*
X67437633Y-67804471D01*
X67433692Y-67945964D01*
X67425740Y-68077514D01*
X67412416Y-68209787D01*
X67392362Y-68353446D01*
X67364217Y-68519158D01*
X67326621Y-68717589D01*
X67278215Y-68959402D01*
X67217638Y-69255263D01*
X67193876Y-69370800D01*
X67146837Y-69530613D01*
X67067780Y-69726311D01*
X66966383Y-69937823D01*
X66852323Y-70145082D01*
X66735279Y-70328019D01*
X66725859Y-70341306D01*
X66475993Y-70645559D01*
X66207059Y-70883755D01*
X65914687Y-71058050D01*
X65594509Y-71170602D01*
X65242155Y-71223568D01*
X64936707Y-71224622D01*
X64638935Y-71208993D01*
X64264560Y-71208993D01*
X64264560Y-71033743D01*
X63984560Y-70832142D01*
X63723178Y-70623725D01*
X63516341Y-70410119D01*
X63349709Y-70174969D01*
X63254499Y-69999426D01*
X63120652Y-69726462D01*
X63025816Y-69850797D01*
X62964785Y-69941796D01*
X62888326Y-70071151D01*
X62810889Y-70214157D01*
X62794714Y-70245876D01*
X62729562Y-70380533D01*
X62696192Y-70465381D01*
X62691468Y-70511028D01*
X62711366Y-70527901D01*
X62742063Y-70541663D01*
X62757979Y-70574067D01*
X62758630Y-70636044D01*
X62743532Y-70738525D01*
X62712201Y-70892443D01*
X62690927Y-70989271D01*
X62657068Y-71157250D01*
X62637577Y-71304162D01*
X62630597Y-71456425D01*
X62190858Y-71456425D01*
X62205548Y-71202451D01*
X62260033Y-70801123D01*
X62355608Y-70449704D01*
X62495810Y-70139286D01*
X62684174Y-69860965D01*
X62784169Y-69745356D01*
X62881161Y-69651383D01*
X62960447Y-69604282D01*
X63037122Y-69592033D01*
X63114363Y-69584324D01*
X63144034Y-69548563D01*
X63148077Y-69494755D01*
X63173384Y-69366176D01*
X63238733Y-69223981D01*
X63328262Y-69096318D01*
X63417634Y-69016346D01*
X63518598Y-68921090D01*
X63563770Y-68830764D01*
X63602537Y-68754415D01*
X63678498Y-68646654D01*
X63778888Y-68524783D01*
X63835009Y-68463162D01*
X63963446Y-68313768D01*
X64093825Y-68140255D01*
X64202888Y-67974104D01*
X64226269Y-67933497D01*
X64305822Y-67791931D01*
X64383027Y-67658503D01*
X64444565Y-67556120D01*
X64458863Y-67533516D01*
X64497771Y-67458052D01*
X64552513Y-67331227D01*
X64617082Y-67167954D01*
X64685467Y-66983145D01*
X64718963Y-66888049D01*
X64889608Y-66441231D01*
X65074433Y-66043705D01*
X65270880Y-65699388D01*
X65476390Y-65412196D01*
X65688403Y-65186043D01*
X65904362Y-65024846D01*
X65954547Y-64997255D01*
X66132369Y-64927857D01*
X66318172Y-64891916D01*
X66490318Y-64891601D01*
X66627168Y-64929078D01*
X66628480Y-64929752D01*
X66737541Y-64986149D01*
X66759536Y-64820616D01*
X66777585Y-64714767D01*
X66808173Y-64565179D01*
X66846279Y-64395649D01*
X66870318Y-64295647D01*
X66905455Y-64147150D01*
X66931267Y-64025737D01*
X66944832Y-63946005D01*
X66945074Y-63922180D01*
X66906041Y-63919616D01*
X66817663Y-63926600D01*
X66705562Y-63940735D01*
X66361001Y-63970068D01*
X66041819Y-63956765D01*
X65755966Y-63902615D01*
X65511395Y-63809405D01*
X65316056Y-63678925D01*
X65250596Y-63613427D01*
X65133010Y-63438472D01*
X65085647Y-63277552D01*
X65485714Y-63277552D01*
X65516859Y-63346419D01*
X65600026Y-63421262D01*
X65719808Y-63490081D01*
X65800451Y-63522669D01*
X65972777Y-63562878D01*
X66189307Y-63584925D01*
X66426777Y-63588477D01*
X66661926Y-63573196D01*
X66871491Y-63538749D01*
X66874047Y-63538149D01*
X66998880Y-63501799D01*
X67174986Y-63440837D01*
X67390365Y-63360072D01*
X67633014Y-63264310D01*
X67890932Y-63158357D01*
X68152115Y-63047020D01*
X68404562Y-62935106D01*
X68568246Y-62859655D01*
X68733658Y-62779645D01*
X68841726Y-62721019D01*
X68899796Y-62678995D01*
X68915214Y-62648794D01*
X68909853Y-62637370D01*
X68879675Y-62623418D01*
X68822751Y-62632548D01*
X68728806Y-62668112D01*
X68587567Y-62733465D01*
X68531304Y-62760921D01*
X68302874Y-62871196D01*
X68120450Y-62952651D01*
X67968760Y-63009843D01*
X67832530Y-63047330D01*
X67696488Y-63069672D01*
X67545361Y-63081425D01*
X67444796Y-63085186D01*
X67287181Y-63093143D01*
X67157134Y-63106242D01*
X67070604Y-63122539D01*
X67045304Y-63133871D01*
X66979177Y-63165650D01*
X66896834Y-63168964D01*
X66834476Y-63143627D01*
X66827513Y-63134984D01*
X66780759Y-63114532D01*
X66746951Y-63121360D01*
X66690858Y-63132908D01*
X66581127Y-63146708D01*
X66433787Y-63160999D01*
X66270741Y-63173623D01*
X65977870Y-63195749D01*
X65753893Y-63217416D01*
X65597931Y-63238742D01*
X65509099Y-63259844D01*
X65485714Y-63277552D01*
X65085647Y-63277552D01*
X65080543Y-63260210D01*
X65093639Y-63086025D01*
X65172741Y-62923306D01*
X65206639Y-62880965D01*
X65279203Y-62811546D01*
X65366009Y-62758651D01*
X65477403Y-62719929D01*
X65623736Y-62693027D01*
X65815355Y-62675593D01*
X66062609Y-62665273D01*
X66166071Y-62662870D01*
X66357031Y-62659030D01*
X66523214Y-62655582D01*
X66652204Y-62652794D01*
X66731586Y-62650930D01*
X66750480Y-62650354D01*
X66768137Y-62617505D01*
X66772885Y-62567395D01*
X68908695Y-62567395D01*
X68915916Y-62598098D01*
X68936973Y-62628007D01*
X68970096Y-62654510D01*
X69019256Y-62656943D01*
X69104151Y-62634167D01*
X69160008Y-62615129D01*
X69301852Y-62562617D01*
X69448736Y-62504069D01*
X69501485Y-62481691D01*
X69660611Y-62402482D01*
X69860774Y-62287632D01*
X70088922Y-62145583D01*
X70332002Y-61984780D01*
X70576960Y-61813666D01*
X70810745Y-61640686D01*
X70858791Y-61603677D01*
X71024257Y-61476317D01*
X71185464Y-61354209D01*
X71327632Y-61248413D01*
X71435980Y-61169990D01*
X71468089Y-61147711D01*
X71602475Y-61046018D01*
X71746240Y-60919848D01*
X71885673Y-60783190D01*
X72007066Y-60650029D01*
X72096709Y-60534351D01*
X72134874Y-60467441D01*
X72169731Y-60355636D01*
X72183192Y-60250536D01*
X72174902Y-60171397D01*
X72144502Y-60137472D01*
X72141002Y-60137289D01*
X72030530Y-60158415D01*
X71937876Y-60226587D01*
X71855307Y-60339518D01*
X71762705Y-60472683D01*
X71662171Y-60588370D01*
X71566182Y-60674596D01*
X71487221Y-60719376D01*
X71456733Y-60722246D01*
X71399883Y-60744962D01*
X71326779Y-60827374D01*
X71298911Y-60868669D01*
X71141611Y-61072867D01*
X70926899Y-61287934D01*
X70664701Y-61506439D01*
X70364943Y-61720953D01*
X70037552Y-61924046D01*
X69692454Y-62108289D01*
X69556556Y-62172813D01*
X69388093Y-62255504D01*
X69228347Y-62347516D01*
X69054964Y-62462464D01*
X68908695Y-62567395D01*
X66772885Y-62567395D01*
X66776131Y-62533135D01*
X66775206Y-62414724D01*
X66766109Y-62279751D01*
X66749583Y-62145695D01*
X66726374Y-62030034D01*
X66723605Y-62019760D01*
X66652474Y-61739389D01*
X66584481Y-61426750D01*
X66524813Y-61108750D01*
X66478652Y-60812298D01*
X66458131Y-60641787D01*
X66447220Y-60527940D01*
X66824871Y-60527940D01*
X66842565Y-60726983D01*
X66878020Y-60977459D01*
X66922039Y-61240184D01*
X66995969Y-61663199D01*
X67348371Y-61509076D01*
X67529111Y-61427139D01*
X67720259Y-61335791D01*
X67892011Y-61249449D01*
X67962680Y-61211907D01*
X68093700Y-61135314D01*
X68260086Y-61030712D01*
X68441046Y-60911514D01*
X68615790Y-60791136D01*
X68625824Y-60784027D01*
X68884416Y-60600651D01*
X69095153Y-60451717D01*
X69266908Y-60331037D01*
X69408558Y-60232423D01*
X69528978Y-60149687D01*
X69637043Y-60076641D01*
X69713626Y-60025618D01*
X69857796Y-59918002D01*
X70027751Y-59772361D01*
X70205822Y-59605273D01*
X70374344Y-59433312D01*
X70515464Y-59273283D01*
X70617307Y-59182817D01*
X70699225Y-59159890D01*
X70790186Y-59159890D01*
X70700495Y-58982892D01*
X70625599Y-58859760D01*
X70540471Y-58780654D01*
X70464399Y-58739428D01*
X70293775Y-58691209D01*
X70074402Y-58674201D01*
X69818910Y-58686419D01*
X69539928Y-58725881D01*
X69250086Y-58790603D01*
X68962015Y-58878600D01*
X68688344Y-58987891D01*
X68593380Y-59033270D01*
X68501107Y-59083274D01*
X68364552Y-59161984D01*
X68195059Y-59262420D01*
X68003974Y-59377606D01*
X67802642Y-59500562D01*
X67602408Y-59624311D01*
X67414617Y-59741874D01*
X67250614Y-59846273D01*
X67121745Y-59930530D01*
X67039354Y-59987666D01*
X67029492Y-59995193D01*
X66946949Y-60069509D01*
X66885978Y-60151112D01*
X66845816Y-60248833D01*
X66825701Y-60371499D01*
X66824871Y-60527940D01*
X66447220Y-60527940D01*
X66441745Y-60470814D01*
X66434541Y-60350874D01*
X66437798Y-60263670D01*
X66452794Y-60190903D01*
X66480808Y-60114276D01*
X66497804Y-60074121D01*
X66549637Y-59973115D01*
X66620086Y-59874389D01*
X66715822Y-59772322D01*
X66843514Y-59661291D01*
X67009833Y-59535676D01*
X67221449Y-59389853D01*
X67485033Y-59218200D01*
X67599945Y-59145197D01*
X67890714Y-58963882D01*
X68136275Y-58817222D01*
X68348377Y-58699554D01*
X68538766Y-58605215D01*
X68719191Y-58528544D01*
X68901399Y-58463878D01*
X69097137Y-58405555D01*
X69181741Y-58382763D01*
X69391176Y-58331338D01*
X69566968Y-58298890D01*
X69740879Y-58281194D01*
X69944674Y-58274025D01*
X70003983Y-58273382D01*
X70185473Y-58273093D01*
X70315247Y-58277345D01*
G37*
%TO.C,SW1*%
D13*
X102935000Y-113015000D02*
X116905000Y-113015000D01*
X102935000Y-126985000D02*
X102935000Y-113015000D01*
X116905000Y-113015000D02*
X116905000Y-126985000D01*
X116905000Y-126985000D02*
X102935000Y-126985000D01*
%TO.C,J1*%
X105284000Y-67968000D02*
X105284000Y-95146000D01*
X105284000Y-67968000D02*
X132716000Y-67968000D01*
X113860000Y-92419000D02*
X113860000Y-95079000D01*
X121540000Y-92419000D02*
X113860000Y-92419000D01*
X121540000Y-92419000D02*
X121540000Y-95079000D01*
X121540000Y-95079000D02*
X113860000Y-95079000D01*
X122810000Y-92419000D02*
X124140000Y-92419000D01*
X124140000Y-92419000D02*
X124140000Y-93749000D01*
X132716000Y-67968000D02*
X132589000Y-95146000D01*
X132716000Y-73048000D02*
X105284000Y-73048000D01*
X132716000Y-89939000D02*
X105284000Y-89939000D01*
X132716000Y-95146000D02*
X105284000Y-95146000D01*
%TO.C,SW2*%
X125475000Y-113015000D02*
X139445000Y-113015000D01*
X125475000Y-126985000D02*
X125475000Y-113015000D01*
X139445000Y-113015000D02*
X139445000Y-126985000D01*
X139445000Y-126985000D02*
X125475000Y-126985000D01*
%TO.C,BZ1*%
X184900000Y-75000000D02*
G75*
G02*
X172700000Y-75000000I-6100000J0D01*
G01*
X172700000Y-75000000D02*
G75*
G02*
X184900000Y-75000000I6100000J0D01*
G01*
%TO.C,U1*%
D15*
X146110000Y-69509000D02*
X146110000Y-52364000D01*
X148015000Y-71414000D02*
X161985000Y-71414000D01*
X150505000Y-50459000D02*
X150508728Y-49448728D01*
X151008728Y-48949000D02*
X159004000Y-48949000D01*
X159504000Y-49449000D02*
X159504000Y-50459000D01*
D10*
X161985000Y-50459000D02*
X148015000Y-50459000D01*
D15*
X161985000Y-50459000D02*
X148015000Y-50459000D01*
X163890000Y-69509000D02*
X163890000Y-52364000D01*
X146110000Y-52364000D02*
G75*
G02*
X148015000Y-50459000I1905000J0D01*
G01*
X148015000Y-71414000D02*
G75*
G02*
X146110000Y-69509000I1J1905001D01*
G01*
X150508728Y-49448728D02*
G75*
G02*
X151008728Y-48949028I499972J-272D01*
G01*
X159004000Y-48949000D02*
G75*
G02*
X159504000Y-49449000I0J-500000D01*
G01*
X161985000Y-50459000D02*
G75*
G02*
X163890000Y-52364000I0J-1905000D01*
G01*
X163890000Y-69509000D02*
G75*
G02*
X161985000Y-71414000I-1905001J1D01*
G01*
D16*
X146302000Y-50700000D02*
G75*
G02*
X145798000Y-50700000I-252000J0D01*
G01*
X145798000Y-50700000D02*
G75*
G02*
X146302000Y-50700000I252000J0D01*
G01*
X147445000Y-51580000D02*
G75*
G02*
X146941000Y-51580000I-252000J0D01*
G01*
X146941000Y-51580000D02*
G75*
G02*
X147445000Y-51580000I252000J0D01*
G01*
%TD*%
M02*
