%TF.GenerationSoftware,KiCad,Pcbnew,10.0.3*%
%TF.CreationDate,2026-10-07T15:39:29-04:00*%
%TF.ProjectId,Starbie,53746172-6269-4652-9e6b-696361645f70,rev?*%
%TF.SameCoordinates,Original*%
%TF.FileFunction,Copper,L2,Bot*%
%TF.FilePolarity,Positive*%
%FSLAX46Y46*%
G04 Gerber Fmt 4.6, Leading zero omitted, Abs format (unit mm)*
G04 Created by KiCad (PCBNEW 10.0.3) date 2026-10-07 15:39:29*
%MOMM*%
%LPD*%
G01*
G04 APERTURE LIST*
%TA.AperFunction,ComponentPad*%
%ADD10O,1.700000X1.700000*%
%TD*%
%TA.AperFunction,ComponentPad*%
%ADD11R,1.700000X1.700000*%
%TD*%
%TA.AperFunction,ComponentPad*%
%ADD12C,1.524000*%
%TD*%
%TA.AperFunction,ComponentPad*%
%ADD13R,2.000000X2.000000*%
%TD*%
%TA.AperFunction,ComponentPad*%
%ADD14C,2.000000*%
%TD*%
%TA.AperFunction,ComponentPad*%
%ADD15C,1.400000*%
%TD*%
%TA.AperFunction,ComponentPad*%
%ADD16C,2.200000*%
%TD*%
%TA.AperFunction,ComponentPad*%
%ADD17C,1.700000*%
%TD*%
%TA.AperFunction,ComponentPad*%
%ADD18R,1.500000X1.500000*%
%TD*%
%TA.AperFunction,ComponentPad*%
%ADD19C,1.500000*%
%TD*%
%TA.AperFunction,Conductor*%
%ADD20C,0.200000*%
%TD*%
G04 APERTURE END LIST*
D10*
%TO.P,J1,4,Pin_4_4*%
%TO.N,/SDA*%
X115190000Y-93749000D03*
%TO.P,J1,3,Pin_3_3*%
%TO.N,/SCL*%
X117730000Y-93749000D03*
%TO.P,J1,2,Pin_2_2*%
%TO.N,+3.3V*%
X120270000Y-93749000D03*
D11*
%TO.P,J1,1,Pin_1_1*%
%TO.N,GND*%
X122810000Y-93749000D03*
%TD*%
D12*
%TO.P,U1,1,D0_1*%
%TO.N,unconnected-(U1-D0-Pad1)_1*%
X147380000Y-53380000D03*
%TO.P,U1,2,D1_2*%
%TO.N,/DHT11 DATA*%
X147380000Y-55920000D03*
%TO.P,U1,3,D2_3*%
%TO.N,/GPIO 2*%
X147380000Y-58460000D03*
%TO.P,U1,4,D3_4*%
%TO.N,/GPIO 3*%
X147380000Y-61000000D03*
%TO.P,U1,5,D4_5*%
%TO.N,/SCL*%
X147380000Y-63540000D03*
%TO.P,U1,6,D5_6*%
%TO.N,/SDA*%
X147380000Y-66080000D03*
%TO.P,U1,7,D6_7*%
%TO.N,unconnected-(U1-D6-Pad7)_1*%
X147380000Y-68620000D03*
%TO.P,U1,8,D7_8*%
%TO.N,/GPIO 20*%
X162620000Y-68620000D03*
%TO.P,U1,9,D8_9*%
%TO.N,unconnected-(U1-D8-Pad9)*%
X162620000Y-66080000D03*
%TO.P,U1,10,D9/BOOT_10*%
%TO.N,unconnected-(U1-D9{slash}BOOT-Pad10)_1*%
X162620000Y-63540000D03*
%TO.P,U1,11,D10_11*%
%TO.N,unconnected-(U1-D10-Pad11)*%
X162620000Y-61000000D03*
%TO.P,U1,12,3V3_OUT_12*%
%TO.N,+3.3V*%
X162620000Y-58460000D03*
%TO.P,U1,13,GND_13*%
%TO.N,GND*%
X162620000Y-55920000D03*
%TO.P,U1,14,VBUS_14*%
%TO.N,+5V*%
X162620000Y-53380000D03*
%TD*%
D13*
%TO.P,BZ1,1,+_1*%
%TO.N,/GPIO 20*%
X175000000Y-75000000D03*
D14*
%TO.P,BZ1,2,-_2*%
%TO.N,Net-(BZ1--)*%
X182600000Y-75000000D03*
%TD*%
D15*
%TO.P,R2,1*%
%TO.N,GND*%
X170975000Y-99625000D03*
%TO.P,R2,2*%
%TO.N,Net-(BZ1--)*%
X178595000Y-99625000D03*
%TD*%
D16*
%TO.P,SW2,1,1_1*%
%TO.N,/GPIO 3*%
X135000000Y-114920000D03*
%TO.P,SW2,2,2_2*%
%TO.N,GND*%
X128650000Y-117460000D03*
%TD*%
%TO.P,SW1,1,1_1*%
%TO.N,/GPIO 2*%
X112460000Y-114920000D03*
%TO.P,SW1,2,2_2*%
%TO.N,GND*%
X106110000Y-117460000D03*
%TD*%
D17*
%TO.P,J2,8,Pin_8_8*%
%TO.N,unconnected-(J2-Pin_8-Pad8)*%
X145000000Y-100240000D03*
%TO.P,J2,7,Pin_7_7*%
%TO.N,unconnected-(J2-Pin_7-Pad7)*%
X145000000Y-97700000D03*
%TO.P,J2,6,Pin_6_6*%
%TO.N,unconnected-(J2-Pin_6-Pad6)*%
X145000000Y-95160000D03*
%TO.P,J2,5,Pin_5_5*%
%TO.N,unconnected-(J2-Pin_5-Pad5)*%
X145000000Y-92620000D03*
%TO.P,J2,4,Pin_4_4*%
%TO.N,/SDA*%
X145000000Y-90080000D03*
%TO.P,J2,3,Pin_3_3*%
%TO.N,/SCL*%
X145000000Y-87540000D03*
%TO.P,J2,2,Pin_2_2*%
%TO.N,GND*%
X145000000Y-85000000D03*
D11*
%TO.P,J2,1,Pin_1_1*%
%TO.N,+3.3V*%
X145000000Y-82460000D03*
%TD*%
D15*
%TO.P,R1,2*%
%TO.N,/DHT11 DATA*%
X121190000Y-58000000D03*
%TO.P,R1,1*%
%TO.N,+3.3V*%
X128810000Y-58000000D03*
%TD*%
D18*
%TO.P,U2,1,VDD_1*%
%TO.N,+3.3V*%
X127040000Y-63000000D03*
D19*
%TO.P,U2,2,DATA_2*%
%TO.N,/DHT11 DATA*%
X124500000Y-63000000D03*
%TO.P,U2,3,NC_3*%
%TO.N,unconnected-(U2-NC-Pad3)*%
X121960000Y-63000000D03*
%TO.P,U2,4,GND_4*%
%TO.N,GND*%
X119420000Y-63000000D03*
%TD*%
%TO.N,+3.3V*%
D20*
X145000000Y-82460000D02*
X152540000Y-82460000D01*
X152540000Y-82460000D02*
X155000000Y-80000000D01*
X155000000Y-80000000D02*
X155000000Y-55000000D01*
X155000000Y-55000000D02*
X159160000Y-55000000D01*
X159160000Y-55000000D02*
X162620000Y-58460000D01*
X127040000Y-63000000D02*
X127040000Y-83230000D01*
X137540000Y-82460000D02*
X145000000Y-82460000D01*
X120270000Y-93749000D02*
X120270000Y-90000000D01*
X120270000Y-90000000D02*
X127040000Y-83230000D01*
X135000000Y-95000000D02*
X135000000Y-85000000D01*
X120270000Y-93749000D02*
X126521000Y-100000000D01*
X126521000Y-100000000D02*
X130000000Y-100000000D01*
X130000000Y-100000000D02*
X135000000Y-95000000D01*
X135000000Y-85000000D02*
X137540000Y-82460000D01*
%TO.N,/SCL*%
X142460000Y-87540000D02*
X145000000Y-87540000D01*
X130000000Y-105000000D02*
X140000000Y-95000000D01*
X140000000Y-95000000D02*
X140000000Y-90000000D01*
X128981000Y-105000000D02*
X130000000Y-105000000D01*
X140000000Y-90000000D02*
X142460000Y-87540000D01*
X117730000Y-93749000D02*
X128981000Y-105000000D01*
%TO.N,/SDA*%
X125000000Y-103559000D02*
X115190000Y-93749000D01*
X140910000Y-99090000D02*
X130000000Y-110000000D01*
X140910000Y-94170000D02*
X140910000Y-99090000D01*
X145000000Y-90080000D02*
X140910000Y-94170000D01*
X130000000Y-110000000D02*
X125000000Y-105000000D01*
X125000000Y-105000000D02*
X125000000Y-103559000D01*
%TD*%
%TA.AperFunction,Conductor*%
%TO.N,GND*%
G36*
X143592540Y-83080185D02*
G01*
X143638295Y-83132989D01*
X143649501Y-83184500D01*
X143649501Y-83357876D01*
X143655908Y-83417483D01*
X143706202Y-83552328D01*
X143706206Y-83552335D01*
X143792452Y-83667544D01*
X143792455Y-83667547D01*
X143907664Y-83753793D01*
X143907671Y-83753797D01*
X143952618Y-83770561D01*
X144042517Y-83804091D01*
X144102127Y-83810500D01*
X144112685Y-83810499D01*
X144179723Y-83830179D01*
X144200372Y-83846818D01*
X144870591Y-84517037D01*
X144807007Y-84534075D01*
X144692993Y-84599901D01*
X144599901Y-84692993D01*
X144534075Y-84807007D01*
X144517037Y-84870591D01*
X143884728Y-84238282D01*
X143884727Y-84238282D01*
X143845380Y-84292439D01*
X143748904Y-84481782D01*
X143683242Y-84683869D01*
X143683242Y-84683872D01*
X143650000Y-84893753D01*
X143650000Y-85106246D01*
X143683242Y-85316127D01*
X143683242Y-85316130D01*
X143748904Y-85518217D01*
X143845375Y-85707550D01*
X143884728Y-85761716D01*
X144517037Y-85129408D01*
X144534075Y-85192993D01*
X144599901Y-85307007D01*
X144692993Y-85400099D01*
X144807007Y-85465925D01*
X144870590Y-85482962D01*
X144238282Y-86115269D01*
X144238282Y-86115270D01*
X144292452Y-86154626D01*
X144292451Y-86154626D01*
X144301495Y-86159234D01*
X144352292Y-86207208D01*
X144369087Y-86275029D01*
X144346550Y-86341164D01*
X144301499Y-86380202D01*
X144292182Y-86384949D01*
X144120213Y-86509890D01*
X143969890Y-86660213D01*
X143844948Y-86832184D01*
X143844947Y-86832185D01*
X143824765Y-86871795D01*
X143776791Y-86922591D01*
X143714281Y-86939500D01*
X142380940Y-86939500D01*
X142340019Y-86950464D01*
X142340019Y-86950465D01*
X142302751Y-86960451D01*
X142228214Y-86980423D01*
X142228209Y-86980426D01*
X142091290Y-87059475D01*
X142091282Y-87059481D01*
X139519482Y-89631281D01*
X139519478Y-89631287D01*
X139473292Y-89711284D01*
X139440424Y-89768212D01*
X139440423Y-89768213D01*
X139419961Y-89844579D01*
X139399499Y-89920943D01*
X139399499Y-89920945D01*
X139399499Y-90089046D01*
X139399500Y-90089059D01*
X139399500Y-94699902D01*
X139379815Y-94766941D01*
X139363181Y-94787583D01*
X129787584Y-104363181D01*
X129726261Y-104396666D01*
X129699903Y-104399500D01*
X129281098Y-104399500D01*
X129214059Y-104379815D01*
X129193417Y-104363181D01*
X124670141Y-99839905D01*
X120141415Y-95311180D01*
X120107931Y-95249858D01*
X120112915Y-95180166D01*
X120154787Y-95124233D01*
X120220251Y-95099816D01*
X120229097Y-95099500D01*
X120376286Y-95099500D01*
X120376287Y-95099500D01*
X120586243Y-95066246D01*
X120628523Y-95052507D01*
X120698362Y-95050511D01*
X120754522Y-95082757D01*
X126036139Y-100364374D01*
X126036149Y-100364385D01*
X126040479Y-100368715D01*
X126040480Y-100368716D01*
X126152284Y-100480520D01*
X126239095Y-100530639D01*
X126239097Y-100530641D01*
X126277151Y-100552611D01*
X126289215Y-100559577D01*
X126441943Y-100600501D01*
X126441946Y-100600501D01*
X126607653Y-100600501D01*
X126607669Y-100600500D01*
X129913331Y-100600500D01*
X129913347Y-100600501D01*
X129920943Y-100600501D01*
X130079054Y-100600501D01*
X130079057Y-100600501D01*
X130231785Y-100559577D01*
X130281904Y-100530639D01*
X130368716Y-100480520D01*
X130480520Y-100368716D01*
X130480520Y-100368714D01*
X130490728Y-100358507D01*
X130490730Y-100358504D01*
X135358506Y-95490728D01*
X135358511Y-95490724D01*
X135368714Y-95480520D01*
X135368716Y-95480520D01*
X135480520Y-95368716D01*
X135544129Y-95258541D01*
X135559577Y-95231785D01*
X135600501Y-95079057D01*
X135600501Y-94920943D01*
X135600501Y-94913348D01*
X135600500Y-94913330D01*
X135600500Y-85300097D01*
X135620185Y-85233058D01*
X135636819Y-85212416D01*
X137752416Y-83096819D01*
X137813739Y-83063334D01*
X137840097Y-83060500D01*
X143525501Y-83060500D01*
X143592540Y-83080185D01*
G37*
%TD.AperFunction*%
%TA.AperFunction,Conductor*%
G36*
X184942848Y-50299765D02*
G01*
X184988700Y-50352484D01*
X185000000Y-50404203D01*
X185000000Y-99948638D01*
X184980315Y-100015677D01*
X184963681Y-100036319D01*
X155036319Y-129963681D01*
X154974996Y-129997166D01*
X154948638Y-130000000D01*
X110044894Y-130000000D01*
X109977855Y-129980315D01*
X109965511Y-129971259D01*
X100700599Y-122250499D01*
X97896067Y-119913389D01*
X103739500Y-119913389D01*
X103739500Y-120086611D01*
X103766598Y-120257701D01*
X103820127Y-120422445D01*
X103898768Y-120576788D01*
X104000586Y-120716928D01*
X104123072Y-120839414D01*
X104263212Y-120941232D01*
X104417555Y-121019873D01*
X104582299Y-121073402D01*
X104753389Y-121100500D01*
X104753390Y-121100500D01*
X104926610Y-121100500D01*
X104926611Y-121100500D01*
X105097701Y-121073402D01*
X105262445Y-121019873D01*
X105416788Y-120941232D01*
X105556928Y-120839414D01*
X105679414Y-120716928D01*
X105781232Y-120576788D01*
X105859873Y-120422445D01*
X105913402Y-120257701D01*
X105940500Y-120086611D01*
X105940500Y-119913389D01*
X105930854Y-119852486D01*
X107669500Y-119852486D01*
X107669500Y-120147513D01*
X107701571Y-120391113D01*
X107708007Y-120439993D01*
X107782212Y-120716930D01*
X107784361Y-120724951D01*
X107784364Y-120724961D01*
X107897254Y-120997500D01*
X107897258Y-120997510D01*
X108044761Y-121252993D01*
X108224352Y-121487040D01*
X108224358Y-121487047D01*
X108432952Y-121695641D01*
X108432959Y-121695647D01*
X108667006Y-121875238D01*
X108922489Y-122022741D01*
X108922490Y-122022741D01*
X108922493Y-122022743D01*
X109195048Y-122135639D01*
X109480007Y-122211993D01*
X109772494Y-122250500D01*
X109772501Y-122250500D01*
X110067499Y-122250500D01*
X110067506Y-122250500D01*
X110359993Y-122211993D01*
X110644952Y-122135639D01*
X110917507Y-122022743D01*
X111172994Y-121875238D01*
X111407042Y-121695646D01*
X111615646Y-121487042D01*
X111795238Y-121252994D01*
X111942743Y-120997507D01*
X112055639Y-120724952D01*
X112131993Y-120439993D01*
X112170500Y-120147506D01*
X112170500Y-119913389D01*
X113899500Y-119913389D01*
X113899500Y-120086611D01*
X113926598Y-120257701D01*
X113980127Y-120422445D01*
X114058768Y-120576788D01*
X114160586Y-120716928D01*
X114283072Y-120839414D01*
X114423212Y-120941232D01*
X114577555Y-121019873D01*
X114742299Y-121073402D01*
X114913389Y-121100500D01*
X114913390Y-121100500D01*
X115086610Y-121100500D01*
X115086611Y-121100500D01*
X115257701Y-121073402D01*
X115422445Y-121019873D01*
X115576788Y-120941232D01*
X115716928Y-120839414D01*
X115839414Y-120716928D01*
X115941232Y-120576788D01*
X116019873Y-120422445D01*
X116073402Y-120257701D01*
X116100500Y-120086611D01*
X116100500Y-119913389D01*
X126279500Y-119913389D01*
X126279500Y-120086611D01*
X126306598Y-120257701D01*
X126360127Y-120422445D01*
X126438768Y-120576788D01*
X126540586Y-120716928D01*
X126663072Y-120839414D01*
X126803212Y-120941232D01*
X126957555Y-121019873D01*
X127122299Y-121073402D01*
X127293389Y-121100500D01*
X127293390Y-121100500D01*
X127466610Y-121100500D01*
X127466611Y-121100500D01*
X127637701Y-121073402D01*
X127802445Y-121019873D01*
X127956788Y-120941232D01*
X128096928Y-120839414D01*
X128219414Y-120716928D01*
X128321232Y-120576788D01*
X128399873Y-120422445D01*
X128453402Y-120257701D01*
X128480500Y-120086611D01*
X128480500Y-119913389D01*
X128470854Y-119852486D01*
X130209500Y-119852486D01*
X130209500Y-120147513D01*
X130241571Y-120391113D01*
X130248007Y-120439993D01*
X130322212Y-120716930D01*
X130324361Y-120724951D01*
X130324364Y-120724961D01*
X130437254Y-120997500D01*
X130437258Y-120997510D01*
X130584761Y-121252993D01*
X130764352Y-121487040D01*
X130764358Y-121487047D01*
X130972952Y-121695641D01*
X130972959Y-121695647D01*
X131207006Y-121875238D01*
X131462489Y-122022741D01*
X131462490Y-122022741D01*
X131462493Y-122022743D01*
X131735048Y-122135639D01*
X132020007Y-122211993D01*
X132312494Y-122250500D01*
X132312501Y-122250500D01*
X132607499Y-122250500D01*
X132607506Y-122250500D01*
X132899993Y-122211993D01*
X133184952Y-122135639D01*
X133457507Y-122022743D01*
X133712994Y-121875238D01*
X133947042Y-121695646D01*
X134155646Y-121487042D01*
X134335238Y-121252994D01*
X134482743Y-120997507D01*
X134595639Y-120724952D01*
X134671993Y-120439993D01*
X134710500Y-120147506D01*
X134710500Y-119913389D01*
X136439500Y-119913389D01*
X136439500Y-120086611D01*
X136466598Y-120257701D01*
X136520127Y-120422445D01*
X136598768Y-120576788D01*
X136700586Y-120716928D01*
X136823072Y-120839414D01*
X136963212Y-120941232D01*
X137117555Y-121019873D01*
X137282299Y-121073402D01*
X137453389Y-121100500D01*
X137453390Y-121100500D01*
X137626610Y-121100500D01*
X137626611Y-121100500D01*
X137797701Y-121073402D01*
X137962445Y-121019873D01*
X138116788Y-120941232D01*
X138256928Y-120839414D01*
X138379414Y-120716928D01*
X138481232Y-120576788D01*
X138559873Y-120422445D01*
X138613402Y-120257701D01*
X138640500Y-120086611D01*
X138640500Y-119913389D01*
X138613402Y-119742299D01*
X138559873Y-119577555D01*
X138481232Y-119423212D01*
X138379414Y-119283072D01*
X138256928Y-119160586D01*
X138116788Y-119058768D01*
X137962445Y-118980127D01*
X137797701Y-118926598D01*
X137797699Y-118926597D01*
X137797698Y-118926597D01*
X137666271Y-118905781D01*
X137626611Y-118899500D01*
X137453389Y-118899500D01*
X137413728Y-118905781D01*
X137282302Y-118926597D01*
X137117552Y-118980128D01*
X136963211Y-119058768D01*
X136907115Y-119099525D01*
X136823072Y-119160586D01*
X136823070Y-119160588D01*
X136823069Y-119160588D01*
X136700588Y-119283069D01*
X136700588Y-119283070D01*
X136700586Y-119283072D01*
X136656859Y-119343256D01*
X136598768Y-119423211D01*
X136520128Y-119577552D01*
X136466597Y-119742302D01*
X136443804Y-119886212D01*
X136439500Y-119913389D01*
X134710500Y-119913389D01*
X134710500Y-119852494D01*
X134671993Y-119560007D01*
X134595639Y-119275048D01*
X134482743Y-119002493D01*
X134432604Y-118915650D01*
X134335238Y-118747006D01*
X134155647Y-118512959D01*
X134155641Y-118512952D01*
X133947047Y-118304358D01*
X133947040Y-118304352D01*
X133712993Y-118124761D01*
X133457510Y-117977258D01*
X133457500Y-117977254D01*
X133184961Y-117864364D01*
X133184954Y-117864362D01*
X133184952Y-117864361D01*
X132899993Y-117788007D01*
X132851113Y-117781571D01*
X132607513Y-117749500D01*
X132607506Y-117749500D01*
X132312494Y-117749500D01*
X132312486Y-117749500D01*
X132034085Y-117786153D01*
X132020007Y-117788007D01*
X131845861Y-117834669D01*
X131735048Y-117864361D01*
X131735038Y-117864364D01*
X131462499Y-117977254D01*
X131462489Y-117977258D01*
X131207006Y-118124761D01*
X130972959Y-118304352D01*
X130972952Y-118304358D01*
X130764358Y-118512952D01*
X130764352Y-118512959D01*
X130584761Y-118747006D01*
X130437258Y-119002489D01*
X130437254Y-119002499D01*
X130324364Y-119275038D01*
X130324361Y-119275048D01*
X130248008Y-119560004D01*
X130248006Y-119560015D01*
X130209500Y-119852486D01*
X128470854Y-119852486D01*
X128453402Y-119742299D01*
X128399873Y-119577555D01*
X128321232Y-119423212D01*
X128219414Y-119283072D01*
X128166882Y-119230540D01*
X128133397Y-119169217D01*
X128138381Y-119099525D01*
X128180253Y-119043592D01*
X128245717Y-119019175D01*
X128273961Y-119020386D01*
X128524072Y-119060000D01*
X128775928Y-119060000D01*
X129024669Y-119020602D01*
X129264184Y-118942780D01*
X129488575Y-118828446D01*
X129488581Y-118828442D01*
X129590697Y-118754250D01*
X129590698Y-118754250D01*
X128974025Y-118137578D01*
X129005258Y-118124641D01*
X129128097Y-118042563D01*
X129232563Y-117938097D01*
X129314641Y-117815258D01*
X129327577Y-117784025D01*
X129944250Y-118400698D01*
X129944250Y-118400697D01*
X130018442Y-118298581D01*
X130018446Y-118298575D01*
X130132780Y-118074184D01*
X130210602Y-117834669D01*
X130250000Y-117585928D01*
X130250000Y-117334071D01*
X130210602Y-117085330D01*
X130132780Y-116845815D01*
X130018442Y-116621416D01*
X129944250Y-116519301D01*
X129944250Y-116519300D01*
X129327577Y-117135973D01*
X129314641Y-117104742D01*
X129232563Y-116981903D01*
X129128097Y-116877437D01*
X129005258Y-116795359D01*
X128974024Y-116782421D01*
X129590698Y-116165748D01*
X129488583Y-116091557D01*
X129264184Y-115977219D01*
X129024669Y-115899397D01*
X128775928Y-115860000D01*
X128524072Y-115860000D01*
X128275330Y-115899397D01*
X128035815Y-115977219D01*
X127811413Y-116091559D01*
X127709301Y-116165747D01*
X127709300Y-116165748D01*
X128325974Y-116782421D01*
X128294742Y-116795359D01*
X128171903Y-116877437D01*
X128067437Y-116981903D01*
X127985359Y-117104742D01*
X127972421Y-117135974D01*
X127355748Y-116519300D01*
X127355747Y-116519301D01*
X127281559Y-116621413D01*
X127167219Y-116845815D01*
X127089397Y-117085330D01*
X127050000Y-117334071D01*
X127050000Y-117585928D01*
X127089397Y-117834669D01*
X127167219Y-118074184D01*
X127281557Y-118298583D01*
X127355748Y-118400697D01*
X127355748Y-118400698D01*
X127972421Y-117784024D01*
X127985359Y-117815258D01*
X128067437Y-117938097D01*
X128171903Y-118042563D01*
X128294742Y-118124641D01*
X128325974Y-118137577D01*
X127709300Y-118754250D01*
X127711598Y-118783449D01*
X127697233Y-118851827D01*
X127648181Y-118901583D01*
X127580016Y-118916921D01*
X127568583Y-118915650D01*
X127466611Y-118899500D01*
X127293389Y-118899500D01*
X127253728Y-118905781D01*
X127122302Y-118926597D01*
X126957552Y-118980128D01*
X126803211Y-119058768D01*
X126747115Y-119099525D01*
X126663072Y-119160586D01*
X126663070Y-119160588D01*
X126663069Y-119160588D01*
X126540588Y-119283069D01*
X126540588Y-119283070D01*
X126540586Y-119283072D01*
X126496859Y-119343256D01*
X126438768Y-119423211D01*
X126360128Y-119577552D01*
X126306597Y-119742302D01*
X126283804Y-119886212D01*
X126279500Y-119913389D01*
X116100500Y-119913389D01*
X116073402Y-119742299D01*
X116019873Y-119577555D01*
X115941232Y-119423212D01*
X115839414Y-119283072D01*
X115716928Y-119160586D01*
X115576788Y-119058768D01*
X115422445Y-118980127D01*
X115257701Y-118926598D01*
X115257699Y-118926597D01*
X115257698Y-118926597D01*
X115126271Y-118905781D01*
X115086611Y-118899500D01*
X114913389Y-118899500D01*
X114873728Y-118905781D01*
X114742302Y-118926597D01*
X114577552Y-118980128D01*
X114423211Y-119058768D01*
X114367115Y-119099525D01*
X114283072Y-119160586D01*
X114283070Y-119160588D01*
X114283069Y-119160588D01*
X114160588Y-119283069D01*
X114160588Y-119283070D01*
X114160586Y-119283072D01*
X114116859Y-119343256D01*
X114058768Y-119423211D01*
X113980128Y-119577552D01*
X113926597Y-119742302D01*
X113903804Y-119886212D01*
X113899500Y-119913389D01*
X112170500Y-119913389D01*
X112170500Y-119852494D01*
X112131993Y-119560007D01*
X112055639Y-119275048D01*
X111942743Y-119002493D01*
X111892604Y-118915650D01*
X111795238Y-118747006D01*
X111615647Y-118512959D01*
X111615641Y-118512952D01*
X111407047Y-118304358D01*
X111407040Y-118304352D01*
X111172993Y-118124761D01*
X110917510Y-117977258D01*
X110917500Y-117977254D01*
X110644961Y-117864364D01*
X110644954Y-117864362D01*
X110644952Y-117864361D01*
X110359993Y-117788007D01*
X110311113Y-117781571D01*
X110067513Y-117749500D01*
X110067506Y-117749500D01*
X109772494Y-117749500D01*
X109772486Y-117749500D01*
X109494085Y-117786153D01*
X109480007Y-117788007D01*
X109305861Y-117834669D01*
X109195048Y-117864361D01*
X109195038Y-117864364D01*
X108922499Y-117977254D01*
X108922489Y-117977258D01*
X108667006Y-118124761D01*
X108432959Y-118304352D01*
X108432952Y-118304358D01*
X108224358Y-118512952D01*
X108224352Y-118512959D01*
X108044761Y-118747006D01*
X107897258Y-119002489D01*
X107897254Y-119002499D01*
X107784364Y-119275038D01*
X107784361Y-119275048D01*
X107708008Y-119560004D01*
X107708006Y-119560015D01*
X107669500Y-119852486D01*
X105930854Y-119852486D01*
X105913402Y-119742299D01*
X105859873Y-119577555D01*
X105781232Y-119423212D01*
X105679414Y-119283072D01*
X105626882Y-119230540D01*
X105593397Y-119169217D01*
X105598381Y-119099525D01*
X105640253Y-119043592D01*
X105705717Y-119019175D01*
X105733961Y-119020386D01*
X105984072Y-119060000D01*
X106235928Y-119060000D01*
X106484669Y-119020602D01*
X106724184Y-118942780D01*
X106948575Y-118828446D01*
X106948581Y-118828442D01*
X107050697Y-118754250D01*
X107050698Y-118754250D01*
X106434025Y-118137578D01*
X106465258Y-118124641D01*
X106588097Y-118042563D01*
X106692563Y-117938097D01*
X106774641Y-117815258D01*
X106787578Y-117784025D01*
X107404250Y-118400698D01*
X107404250Y-118400697D01*
X107478442Y-118298581D01*
X107478446Y-118298575D01*
X107592780Y-118074184D01*
X107670602Y-117834669D01*
X107710000Y-117585928D01*
X107710000Y-117334071D01*
X107670602Y-117085330D01*
X107592780Y-116845815D01*
X107478442Y-116621416D01*
X107404250Y-116519301D01*
X107404250Y-116519300D01*
X106787577Y-117135973D01*
X106774641Y-117104742D01*
X106692563Y-116981903D01*
X106588097Y-116877437D01*
X106465258Y-116795359D01*
X106434024Y-116782421D01*
X107050698Y-116165748D01*
X106948583Y-116091557D01*
X106724184Y-115977219D01*
X106484669Y-115899397D01*
X106235928Y-115860000D01*
X105984072Y-115860000D01*
X105735330Y-115899397D01*
X105495815Y-115977219D01*
X105271413Y-116091559D01*
X105169301Y-116165747D01*
X105169300Y-116165748D01*
X105785974Y-116782421D01*
X105754742Y-116795359D01*
X105631903Y-116877437D01*
X105527437Y-116981903D01*
X105445359Y-117104742D01*
X105432421Y-117135974D01*
X104815748Y-116519300D01*
X104815747Y-116519301D01*
X104741559Y-116621413D01*
X104627219Y-116845815D01*
X104549397Y-117085330D01*
X104510000Y-117334071D01*
X104510000Y-117585928D01*
X104549397Y-117834669D01*
X104627219Y-118074184D01*
X104741557Y-118298583D01*
X104815748Y-118400697D01*
X104815748Y-118400698D01*
X105432421Y-117784024D01*
X105445359Y-117815258D01*
X105527437Y-117938097D01*
X105631903Y-118042563D01*
X105754742Y-118124641D01*
X105785974Y-118137577D01*
X105169300Y-118754250D01*
X105171598Y-118783449D01*
X105157233Y-118851827D01*
X105108181Y-118901583D01*
X105040016Y-118916921D01*
X105028583Y-118915650D01*
X104926611Y-118899500D01*
X104753389Y-118899500D01*
X104713728Y-118905781D01*
X104582302Y-118926597D01*
X104417552Y-118980128D01*
X104263211Y-119058768D01*
X104207115Y-119099525D01*
X104123072Y-119160586D01*
X104123070Y-119160588D01*
X104123069Y-119160588D01*
X104000588Y-119283069D01*
X104000588Y-119283070D01*
X104000586Y-119283072D01*
X103956859Y-119343256D01*
X103898768Y-119423211D01*
X103820128Y-119577552D01*
X103766597Y-119742302D01*
X103743804Y-119886212D01*
X103739500Y-119913389D01*
X97896067Y-119913389D01*
X94800885Y-117334071D01*
X93569921Y-116308267D01*
X91861310Y-114884425D01*
X91752846Y-114794038D01*
X110859500Y-114794038D01*
X110859500Y-115045961D01*
X110898910Y-115294785D01*
X110976760Y-115534383D01*
X111091132Y-115758848D01*
X111239201Y-115962649D01*
X111239205Y-115962654D01*
X111417345Y-116140794D01*
X111417350Y-116140798D01*
X111595117Y-116269952D01*
X111621155Y-116288870D01*
X111764184Y-116361747D01*
X111845616Y-116403239D01*
X111845618Y-116403239D01*
X111845621Y-116403241D01*
X112085215Y-116481090D01*
X112334038Y-116520500D01*
X112334039Y-116520500D01*
X112585961Y-116520500D01*
X112585962Y-116520500D01*
X112834785Y-116481090D01*
X113074379Y-116403241D01*
X113298845Y-116288870D01*
X113502656Y-116140793D01*
X113680793Y-115962656D01*
X113828870Y-115758845D01*
X113943241Y-115534379D01*
X114021090Y-115294785D01*
X114060500Y-115045962D01*
X114060500Y-114794038D01*
X133399500Y-114794038D01*
X133399500Y-115045961D01*
X133438910Y-115294785D01*
X133516760Y-115534383D01*
X133631132Y-115758848D01*
X133779201Y-115962649D01*
X133779205Y-115962654D01*
X133957345Y-116140794D01*
X133957350Y-116140798D01*
X134135117Y-116269952D01*
X134161155Y-116288870D01*
X134304184Y-116361747D01*
X134385616Y-116403239D01*
X134385618Y-116403239D01*
X134385621Y-116403241D01*
X134625215Y-116481090D01*
X134874038Y-116520500D01*
X134874039Y-116520500D01*
X135125961Y-116520500D01*
X135125962Y-116520500D01*
X135374785Y-116481090D01*
X135614379Y-116403241D01*
X135838845Y-116288870D01*
X136042656Y-116140793D01*
X136220793Y-115962656D01*
X136368870Y-115758845D01*
X136483241Y-115534379D01*
X136561090Y-115294785D01*
X136600500Y-115045962D01*
X136600500Y-114794038D01*
X136561090Y-114545215D01*
X136483241Y-114305621D01*
X136483239Y-114305618D01*
X136483239Y-114305616D01*
X136441747Y-114224184D01*
X136368870Y-114081155D01*
X136290692Y-113973552D01*
X136220798Y-113877350D01*
X136220794Y-113877345D01*
X136042654Y-113699205D01*
X136042649Y-113699201D01*
X135838848Y-113551132D01*
X135838847Y-113551131D01*
X135838845Y-113551130D01*
X135768747Y-113515413D01*
X135614383Y-113436760D01*
X135374785Y-113358910D01*
X135125962Y-113319500D01*
X134874038Y-113319500D01*
X134749626Y-113339205D01*
X134625214Y-113358910D01*
X134385616Y-113436760D01*
X134161151Y-113551132D01*
X133957350Y-113699201D01*
X133957345Y-113699205D01*
X133779205Y-113877345D01*
X133779201Y-113877350D01*
X133631132Y-114081151D01*
X133516760Y-114305616D01*
X133438910Y-114545214D01*
X133399500Y-114794038D01*
X114060500Y-114794038D01*
X114021090Y-114545215D01*
X113943241Y-114305621D01*
X113943239Y-114305618D01*
X113943239Y-114305616D01*
X113901747Y-114224184D01*
X113828870Y-114081155D01*
X113750692Y-113973552D01*
X113680798Y-113877350D01*
X113680794Y-113877345D01*
X113502654Y-113699205D01*
X113502649Y-113699201D01*
X113298848Y-113551132D01*
X113298847Y-113551131D01*
X113298845Y-113551130D01*
X113228747Y-113515413D01*
X113074383Y-113436760D01*
X112834785Y-113358910D01*
X112585962Y-113319500D01*
X112334038Y-113319500D01*
X112209626Y-113339205D01*
X112085214Y-113358910D01*
X111845616Y-113436760D01*
X111621151Y-113551132D01*
X111417350Y-113699201D01*
X111417345Y-113699205D01*
X111239205Y-113877345D01*
X111239201Y-113877350D01*
X111091132Y-114081151D01*
X110976760Y-114305616D01*
X110898910Y-114545214D01*
X110859500Y-114794038D01*
X91752846Y-114794038D01*
X86671491Y-110559576D01*
X80043742Y-105036451D01*
X80004844Y-104978414D01*
X79999140Y-104943069D01*
X79818668Y-92986149D01*
X105423500Y-92986149D01*
X105423500Y-93241850D01*
X105445008Y-93405212D01*
X105456874Y-93495340D01*
X105523050Y-93742312D01*
X105523053Y-93742322D01*
X105620894Y-93978531D01*
X105620899Y-93978542D01*
X105748734Y-94199957D01*
X105748745Y-94199973D01*
X105904388Y-94402811D01*
X105904394Y-94402818D01*
X106085181Y-94583605D01*
X106085187Y-94583610D01*
X106288035Y-94739261D01*
X106288042Y-94739265D01*
X106509457Y-94867100D01*
X106509462Y-94867102D01*
X106509465Y-94867104D01*
X106745687Y-94964950D01*
X106992660Y-95031126D01*
X107246157Y-95064500D01*
X107246164Y-95064500D01*
X108401836Y-95064500D01*
X108401843Y-95064500D01*
X108655340Y-95031126D01*
X108902313Y-94964950D01*
X109138535Y-94867104D01*
X109359965Y-94739261D01*
X109562813Y-94583610D01*
X109743610Y-94402813D01*
X109899261Y-94199965D01*
X110027104Y-93978535D01*
X110124950Y-93742313D01*
X110151638Y-93642713D01*
X113839500Y-93642713D01*
X113839500Y-93855287D01*
X113844157Y-93884692D01*
X113863204Y-94004951D01*
X113872754Y-94065243D01*
X113916525Y-94199957D01*
X113938444Y-94267414D01*
X114034951Y-94456820D01*
X114159890Y-94628786D01*
X114310213Y-94779109D01*
X114482179Y-94904048D01*
X114482181Y-94904049D01*
X114482184Y-94904051D01*
X114671588Y-95000557D01*
X114873757Y-95066246D01*
X115083713Y-95099500D01*
X115083714Y-95099500D01*
X115296286Y-95099500D01*
X115296287Y-95099500D01*
X115506243Y-95066246D01*
X115548523Y-95052507D01*
X115618362Y-95050511D01*
X115674522Y-95082757D01*
X124363181Y-103771416D01*
X124396666Y-103832739D01*
X124399500Y-103859097D01*
X124399500Y-104913330D01*
X124399499Y-104913348D01*
X124399499Y-105079054D01*
X124399498Y-105079054D01*
X124440423Y-105231785D01*
X124469358Y-105281900D01*
X124469359Y-105281904D01*
X124469360Y-105281904D01*
X124513582Y-105358501D01*
X124519479Y-105368714D01*
X124519481Y-105368717D01*
X124638349Y-105487585D01*
X124638355Y-105487590D01*
X129631284Y-110480519D01*
X129768215Y-110559577D01*
X129920943Y-110600501D01*
X129920946Y-110600501D01*
X130079054Y-110600501D01*
X130079057Y-110600501D01*
X130231785Y-110559577D01*
X130368716Y-110480519D01*
X130480519Y-110368716D01*
X141268506Y-99580727D01*
X141268511Y-99580724D01*
X141278714Y-99570520D01*
X141278716Y-99570520D01*
X141390520Y-99458716D01*
X141456819Y-99343882D01*
X141469577Y-99321785D01*
X141510501Y-99169057D01*
X141510501Y-99010943D01*
X141510501Y-99003348D01*
X141510500Y-99003330D01*
X141510500Y-94470096D01*
X141530185Y-94403057D01*
X141546814Y-94382420D01*
X143437819Y-92491414D01*
X143499142Y-92457930D01*
X143568834Y-92462914D01*
X143624767Y-92504786D01*
X143649184Y-92570250D01*
X143649500Y-92579096D01*
X143649500Y-92726287D01*
X143650510Y-92732661D01*
X143672136Y-92869208D01*
X143682754Y-92936243D01*
X143736203Y-93100742D01*
X143748444Y-93138414D01*
X143844951Y-93327820D01*
X143969890Y-93499786D01*
X144120213Y-93650109D01*
X144292182Y-93775050D01*
X144300946Y-93779516D01*
X144351742Y-93827491D01*
X144368536Y-93895312D01*
X144345998Y-93961447D01*
X144300946Y-94000484D01*
X144292182Y-94004949D01*
X144120213Y-94129890D01*
X143969890Y-94280213D01*
X143844951Y-94452179D01*
X143748444Y-94641585D01*
X143682753Y-94843760D01*
X143649500Y-95053713D01*
X143649500Y-95266286D01*
X143671077Y-95402522D01*
X143682754Y-95476243D01*
X143732188Y-95628385D01*
X143748444Y-95678414D01*
X143844951Y-95867820D01*
X143969890Y-96039786D01*
X144120213Y-96190109D01*
X144292182Y-96315050D01*
X144300946Y-96319516D01*
X144351742Y-96367491D01*
X144368536Y-96435312D01*
X144345998Y-96501447D01*
X144300946Y-96540484D01*
X144292182Y-96544949D01*
X144120213Y-96669890D01*
X143969890Y-96820213D01*
X143844951Y-96992179D01*
X143748444Y-97181585D01*
X143682753Y-97383760D01*
X143649500Y-97593713D01*
X143649500Y-97806286D01*
X143682753Y-98016239D01*
X143748444Y-98218414D01*
X143844951Y-98407820D01*
X143969890Y-98579786D01*
X144120213Y-98730109D01*
X144292182Y-98855050D01*
X144300946Y-98859516D01*
X144351742Y-98907491D01*
X144368536Y-98975312D01*
X144345998Y-99041447D01*
X144300946Y-99080484D01*
X144292182Y-99084949D01*
X144120213Y-99209890D01*
X143969890Y-99360213D01*
X143844951Y-99532179D01*
X143748444Y-99721585D01*
X143682753Y-99923760D01*
X143657084Y-100085832D01*
X143649500Y-100133713D01*
X143649500Y-100346287D01*
X143659128Y-100407073D01*
X143680290Y-100540690D01*
X143682754Y-100556243D01*
X143741513Y-100737085D01*
X143748444Y-100758414D01*
X143844951Y-100947820D01*
X143969890Y-101119786D01*
X144120213Y-101270109D01*
X144292179Y-101395048D01*
X144292181Y-101395049D01*
X144292184Y-101395051D01*
X144481588Y-101491557D01*
X144683757Y-101557246D01*
X144893713Y-101590500D01*
X144893714Y-101590500D01*
X145106286Y-101590500D01*
X145106287Y-101590500D01*
X145316243Y-101557246D01*
X145518412Y-101491557D01*
X145707816Y-101395051D01*
X145736606Y-101374134D01*
X145879786Y-101270109D01*
X145879788Y-101270106D01*
X145879792Y-101270104D01*
X146030104Y-101119792D01*
X146030106Y-101119788D01*
X146030109Y-101119786D01*
X146155048Y-100947820D01*
X146155047Y-100947820D01*
X146155051Y-100947816D01*
X146251557Y-100758412D01*
X146292344Y-100632882D01*
X170320669Y-100632882D01*
X170320670Y-100632883D01*
X170346059Y-100651329D01*
X170514362Y-100737085D01*
X170693997Y-100795451D01*
X170880553Y-100825000D01*
X171069447Y-100825000D01*
X171256002Y-100795451D01*
X171435637Y-100737085D01*
X171603937Y-100651331D01*
X171629328Y-100632883D01*
X171629328Y-100632882D01*
X170975001Y-99978554D01*
X170975000Y-99978554D01*
X170320669Y-100632882D01*
X146292344Y-100632882D01*
X146317246Y-100556243D01*
X146350500Y-100346287D01*
X146350500Y-100133713D01*
X146317246Y-99923757D01*
X146251557Y-99721588D01*
X146179787Y-99580732D01*
X146174584Y-99570520D01*
X146155051Y-99532184D01*
X146153865Y-99530552D01*
X169775000Y-99530552D01*
X169775000Y-99719447D01*
X169804548Y-99906002D01*
X169862914Y-100085637D01*
X169948666Y-100253933D01*
X169967116Y-100279328D01*
X170621446Y-99625000D01*
X170621446Y-99624999D01*
X170575369Y-99578922D01*
X170625000Y-99578922D01*
X170625000Y-99671078D01*
X170648852Y-99760095D01*
X170694930Y-99839905D01*
X170760095Y-99905070D01*
X170839905Y-99951148D01*
X170928922Y-99975000D01*
X171021078Y-99975000D01*
X171110095Y-99951148D01*
X171189905Y-99905070D01*
X171255070Y-99839905D01*
X171301148Y-99760095D01*
X171325000Y-99671078D01*
X171325000Y-99624999D01*
X171328554Y-99624999D01*
X171328554Y-99625000D01*
X171982882Y-100279328D01*
X171982883Y-100279328D01*
X172001331Y-100253937D01*
X172087085Y-100085637D01*
X172145451Y-99906002D01*
X172175000Y-99719447D01*
X172175000Y-99530552D01*
X172174994Y-99530513D01*
X177394500Y-99530513D01*
X177394500Y-99719486D01*
X177424059Y-99906118D01*
X177482454Y-100085836D01*
X177568104Y-100253933D01*
X177568240Y-100254199D01*
X177679310Y-100407073D01*
X177812927Y-100540690D01*
X177965801Y-100651760D01*
X178045347Y-100692290D01*
X178134163Y-100737545D01*
X178134165Y-100737545D01*
X178134168Y-100737547D01*
X178198390Y-100758414D01*
X178313881Y-100795940D01*
X178500514Y-100825500D01*
X178500519Y-100825500D01*
X178689486Y-100825500D01*
X178876118Y-100795940D01*
X178877623Y-100795451D01*
X179055832Y-100737547D01*
X179224199Y-100651760D01*
X179377073Y-100540690D01*
X179510690Y-100407073D01*
X179621760Y-100254199D01*
X179707547Y-100085832D01*
X179765940Y-99906118D01*
X179776427Y-99839905D01*
X179795500Y-99719486D01*
X179795500Y-99530513D01*
X179765940Y-99343881D01*
X179738846Y-99260497D01*
X179707547Y-99164168D01*
X179707545Y-99164165D01*
X179707545Y-99164163D01*
X179625596Y-99003330D01*
X179621760Y-98995801D01*
X179510690Y-98842927D01*
X179377073Y-98709310D01*
X179224199Y-98598240D01*
X179187981Y-98579786D01*
X179055836Y-98512454D01*
X178876118Y-98454059D01*
X178689486Y-98424500D01*
X178689481Y-98424500D01*
X178500519Y-98424500D01*
X178500514Y-98424500D01*
X178313881Y-98454059D01*
X178134163Y-98512454D01*
X177965800Y-98598240D01*
X177909960Y-98638811D01*
X177812927Y-98709310D01*
X177812925Y-98709312D01*
X177812924Y-98709312D01*
X177679312Y-98842924D01*
X177679312Y-98842925D01*
X177679310Y-98842927D01*
X177654130Y-98877584D01*
X177568240Y-98995800D01*
X177482454Y-99164163D01*
X177424059Y-99343881D01*
X177394500Y-99530513D01*
X172174994Y-99530513D01*
X172145451Y-99343997D01*
X172087085Y-99164362D01*
X172001329Y-98996059D01*
X171982883Y-98970670D01*
X171982882Y-98970669D01*
X171328554Y-99624999D01*
X171325000Y-99624999D01*
X171325000Y-99578922D01*
X171301148Y-99489905D01*
X171255070Y-99410095D01*
X171189905Y-99344930D01*
X171110095Y-99298852D01*
X171021078Y-99275000D01*
X170928922Y-99275000D01*
X170839905Y-99298852D01*
X170760095Y-99344930D01*
X170694930Y-99410095D01*
X170648852Y-99489905D01*
X170625000Y-99578922D01*
X170575369Y-99578922D01*
X169967116Y-98970669D01*
X169967116Y-98970670D01*
X169948669Y-98996060D01*
X169862914Y-99164362D01*
X169804548Y-99343997D01*
X169775000Y-99530552D01*
X146153865Y-99530552D01*
X146101674Y-99458716D01*
X146030109Y-99360213D01*
X145879786Y-99209890D01*
X145707820Y-99084951D01*
X145707115Y-99084591D01*
X145699054Y-99080485D01*
X145648259Y-99032512D01*
X145631463Y-98964692D01*
X145653999Y-98898556D01*
X145699054Y-98859515D01*
X145707816Y-98855051D01*
X145729789Y-98839086D01*
X145879786Y-98730109D01*
X145879788Y-98730106D01*
X145879792Y-98730104D01*
X145992780Y-98617116D01*
X170320669Y-98617116D01*
X170975000Y-99271446D01*
X170975001Y-99271446D01*
X171629328Y-98617116D01*
X171603933Y-98598666D01*
X171435637Y-98512914D01*
X171256002Y-98454548D01*
X171069447Y-98425000D01*
X170880553Y-98425000D01*
X170693997Y-98454548D01*
X170514362Y-98512914D01*
X170346060Y-98598669D01*
X170320670Y-98617116D01*
X170320669Y-98617116D01*
X145992780Y-98617116D01*
X146030104Y-98579792D01*
X146030106Y-98579788D01*
X146030109Y-98579786D01*
X146155048Y-98407820D01*
X146155047Y-98407820D01*
X146155051Y-98407816D01*
X146251557Y-98218412D01*
X146317246Y-98016243D01*
X146350500Y-97806287D01*
X146350500Y-97593713D01*
X146317246Y-97383757D01*
X146251557Y-97181588D01*
X146155051Y-96992184D01*
X146155049Y-96992181D01*
X146155048Y-96992179D01*
X146030109Y-96820213D01*
X145879786Y-96669890D01*
X145707820Y-96544951D01*
X145707115Y-96544591D01*
X145699054Y-96540485D01*
X145648259Y-96492512D01*
X145631463Y-96424692D01*
X145653999Y-96358556D01*
X145699054Y-96319515D01*
X145707816Y-96315051D01*
X145729789Y-96299086D01*
X145879786Y-96190109D01*
X145879788Y-96190106D01*
X145879792Y-96190104D01*
X146030104Y-96039792D01*
X146030106Y-96039788D01*
X146030109Y-96039786D01*
X146155048Y-95867820D01*
X146155047Y-95867820D01*
X146155051Y-95867816D01*
X146251557Y-95678412D01*
X146317246Y-95476243D01*
X146350500Y-95266287D01*
X146350500Y-95053713D01*
X146317246Y-94843757D01*
X146251557Y-94641588D01*
X146155051Y-94452184D01*
X146155049Y-94452181D01*
X146155048Y-94452179D01*
X146030109Y-94280213D01*
X145879786Y-94129890D01*
X145707820Y-94004951D01*
X145707115Y-94004591D01*
X145699054Y-94000485D01*
X145648259Y-93952512D01*
X145631463Y-93884692D01*
X145653999Y-93818556D01*
X145699054Y-93779515D01*
X145707816Y-93775051D01*
X145834275Y-93683174D01*
X145879786Y-93650109D01*
X145879788Y-93650106D01*
X145879792Y-93650104D01*
X146030104Y-93499792D01*
X146030106Y-93499788D01*
X146030109Y-93499786D01*
X146155048Y-93327820D01*
X146155047Y-93327820D01*
X146155051Y-93327816D01*
X146251557Y-93138412D01*
X146317246Y-92936243D01*
X146350500Y-92726287D01*
X146350500Y-92513713D01*
X146317246Y-92303757D01*
X146251557Y-92101588D01*
X146155051Y-91912184D01*
X146155049Y-91912181D01*
X146155048Y-91912179D01*
X146030109Y-91740213D01*
X145879786Y-91589890D01*
X145707820Y-91464951D01*
X145707115Y-91464591D01*
X145699054Y-91460485D01*
X145648259Y-91412512D01*
X145631463Y-91344692D01*
X145653999Y-91278556D01*
X145699054Y-91239515D01*
X145707816Y-91235051D01*
X145760363Y-91196874D01*
X145879786Y-91110109D01*
X145879788Y-91110106D01*
X145879792Y-91110104D01*
X146030104Y-90959792D01*
X146030106Y-90959788D01*
X146030109Y-90959786D01*
X146139086Y-90809789D01*
X146155051Y-90787816D01*
X146251557Y-90598412D01*
X146317246Y-90396243D01*
X146350500Y-90186287D01*
X146350500Y-89973713D01*
X146317246Y-89763757D01*
X146251557Y-89561588D01*
X146155051Y-89372184D01*
X146155049Y-89372181D01*
X146155048Y-89372179D01*
X146030109Y-89200213D01*
X145879786Y-89049890D01*
X145707820Y-88924951D01*
X145707115Y-88924591D01*
X145699054Y-88920485D01*
X145648259Y-88872512D01*
X145631463Y-88804692D01*
X145653999Y-88738556D01*
X145699054Y-88699515D01*
X145707816Y-88695051D01*
X145768686Y-88650827D01*
X145879786Y-88570109D01*
X145879788Y-88570106D01*
X145879792Y-88570104D01*
X146030104Y-88419792D01*
X146030106Y-88419788D01*
X146030109Y-88419786D01*
X146155048Y-88247820D01*
X146155047Y-88247820D01*
X146155051Y-88247816D01*
X146251557Y-88058412D01*
X146317246Y-87856243D01*
X146350500Y-87646287D01*
X146350500Y-87433713D01*
X146317246Y-87223757D01*
X146251557Y-87021588D01*
X146155051Y-86832184D01*
X146155049Y-86832181D01*
X146155048Y-86832179D01*
X146030109Y-86660213D01*
X145879786Y-86509890D01*
X145707817Y-86384949D01*
X145698504Y-86380204D01*
X145647707Y-86332230D01*
X145630912Y-86264409D01*
X145653449Y-86198274D01*
X145698507Y-86159232D01*
X145707555Y-86154622D01*
X145761716Y-86115270D01*
X145761717Y-86115270D01*
X145129408Y-85482962D01*
X145192993Y-85465925D01*
X145307007Y-85400099D01*
X145400099Y-85307007D01*
X145465925Y-85192993D01*
X145482962Y-85129408D01*
X146115270Y-85761717D01*
X146115270Y-85761716D01*
X146154622Y-85707554D01*
X146251095Y-85518217D01*
X146316757Y-85316130D01*
X146316757Y-85316127D01*
X146350000Y-85106246D01*
X146350000Y-84893753D01*
X146316757Y-84683872D01*
X146316757Y-84683869D01*
X146251095Y-84481782D01*
X146154624Y-84292449D01*
X146115270Y-84238282D01*
X146115269Y-84238282D01*
X145482962Y-84870590D01*
X145465925Y-84807007D01*
X145400099Y-84692993D01*
X145307007Y-84599901D01*
X145192993Y-84534075D01*
X145129409Y-84517037D01*
X145799627Y-83846818D01*
X145860950Y-83813333D01*
X145887307Y-83810499D01*
X145897872Y-83810499D01*
X145957483Y-83804091D01*
X146092331Y-83753796D01*
X146207546Y-83667546D01*
X146293796Y-83552331D01*
X146344091Y-83417483D01*
X146350500Y-83357873D01*
X146350500Y-83184500D01*
X146370185Y-83117461D01*
X146422989Y-83071706D01*
X146474500Y-83060500D01*
X152453331Y-83060500D01*
X152453347Y-83060501D01*
X152460943Y-83060501D01*
X152619054Y-83060501D01*
X152619057Y-83060501D01*
X152771785Y-83019577D01*
X152821904Y-82990639D01*
X152908716Y-82940520D01*
X153020520Y-82828716D01*
X153020520Y-82828714D01*
X153030728Y-82818507D01*
X153030730Y-82818504D01*
X155358506Y-80490728D01*
X155358511Y-80490724D01*
X155368714Y-80480520D01*
X155368716Y-80480520D01*
X155480520Y-80368716D01*
X155559577Y-80231784D01*
X155600500Y-80079057D01*
X155600500Y-73952135D01*
X173499500Y-73952135D01*
X173499500Y-76047870D01*
X173499501Y-76047876D01*
X173505908Y-76107483D01*
X173556202Y-76242328D01*
X173556206Y-76242335D01*
X173642452Y-76357544D01*
X173642455Y-76357547D01*
X173757664Y-76443793D01*
X173757671Y-76443797D01*
X173892517Y-76494091D01*
X173892516Y-76494091D01*
X173899444Y-76494835D01*
X173952127Y-76500500D01*
X176047872Y-76500499D01*
X176107483Y-76494091D01*
X176242331Y-76443796D01*
X176357546Y-76357546D01*
X176443796Y-76242331D01*
X176494091Y-76107483D01*
X176500500Y-76047873D01*
X176500499Y-74881902D01*
X181099500Y-74881902D01*
X181099500Y-75118097D01*
X181136446Y-75351368D01*
X181209433Y-75575996D01*
X181316657Y-75786433D01*
X181455483Y-75977510D01*
X181622490Y-76144517D01*
X181813567Y-76283343D01*
X181912991Y-76334002D01*
X182024003Y-76390566D01*
X182024005Y-76390566D01*
X182024008Y-76390568D01*
X182144412Y-76429689D01*
X182248631Y-76463553D01*
X182481903Y-76500500D01*
X182481908Y-76500500D01*
X182718097Y-76500500D01*
X182951368Y-76463553D01*
X183175992Y-76390568D01*
X183386433Y-76283343D01*
X183577510Y-76144517D01*
X183744517Y-75977510D01*
X183883343Y-75786433D01*
X183990568Y-75575992D01*
X184063553Y-75351368D01*
X184092217Y-75170391D01*
X184100500Y-75118097D01*
X184100500Y-74881902D01*
X184063553Y-74648631D01*
X183990566Y-74424003D01*
X183883342Y-74213566D01*
X183875035Y-74202132D01*
X183744517Y-74022490D01*
X183577510Y-73855483D01*
X183386433Y-73716657D01*
X183175996Y-73609433D01*
X182951368Y-73536446D01*
X182718097Y-73499500D01*
X182718092Y-73499500D01*
X182481908Y-73499500D01*
X182481903Y-73499500D01*
X182248631Y-73536446D01*
X182024003Y-73609433D01*
X181813566Y-73716657D01*
X181757119Y-73757669D01*
X181622490Y-73855483D01*
X181622488Y-73855485D01*
X181622487Y-73855485D01*
X181455485Y-74022487D01*
X181455485Y-74022488D01*
X181455483Y-74022490D01*
X181395862Y-74104550D01*
X181316657Y-74213566D01*
X181209433Y-74424003D01*
X181136446Y-74648631D01*
X181099500Y-74881902D01*
X176500499Y-74881902D01*
X176500499Y-73952128D01*
X176494091Y-73892517D01*
X176480278Y-73855483D01*
X176443797Y-73757671D01*
X176443793Y-73757664D01*
X176357547Y-73642455D01*
X176357544Y-73642452D01*
X176242335Y-73556206D01*
X176242328Y-73556202D01*
X176107482Y-73505908D01*
X176107483Y-73505908D01*
X176047883Y-73499501D01*
X176047881Y-73499500D01*
X176047873Y-73499500D01*
X176047864Y-73499500D01*
X173952129Y-73499500D01*
X173952123Y-73499501D01*
X173892516Y-73505908D01*
X173757671Y-73556202D01*
X173757664Y-73556206D01*
X173642455Y-73642452D01*
X173642452Y-73642455D01*
X173556206Y-73757664D01*
X173556202Y-73757671D01*
X173505908Y-73892517D01*
X173499501Y-73952116D01*
X173499501Y-73952123D01*
X173499500Y-73952135D01*
X155600500Y-73952135D01*
X155600500Y-55724500D01*
X155620185Y-55657461D01*
X155672989Y-55611706D01*
X155724500Y-55600500D01*
X158859903Y-55600500D01*
X158926942Y-55620185D01*
X158947584Y-55636819D01*
X161356237Y-58045472D01*
X161389722Y-58106795D01*
X161389160Y-58159522D01*
X161389349Y-58159552D01*
X161389146Y-58160831D01*
X161389133Y-58162087D01*
X161388587Y-58164360D01*
X161357500Y-58360639D01*
X161357500Y-58559360D01*
X161388587Y-58755637D01*
X161449993Y-58944629D01*
X161449994Y-58944632D01*
X161491841Y-59026760D01*
X161540213Y-59121694D01*
X161657019Y-59282464D01*
X161797536Y-59422981D01*
X161958306Y-59539787D01*
X162076832Y-59600179D01*
X162114780Y-59619515D01*
X162165576Y-59667490D01*
X162182371Y-59735311D01*
X162159833Y-59801446D01*
X162114780Y-59840485D01*
X161958305Y-59920213D01*
X161797533Y-60037021D01*
X161657021Y-60177533D01*
X161540213Y-60338305D01*
X161449994Y-60515367D01*
X161449993Y-60515370D01*
X161388587Y-60704362D01*
X161357500Y-60900639D01*
X161357500Y-61099360D01*
X161388587Y-61295637D01*
X161449993Y-61484629D01*
X161449994Y-61484632D01*
X161540213Y-61661694D01*
X161657019Y-61822464D01*
X161797536Y-61962981D01*
X161958306Y-62079787D01*
X162076832Y-62140179D01*
X162114780Y-62159515D01*
X162165576Y-62207490D01*
X162182371Y-62275311D01*
X162159833Y-62341446D01*
X162114780Y-62380485D01*
X161958305Y-62460213D01*
X161797533Y-62577021D01*
X161657021Y-62717533D01*
X161540213Y-62878305D01*
X161449994Y-63055367D01*
X161449993Y-63055370D01*
X161388587Y-63244362D01*
X161380911Y-63292826D01*
X161357500Y-63440639D01*
X161357500Y-63639361D01*
X161365540Y-63690125D01*
X161388587Y-63835637D01*
X161449993Y-64024629D01*
X161449994Y-64024632D01*
X161518399Y-64158882D01*
X161540213Y-64201694D01*
X161657019Y-64362464D01*
X161797536Y-64502981D01*
X161958306Y-64619787D01*
X162076832Y-64680179D01*
X162114780Y-64699515D01*
X162165576Y-64747490D01*
X162182371Y-64815311D01*
X162159833Y-64881446D01*
X162114780Y-64920485D01*
X161958305Y-65000213D01*
X161797533Y-65117021D01*
X161657021Y-65257533D01*
X161540213Y-65418305D01*
X161449994Y-65595367D01*
X161449993Y-65595370D01*
X161388587Y-65784362D01*
X161357500Y-65980639D01*
X161357500Y-66179360D01*
X161388587Y-66375637D01*
X161449993Y-66564629D01*
X161449994Y-66564632D01*
X161540213Y-66741694D01*
X161657019Y-66902464D01*
X161797536Y-67042981D01*
X161958306Y-67159787D01*
X161998895Y-67180468D01*
X162114780Y-67239515D01*
X162165576Y-67287490D01*
X162182371Y-67355311D01*
X162159833Y-67421446D01*
X162114780Y-67460485D01*
X161958305Y-67540213D01*
X161797533Y-67657021D01*
X161657021Y-67797533D01*
X161540213Y-67958305D01*
X161449994Y-68135367D01*
X161449993Y-68135370D01*
X161388587Y-68324362D01*
X161357500Y-68520639D01*
X161357500Y-68719360D01*
X161388587Y-68915637D01*
X161449993Y-69104629D01*
X161449994Y-69104632D01*
X161540213Y-69281694D01*
X161657019Y-69442464D01*
X161797536Y-69582981D01*
X161958306Y-69699787D01*
X162045149Y-69744035D01*
X162135367Y-69790005D01*
X162135370Y-69790006D01*
X162229866Y-69820709D01*
X162324364Y-69851413D01*
X162520639Y-69882500D01*
X162520640Y-69882500D01*
X162719360Y-69882500D01*
X162719361Y-69882500D01*
X162915636Y-69851413D01*
X163104632Y-69790005D01*
X163281694Y-69699787D01*
X163442464Y-69582981D01*
X163582981Y-69442464D01*
X163699787Y-69281694D01*
X163790005Y-69104632D01*
X163851413Y-68915636D01*
X163882500Y-68719361D01*
X163882500Y-68520639D01*
X163851413Y-68324364D01*
X163820709Y-68229866D01*
X163790006Y-68135370D01*
X163790005Y-68135367D01*
X163699786Y-67958305D01*
X163582981Y-67797536D01*
X163442464Y-67657019D01*
X163281694Y-67540213D01*
X163125218Y-67460484D01*
X163074423Y-67412510D01*
X163057628Y-67344689D01*
X163080165Y-67278554D01*
X163125218Y-67239515D01*
X163281694Y-67159787D01*
X163442464Y-67042981D01*
X163582981Y-66902464D01*
X163699787Y-66741694D01*
X163790005Y-66564632D01*
X163851413Y-66375636D01*
X163882500Y-66179361D01*
X163882500Y-65980639D01*
X163851413Y-65784364D01*
X163790005Y-65595368D01*
X163790005Y-65595367D01*
X163699786Y-65418305D01*
X163582981Y-65257536D01*
X163442464Y-65117019D01*
X163281694Y-65000213D01*
X163125218Y-64920484D01*
X163074423Y-64872510D01*
X163057628Y-64804689D01*
X163080165Y-64738554D01*
X163125218Y-64699515D01*
X163281694Y-64619787D01*
X163442464Y-64502981D01*
X163582981Y-64362464D01*
X163699787Y-64201694D01*
X163790005Y-64024632D01*
X163851413Y-63835636D01*
X163882500Y-63639361D01*
X163882500Y-63440639D01*
X163851413Y-63244364D01*
X163820709Y-63149866D01*
X163790006Y-63055370D01*
X163790005Y-63055367D01*
X163734961Y-62947339D01*
X163699787Y-62878306D01*
X163582981Y-62717536D01*
X163442464Y-62577019D01*
X163281694Y-62460213D01*
X163125218Y-62380484D01*
X163074423Y-62332510D01*
X163057628Y-62264689D01*
X163080165Y-62198554D01*
X163125218Y-62159515D01*
X163281694Y-62079787D01*
X163442464Y-61962981D01*
X163582981Y-61822464D01*
X163699787Y-61661694D01*
X163790005Y-61484632D01*
X163851413Y-61295636D01*
X163882500Y-61099361D01*
X163882500Y-60900639D01*
X163851413Y-60704364D01*
X163790005Y-60515368D01*
X163790005Y-60515367D01*
X163699786Y-60338305D01*
X163582981Y-60177536D01*
X163442464Y-60037019D01*
X163281694Y-59920213D01*
X163125218Y-59840484D01*
X163074423Y-59792510D01*
X163057628Y-59724689D01*
X163080165Y-59658554D01*
X163125218Y-59619515D01*
X163281694Y-59539787D01*
X163442464Y-59422981D01*
X163582981Y-59282464D01*
X163699787Y-59121694D01*
X163790005Y-58944632D01*
X163851413Y-58755636D01*
X163882500Y-58559361D01*
X163882500Y-58360639D01*
X163851413Y-58164364D01*
X163790005Y-57975368D01*
X163790005Y-57975367D01*
X163699786Y-57798305D01*
X163642081Y-57718881D01*
X163582981Y-57637536D01*
X163442464Y-57497019D01*
X163281694Y-57380213D01*
X163124667Y-57300203D01*
X163073872Y-57252229D01*
X163057077Y-57184408D01*
X163079614Y-57118273D01*
X163124669Y-57079234D01*
X163281422Y-56999364D01*
X163318715Y-56972268D01*
X162704093Y-56357647D01*
X162791571Y-56334208D01*
X162892930Y-56275689D01*
X162975689Y-56192930D01*
X163034208Y-56091571D01*
X163057647Y-56004094D01*
X163672268Y-56618715D01*
X163699362Y-56581425D01*
X163789542Y-56404437D01*
X163850924Y-56215523D01*
X163850924Y-56215520D01*
X163882000Y-56019321D01*
X163882000Y-55820678D01*
X163850924Y-55624479D01*
X163850924Y-55624476D01*
X163789542Y-55435562D01*
X163699358Y-55258567D01*
X163672268Y-55221283D01*
X163057647Y-55835904D01*
X163034208Y-55748429D01*
X162975689Y-55647070D01*
X162892930Y-55564311D01*
X162791571Y-55505792D01*
X162704094Y-55482352D01*
X163318716Y-54867731D01*
X163318715Y-54867730D01*
X163281432Y-54840641D01*
X163124668Y-54760765D01*
X163073872Y-54712790D01*
X163057077Y-54644969D01*
X163079615Y-54578834D01*
X163124667Y-54539796D01*
X163281694Y-54459787D01*
X163442464Y-54342981D01*
X163582981Y-54202464D01*
X163699787Y-54041694D01*
X163790005Y-53864632D01*
X163851413Y-53675636D01*
X163882500Y-53479361D01*
X163882500Y-53280639D01*
X163851413Y-53084364D01*
X163790005Y-52895368D01*
X163790005Y-52895367D01*
X163699786Y-52718305D01*
X163582981Y-52557536D01*
X163442464Y-52417019D01*
X163281694Y-52300213D01*
X163104632Y-52209994D01*
X163104629Y-52209993D01*
X162915637Y-52148587D01*
X162817498Y-52133043D01*
X162719361Y-52117500D01*
X162520639Y-52117500D01*
X162455214Y-52127862D01*
X162324362Y-52148587D01*
X162135370Y-52209993D01*
X162135367Y-52209994D01*
X161958305Y-52300213D01*
X161797533Y-52417021D01*
X161657021Y-52557533D01*
X161540213Y-52718305D01*
X161449994Y-52895367D01*
X161449993Y-52895370D01*
X161388587Y-53084362D01*
X161357500Y-53280639D01*
X161357500Y-53479360D01*
X161388587Y-53675637D01*
X161449993Y-53864629D01*
X161449994Y-53864632D01*
X161540213Y-54041694D01*
X161657019Y-54202464D01*
X161797536Y-54342981D01*
X161958306Y-54459787D01*
X162115332Y-54539796D01*
X162166127Y-54587769D01*
X162182922Y-54655590D01*
X162160385Y-54721725D01*
X162115332Y-54760764D01*
X161958566Y-54840641D01*
X161921283Y-54867729D01*
X161921282Y-54867730D01*
X162535906Y-55482352D01*
X162448429Y-55505792D01*
X162347070Y-55564311D01*
X162264311Y-55647070D01*
X162205792Y-55748429D01*
X162182352Y-55835906D01*
X161567730Y-55221282D01*
X161567729Y-55221283D01*
X161540643Y-55258564D01*
X161450457Y-55435562D01*
X161389075Y-55624476D01*
X161389075Y-55624479D01*
X161358000Y-55820678D01*
X161358000Y-56019321D01*
X161360298Y-56033830D01*
X161351343Y-56103123D01*
X161306347Y-56156575D01*
X161239596Y-56177215D01*
X161172282Y-56158490D01*
X161150144Y-56140909D01*
X159647590Y-54638355D01*
X159647588Y-54638352D01*
X159528717Y-54519481D01*
X159528709Y-54519475D01*
X159425325Y-54459787D01*
X159425324Y-54459786D01*
X159425324Y-54459787D01*
X159391785Y-54440423D01*
X159239057Y-54399499D01*
X159080943Y-54399499D01*
X159073347Y-54399499D01*
X159073331Y-54399500D01*
X154920943Y-54399500D01*
X154768216Y-54440423D01*
X154768209Y-54440426D01*
X154631290Y-54519475D01*
X154631282Y-54519481D01*
X154519481Y-54631282D01*
X154519475Y-54631290D01*
X154440426Y-54768209D01*
X154440423Y-54768216D01*
X154399500Y-54920943D01*
X154399500Y-79699903D01*
X154379815Y-79766942D01*
X154363181Y-79787584D01*
X152327584Y-81823181D01*
X152266261Y-81856666D01*
X152239903Y-81859500D01*
X146474499Y-81859500D01*
X146407460Y-81839815D01*
X146361705Y-81787011D01*
X146350499Y-81735500D01*
X146350499Y-81562129D01*
X146350498Y-81562123D01*
X146350497Y-81562116D01*
X146344091Y-81502517D01*
X146293796Y-81367669D01*
X146293795Y-81367668D01*
X146293793Y-81367664D01*
X146207547Y-81252455D01*
X146207544Y-81252452D01*
X146092335Y-81166206D01*
X146092328Y-81166202D01*
X145957482Y-81115908D01*
X145957483Y-81115908D01*
X145897883Y-81109501D01*
X145897881Y-81109500D01*
X145897873Y-81109500D01*
X145897864Y-81109500D01*
X144102129Y-81109500D01*
X144102123Y-81109501D01*
X144042516Y-81115908D01*
X143907671Y-81166202D01*
X143907664Y-81166206D01*
X143792455Y-81252452D01*
X143792452Y-81252455D01*
X143706206Y-81367664D01*
X143706202Y-81367671D01*
X143655908Y-81502517D01*
X143649501Y-81562116D01*
X143649501Y-81562123D01*
X143649500Y-81562135D01*
X143649500Y-81735500D01*
X143629815Y-81802539D01*
X143577011Y-81848294D01*
X143525500Y-81859500D01*
X137460940Y-81859500D01*
X137420019Y-81870464D01*
X137420019Y-81870465D01*
X137382751Y-81880451D01*
X137308214Y-81900423D01*
X137308209Y-81900426D01*
X137171290Y-81979475D01*
X137171282Y-81979481D01*
X134519481Y-84631282D01*
X134519479Y-84631285D01*
X134469361Y-84718094D01*
X134469359Y-84718096D01*
X134440425Y-84768209D01*
X134440424Y-84768210D01*
X134424544Y-84827472D01*
X134399499Y-84920943D01*
X134399499Y-84920945D01*
X134399499Y-85089046D01*
X134399500Y-85089059D01*
X134399500Y-94699903D01*
X134379815Y-94766942D01*
X134363181Y-94787584D01*
X129787584Y-99363181D01*
X129726261Y-99396666D01*
X129699903Y-99399500D01*
X126821097Y-99399500D01*
X126754058Y-99379815D01*
X126733416Y-99363181D01*
X122596319Y-95226084D01*
X122562834Y-95164761D01*
X122560000Y-95138403D01*
X122560000Y-94182012D01*
X122617007Y-94214925D01*
X122744174Y-94249000D01*
X122875826Y-94249000D01*
X123002993Y-94214925D01*
X123060000Y-94182012D01*
X123060000Y-95099000D01*
X123707828Y-95099000D01*
X123707844Y-95098999D01*
X123767372Y-95092598D01*
X123767379Y-95092596D01*
X123902086Y-95042354D01*
X123902093Y-95042350D01*
X124017187Y-94956190D01*
X124017190Y-94956187D01*
X124103350Y-94841093D01*
X124103354Y-94841086D01*
X124153596Y-94706379D01*
X124153598Y-94706372D01*
X124159999Y-94646844D01*
X124160000Y-94646827D01*
X124160000Y-93999000D01*
X123243012Y-93999000D01*
X123275925Y-93941993D01*
X123310000Y-93814826D01*
X123310000Y-93683174D01*
X123275925Y-93556007D01*
X123243012Y-93499000D01*
X124160000Y-93499000D01*
X124160000Y-92986149D01*
X127775500Y-92986149D01*
X127775500Y-93241850D01*
X127797008Y-93405212D01*
X127808874Y-93495340D01*
X127875050Y-93742312D01*
X127875053Y-93742322D01*
X127972894Y-93978531D01*
X127972899Y-93978542D01*
X128100734Y-94199957D01*
X128100745Y-94199973D01*
X128256388Y-94402811D01*
X128256394Y-94402818D01*
X128437181Y-94583605D01*
X128437187Y-94583610D01*
X128640035Y-94739261D01*
X128640042Y-94739265D01*
X128861457Y-94867100D01*
X128861462Y-94867102D01*
X128861465Y-94867104D01*
X129097687Y-94964950D01*
X129344660Y-95031126D01*
X129598157Y-95064500D01*
X129598164Y-95064500D01*
X130753836Y-95064500D01*
X130753843Y-95064500D01*
X131007340Y-95031126D01*
X131254313Y-94964950D01*
X131490535Y-94867104D01*
X131711965Y-94739261D01*
X131914813Y-94583610D01*
X132095610Y-94402813D01*
X132251261Y-94199965D01*
X132379104Y-93978535D01*
X132476950Y-93742313D01*
X132543126Y-93495340D01*
X132576500Y-93241843D01*
X132576500Y-92986157D01*
X132543126Y-92732660D01*
X132476950Y-92485687D01*
X132476947Y-92485679D01*
X132476946Y-92485676D01*
X132379105Y-92249468D01*
X132379100Y-92249457D01*
X132251265Y-92028042D01*
X132251261Y-92028035D01*
X132162365Y-91912184D01*
X132095611Y-91825188D01*
X132095605Y-91825181D01*
X131914818Y-91644394D01*
X131914811Y-91644388D01*
X131711973Y-91488745D01*
X131711971Y-91488743D01*
X131711965Y-91488739D01*
X131711960Y-91488736D01*
X131711957Y-91488734D01*
X131490542Y-91360899D01*
X131490531Y-91360894D01*
X131254322Y-91263053D01*
X131254315Y-91263051D01*
X131254313Y-91263050D01*
X131007340Y-91196874D01*
X130951007Y-91189457D01*
X130753850Y-91163500D01*
X130753843Y-91163500D01*
X129598157Y-91163500D01*
X129598149Y-91163500D01*
X129372826Y-91193165D01*
X129344660Y-91196874D01*
X129202181Y-91235051D01*
X129097687Y-91263050D01*
X129097677Y-91263053D01*
X128861468Y-91360894D01*
X128861457Y-91360899D01*
X128640042Y-91488734D01*
X128640026Y-91488745D01*
X128437188Y-91644388D01*
X128437181Y-91644394D01*
X128256394Y-91825181D01*
X128256388Y-91825188D01*
X128100745Y-92028026D01*
X128100734Y-92028042D01*
X127972899Y-92249457D01*
X127972894Y-92249468D01*
X127875054Y-92485676D01*
X127875050Y-92485687D01*
X127852392Y-92570250D01*
X127808874Y-92732661D01*
X127775500Y-92986149D01*
X124160000Y-92986149D01*
X124160000Y-92851172D01*
X124159999Y-92851155D01*
X124153598Y-92791627D01*
X124153596Y-92791620D01*
X124103354Y-92656913D01*
X124103350Y-92656906D01*
X124017190Y-92541812D01*
X124017187Y-92541809D01*
X123902093Y-92455649D01*
X123902086Y-92455645D01*
X123767379Y-92405403D01*
X123767372Y-92405401D01*
X123707844Y-92399000D01*
X123060000Y-92399000D01*
X123060000Y-93315988D01*
X123002993Y-93283075D01*
X122875826Y-93249000D01*
X122744174Y-93249000D01*
X122617007Y-93283075D01*
X122560000Y-93315988D01*
X122560000Y-92399000D01*
X121912155Y-92399000D01*
X121852627Y-92405401D01*
X121852620Y-92405403D01*
X121717913Y-92455645D01*
X121717906Y-92455649D01*
X121602812Y-92541809D01*
X121602809Y-92541812D01*
X121516649Y-92656906D01*
X121516646Y-92656912D01*
X121467577Y-92788471D01*
X121425705Y-92844404D01*
X121360241Y-92868821D01*
X121291968Y-92853969D01*
X121263714Y-92832818D01*
X121149786Y-92718890D01*
X120977815Y-92593948D01*
X120977814Y-92593947D01*
X120938205Y-92573765D01*
X120887409Y-92525791D01*
X120870500Y-92463281D01*
X120870500Y-90300096D01*
X120890185Y-90233057D01*
X120906814Y-90212420D01*
X127408713Y-83710521D01*
X127408716Y-83710520D01*
X127520520Y-83598716D01*
X127570639Y-83511904D01*
X127599577Y-83461785D01*
X127640501Y-83309057D01*
X127640501Y-83150943D01*
X127640501Y-83143348D01*
X127640500Y-83143330D01*
X127640500Y-70685450D01*
X127660185Y-70618411D01*
X127712989Y-70572656D01*
X127782147Y-70562712D01*
X127845703Y-70591737D01*
X127879061Y-70637997D01*
X127972894Y-70864531D01*
X127972899Y-70864542D01*
X128100734Y-71085957D01*
X128100745Y-71085973D01*
X128256388Y-71288811D01*
X128256394Y-71288818D01*
X128437181Y-71469605D01*
X128437187Y-71469610D01*
X128640035Y-71625261D01*
X128640042Y-71625265D01*
X128861457Y-71753100D01*
X128861462Y-71753102D01*
X128861465Y-71753104D01*
X129097687Y-71850950D01*
X129344660Y-71917126D01*
X129598157Y-71950500D01*
X129598164Y-71950500D01*
X130753836Y-71950500D01*
X130753843Y-71950500D01*
X131007340Y-71917126D01*
X131254313Y-71850950D01*
X131490535Y-71753104D01*
X131711965Y-71625261D01*
X131914813Y-71469610D01*
X132095610Y-71288813D01*
X132251261Y-71085965D01*
X132379104Y-70864535D01*
X132476950Y-70628313D01*
X132543126Y-70381340D01*
X132576500Y-70127843D01*
X132576500Y-69872157D01*
X132543126Y-69618660D01*
X132476950Y-69371687D01*
X132379104Y-69135465D01*
X132379102Y-69135462D01*
X132379100Y-69135457D01*
X132251265Y-68914042D01*
X132251261Y-68914035D01*
X132101882Y-68719361D01*
X132095611Y-68711188D01*
X132095605Y-68711181D01*
X131914818Y-68530394D01*
X131914811Y-68530388D01*
X131711973Y-68374745D01*
X131711971Y-68374743D01*
X131711965Y-68374739D01*
X131711960Y-68374736D01*
X131711957Y-68374734D01*
X131490542Y-68246899D01*
X131490531Y-68246894D01*
X131254322Y-68149053D01*
X131254315Y-68149051D01*
X131254313Y-68149050D01*
X131007340Y-68082874D01*
X130951007Y-68075457D01*
X130753850Y-68049500D01*
X130753843Y-68049500D01*
X129598157Y-68049500D01*
X129598149Y-68049500D01*
X129372826Y-68079165D01*
X129344660Y-68082874D01*
X129148753Y-68135367D01*
X129097687Y-68149050D01*
X129097677Y-68149053D01*
X128861468Y-68246894D01*
X128861457Y-68246899D01*
X128640042Y-68374734D01*
X128640026Y-68374745D01*
X128437188Y-68530388D01*
X128437181Y-68530394D01*
X128256394Y-68711181D01*
X128256388Y-68711188D01*
X128100745Y-68914026D01*
X128100734Y-68914042D01*
X127972899Y-69135457D01*
X127972894Y-69135468D01*
X127879061Y-69362002D01*
X127835220Y-69416405D01*
X127768926Y-69438470D01*
X127701227Y-69421191D01*
X127653616Y-69370054D01*
X127640500Y-69314549D01*
X127640500Y-64374499D01*
X127660185Y-64307460D01*
X127712989Y-64261705D01*
X127764500Y-64250499D01*
X127837871Y-64250499D01*
X127837872Y-64250499D01*
X127897483Y-64244091D01*
X128032331Y-64193796D01*
X128147546Y-64107546D01*
X128233796Y-63992331D01*
X128284091Y-63857483D01*
X128290500Y-63797873D01*
X128290499Y-62202128D01*
X128284091Y-62142517D01*
X128260694Y-62079787D01*
X128233797Y-62007671D01*
X128233793Y-62007664D01*
X128147547Y-61892455D01*
X128147544Y-61892452D01*
X128032335Y-61806206D01*
X128032328Y-61806202D01*
X127897482Y-61755908D01*
X127897483Y-61755908D01*
X127837883Y-61749501D01*
X127837881Y-61749500D01*
X127837873Y-61749500D01*
X127837864Y-61749500D01*
X126242129Y-61749500D01*
X126242123Y-61749501D01*
X126182516Y-61755908D01*
X126047671Y-61806202D01*
X126047664Y-61806206D01*
X125932455Y-61892452D01*
X125932452Y-61892455D01*
X125846206Y-62007664D01*
X125846202Y-62007671D01*
X125795908Y-62142517D01*
X125791303Y-62185354D01*
X125789501Y-62202123D01*
X125789500Y-62202135D01*
X125789500Y-62265732D01*
X125769815Y-62332771D01*
X125717011Y-62378526D01*
X125647853Y-62388470D01*
X125584297Y-62359445D01*
X125565182Y-62338618D01*
X125487292Y-62231413D01*
X125453828Y-62185354D01*
X125314646Y-62046172D01*
X125155405Y-61930476D01*
X124980029Y-61841117D01*
X124792826Y-61780290D01*
X124598422Y-61749500D01*
X124598417Y-61749500D01*
X124401583Y-61749500D01*
X124401578Y-61749500D01*
X124207173Y-61780290D01*
X124019970Y-61841117D01*
X123844594Y-61930476D01*
X123753741Y-61996485D01*
X123685354Y-62046172D01*
X123685352Y-62046174D01*
X123685351Y-62046174D01*
X123546174Y-62185351D01*
X123546174Y-62185352D01*
X123546172Y-62185354D01*
X123512708Y-62231413D01*
X123430476Y-62344594D01*
X123340485Y-62521213D01*
X123292511Y-62572009D01*
X123224690Y-62588804D01*
X123158555Y-62566267D01*
X123119515Y-62521213D01*
X123051879Y-62388470D01*
X123029524Y-62344595D01*
X122913828Y-62185354D01*
X122774646Y-62046172D01*
X122615405Y-61930476D01*
X122440029Y-61841117D01*
X122252826Y-61780290D01*
X122058422Y-61749500D01*
X122058417Y-61749500D01*
X121861583Y-61749500D01*
X121861578Y-61749500D01*
X121667173Y-61780290D01*
X121479970Y-61841117D01*
X121304594Y-61930476D01*
X121213741Y-61996485D01*
X121145354Y-62046172D01*
X121145352Y-62046174D01*
X121145351Y-62046174D01*
X121006174Y-62185351D01*
X121006174Y-62185352D01*
X121006172Y-62185354D01*
X120972708Y-62231413D01*
X120890476Y-62344594D01*
X120800204Y-62521764D01*
X120752229Y-62572560D01*
X120684408Y-62589355D01*
X120618274Y-62566818D01*
X120579234Y-62521764D01*
X120489096Y-62344858D01*
X120463678Y-62309873D01*
X120463677Y-62309873D01*
X119820000Y-62953551D01*
X119820000Y-62947339D01*
X119792741Y-62845606D01*
X119740080Y-62754394D01*
X119665606Y-62679920D01*
X119574394Y-62627259D01*
X119472661Y-62600000D01*
X119466447Y-62600000D01*
X120110125Y-61956320D01*
X120110125Y-61956319D01*
X120075145Y-61930905D01*
X119899835Y-61841581D01*
X119712705Y-61780778D01*
X119518382Y-61750000D01*
X119321618Y-61750000D01*
X119127294Y-61780778D01*
X118940161Y-61841582D01*
X118764863Y-61930899D01*
X118764859Y-61930902D01*
X118729873Y-61956320D01*
X118729872Y-61956320D01*
X119373554Y-62600000D01*
X119367339Y-62600000D01*
X119265606Y-62627259D01*
X119174394Y-62679920D01*
X119099920Y-62754394D01*
X119047259Y-62845606D01*
X119020000Y-62947339D01*
X119020000Y-62953552D01*
X118376320Y-62309872D01*
X118376320Y-62309873D01*
X118350902Y-62344859D01*
X118350899Y-62344863D01*
X118261582Y-62520161D01*
X118200778Y-62707294D01*
X118170000Y-62901617D01*
X118170000Y-63098382D01*
X118200778Y-63292705D01*
X118261581Y-63479835D01*
X118350905Y-63655145D01*
X118376319Y-63690125D01*
X118376320Y-63690125D01*
X119020000Y-63046445D01*
X119020000Y-63052661D01*
X119047259Y-63154394D01*
X119099920Y-63245606D01*
X119174394Y-63320080D01*
X119265606Y-63372741D01*
X119367339Y-63400000D01*
X119373553Y-63400000D01*
X118729873Y-64043677D01*
X118729873Y-64043678D01*
X118764858Y-64069096D01*
X118940164Y-64158418D01*
X119127294Y-64219221D01*
X119321618Y-64250000D01*
X119518382Y-64250000D01*
X119712705Y-64219221D01*
X119899835Y-64158418D01*
X120075143Y-64069095D01*
X120110125Y-64043678D01*
X120110126Y-64043678D01*
X119466448Y-63400000D01*
X119472661Y-63400000D01*
X119574394Y-63372741D01*
X119665606Y-63320080D01*
X119740080Y-63245606D01*
X119792741Y-63154394D01*
X119820000Y-63052661D01*
X119820000Y-63046448D01*
X120463678Y-63690126D01*
X120463678Y-63690125D01*
X120489097Y-63655141D01*
X120579234Y-63478236D01*
X120627208Y-63427439D01*
X120695029Y-63410644D01*
X120761164Y-63433181D01*
X120800204Y-63478235D01*
X120801115Y-63480024D01*
X120801116Y-63480025D01*
X120890476Y-63655405D01*
X121006172Y-63814646D01*
X121145354Y-63953828D01*
X121304595Y-64069524D01*
X121379214Y-64107544D01*
X121479970Y-64158882D01*
X121479972Y-64158882D01*
X121479975Y-64158884D01*
X121580317Y-64191487D01*
X121667173Y-64219709D01*
X121861578Y-64250500D01*
X121861583Y-64250500D01*
X122058422Y-64250500D01*
X122252826Y-64219709D01*
X122332574Y-64193797D01*
X122440025Y-64158884D01*
X122615405Y-64069524D01*
X122774646Y-63953828D01*
X122913828Y-63814646D01*
X123029524Y-63655405D01*
X123118884Y-63480025D01*
X123119515Y-63478787D01*
X123167489Y-63427990D01*
X123235310Y-63411195D01*
X123301445Y-63433732D01*
X123340485Y-63478787D01*
X123430474Y-63655403D01*
X123434817Y-63661380D01*
X123546172Y-63814646D01*
X123685354Y-63953828D01*
X123844595Y-64069524D01*
X123919214Y-64107544D01*
X124019970Y-64158882D01*
X124019972Y-64158882D01*
X124019975Y-64158884D01*
X124120317Y-64191487D01*
X124207173Y-64219709D01*
X124401578Y-64250500D01*
X124401583Y-64250500D01*
X124598422Y-64250500D01*
X124792826Y-64219709D01*
X124872574Y-64193797D01*
X124980025Y-64158884D01*
X125155405Y-64069524D01*
X125314646Y-63953828D01*
X125453828Y-63814646D01*
X125565184Y-63661378D01*
X125620512Y-63618714D01*
X125690125Y-63612735D01*
X125751920Y-63645341D01*
X125786277Y-63706179D01*
X125789500Y-63734263D01*
X125789500Y-63797869D01*
X125789501Y-63797876D01*
X125795908Y-63857483D01*
X125846202Y-63992328D01*
X125846206Y-63992335D01*
X125932452Y-64107544D01*
X125932455Y-64107547D01*
X126047664Y-64193793D01*
X126047671Y-64193797D01*
X126092618Y-64210561D01*
X126182517Y-64244091D01*
X126242127Y-64250500D01*
X126315500Y-64250499D01*
X126382538Y-64270183D01*
X126428294Y-64322986D01*
X126439500Y-64374499D01*
X126439500Y-82929902D01*
X126419815Y-82996941D01*
X126403181Y-83017583D01*
X119789482Y-89631281D01*
X119789478Y-89631287D01*
X119743292Y-89711284D01*
X119710424Y-89768212D01*
X119710423Y-89768213D01*
X119689961Y-89844579D01*
X119669499Y-89920943D01*
X119669499Y-89920945D01*
X119669499Y-90089046D01*
X119669500Y-90089059D01*
X119669500Y-92463281D01*
X119649815Y-92530320D01*
X119601795Y-92573765D01*
X119562185Y-92593947D01*
X119562184Y-92593948D01*
X119390213Y-92718890D01*
X119239890Y-92869213D01*
X119114949Y-93041182D01*
X119110484Y-93049946D01*
X119062509Y-93100742D01*
X118994688Y-93117536D01*
X118928553Y-93094998D01*
X118889516Y-93049946D01*
X118885050Y-93041182D01*
X118760109Y-92869213D01*
X118609786Y-92718890D01*
X118437820Y-92593951D01*
X118248414Y-92497444D01*
X118248413Y-92497443D01*
X118248412Y-92497443D01*
X118046243Y-92431754D01*
X118046241Y-92431753D01*
X118046240Y-92431753D01*
X117884957Y-92406208D01*
X117836287Y-92398500D01*
X117623713Y-92398500D01*
X117575042Y-92406208D01*
X117413760Y-92431753D01*
X117211585Y-92497444D01*
X117022179Y-92593951D01*
X116850213Y-92718890D01*
X116699890Y-92869213D01*
X116574949Y-93041182D01*
X116570484Y-93049946D01*
X116522509Y-93100742D01*
X116454688Y-93117536D01*
X116388553Y-93094998D01*
X116349516Y-93049946D01*
X116345050Y-93041182D01*
X116220109Y-92869213D01*
X116069786Y-92718890D01*
X115897820Y-92593951D01*
X115708414Y-92497444D01*
X115708413Y-92497443D01*
X115708412Y-92497443D01*
X115506243Y-92431754D01*
X115506241Y-92431753D01*
X115506240Y-92431753D01*
X115344957Y-92406208D01*
X115296287Y-92398500D01*
X115083713Y-92398500D01*
X115035042Y-92406208D01*
X114873760Y-92431753D01*
X114671585Y-92497444D01*
X114482179Y-92593951D01*
X114310213Y-92718890D01*
X114159890Y-92869213D01*
X114034951Y-93041179D01*
X113938444Y-93230585D01*
X113872753Y-93432760D01*
X113853233Y-93556007D01*
X113839500Y-93642713D01*
X110151638Y-93642713D01*
X110191126Y-93495340D01*
X110224500Y-93241843D01*
X110224500Y-92986157D01*
X110191126Y-92732660D01*
X110124950Y-92485687D01*
X110124947Y-92485679D01*
X110124946Y-92485676D01*
X110027105Y-92249468D01*
X110027100Y-92249457D01*
X109899265Y-92028042D01*
X109899261Y-92028035D01*
X109810365Y-91912184D01*
X109743611Y-91825188D01*
X109743605Y-91825181D01*
X109562818Y-91644394D01*
X109562811Y-91644388D01*
X109359973Y-91488745D01*
X109359971Y-91488743D01*
X109359965Y-91488739D01*
X109359960Y-91488736D01*
X109359957Y-91488734D01*
X109138542Y-91360899D01*
X109138531Y-91360894D01*
X108902322Y-91263053D01*
X108902315Y-91263051D01*
X108902313Y-91263050D01*
X108655340Y-91196874D01*
X108599007Y-91189457D01*
X108401850Y-91163500D01*
X108401843Y-91163500D01*
X107246157Y-91163500D01*
X107246149Y-91163500D01*
X107020826Y-91193165D01*
X106992660Y-91196874D01*
X106850181Y-91235051D01*
X106745687Y-91263050D01*
X106745677Y-91263053D01*
X106509468Y-91360894D01*
X106509457Y-91360899D01*
X106288042Y-91488734D01*
X106288026Y-91488745D01*
X106085188Y-91644388D01*
X106085181Y-91644394D01*
X105904394Y-91825181D01*
X105904388Y-91825188D01*
X105748745Y-92028026D01*
X105748734Y-92028042D01*
X105620899Y-92249457D01*
X105620894Y-92249468D01*
X105523054Y-92485676D01*
X105523050Y-92485687D01*
X105500392Y-92570250D01*
X105456874Y-92732661D01*
X105423500Y-92986149D01*
X79818668Y-92986149D01*
X79469795Y-69872149D01*
X105423500Y-69872149D01*
X105423500Y-70127850D01*
X105449457Y-70325007D01*
X105456874Y-70381340D01*
X105508137Y-70572656D01*
X105523050Y-70628312D01*
X105523053Y-70628322D01*
X105620894Y-70864531D01*
X105620899Y-70864542D01*
X105748734Y-71085957D01*
X105748745Y-71085973D01*
X105904388Y-71288811D01*
X105904394Y-71288818D01*
X106085181Y-71469605D01*
X106085187Y-71469610D01*
X106288035Y-71625261D01*
X106288042Y-71625265D01*
X106509457Y-71753100D01*
X106509462Y-71753102D01*
X106509465Y-71753104D01*
X106745687Y-71850950D01*
X106992660Y-71917126D01*
X107246157Y-71950500D01*
X107246164Y-71950500D01*
X108401836Y-71950500D01*
X108401843Y-71950500D01*
X108655340Y-71917126D01*
X108902313Y-71850950D01*
X109138535Y-71753104D01*
X109359965Y-71625261D01*
X109562813Y-71469610D01*
X109743610Y-71288813D01*
X109899261Y-71085965D01*
X110027104Y-70864535D01*
X110124950Y-70628313D01*
X110191126Y-70381340D01*
X110224500Y-70127843D01*
X110224500Y-69872157D01*
X110191126Y-69618660D01*
X110124950Y-69371687D01*
X110027104Y-69135465D01*
X110027102Y-69135462D01*
X110027100Y-69135457D01*
X109899265Y-68914042D01*
X109899261Y-68914035D01*
X109749882Y-68719361D01*
X109743611Y-68711188D01*
X109743605Y-68711181D01*
X109562818Y-68530394D01*
X109562811Y-68530388D01*
X109359973Y-68374745D01*
X109359971Y-68374743D01*
X109359965Y-68374739D01*
X109359960Y-68374736D01*
X109359957Y-68374734D01*
X109138542Y-68246899D01*
X109138531Y-68246894D01*
X108902322Y-68149053D01*
X108902315Y-68149051D01*
X108902313Y-68149050D01*
X108655340Y-68082874D01*
X108599007Y-68075457D01*
X108401850Y-68049500D01*
X108401843Y-68049500D01*
X107246157Y-68049500D01*
X107246149Y-68049500D01*
X107020826Y-68079165D01*
X106992660Y-68082874D01*
X106796753Y-68135367D01*
X106745687Y-68149050D01*
X106745677Y-68149053D01*
X106509468Y-68246894D01*
X106509457Y-68246899D01*
X106288042Y-68374734D01*
X106288026Y-68374745D01*
X106085188Y-68530388D01*
X106085181Y-68530394D01*
X105904394Y-68711181D01*
X105904388Y-68711188D01*
X105748745Y-68914026D01*
X105748734Y-68914042D01*
X105620899Y-69135457D01*
X105620894Y-69135468D01*
X105523053Y-69371677D01*
X105523050Y-69371687D01*
X105509786Y-69421191D01*
X105456874Y-69618661D01*
X105423500Y-69872149D01*
X79469795Y-69872149D01*
X79391722Y-64699515D01*
X79381138Y-63998290D01*
X79364540Y-62898622D01*
X79351059Y-62005450D01*
X79289176Y-57905513D01*
X119989500Y-57905513D01*
X119989500Y-58094486D01*
X120019059Y-58281118D01*
X120077454Y-58460836D01*
X120163240Y-58629199D01*
X120274310Y-58782073D01*
X120407927Y-58915690D01*
X120560801Y-59026760D01*
X120640347Y-59067290D01*
X120729163Y-59112545D01*
X120729165Y-59112545D01*
X120729168Y-59112547D01*
X120825497Y-59143846D01*
X120908881Y-59170940D01*
X121095514Y-59200500D01*
X121095519Y-59200500D01*
X121284486Y-59200500D01*
X121471118Y-59170940D01*
X121650832Y-59112547D01*
X121819199Y-59026760D01*
X121972073Y-58915690D01*
X122105690Y-58782073D01*
X122216760Y-58629199D01*
X122302547Y-58460832D01*
X122360940Y-58281118D01*
X122379432Y-58164364D01*
X122390500Y-58094486D01*
X122390500Y-57905513D01*
X127609500Y-57905513D01*
X127609500Y-58094486D01*
X127639059Y-58281118D01*
X127697454Y-58460836D01*
X127783240Y-58629199D01*
X127894310Y-58782073D01*
X128027927Y-58915690D01*
X128180801Y-59026760D01*
X128260347Y-59067290D01*
X128349163Y-59112545D01*
X128349165Y-59112545D01*
X128349168Y-59112547D01*
X128445497Y-59143846D01*
X128528881Y-59170940D01*
X128715514Y-59200500D01*
X128715519Y-59200500D01*
X128904486Y-59200500D01*
X129091118Y-59170940D01*
X129270832Y-59112547D01*
X129439199Y-59026760D01*
X129592073Y-58915690D01*
X129725690Y-58782073D01*
X129836760Y-58629199D01*
X129922547Y-58460832D01*
X129980940Y-58281118D01*
X129999432Y-58164364D01*
X130010500Y-58094486D01*
X130010500Y-57905513D01*
X129980940Y-57718881D01*
X129922545Y-57539163D01*
X129877290Y-57450347D01*
X129836760Y-57370801D01*
X129725690Y-57217927D01*
X129592073Y-57084310D01*
X129439199Y-56973240D01*
X129437291Y-56972268D01*
X129270836Y-56887454D01*
X129091118Y-56829059D01*
X128904486Y-56799500D01*
X128904481Y-56799500D01*
X128715519Y-56799500D01*
X128715514Y-56799500D01*
X128528881Y-56829059D01*
X128349163Y-56887454D01*
X128180800Y-56973240D01*
X128144262Y-56999787D01*
X128027927Y-57084310D01*
X128027925Y-57084312D01*
X128027924Y-57084312D01*
X127894312Y-57217924D01*
X127894312Y-57217925D01*
X127894310Y-57217927D01*
X127846610Y-57283579D01*
X127783240Y-57370800D01*
X127697454Y-57539163D01*
X127639059Y-57718881D01*
X127609500Y-57905513D01*
X122390500Y-57905513D01*
X122360940Y-57718881D01*
X122302545Y-57539163D01*
X122257290Y-57450347D01*
X122216760Y-57370801D01*
X122105690Y-57217927D01*
X121972073Y-57084310D01*
X121819199Y-56973240D01*
X121817291Y-56972268D01*
X121650836Y-56887454D01*
X121471118Y-56829059D01*
X121284486Y-56799500D01*
X121284481Y-56799500D01*
X121095519Y-56799500D01*
X121095514Y-56799500D01*
X120908881Y-56829059D01*
X120729163Y-56887454D01*
X120560800Y-56973240D01*
X120524262Y-56999787D01*
X120407927Y-57084310D01*
X120407925Y-57084312D01*
X120407924Y-57084312D01*
X120274312Y-57217924D01*
X120274312Y-57217925D01*
X120274310Y-57217927D01*
X120226610Y-57283579D01*
X120163240Y-57370800D01*
X120077454Y-57539163D01*
X120019059Y-57718881D01*
X119989500Y-57905513D01*
X79289176Y-57905513D01*
X79289131Y-57902518D01*
X79219370Y-53280639D01*
X146117500Y-53280639D01*
X146117500Y-53479360D01*
X146148587Y-53675637D01*
X146209993Y-53864629D01*
X146209994Y-53864632D01*
X146300213Y-54041694D01*
X146417019Y-54202464D01*
X146557536Y-54342981D01*
X146718306Y-54459787D01*
X146835450Y-54519475D01*
X146874780Y-54539515D01*
X146925576Y-54587490D01*
X146942371Y-54655311D01*
X146919833Y-54721446D01*
X146874780Y-54760485D01*
X146718305Y-54840213D01*
X146557533Y-54957021D01*
X146417021Y-55097533D01*
X146300213Y-55258305D01*
X146209994Y-55435367D01*
X146209993Y-55435370D01*
X146148587Y-55624362D01*
X146117500Y-55820639D01*
X146117500Y-56019360D01*
X146148587Y-56215637D01*
X146209993Y-56404629D01*
X146209994Y-56404632D01*
X146300076Y-56581425D01*
X146300213Y-56581694D01*
X146417019Y-56742464D01*
X146557536Y-56882981D01*
X146718306Y-56999787D01*
X146836832Y-57060179D01*
X146874780Y-57079515D01*
X146925576Y-57127490D01*
X146942371Y-57195311D01*
X146919833Y-57261446D01*
X146874780Y-57300485D01*
X146718305Y-57380213D01*
X146557533Y-57497021D01*
X146417021Y-57637533D01*
X146300213Y-57798305D01*
X146209994Y-57975367D01*
X146209993Y-57975370D01*
X146148587Y-58164362D01*
X146117500Y-58360639D01*
X146117500Y-58559360D01*
X146148587Y-58755637D01*
X146209993Y-58944629D01*
X146209994Y-58944632D01*
X146251841Y-59026760D01*
X146300213Y-59121694D01*
X146417019Y-59282464D01*
X146557536Y-59422981D01*
X146718306Y-59539787D01*
X146836832Y-59600179D01*
X146874780Y-59619515D01*
X146925576Y-59667490D01*
X146942371Y-59735311D01*
X146919833Y-59801446D01*
X146874780Y-59840485D01*
X146718305Y-59920213D01*
X146557533Y-60037021D01*
X146417021Y-60177533D01*
X146300213Y-60338305D01*
X146209994Y-60515367D01*
X146209993Y-60515370D01*
X146148587Y-60704362D01*
X146117500Y-60900639D01*
X146117500Y-61099360D01*
X146148587Y-61295637D01*
X146209993Y-61484629D01*
X146209994Y-61484632D01*
X146300213Y-61661694D01*
X146417019Y-61822464D01*
X146557536Y-61962981D01*
X146718306Y-62079787D01*
X146836832Y-62140179D01*
X146874780Y-62159515D01*
X146925576Y-62207490D01*
X146942371Y-62275311D01*
X146919833Y-62341446D01*
X146874780Y-62380485D01*
X146718305Y-62460213D01*
X146557533Y-62577021D01*
X146417021Y-62717533D01*
X146300213Y-62878305D01*
X146209994Y-63055367D01*
X146209993Y-63055370D01*
X146148587Y-63244362D01*
X146140911Y-63292826D01*
X146117500Y-63440639D01*
X146117500Y-63639361D01*
X146125540Y-63690125D01*
X146148587Y-63835637D01*
X146209993Y-64024629D01*
X146209994Y-64024632D01*
X146278399Y-64158882D01*
X146300213Y-64201694D01*
X146417019Y-64362464D01*
X146557536Y-64502981D01*
X146718306Y-64619787D01*
X146836832Y-64680179D01*
X146874780Y-64699515D01*
X146925576Y-64747490D01*
X146942371Y-64815311D01*
X146919833Y-64881446D01*
X146874780Y-64920485D01*
X146718305Y-65000213D01*
X146557533Y-65117021D01*
X146417021Y-65257533D01*
X146300213Y-65418305D01*
X146209994Y-65595367D01*
X146209993Y-65595370D01*
X146148587Y-65784362D01*
X146117500Y-65980639D01*
X146117500Y-66179360D01*
X146148587Y-66375637D01*
X146209993Y-66564629D01*
X146209994Y-66564632D01*
X146300213Y-66741694D01*
X146417019Y-66902464D01*
X146557536Y-67042981D01*
X146718306Y-67159787D01*
X146758895Y-67180468D01*
X146874780Y-67239515D01*
X146925576Y-67287490D01*
X146942371Y-67355311D01*
X146919833Y-67421446D01*
X146874780Y-67460485D01*
X146718305Y-67540213D01*
X146557533Y-67657021D01*
X146417021Y-67797533D01*
X146300213Y-67958305D01*
X146209994Y-68135367D01*
X146209993Y-68135370D01*
X146148587Y-68324362D01*
X146117500Y-68520639D01*
X146117500Y-68719360D01*
X146148587Y-68915637D01*
X146209993Y-69104629D01*
X146209994Y-69104632D01*
X146300213Y-69281694D01*
X146417019Y-69442464D01*
X146557536Y-69582981D01*
X146718306Y-69699787D01*
X146805149Y-69744035D01*
X146895367Y-69790005D01*
X146895370Y-69790006D01*
X146989866Y-69820709D01*
X147084364Y-69851413D01*
X147280639Y-69882500D01*
X147280640Y-69882500D01*
X147479360Y-69882500D01*
X147479361Y-69882500D01*
X147675636Y-69851413D01*
X147864632Y-69790005D01*
X148041694Y-69699787D01*
X148202464Y-69582981D01*
X148342981Y-69442464D01*
X148459787Y-69281694D01*
X148550005Y-69104632D01*
X148611413Y-68915636D01*
X148642500Y-68719361D01*
X148642500Y-68520639D01*
X148611413Y-68324364D01*
X148580709Y-68229866D01*
X148550006Y-68135370D01*
X148550005Y-68135367D01*
X148459786Y-67958305D01*
X148342981Y-67797536D01*
X148202464Y-67657019D01*
X148041694Y-67540213D01*
X147885218Y-67460484D01*
X147834423Y-67412510D01*
X147817628Y-67344689D01*
X147840165Y-67278554D01*
X147885218Y-67239515D01*
X148041694Y-67159787D01*
X148202464Y-67042981D01*
X148342981Y-66902464D01*
X148459787Y-66741694D01*
X148550005Y-66564632D01*
X148611413Y-66375636D01*
X148642500Y-66179361D01*
X148642500Y-65980639D01*
X148611413Y-65784364D01*
X148550005Y-65595368D01*
X148550005Y-65595367D01*
X148459786Y-65418305D01*
X148342981Y-65257536D01*
X148202464Y-65117019D01*
X148041694Y-65000213D01*
X147885218Y-64920484D01*
X147834423Y-64872510D01*
X147817628Y-64804689D01*
X147840165Y-64738554D01*
X147885218Y-64699515D01*
X148041694Y-64619787D01*
X148202464Y-64502981D01*
X148342981Y-64362464D01*
X148459787Y-64201694D01*
X148550005Y-64024632D01*
X148611413Y-63835636D01*
X148642500Y-63639361D01*
X148642500Y-63440639D01*
X148611413Y-63244364D01*
X148580709Y-63149866D01*
X148550006Y-63055370D01*
X148550005Y-63055367D01*
X148494961Y-62947339D01*
X148459787Y-62878306D01*
X148342981Y-62717536D01*
X148202464Y-62577019D01*
X148041694Y-62460213D01*
X147885218Y-62380484D01*
X147834423Y-62332510D01*
X147817628Y-62264689D01*
X147840165Y-62198554D01*
X147885218Y-62159515D01*
X148041694Y-62079787D01*
X148202464Y-61962981D01*
X148342981Y-61822464D01*
X148459787Y-61661694D01*
X148550005Y-61484632D01*
X148611413Y-61295636D01*
X148642500Y-61099361D01*
X148642500Y-60900639D01*
X148611413Y-60704364D01*
X148550005Y-60515368D01*
X148550005Y-60515367D01*
X148459786Y-60338305D01*
X148342981Y-60177536D01*
X148202464Y-60037019D01*
X148041694Y-59920213D01*
X147885218Y-59840484D01*
X147834423Y-59792510D01*
X147817628Y-59724689D01*
X147840165Y-59658554D01*
X147885218Y-59619515D01*
X148041694Y-59539787D01*
X148202464Y-59422981D01*
X148342981Y-59282464D01*
X148459787Y-59121694D01*
X148550005Y-58944632D01*
X148611413Y-58755636D01*
X148642500Y-58559361D01*
X148642500Y-58360639D01*
X148611413Y-58164364D01*
X148550005Y-57975368D01*
X148550005Y-57975367D01*
X148459786Y-57798305D01*
X148402081Y-57718881D01*
X148342981Y-57637536D01*
X148202464Y-57497019D01*
X148041694Y-57380213D01*
X147885218Y-57300484D01*
X147834423Y-57252510D01*
X147817628Y-57184689D01*
X147840165Y-57118554D01*
X147885218Y-57079515D01*
X148041694Y-56999787D01*
X148202464Y-56882981D01*
X148342981Y-56742464D01*
X148459787Y-56581694D01*
X148550005Y-56404632D01*
X148611413Y-56215636D01*
X148642500Y-56019361D01*
X148642500Y-55820639D01*
X148611413Y-55624364D01*
X148550005Y-55435368D01*
X148550005Y-55435367D01*
X148504035Y-55345149D01*
X148459787Y-55258306D01*
X148342981Y-55097536D01*
X148202464Y-54957019D01*
X148041694Y-54840213D01*
X147885218Y-54760484D01*
X147834423Y-54712510D01*
X147817628Y-54644689D01*
X147840165Y-54578554D01*
X147885218Y-54539515D01*
X148041694Y-54459787D01*
X148202464Y-54342981D01*
X148342981Y-54202464D01*
X148459787Y-54041694D01*
X148550005Y-53864632D01*
X148611413Y-53675636D01*
X148642500Y-53479361D01*
X148642500Y-53280639D01*
X148611413Y-53084364D01*
X148550005Y-52895368D01*
X148550005Y-52895367D01*
X148459786Y-52718305D01*
X148342981Y-52557536D01*
X148202464Y-52417019D01*
X148041694Y-52300213D01*
X147864632Y-52209994D01*
X147864629Y-52209993D01*
X147675637Y-52148587D01*
X147577498Y-52133043D01*
X147479361Y-52117500D01*
X147280639Y-52117500D01*
X147215214Y-52127862D01*
X147084362Y-52148587D01*
X146895370Y-52209993D01*
X146895367Y-52209994D01*
X146718305Y-52300213D01*
X146557533Y-52417021D01*
X146417021Y-52557533D01*
X146300213Y-52718305D01*
X146209994Y-52895367D01*
X146209993Y-52895370D01*
X146148587Y-53084362D01*
X146117500Y-53280639D01*
X79219370Y-53280639D01*
X79219325Y-53277638D01*
X79203210Y-52209993D01*
X79195829Y-51720973D01*
X79214500Y-51653647D01*
X79266607Y-51607100D01*
X79317941Y-51595118D01*
X163878404Y-50318800D01*
X163879839Y-50318787D01*
X184875773Y-50280203D01*
X184942848Y-50299765D01*
G37*
%TD.AperFunction*%
%TD*%
M02*
