M48
; DRILL file KiCad 10.0.3 date 2026-10-07T15:39:36
; FORMAT={-:-/ absolute / metric / decimal}
; #@! TF.CreationDate,2026-10-07T15:39:36-04:00
; #@! TF.GenerationSoftware,Kicad,Pcbnew,10.0.3
; #@! TF.FileFunction,Plated,1,2,PTH
FMAT,2
METRIC
; #@! TA.AperFunction,Plated,PTH,ComponentDrill
T1C0.700
; #@! TA.AperFunction,Plated,PTH,ComponentDrill
T2C0.800
; #@! TA.AperFunction,Plated,PTH,ComponentDrill
T3C0.889
; #@! TA.AperFunction,Plated,PTH,ComponentDrill
T4C1.000
; #@! TA.AperFunction,Plated,PTH,ComponentDrill
T5C1.500
%
G90
G05
T1
X121.19Y-58.0
X128.81Y-58.0
X170.975Y-99.625
X178.595Y-99.625
T2
X119.42Y-63.0
X121.96Y-63.0
X124.5Y-63.0
X127.04Y-63.0
T3
X147.38Y-53.38
X147.38Y-55.92
X147.38Y-58.46
X147.38Y-61.0
X147.38Y-63.54
X147.38Y-66.08
X147.38Y-68.62
X162.62Y-53.38
X162.62Y-55.92
X162.62Y-58.46
X162.62Y-61.0
X162.62Y-63.54
X162.62Y-66.08
X162.62Y-68.62
T4
X115.19Y-93.749
X117.73Y-93.749
X120.27Y-93.749
X122.81Y-93.749
X145.0Y-82.46
X145.0Y-85.0
X145.0Y-87.54
X145.0Y-90.08
X145.0Y-92.62
X145.0Y-95.16
X145.0Y-97.7
X145.0Y-100.24
X175.0Y-75.0
X182.6Y-75.0
T5
X106.11Y-117.46
X112.46Y-114.92
X128.65Y-117.46
X135.0Y-114.92
M30
